<svg width="57" height="27" viewBox="0 0 57 27" fill="none" xmlns="http://www.w3.org/2000/svg">
<g clip-path="url(#clip0_351_11755)">
<path d="M13.5624 3.59365L12.2686 4.77002L16.4763 9.39815L17.7702 8.22178L13.5624 3.59365Z" fill="white"/>
<path d="M19.7751 7.66699H9.55176V9.41572H19.7751V7.66699Z" fill="white"/>
<path d="M9.86471 6.34473L8.41309 7.31982L9.91323 9.55309L11.3648 8.57799L9.86471 6.34473Z" fill="white"/>
<path d="M16.4907 7.77541L12.2842 12.4048L13.5784 13.5808L17.7849 8.95143L16.4907 7.77541Z" fill="white"/>
<path d="M9.92229 7.62785L8.42188 9.86084L9.87332 10.8361L11.3737 8.60311L9.92229 7.62785Z" fill="white"/>
<path d="M50.8466 5.24658H44.9951V6.99531H50.8466V5.24658Z" fill="white"/>
<path d="M50.8466 10.2236H44.9951V11.9724H50.8466V10.2236Z" fill="white"/>
<path d="M50.8466 15.2676H44.9951V17.0163H50.8466V15.2676Z" fill="white"/>
<path d="M50.8466 20.2446H44.9951V21.9934H50.8466V20.2446Z" fill="white"/>
<path d="M34.9742 7.66699H23.6074V9.41572H34.9742V7.66699Z" fill="white"/>
<path d="M34.9068 12.7798H19.3027V14.5285H34.9068V12.7798Z" fill="white"/>
<path d="M34.9087 17.8232H8.67773V19.572H34.9087V17.8232Z" fill="white"/>
<path d="M53.2013 26.9703H42.5071C40.8256 26.9703 39.4805 25.6251 39.4805 23.9437V23.0693H41.2292V23.9437C41.2292 24.6162 41.7673 25.2216 42.5071 25.2216H53.2013C53.8739 25.2216 54.4792 24.6835 54.4792 23.9437V3.02616C54.4792 2.35357 53.9411 1.74824 53.2013 1.74824H42.5071C41.8345 1.74824 41.2292 2.28631 41.2292 3.02616V3.90052H39.4805V3.02616C39.4805 1.34469 40.8256 -0.000488281 42.5071 -0.000488281H53.2013C54.8827 -0.000488281 56.2279 1.34469 56.2279 3.02616V23.9437C56.2279 25.6251 54.8827 26.9703 53.2013 26.9703Z" fill="white"/>
<path d="M38.2703 26.9703H3.02665C1.34518 26.9703 0 25.6251 0 23.9437V3.02616C0 1.34469 1.34518 -0.000488281 3.02665 -0.000488281H38.2703C39.9517 -0.000488281 41.2969 1.34469 41.2969 3.02616V3.90052H39.5482V3.02616C39.5482 2.35357 39.0101 1.74824 38.2703 1.74824H3.02665C2.35406 1.74824 1.74873 2.28631 1.74873 3.02616V23.9437C1.74873 24.6162 2.2868 25.2216 3.02665 25.2216H38.2703C38.9429 25.2216 39.5482 24.6835 39.5482 23.9437V23.0693H41.2969V23.9437C41.2969 25.6251 39.9517 26.9703 38.2703 26.9703Z" fill="white"/>
<path d="M41.2966 6.12061H39.5479V8.13837H41.2966V6.12061Z" fill="white"/>
<path d="M41.2966 10.3574H39.5479V12.3752H41.2966V10.3574Z" fill="white"/>
<path d="M41.2966 14.5952H39.5479V16.613H41.2966V14.5952Z" fill="white"/>
<path d="M41.2966 18.8994H39.5479V20.9172H41.2966V18.8994Z" fill="white"/>
</g>
<defs>
<clipPath id="clip0_351_11755">
<rect width="56.2284" height="26.9708" fill="white"/>
</clipPath>
</defs>
</svg>
