<svg width="41" height="45" viewBox="0 0 41 45" fill="none" xmlns="http://www.w3.org/2000/svg">
<path d="M17.3529 39.7506L16.4786 39.5488C9.61815 37.8001 4.84277 31.6123 4.84277 24.5501C4.84277 16.0082 11.7704 9.08057 20.3123 9.08057H21.1867V10.8293H20.3123C12.7793 10.8293 6.5915 16.9498 6.5915 24.5501C6.5915 30.8724 10.8288 36.3204 16.9494 37.8673L17.8237 38.0691L17.3529 39.7506Z" fill="white"/>
<path d="M20.3119 40.0198H19.4375V38.271H20.3119C27.8449 38.271 34.0327 32.1505 34.0327 24.5502C34.0327 18.3624 29.8626 12.8472 23.8093 11.3002L22.935 11.0985L23.4058 9.41699L24.2801 9.61877C31.006 11.3675 35.7814 17.4881 35.7814 24.5502C35.7814 33.0248 28.7865 40.0198 20.3119 40.0198Z" fill="white"/>
<path d="M20.3122 44.7934C9.07994 44.7934 0 35.7135 0 24.5485C0 13.3835 9.07994 4.23633 20.3122 4.23633C31.5444 4.23633 40.6243 13.3163 40.6243 24.5485C40.6243 35.7807 31.4771 44.7934 20.3122 44.7934ZM20.3122 5.98506C10.0888 5.98506 1.74873 14.3252 1.74873 24.5485C1.74873 34.7046 10.0888 43.0447 20.3122 43.0447C30.5355 43.0447 38.8083 34.7718 38.8083 24.5485C38.8083 14.3252 30.4683 5.98506 20.3122 5.98506Z" fill="white"/>
<path d="M12.4434 32.352L16.6134 20.8507L28.1147 16.6807L23.9446 28.1819L12.4434 32.352ZM18.0258 22.2631L15.4027 29.4598L22.5994 26.8367L25.2225 19.6401L18.0258 22.2631Z" fill="white"/>
<path d="M21.1169 9.28223H19.3682V13.3178H21.1169V9.28223Z" fill="white"/>
<path d="M21.1169 35.7148H19.3682V39.7504H21.1169V35.7148Z" fill="white"/>
<path d="M9.0785 23.6084H5.04297V25.3571H9.0785V23.6084Z" fill="white"/>
<path d="M35.5111 23.6084H31.4756V25.3571H35.5111V23.6084Z" fill="white"/>
<path d="M21.1188 0.471191H19.3701V3.16154H21.1188V0.471191Z" fill="white"/>
<path d="M18.4662 21.4414L17.2295 22.6777L20.5581 26.0073L21.7948 24.771L18.4662 21.4414Z" fill="white"/>
<path d="M23.8102 0H16.748V1.74873H23.8102V0Z" fill="white"/>
</svg>
