<svg width="46" height="46" viewBox="0 0 46 46" fill="none" xmlns="http://www.w3.org/2000/svg">
<g clip-path="url(#clip0_351_12188)">
<path d="M7.86733 45.9376L-0.00195312 38.001L19.8394 18.1597C18.4942 13.9224 19.6376 9.21425 22.7988 6.05308L23.4041 5.44775L24.682 6.72567L24.0767 7.331C21.2518 10.1559 20.3102 14.3932 21.7226 18.0924L21.9244 18.6305L2.48662 38.001L7.86733 43.3817L27.2379 24.0112L27.7759 24.213C31.5424 25.5581 35.7125 24.6165 38.5374 21.8589L39.1427 21.2536L40.4206 22.5315L39.8153 23.1368C36.6541 26.298 31.946 27.4414 27.7087 26.0962L7.86733 45.9376Z" fill="white"/>
<path d="M39.2089 23.7418L37.931 22.4639L41.6302 18.8319L27.1023 4.30401L24.681 6.72532L37.3256 19.37L36.0477 20.6479L22.1924 6.72532L27.1023 1.81543L44.1188 18.8319L39.2089 23.7418Z" fill="white"/>
<path d="M20.1762 28.2472C19.5036 28.2472 18.831 28.0454 18.3602 27.5073C17.8221 26.9693 17.5531 26.0949 17.6876 25.2205C17.8221 24.4134 18.2257 23.6063 18.8983 23.001C19.5708 22.3284 20.3107 21.9248 21.1178 21.7903C21.9922 21.6558 22.8665 21.8576 23.4046 22.4629C24.548 23.6063 24.279 25.5568 22.8665 26.9692C22.0594 27.8436 21.1178 28.2472 20.1762 28.2472ZM21.6559 23.539C21.5886 23.539 21.5214 23.539 21.4541 23.539C21.0505 23.6063 20.5797 23.8753 20.1762 24.2116C19.7726 24.6152 19.5708 25.0187 19.5036 25.4896C19.5036 25.6913 19.4363 26.0276 19.6381 26.2294C19.9744 26.5657 20.916 26.4312 21.6559 25.6913C22.3957 24.9515 22.5302 24.0099 22.1939 23.6736C22.0594 23.6063 21.8576 23.539 21.6559 23.539Z" fill="white"/>
<path d="M3.67891 34.3768L2.44238 35.6133L8.05431 41.2252L9.29084 39.9887L3.67891 34.3768Z" fill="white"/>
<path d="M31.8957 0.0207958L29.708 2.2085L30.9445 3.44502L33.1322 1.25732L31.8957 0.0207958Z" fill="white"/>
<path d="M34.4491 2.57908L32.2617 4.76709L33.4984 6.00344L35.6858 3.81543L34.4491 2.57908Z" fill="white"/>
<path d="M37.0051 5.13701L34.8174 7.32471L36.0539 8.56123L38.2416 6.37353L37.0051 5.13701Z" fill="white"/>
<path d="M39.5611 7.69688L37.373 9.88428L38.6094 11.121L40.7974 8.93359L39.5611 7.69688Z" fill="white"/>
<path d="M42.1145 10.2532L39.9268 12.4409L41.1633 13.6774L43.351 11.4897L42.1145 10.2532Z" fill="white"/>
<path d="M44.6704 12.8136L42.4824 15.001L43.7188 16.2377L45.9068 14.0503L44.6704 12.8136Z" fill="white"/>
</g>
<defs>
<clipPath id="clip0_351_12188">
<rect width="45.9378" height="45.9378" fill="white"/>
</clipPath>
</defs>
</svg>
