<svg width="46" height="40" viewBox="0 0 46 40" fill="none" xmlns="http://www.w3.org/2000/svg">
<path d="M24.0114 14.7967C24.0114 15.4021 23.4733 15.9401 22.868 15.9401C22.2627 15.9401 21.7246 15.4021 21.7246 14.7967C21.7246 14.1914 22.2627 13.6533 22.868 13.6533C23.4733 13.6533 24.0114 14.1914 24.0114 14.7967Z" fill="white"/>
<path d="M20.3121 35.3782H6.79309L2.62305 9.2145L4.37178 8.94546L8.34005 33.6295H18.5634V5.58252H20.3121V35.3782Z" fill="white"/>
<path d="M19.4378 7.39847H3.02665C1.34518 7.39847 0 5.98604 0 4.30457V3.02665C0 1.34518 1.34518 0 3.02665 0H19.4378C21.1193 0 22.4644 1.34518 22.4644 3.02665V4.30457C22.5317 5.98604 21.1193 7.39847 19.4378 7.39847ZM3.02665 1.74873C2.35406 1.74873 1.74873 2.2868 1.74873 3.02665V4.30457C1.74873 4.97715 2.2868 5.58248 3.02665 5.58248H19.4378C20.1104 5.58248 20.7157 5.04441 20.7157 4.30457V3.02665C20.7157 2.35406 20.1776 1.74873 19.4378 1.74873H3.02665Z" fill="white"/>
<path d="M14.8637 39.1446H12.1734C10.6264 39.1446 9.28125 37.8667 9.28125 36.2525V33.6294H17.6886V36.2525C17.6886 37.7994 16.4107 39.1446 14.8637 39.1446ZM11.03 35.3781V36.2525C11.03 36.8578 11.5008 37.3286 12.1061 37.3286H14.7965C15.4018 37.3286 15.8726 36.8578 15.8726 36.2525V35.3781H11.03Z" fill="white"/>
<path d="M38.8764 35.3782H25.3574V5.58252H27.1734V33.6295H37.3968L41.365 8.94546L43.1138 9.2145L38.8764 35.3782Z" fill="white"/>
<path d="M42.6429 7.39847H26.2317C24.5503 7.39847 23.2051 6.05329 23.2051 4.37182V3.02665C23.2051 1.34518 24.5503 0 26.2317 0H42.6429C44.3244 0 45.7368 1.34518 45.7368 3.02665V4.30457C45.7368 5.98604 44.3244 7.39847 42.6429 7.39847ZM26.2317 1.74873C25.5591 1.74873 24.9538 2.2868 24.9538 3.02665V4.30457C24.9538 4.97715 25.4919 5.58248 26.2317 5.58248H42.6429C43.3155 5.58248 43.9208 5.04441 43.9208 4.30457V3.02665C43.9208 2.35406 43.3827 1.74873 42.6429 1.74873H26.2317Z" fill="white"/>
<path d="M33.561 39.1446H30.8706C29.3237 39.1446 27.9785 37.8667 27.9785 36.2525V33.6294H36.3859V36.2525C36.3859 37.7994 35.108 39.1446 33.561 39.1446ZM29.7945 35.3781V36.2525C29.7945 36.8578 30.2653 37.3286 30.8706 37.3286H33.561C34.1663 37.3286 34.6371 36.8578 34.6371 36.2525V35.3781H29.7945Z" fill="white"/>
<path d="M27.1716 11.1655H18.5625V12.9143H27.1716V11.1655Z" fill="white"/>
<path d="M27.1716 16.6807H18.5625V18.4294H27.1716V16.6807Z" fill="white"/>
<path d="M16.4098 16.6807H4.57227V18.4294H16.4098V16.6807Z" fill="white"/>
<path d="M41.1618 16.6807H29.3242V18.4294H41.1618V16.6807Z" fill="white"/>
<path d="M16.4109 21.5908H5.17871V23.3396H16.4109V21.5908Z" fill="white"/>
<path d="M40.2874 21.5913H29.3242V23.34H40.2874V21.5913Z" fill="white"/>
</svg>
