<svg width="53" height="48" viewBox="0 0 53 48" fill="none" xmlns="http://www.w3.org/2000/svg">
<g clip-path="url(#clip0_351_11872)">
<path d="M19.034 6.79314H17.2853V2.62309C17.2853 2.15228 16.949 1.81599 16.4782 1.81599H12.5099C12.0391 1.81599 11.7028 2.15228 11.7028 2.62309V5.24619H9.9541V2.62309C9.9541 1.21066 11.0975 0 12.5772 0H16.5455C17.9579 0 19.1686 1.1434 19.1686 2.62309V6.79314H19.034Z" fill="white"/>
<path d="M42.9784 9.61801H41.2296V2.62309C41.2296 2.15228 40.8934 1.81599 40.4225 1.81599H36.4543C35.9835 1.81599 35.6472 2.21954 35.6472 2.62309V3.49746H33.8984V2.62309C33.8984 1.21066 35.0418 0 36.5215 0H40.4898C41.9022 0 43.1129 1.1434 43.1129 2.62309V9.61801H42.9784Z" fill="white"/>
<path d="M39.414 47.0139H13.5193C11.4343 47.0139 9.41656 46.1396 8.00412 44.5926C6.59169 43.0457 5.9191 40.9607 6.18814 38.8756L9.08027 11.6358C9.48382 7.8693 12.645 5.04443 16.4115 5.04443H36.4546C40.2211 5.04443 43.3823 7.8693 43.7858 11.6358L44.0549 14.3934L42.3734 14.5952L42.1043 11.8376C41.7681 9.01271 39.414 6.79316 36.5219 6.79316H16.4115C13.5193 6.79316 11.1653 8.94545 10.829 11.8376L7.93687 39.0101C7.73509 40.6244 8.27316 42.1713 9.3493 43.382C10.4254 44.5926 11.9051 45.2652 13.5193 45.2652H39.414C41.0282 45.2652 42.5079 44.5926 43.584 43.382C44.6602 42.1713 45.131 40.6244 44.9965 39.0101L42.5752 17.6218L44.3239 17.4201L46.7452 38.8084C46.947 40.8934 46.2744 42.9784 44.9292 44.5254C43.5168 46.0723 41.499 47.0139 39.414 47.0139Z" fill="white"/>
<path d="M30.5347 6.79329H22.3291V4.03568C22.3291 2.28695 23.7415 0.874512 25.4903 0.874512H27.3063C29.055 0.874512 30.4674 2.28695 30.4674 4.03568V6.79329H30.5347ZM24.1451 5.04456H28.7859V4.03568C28.7859 3.22857 28.1806 2.62324 27.3735 2.62324H25.5575C24.7504 2.62324 24.1451 3.22857 24.1451 4.03568V5.04456Z" fill="white"/>
<path d="M7.86973 36.0506L7.12988 34.4364L7.93699 34.0329C8.20602 33.8983 15.0664 30.6699 26.4332 30.6699C32.9573 30.6699 38.0017 31.7461 41.0283 32.6204L41.9027 32.8895L41.4319 34.5709L40.5575 34.3019C37.5981 33.4275 32.7555 32.4187 26.4332 32.4187C15.47 32.5532 8.74409 35.6471 8.67684 35.7143L7.86973 36.0506Z" fill="white"/>
<path d="M22.1274 16.7472C22.0601 16.7472 22.0601 16.7472 22.1274 16.7472C14.2581 16.3436 9.68451 15.133 9.48273 15.0657C9.01192 14.9312 8.74288 14.4604 8.8774 13.9896C9.01192 13.5188 9.48273 13.2497 9.95354 13.3842C10.0208 13.3842 14.5271 14.6622 22.1946 14.9984C22.6655 14.9984 23.069 15.4693 23.069 15.9401C22.9345 16.4109 22.5982 16.7472 22.1274 16.7472Z" fill="white"/>
<path d="M30.8041 16.748C30.3332 16.748 29.9297 16.4117 29.9297 15.8737C29.9297 15.4029 30.266 14.9993 30.8041 14.932C38.4716 14.5957 42.9779 13.3178 43.0452 13.3178C43.516 13.1833 43.9868 13.4523 44.1213 13.9232C44.2558 14.394 43.9868 14.8648 43.516 14.9993C43.2469 15.1338 38.6733 16.4117 30.8041 16.748Z" fill="white"/>
<path d="M34.9749 36.3198H18.1602V38.0686H34.9749V36.3198Z" fill="white"/>
<path d="M31.6779 19.3034H21.1855V12.7793H31.6779V19.3034ZM23.0015 17.4874H29.9292V14.4608H23.0015V17.4874Z" fill="white"/>
<path d="M45.2642 41.0272L43.4482 24.4143L47.8201 23.9435C49.7706 23.7417 51.5193 25.1542 51.7211 27.1047L52.73 36.7227C52.8645 37.6643 52.5282 38.6059 51.9901 39.3458C51.3848 40.0856 50.5777 40.5564 49.6361 40.6237L45.2642 41.0272ZM45.3987 25.9613L46.8112 39.0767L49.4343 38.8077C49.9051 38.7404 50.3086 38.5387 50.6449 38.1351C50.9812 37.7316 51.0485 37.328 51.0485 36.8572L50.0396 27.2392C49.9051 26.2976 49.098 25.5577 48.0891 25.6922L45.3987 25.9613Z" fill="white"/>
<path d="M7.5319 41.0278L3.16008 40.557C2.21846 40.4898 1.41135 40.019 0.806021 39.2791C0.200692 38.5393 -0.0683436 37.5976 0.066174 36.656L1.07506 27.038C1.14232 26.0964 1.61313 25.2893 2.35297 24.684C3.09282 24.0786 4.03445 23.8096 4.97607 23.9441L9.34789 24.4149L7.5319 41.0278ZM4.57252 25.6928C4.16896 25.6928 3.76541 25.8274 3.49637 26.0964C3.16008 26.3654 2.89104 26.8362 2.82379 27.307L1.74764 36.8578C1.68039 37.3286 1.8149 37.7994 2.1512 38.1357C2.42023 38.472 2.89105 38.741 3.36186 38.8083L5.98495 39.0773L7.39739 25.9619L4.77429 25.6928C4.70703 25.6928 4.63977 25.6928 4.57252 25.6928Z" fill="white"/>
</g>
<defs>
<clipPath id="clip0_351_11872">
<rect width="52.7309" height="47.0139" fill="white"/>
</clipPath>
</defs>
</svg>
