<svg width="54" height="41" viewBox="0 0 54 41" fill="none" xmlns="http://www.w3.org/2000/svg">
<g clip-path="url(#clip0_351_12237)">
<path d="M49.4343 35.3777H25.0193V33.6289H47.6183V1.74824H24.2795C12.5092 1.74824 2.62212 10.9627 1.81501 22.6657C1.81501 22.8675 1.81501 23.0693 1.81501 23.2038C1.81501 23.5401 1.81501 23.8764 1.81501 24.2127V33.4944H13.9216V35.2431H-0.000976562V24.28C-0.000976562 23.8764 -0.000976562 23.5401 -0.000976562 23.2038C-0.000976562 23.002 -0.000976562 22.8003 0.0662823 22.5985C0.940647 9.88656 11.5675 -0.000488281 24.2795 -0.000488281H49.4343V35.3777Z" fill="white"/>
<path d="M22.8692 18.5637H7.53418L7.60144 17.5548C8.20677 11.8378 12.9821 7.5332 18.6991 7.5332H22.8692V18.5637ZM9.55194 16.8149H21.1205V9.34919H18.7664C14.2601 9.34919 10.4263 12.5104 9.55194 16.8149Z" fill="white"/>
<path d="M53.2687 33.5615H48.5605V35.3103H53.2687V33.5615Z" fill="white"/>
<path d="M19.5047 40.9601C15.94 40.9601 13.0479 38.068 13.0479 34.5032C13.0479 30.9385 15.94 28.0464 19.5047 28.0464C23.0694 28.0464 25.9615 30.9385 25.9615 34.5032C25.9615 38.068 23.0022 40.9601 19.5047 40.9601ZM19.5047 29.7951C16.9489 29.7951 14.7966 31.8801 14.7966 34.5032C14.7966 37.1263 16.8816 39.2114 19.5047 39.2114C22.1278 39.2114 24.2128 37.1263 24.2128 34.5032C24.2128 31.8801 22.0605 29.7951 19.5047 29.7951Z" fill="white"/>
<path d="M29.6602 26.9703H-0.000976562V21.7241H33.6957V23.5401H1.81501V25.2216H29.6602V26.9703Z" fill="white"/>
<path d="M49.4347 26.9703H40.4893V25.2216H47.6187V23.5401H44.054V21.7241H49.4347V26.9703Z" fill="white"/>
<path d="M42.2388 35.3774H31.9482V16.814H42.2388V35.3774ZM33.697 33.5614H40.4229V18.5627H33.697V33.5614Z" fill="white"/>
</g>
<defs>
<clipPath id="clip0_351_12237">
<rect width="53.269" height="40.9606" fill="white"/>
</clipPath>
</defs>
</svg>
