<svg width="44" height="48" viewBox="0 0 44 48" fill="none" xmlns="http://www.w3.org/2000/svg">
<g clip-path="url(#clip0_351_12210)">
<path d="M26.8365 41.9027L26.2312 41.3647C25.8949 41.0284 16.5459 32.7555 16.5459 21.3888C16.5459 17.8241 17.4875 14.1248 19.2363 10.4256C22.0611 4.57409 26.0967 0.740335 26.2312 0.605818L26.8365 0.000488281L27.4418 0.605818C27.5763 0.740335 31.6119 4.64135 34.3695 10.4256C36.1855 14.1248 37.0598 17.8241 37.0598 21.3888C37.0598 32.7555 27.7781 41.0956 27.3746 41.4319L26.8365 41.9027ZM26.8365 2.48907C25.6258 3.76698 22.8682 6.99541 20.8505 11.1655C19.169 14.6629 18.2946 18.0931 18.2946 21.3215C18.2946 30.3342 24.8187 37.4637 26.8365 39.4814C28.8543 37.4637 35.3784 30.3342 35.3784 21.3215C35.3784 18.0259 34.504 14.5957 32.8225 11.1655C30.8048 6.99541 28.0472 3.76698 26.8365 2.48907Z" fill="white"/>
<path d="M26.8372 13.7213C24.2141 13.7213 21.7255 12.9815 19.5732 11.5691L20.5821 10.0894C22.4654 11.3 24.6177 11.9726 26.8372 11.9726C28.2496 11.9726 29.5948 11.7036 30.94 11.2328L31.5453 12.9142C30.0656 13.4523 28.4514 13.7213 26.8372 13.7213Z" fill="white"/>
<path d="M34.3687 47.0145H19.3027L23.2037 41.163L24.6834 42.1718L22.5984 45.2658H31.073L28.988 42.1046L30.4677 41.0957L34.3687 47.0145Z" fill="white"/>
<path d="M15.6704 25.6262H10.0879L17.0828 16.748L18.4952 17.8242L13.7199 23.8102H15.6704V25.6262Z" fill="white"/>
<path d="M43.6504 25.6262H38.0679V23.8102H39.9512L35.1758 17.8242L36.5882 16.748L43.6504 25.6262Z" fill="white"/>
<path d="M8.27144 44.5254C5.04302 44.5254 2.41992 41.9023 2.41992 38.6739V20.4468H4.16865V38.6739C4.16865 40.8935 5.98464 42.7095 8.20418 42.7095C9.4821 42.7095 10.5582 42.3059 11.2308 41.4988C11.8362 40.8262 12.1725 39.8173 12.1725 38.6739C12.1725 36.5889 11.0963 34.4366 9.21306 33.8313L9.68387 36.3199L7.93515 36.6562L6.99352 31.8808H8.06966C11.7689 31.8808 13.9212 35.311 13.9212 38.6067C13.9212 40.1536 13.4504 41.5661 12.576 42.5749C11.6344 43.9201 10.0874 44.5254 8.27144 44.5254Z" fill="white"/>
<path d="M26.8364 8.94572C27.5793 8.94572 28.1816 8.34347 28.1816 7.60055C28.1816 6.85763 27.5793 6.25537 26.8364 6.25537C26.0935 6.25537 25.4912 6.85763 25.4912 7.60055C25.4912 8.34347 26.0935 8.94572 26.8364 8.94572Z" fill="white"/>
<path d="M26.8356 20.3129C25.625 20.3129 24.6833 19.304 24.6161 19.1695L24.0107 18.4969L25.3559 17.3535L25.9612 18.0261C26.0958 18.1606 26.4993 18.5642 26.9029 18.5642C27.3064 18.5642 27.6427 18.2279 27.8445 18.0261L28.4498 17.3535L29.795 18.4969L29.1897 19.1695C28.9879 19.304 28.1135 20.3129 26.8356 20.3129Z" fill="white"/>
<path d="M23.3405 25.4242C22.1298 25.4242 21.1882 24.4153 21.121 24.2808L20.5156 23.6082L21.8608 22.4648L22.4661 23.1374C22.6006 23.2719 23.0042 23.6755 23.4078 23.6755C23.744 23.6755 24.2149 23.2719 24.3494 23.1374L24.9547 22.4648L26.2999 23.6082L25.6946 24.2808C25.4928 24.4153 24.6184 25.4242 23.3405 25.4242Z" fill="white"/>
<path d="M30.3356 25.4242C29.125 25.4242 28.1833 24.4153 28.1161 24.2808L27.5107 23.6082L28.8559 22.4648L29.4612 23.1374C29.5958 23.2719 29.9993 23.6755 30.4029 23.6755C30.7392 23.6755 31.21 23.2719 31.3445 23.1374L31.9498 22.4648L33.295 23.6082L32.6897 24.2808C32.4879 24.4153 31.6135 25.4242 30.3356 25.4242Z" fill="white"/>
<path d="M3.36294 22.2635C1.54695 22.2635 0 20.7838 0 18.9005C0 17.0846 1.47969 15.5376 3.36294 15.5376C5.24619 15.5376 6.72588 17.0173 6.72588 18.9005C6.65862 20.7165 5.17893 22.2635 3.36294 22.2635ZM3.36294 17.3536C2.48858 17.3536 1.81599 18.0262 1.81599 18.9005C1.81599 19.7749 2.48858 20.4475 3.36294 20.4475C4.23731 20.4475 4.90989 19.7749 4.90989 18.9005C4.90989 18.0262 4.17005 17.3536 3.36294 17.3536Z" fill="white"/>
<path d="M4.16865 6.25537H2.41992V14.1247H4.16865V6.25537Z" fill="white"/>
</g>
<defs>
<clipPath id="clip0_351_12210">
<rect width="43.651" height="47.0139" fill="white"/>
</clipPath>
</defs>
</svg>
