<svg width="51" height="30" viewBox="0 0 51 30" fill="none" xmlns="http://www.w3.org/2000/svg">
<g clip-path="url(#clip0_351_11937)">
<path d="M46.4087 17.8242L17.2856 2.89278C13.8554 1.14405 9.8199 1.54761 6.79325 3.76715L23.4734 12.309L22.6663 13.856L3.7666 4.1707L4.64097 3.29634C8.27294 -0.201122 13.6536 -1.00823 18.16 1.27857L47.2158 16.21L46.4087 17.8242Z" fill="white"/>
<path d="M42.8458 29.5943H7.40042C3.29764 29.5943 0.00195312 26.2986 0.00195312 22.1958C0.00195312 18.093 3.29764 14.7974 7.40042 14.7974H42.8458C46.9486 14.7974 50.2443 18.093 50.2443 22.1958C50.2443 26.2986 46.9486 29.5943 42.8458 29.5943ZM7.40042 16.5461C4.30652 16.5461 1.75068 19.0347 1.75068 22.1958C1.75068 25.357 4.23926 27.8456 7.40042 27.8456H42.8458C45.9397 27.8456 48.4956 25.357 48.4956 22.1958C48.4956 19.0347 46.007 16.5461 42.8458 16.5461H7.40042Z" fill="white"/>
<path d="M44.2565 22.1952C44.2565 22.8005 43.7185 23.3386 43.1131 23.3386C42.5078 23.3386 41.9697 22.8005 41.9697 22.1952C41.9697 21.5898 42.5078 21.0518 43.1131 21.0518C43.7185 21.0518 44.2565 21.5898 44.2565 22.1952Z" fill="white"/>
<path d="M16.5125 4.50953L15.7021 6.05908L29.3501 13.1965L30.1605 11.6469L16.5125 4.50953Z" fill="white"/>
<path d="M10.6286 14.7974H8.87988V19.7073H10.6286V14.7974Z" fill="white"/>
<path d="M15.3366 14.7974H13.5879V19.7073H15.3366V14.7974Z" fill="white"/>
<path d="M20.0446 14.7974H18.2959V19.7073H20.0446V14.7974Z" fill="white"/>
<path d="M24.7526 14.7974H23.0039V19.7073H24.7526V14.7974Z" fill="white"/>
<path d="M29.4597 14.7974H27.7109V19.7073H29.4597V14.7974Z" fill="white"/>
<path d="M34.1687 14.7974H32.4199V19.7073H34.1687V14.7974Z" fill="white"/>
<path d="M38.8776 14.7974H37.1289V19.7073H38.8776V14.7974Z" fill="white"/>
</g>
<defs>
<clipPath id="clip0_351_11937">
<rect width="50.2423" height="29.5939" fill="white"/>
</clipPath>
</defs>
</svg>
