<svg width="45" height="45" viewBox="0 0 45 45" fill="none" xmlns="http://www.w3.org/2000/svg">
<g clip-path="url(#clip0_351_12253)">
<path d="M24.8198 34.5709H21.2551C10.4936 34.5709 1.75 25.8272 1.75 15.0658V12.1064H44.3248V15.0658C44.3248 25.8272 35.5812 34.5709 24.8198 34.5709ZM3.49873 13.9224V15.0658C3.49873 24.8184 11.4353 32.8222 21.1878 32.8222H24.7525C34.5051 32.8222 42.4416 24.8856 42.4416 15.0658V13.9224H3.49873Z" fill="white"/>
<path d="M18.1625 8.80993C15.8757 7.19572 16.7501 5.31247 17.2882 4.03455C17.8935 2.68938 18.028 2.15131 16.9519 1.41146L17.9607 -0.000976562C20.2475 1.68049 19.4404 3.56374 18.8351 4.7744C18.2298 6.11958 18.0953 6.59039 19.1041 7.33023L18.1625 8.80993Z" fill="white"/>
<path d="M23.072 8.80993C20.8525 7.19572 21.6596 5.31247 22.1977 4.10181C22.803 2.75664 22.9375 2.21856 21.8614 1.47872L22.9375 -0.000976562C25.2243 1.68049 24.4172 3.56374 23.8119 4.7744C23.2065 6.11958 23.072 6.59039 24.0809 7.33023L23.072 8.80993Z" fill="white"/>
<path d="M28.0502 8.80993C25.7634 7.19572 26.6378 5.31247 27.1759 4.03455C27.7812 2.68938 27.9157 2.15131 26.8396 1.41146L27.9157 -0.000976562C30.2025 1.68049 29.3954 3.56374 28.7901 4.7744C28.1847 6.11958 28.0502 6.59039 29.0591 7.33023L28.0502 8.80993Z" fill="white"/>
<path d="M14.6608 31.9562L11.7754 38.0317L13.355 38.7819L16.2404 32.7065L14.6608 31.9562Z" fill="white"/>
<path d="M31.3386 32.0369L29.7588 32.7866L35.0066 43.8452L36.5864 43.0956L31.3386 32.0369Z" fill="white"/>
<path d="M11.8401 44.7935C9.55329 44.7935 7.7373 42.9102 7.7373 40.6907C7.7373 38.4711 9.62055 36.5879 11.8401 36.5879C14.1269 36.5879 15.9429 38.4711 15.9429 40.6907C15.9429 42.9102 14.1269 44.7935 11.8401 44.7935ZM11.8401 38.3366C10.5622 38.3366 9.48603 39.4128 9.48603 40.6907C9.48603 41.9686 10.5622 43.0447 11.8401 43.0447C13.118 43.0447 14.1942 41.9686 14.1942 40.6907C14.1942 39.4128 13.118 38.3366 11.8401 38.3366Z" fill="white"/>
<path d="M34.9089 39.5479H17.8252V41.2966H34.9089V39.5479Z" fill="white"/>
<path d="M40.1551 16.2764H2.42285V18.0251H40.1551V16.2764Z" fill="white"/>
<path d="M4.23926 20.2446H0.00195312V21.9934H4.23926V20.2446Z" fill="white"/>
</g>
<defs>
<clipPath id="clip0_351_12253">
<rect width="44.3236" height="44.7944" fill="white"/>
</clipPath>
</defs>
</svg>
