<svg width="52" height="53" viewBox="0 0 52 53" fill="none" xmlns="http://www.w3.org/2000/svg">
<g clip-path="url(#clip0_351_12045)">
<path d="M29.3915 48.4266H22.4639V46.6779H27.6428V30.603H29.3915V48.4266Z" fill="white"/>
<path d="M29.3903 18.8999H27.6416V23.339H29.3903V18.8999Z" fill="white"/>
<path d="M24.2126 15.604H22.4639V23.3388H24.2126V15.604Z" fill="white"/>
<path d="M24.2126 8.27332H22.4639V0.000488281H29.3915V4.84312H27.6428V1.74922H24.2126V8.27332Z" fill="white"/>
<path d="M24.2126 30.603H22.4639V44.7274H24.2126V30.603Z" fill="white"/>
<path d="M33.8974 52.1933H17.957V46.6108H33.8974V52.1933ZM19.7058 50.4446H32.0814V48.4268H19.7058V50.4446Z" fill="white"/>
<path d="M47.4158 17.3526H14.459V6.52393H47.4158L51.8549 11.9719L47.4158 17.3526ZM16.2077 15.6039H46.5414L49.5681 11.9719L46.5414 8.33991H16.2077V15.6039Z" fill="white"/>
<path d="M37.394 32.4194H4.43713L-0.00195312 26.9714L4.43713 21.5234H37.394V32.4194ZM5.31149 30.6034H35.6452V23.3394H5.31149L2.28485 26.9714L5.31149 30.6034Z" fill="white"/>
<path d="M30.7357 26.0962H8.6748V27.8449H30.7357V26.0962Z" fill="white"/>
<path d="M43.1791 11.0981H21.1182V12.8469H43.1791V11.0981Z" fill="white"/>
</g>
<defs>
<clipPath id="clip0_351_12045">
<rect width="51.8566" height="52.1929" fill="white"/>
</clipPath>
</defs>
</svg>
