<svg width="51" height="48" viewBox="0 0 51 48" fill="none" xmlns="http://www.w3.org/2000/svg">
<g clip-path="url(#clip0_351_12567)">
<path d="M50.4412 47.2153H-0.00292969V18.832H50.4412V47.2153ZM1.7458 45.4665H48.6252V20.5808H1.7458V45.4665Z" fill="white"/>
<path d="M50.4412 20.5808H-0.00292969V14.3257H50.4412V20.5808ZM1.7458 18.832H48.6252V16.0744H1.7458V18.832Z" fill="white"/>
<path d="M20.5783 25.2896H12.1709V27.0383H20.5783V25.2896Z" fill="white"/>
<path d="M25.3545 32.1494H7.3291V33.8981H25.3545V32.1494Z" fill="white"/>
<path d="M24.1442 35.5801H8.60742V37.3288H24.1442V35.5801Z" fill="white"/>
<path d="M24.1442 28.7197H8.60742V30.4685H24.1442V28.7197Z" fill="white"/>
<path d="M20.5783 39.0103H12.1709V40.759H20.5783V39.0103Z" fill="white"/>
<path d="M36.9901 39.0103H33.7617V40.759H36.9901V39.0103Z" fill="white"/>
<path d="M42.37 39.0103H39.1416V40.759H42.37V39.0103Z" fill="white"/>
<path d="M26.6528 1.23214L4.25391 14.2261L5.13142 15.7387L27.5303 2.74479L26.6528 1.23214Z" fill="white"/>
<path d="M27.5205 0.0168953L26.0117 0.900879L27.5077 3.45424L29.0165 2.57026L27.5205 0.0168953Z" fill="white"/>
<path d="M38.0661 37.3288C36.5192 37.3288 34.9722 36.7234 33.8288 35.58C32.6854 34.4366 32.0801 32.9569 32.0801 31.3427C32.0801 29.7285 32.6854 28.2488 33.8288 27.1054L34.4341 26.5001L35.7121 27.778L35.1067 28.3833C34.2996 29.1904 33.8961 30.2666 33.8961 31.41C33.8961 32.5534 34.3669 33.6295 35.1067 34.4366C35.8466 35.2437 36.99 35.6473 38.1334 35.6473C39.2768 35.6473 40.3529 35.1765 41.16 34.4366C41.9671 33.6968 42.3707 32.5534 42.3707 31.41C42.3707 30.2666 41.8999 29.1904 41.16 28.3833C40.4874 27.7107 39.6131 27.3072 38.6714 27.1727L37.6626 26.9709L37.8643 25.2222L38.7387 25.2894C40.0839 25.4239 41.3618 26.0293 42.3034 27.0382C43.4468 28.1816 44.0522 29.6613 44.0522 31.2755C44.0522 32.8897 43.4468 34.3694 42.3034 35.5128C41.16 36.7234 39.6131 37.3288 38.0661 37.3288Z" fill="white"/>
<path d="M34.677 26.7166L33.4404 27.9531L36.3891 30.9018L37.6256 29.6652L34.677 26.7166Z" fill="white"/>
</g>
<defs>
<clipPath id="clip0_351_12567">
<rect width="50.4441" height="47.2157" fill="white"/>
</clipPath>
</defs>
</svg>
