<svg width="36" height="36" viewBox="0 0 36 36" fill="none" xmlns="http://www.w3.org/2000/svg">
<g clip-path="url(#clip0_353_10897)">
<path d="M17.4645 33.5852C17.2036 33.5852 16.9427 33.5852 16.6733 33.5852C12.8623 33.3995 9.2568 31.8021 6.55881 29.1041C3.86083 26.4062 2.26346 22.8007 2.07773 18.9897C1.97188 16.8701 2.32977 14.753 3.12645 12.786C3.92312 10.819 5.13943 9.04957 6.69043 7.60109C16.2861 -2.00303 33.6762 0.210712 34.4085 0.311719C34.648 0.344037 34.8704 0.45357 35.0421 0.623694C35.2137 0.793817 35.3252 1.01526 35.3597 1.25446C35.4607 1.99518 37.666 19.3769 28.0703 28.981C26.7075 30.428 25.0643 31.5824 23.241 32.374C21.4177 33.1655 19.4523 33.5776 17.4645 33.5852ZM29.4171 2.23928C23.727 2.23928 14.1734 3.2241 8.25604 9.14986C6.92717 10.3821 5.88375 11.89 5.19891 13.568C4.51408 15.2459 4.20438 17.0532 4.29148 18.8634C4.48742 22.1137 5.86751 25.1795 8.17075 27.4812C10.474 29.7829 13.5408 31.1609 16.7912 31.3547C18.6007 31.4428 20.4076 31.1344 22.0855 30.451C23.7634 29.7677 25.2717 28.7259 26.5047 27.3985C34.1728 19.722 33.5584 5.96814 33.2385 2.39921C32.4389 2.33188 31.0921 2.23928 29.4171 2.23928Z" fill="white"/>
<path d="M1.14347 35.6473C0.850753 35.6471 0.569754 35.5323 0.36067 35.3275C0.154037 35.1193 0.0380859 34.8379 0.0380859 34.5447C0.0380859 34.2514 0.154037 33.97 0.36067 33.7619L25.0064 9.11604C25.2146 8.90941 25.496 8.79346 25.7893 8.79346C26.0826 8.79346 26.364 8.90941 26.5721 9.11604C26.7787 9.32417 26.8947 9.60558 26.8947 9.89887C26.8947 10.1922 26.7787 10.4735 26.5721 10.6817L1.92627 35.3275C1.71719 35.5323 1.43619 35.6471 1.14347 35.6473V35.6473Z" fill="white"/>
<path d="M13.4063 23.2405C13.1705 23.2396 12.941 23.1642 12.7505 23.0252C12.5601 22.8861 12.4184 22.6905 12.3457 22.4661L9.90467 14.7138C9.81749 14.4337 9.84467 14.1304 9.98029 13.8702C10.1159 13.61 10.349 13.414 10.6286 13.325C10.9088 13.2401 11.2111 13.2683 11.4707 13.4036C11.7303 13.5389 11.9265 13.7706 12.0174 14.0489L14.4584 21.8012C14.5456 22.0813 14.5184 22.3846 14.3828 22.6448C14.2472 22.905 14.0142 23.101 13.7346 23.19C13.6283 23.2232 13.5176 23.2403 13.4063 23.2405V23.2405Z" fill="white"/>
<path d="M20.2087 16.4302C19.973 16.4328 19.7429 16.3587 19.5531 16.219C19.3633 16.0793 19.2241 15.8816 19.1565 15.6558L17.4731 10.2351C17.4286 10.097 17.4117 9.95136 17.4236 9.8067C17.4355 9.66204 17.4759 9.52117 17.5424 9.39213C17.6088 9.2631 17.7001 9.14845 17.811 9.05478C17.9219 8.96111 18.0502 8.89025 18.1885 8.84627C18.3272 8.80195 18.4733 8.78553 18.6184 8.79798C18.7635 8.81043 18.9046 8.85149 19.0338 8.91879C19.1629 8.98609 19.2774 9.0783 19.3707 9.1901C19.464 9.3019 19.5343 9.43106 19.5774 9.57015L21.2608 14.9909C21.3063 15.1295 21.3236 15.2759 21.3117 15.4213C21.2998 15.5668 21.2589 15.7084 21.1915 15.8378C21.124 15.9672 21.0313 16.0818 20.9189 16.1749C20.8065 16.268 20.6766 16.3376 20.5369 16.3797C20.4316 16.417 20.3203 16.4341 20.2087 16.4302V16.4302Z" fill="white"/>
<path d="M26.2018 18.4759C26.0877 18.4756 25.9743 18.4586 25.8651 18.4254L20.0993 16.6073C19.8197 16.5183 19.5866 16.3223 19.451 16.0621C19.3154 15.8019 19.2882 15.4986 19.3754 15.2184C19.4644 14.9388 19.6604 14.7058 19.9206 14.5701C20.1808 14.4345 20.4841 14.4073 20.7642 14.4945L26.5301 16.3126C26.6691 16.3558 26.7983 16.426 26.9101 16.5193C27.0219 16.6126 27.1141 16.7271 27.1814 16.8562C27.2487 16.9853 27.2898 17.1265 27.3022 17.2716C27.3147 17.4167 27.2983 17.5628 27.254 17.7015C27.184 17.9258 27.0442 18.122 26.8549 18.2613C26.6656 18.4006 26.4368 18.4758 26.2018 18.4759V18.4759Z" fill="white"/>
<path d="M21.3453 25.9005C21.2312 25.9002 21.1178 25.8832 21.0086 25.85L13.2648 23.409C13.125 23.3669 12.9952 23.2972 12.8827 23.2042C12.7703 23.1111 12.6777 22.9965 12.6102 22.8671C12.5427 22.7377 12.5019 22.5961 12.49 22.4506C12.4781 22.3052 12.4953 22.1588 12.5408 22.0202C12.6298 21.7406 12.8258 21.5075 13.086 21.3719C13.3462 21.2363 13.6495 21.2091 13.9297 21.2963L21.6736 23.7373C21.9532 23.8263 22.1863 24.0223 22.3219 24.2825C22.4575 24.5427 22.4847 24.846 22.3975 25.1261C22.3275 25.3505 22.1877 25.5466 21.9985 25.6859C21.8092 25.8252 21.5803 25.9004 21.3453 25.9005Z" fill="white"/>
</g>
<defs>
<clipPath id="clip0_353_10897">
<rect width="35.6472" height="35.6472" fill="white"/>
</clipPath>
</defs>
</svg>
