<svg width="47" height="52" viewBox="0 0 47 52" fill="none" xmlns="http://www.w3.org/2000/svg">
<g clip-path="url(#clip0_353_10780)">
<path d="M23.1442 51.6889C22.7341 51.6957 22.3298 51.5911 21.9744 51.3862C21.6191 51.1812 21.326 50.8837 21.1265 50.5253C19.0549 46.8665 14.2324 37.1341 14.2324 25.8481C14.2324 14.562 19.0549 4.83643 21.1265 1.17755C21.326 0.819168 21.6191 0.521673 21.9744 0.316757C22.3298 0.111842 22.7341 0.00720006 23.1442 0.0139818C23.5544 0.00720006 23.9587 0.111842 24.314 0.316757C24.6693 0.521673 24.9624 0.819168 25.162 1.17755C27.2336 4.83643 32.056 14.5688 32.056 25.8481C32.056 37.1274 27.2336 46.8665 25.162 50.5253C24.9624 50.8837 24.6693 51.1812 24.314 51.3862C23.9587 51.5911 23.5544 51.6957 23.1442 51.6889V51.6889ZM23.1442 1.78287C23.0526 1.78284 22.9627 1.80711 22.8835 1.85319C22.8043 1.89927 22.7388 1.96552 22.6936 2.04519C20.6758 5.58973 16.0282 14.9925 16.0282 25.8481C16.0282 36.7037 20.6893 46.0997 22.707 49.6712C22.7508 49.7526 22.8158 49.8205 22.8952 49.8679C22.9745 49.9153 23.0653 49.9403 23.1577 49.9402C23.2511 49.9408 23.3429 49.9161 23.4234 49.8687C23.5039 49.8213 23.5702 49.7531 23.615 49.6712C25.6328 46.1333 30.2737 36.7306 30.2737 25.8683C30.2737 15.006 25.6126 5.60991 23.615 2.06537C23.5722 1.97688 23.5053 1.90221 23.4221 1.84989C23.3388 1.79756 23.2425 1.76968 23.1442 1.76943V1.78287Z" fill="white"/>
<path d="M23.146 43.2947C22.8731 43.2977 22.6044 43.2276 22.3678 43.0916C22.1312 42.9555 21.9354 42.7586 21.8008 42.5212C19.7769 39.0047 18.669 35.036 18.5791 30.9796C18.5791 30.7576 18.5791 30.5424 18.5791 30.307C18.5869 29.7215 18.711 29.1434 18.9442 28.6062C19.1774 28.0691 19.515 27.5837 19.9374 27.1781C20.3598 26.7726 20.8586 26.4551 21.4048 26.244C21.951 26.0329 22.5337 25.9325 23.1191 25.9486C23.7047 25.9316 24.2878 26.0314 24.8344 26.2421C25.381 26.4529 25.8801 26.7704 26.3027 27.1761C26.7253 27.5818 27.0629 28.0676 27.2958 28.6051C27.5287 29.1427 27.6521 29.7212 27.659 30.307C27.659 30.5222 27.659 30.7375 27.659 30.9796C27.5691 35.036 26.4613 39.0047 24.4373 42.5212C24.3073 42.7507 24.1199 42.9426 23.8936 43.0781C23.6673 43.2137 23.4097 43.2883 23.146 43.2947V43.2947ZM23.146 27.7377C22.7872 27.7184 22.4283 27.7728 22.0914 27.8976C21.7545 28.0223 21.4467 28.2148 21.187 28.4631C20.9274 28.7114 20.7214 29.0103 20.5817 29.3413C20.442 29.6723 20.3716 30.0284 20.3749 30.3877C20.3749 30.5828 20.3749 30.7778 20.3749 30.9796C20.472 34.5815 21.4241 38.1087 23.1527 41.2702C24.8873 38.1107 25.8419 34.5826 25.9372 30.9796C25.9372 30.7778 25.9372 30.5828 25.9372 30.3877C25.9407 30.0266 25.8697 29.6688 25.7288 29.3363C25.5879 29.0039 25.3801 28.704 25.1182 28.4554C24.8563 28.2068 24.5461 28.0147 24.2068 27.8913C23.8675 27.7678 23.5064 27.7155 23.146 27.7377V27.7377Z" fill="white"/>
<path d="M18.6721 21.8396H18.5443C18.4293 21.8232 18.3188 21.7841 18.2189 21.7248C18.1191 21.6654 18.032 21.5869 17.9626 21.4938C17.8932 21.4007 17.8429 21.2947 17.8146 21.1821C17.7863 21.0695 17.7806 20.9523 17.7977 20.8375C19.4859 9.28241 22.331 6.00017 22.452 5.86565C22.5338 5.76784 22.637 5.69024 22.7537 5.6389C22.8703 5.58757 22.9973 5.56389 23.1246 5.56971C23.2515 5.57112 23.3768 5.59875 23.4925 5.65083C23.6083 5.70291 23.712 5.77833 23.7972 5.87238C24.7833 7.10791 25.4735 8.55276 25.815 10.0962C25.8407 10.2093 25.8436 10.3264 25.8236 10.4407C25.8036 10.5549 25.761 10.6641 25.6984 10.7617C25.6358 10.8594 25.5544 10.9436 25.459 11.0095C25.3635 11.0754 25.2559 11.1216 25.1424 11.1455C24.9132 11.1956 24.6735 11.153 24.4757 11.027C24.2778 10.901 24.1379 10.7018 24.0864 10.4729C23.8961 9.61994 23.5714 8.80265 23.1246 8.05156C22.2503 9.67923 20.6428 13.4995 19.533 21.0931C19.5025 21.2999 19.3988 21.4889 19.2409 21.6258C19.0829 21.7628 18.8811 21.8387 18.6721 21.8396V21.8396Z" fill="white"/>
<path d="M2.16042 34.3092C1.97023 34.3071 1.78081 34.2846 1.59545 34.242C1.31539 34.1761 1.05168 34.0538 0.820414 33.8827C0.589144 33.7115 0.395153 33.4951 0.25027 33.2465C0.125844 33.0268 0.0484397 32.7836 0.0229677 32.5323C-0.0025044 32.2811 0.0245111 32.0273 0.1023 31.787L0.344432 31.0539C0.465416 30.6939 0.465416 30.3042 0.344432 29.9441L0.1023 29.211C0.0245111 28.9707 -0.0025044 28.717 0.0229677 28.4657C0.0484397 28.2145 0.125844 27.9712 0.25027 27.7515C0.395153 27.5029 0.589144 27.2865 0.820414 27.1153C1.05168 26.9442 1.31539 26.8219 1.59545 26.7561C1.89331 26.6887 2.20079 26.6751 2.50344 26.7157L9.13517 27.6371C9.86823 27.6933 10.5558 28.0144 11.0694 28.5404C11.5831 29.0664 11.8877 29.7614 11.9264 30.4956C11.8879 31.2305 11.5835 31.9264 11.07 32.4535C10.5565 32.9807 9.86882 33.3031 9.13517 33.3609L2.50344 34.2823C2.38973 34.298 2.27518 34.3069 2.16042 34.3092V34.3092ZM2.16042 28.4577C2.10909 28.4507 2.05705 28.4507 2.00573 28.4577C1.9602 28.462 1.91634 28.4771 1.87776 28.5016C1.83917 28.5262 1.80696 28.5595 1.78377 28.599L2.01245 29.3724C2.24765 30.0913 2.24765 30.8664 2.01245 31.5852L1.77032 32.3184C1.77032 32.3184 1.77032 32.3184 1.77032 32.3587C1.79466 32.3971 1.82717 32.4297 1.86553 32.4541C1.9039 32.4785 1.94717 32.4942 1.99227 32.5C2.07468 32.5134 2.15873 32.5134 2.24114 32.5L8.87958 31.5718C9.18511 31.5581 9.47685 31.4407 9.70672 31.239C9.93658 31.0372 10.0908 30.7632 10.144 30.462C10.144 29.9307 9.59925 29.4599 8.87958 29.359L2.24114 28.4308L2.16042 28.4577Z" fill="white"/>
<path d="M44.137 34.3091C44.0227 34.3158 43.9082 34.3158 43.7939 34.3091L37.1555 33.3877C36.4224 33.3285 35.7355 33.0056 35.2223 32.4788C34.709 31.9519 34.4042 31.2569 34.3643 30.5224C34.4044 29.7887 34.7094 29.0945 35.2228 28.5688C35.7362 28.043 36.4229 27.7215 37.1555 27.6639L43.7939 26.7425C44.0944 26.702 44.3996 26.7156 44.6952 26.7828C44.9756 26.848 45.2396 26.97 45.471 27.1412C45.7023 27.3124 45.8961 27.5292 46.0404 27.7783C46.1664 27.9974 46.2447 28.2407 46.2702 28.4922C46.2957 28.7437 46.2678 28.9978 46.1884 29.2378L45.953 29.9709C45.832 30.3309 45.832 30.7206 45.953 31.0807L46.1884 31.8138C46.2678 32.0538 46.2957 32.3079 46.2702 32.5594C46.2447 32.8109 46.1664 33.0542 46.0404 33.2733C45.8961 33.5224 45.7023 33.7392 45.471 33.9104C45.2396 34.0817 44.9756 34.2036 44.6952 34.2688C44.5111 34.3023 44.324 34.3159 44.137 34.3091ZM44.137 28.4576H44.0361L37.4044 29.3858C36.678 29.4866 36.1332 29.9575 36.1332 30.4888C36.1332 31.0202 36.678 31.4977 37.4044 31.5986L44.0361 32.5268C44.1207 32.5403 44.207 32.5403 44.2917 32.5268C44.3361 32.519 44.3786 32.5025 44.4167 32.4783C44.4548 32.454 44.4877 32.4225 44.5136 32.3855L45.3611 32.0694L44.5203 32.3451L44.2849 31.612C44.043 30.8943 44.043 30.117 44.2849 29.3992L44.5203 28.6661C44.5024 28.6179 44.4716 28.5754 44.4313 28.5434C44.391 28.5114 44.3427 28.4911 44.2917 28.4845C44.2415 28.4689 44.1895 28.4599 44.137 28.4576V28.4576Z" fill="white"/>
<path d="M41.6139 31.3837H4.82337C4.5879 31.3837 4.36209 31.2901 4.19559 31.1236C4.02909 30.9571 3.93555 30.7313 3.93555 30.4958C3.93732 30.2615 4.03164 30.0375 4.19795 29.8724C4.36425 29.7074 4.58907 29.6147 4.82337 29.6147H41.6139C41.8476 29.6147 42.0717 29.7076 42.237 29.8728C42.4022 30.0381 42.495 30.2622 42.495 30.4958C42.495 30.7301 42.4024 30.9549 42.2374 31.1213C42.0723 31.2876 41.8482 31.3819 41.6139 31.3837V31.3837Z" fill="white"/>
<path d="M27.7193 25.5245C27.4844 25.514 27.263 25.4115 27.1032 25.239C26.9433 25.0666 26.8578 24.8381 26.8651 24.6031C26.8529 22.0738 26.5573 19.5538 25.984 17.0903C25.9317 16.8593 25.9731 16.617 26.0992 16.4165C26.2253 16.2161 26.4257 16.0738 26.6566 16.0209C26.7706 15.9941 26.8888 15.9903 27.0042 16.0098C27.1197 16.0292 27.2301 16.0715 27.3291 16.1341C27.428 16.1968 27.5135 16.2785 27.5805 16.3745C27.6475 16.4706 27.6947 16.579 27.7193 16.6935C28.3364 19.3121 28.6479 21.9934 28.6474 24.6838C28.6353 24.9182 28.5308 25.1382 28.3568 25.2957C28.1829 25.4532 27.9537 25.5355 27.7193 25.5245V25.5245Z" fill="white"/>
</g>
<defs>
<clipPath id="clip0_353_10780">
<rect width="46.2943" height="51.675" fill="white"/>
</clipPath>
</defs>
</svg>
