<svg width="45" height="49" viewBox="0 0 45 49" fill="none" xmlns="http://www.w3.org/2000/svg">
<g clip-path="url(#clip0_351_11820)">
<path d="M28.7871 29.7949C27.8455 29.7949 26.8366 29.5932 25.6932 29.1224L26.3658 27.4409C27.3074 27.7772 28.1145 27.979 28.7871 27.979C28.9889 27.979 29.1234 27.979 29.3252 27.979L29.3924 29.7277C29.1234 29.7949 28.9889 29.7949 28.7871 29.7949ZM31.4775 29.5932L31.2084 27.8444C32.3518 27.6427 33.2935 27.3064 33.966 26.8356L34.9749 28.248C34.1006 28.9206 32.8899 29.3914 31.4775 29.5932ZM23.81 28.248C23.0029 27.8444 22.1285 27.3064 21.2541 26.8356L20.7833 26.5665L21.6577 25.0196L22.1285 25.2886C23.0029 25.7594 23.81 26.2302 24.6171 26.6338L23.81 28.248ZM7.60059 27.7772C7.60059 27.7772 7.60059 27.7099 7.60059 27.6427C7.60059 27.1719 7.66784 25.4231 8.8785 24.0779L10.2237 25.2213C9.41657 26.163 9.34932 27.4409 9.34932 27.6427L7.60059 27.7772ZM36.5219 26.432L34.9077 25.6922C35.1094 25.2213 35.244 24.6833 35.244 24.1452H36.9927C36.9927 24.9523 36.7909 25.7594 36.5219 26.432ZM19.1018 25.6249C17.9584 25.0196 17.0168 24.616 16.1425 24.2797L16.6805 22.5983C17.6222 22.9345 18.631 23.4054 19.909 24.0107L19.1018 25.6249ZM11.5016 24.2797L10.829 22.6655C11.6361 22.3292 12.5777 22.1274 13.6539 22.1274H13.7211C13.9902 22.1274 14.2592 22.1274 14.5955 22.1947L14.3937 23.9434C14.192 23.9434 13.9902 23.8762 13.7211 23.8762H13.6539C12.8468 23.8762 12.1069 24.0107 11.5016 24.2797Z" fill="white"/>
<path d="M14.7971 47.6862C14.6626 47.6862 14.5281 47.6862 14.3936 47.6189L11.2324 46.072L12.0395 44.4577L13.9228 45.3994V43.5161H15.6715V46.8791C15.6715 47.2153 15.537 47.4844 15.268 47.6189C15.1334 47.6862 14.9989 47.6862 14.7971 47.6862Z" fill="white"/>
<path d="M15.6706 25.356H13.9219V45.2646H15.6706V25.356Z" fill="white"/>
<path d="M12.9137 46.8795L0 40.5572V7.19678L15.6713 14.8643V20.7831H13.9226V15.9404L1.74873 10.0216V39.481L13.6535 45.2653L12.9137 46.8795Z" fill="white"/>
<path d="M29.5944 12.9136H27.8457V26.3653H29.5944V12.9136Z" fill="white"/>
<path d="M21.8598 44.3901L21.0527 42.7759L27.8459 39.4802V31.1401H29.5946V40.0183C29.5946 40.3546 29.3928 40.6909 29.1238 40.8254L21.8598 44.3901Z" fill="white"/>
<path d="M14.7964 47.6861C14.4601 47.6861 14.1238 47.4843 13.9893 47.2152C13.7875 46.7444 13.9893 46.2736 14.3929 46.0046L21.9259 42.3726C22.3967 42.1708 22.8675 42.3726 23.1365 42.7762C23.4056 43.1797 23.1365 43.7178 22.733 43.9868L15.2672 47.6188C15.0655 47.6861 14.9309 47.6861 14.7964 47.6861Z" fill="white"/>
<path d="M29.1231 7.40478L13.5938 14.9966L14.3618 16.5676L29.8911 8.97584L29.1231 7.40478Z" fill="white"/>
<path d="M43.5838 48.2244L27.5762 40.4224L28.316 38.8082L41.7678 45.3995V15.5366H43.5838V48.2244Z" fill="white"/>
<path d="M6.53944 29.4612L5.30273 30.6978L9.77325 35.1689L11.01 33.9324L6.53944 29.4612Z" fill="white"/>
<path d="M9.8172 29.4142L5.34668 33.8848L6.58321 35.1213L11.0537 30.6508L9.8172 29.4142Z" fill="white"/>
<path d="M36.8565 22.1944L36.1166 21.1856C35.9148 20.9165 31.0049 13.9216 29.7943 11.6348C29.189 10.4914 28.9199 9.21348 28.9199 8.00282C28.9199 3.56374 32.4846 -0.000976562 36.8565 -0.000976562C41.2283 -0.000976562 44.793 3.56374 44.793 7.93557C44.793 9.14622 44.524 10.2896 43.9859 11.3658C42.8425 13.7871 37.7981 20.8493 37.5963 21.1183L36.8565 22.1944ZM36.8565 1.74775C33.4263 1.74775 30.6687 4.50537 30.6687 7.93557C30.6687 8.94445 30.8704 9.88607 31.3412 10.7604C32.2156 12.4419 35.3768 17.0155 36.7892 19.1005C38.2689 17.0155 41.4973 12.3746 42.3044 10.6259C42.708 9.75155 42.9098 8.87719 42.9098 7.93557C43.0443 4.50537 40.2867 1.74775 36.8565 1.74775Z" fill="white"/>
<path d="M36.8573 11.7034C34.7723 11.7034 33.0908 10.0219 33.0908 7.9369C33.0908 5.85188 34.7723 4.17041 36.8573 4.17041C38.9423 4.17041 40.6238 5.85188 40.6238 7.9369C40.6238 10.0219 38.9423 11.7034 36.8573 11.7034ZM36.8573 5.91914C35.7812 5.91914 34.8395 6.7935 34.8395 7.9369C34.8395 9.0803 35.7139 9.95467 36.8573 9.95467C38.0007 9.95467 38.8751 9.0803 38.8751 7.9369C38.8751 6.7935 37.9335 5.91914 36.8573 5.91914Z" fill="white"/>
</g>
<defs>
<clipPath id="clip0_351_11820">
<rect width="44.7944" height="48.2246" fill="white"/>
</clipPath>
</defs>
</svg>
