<svg width="56" height="32" viewBox="0 0 56 32" fill="none" xmlns="http://www.w3.org/2000/svg">
<g clip-path="url(#clip0_351_11961)">
<path d="M11.3687 31.8126C5.11362 31.8126 0.00195312 26.7009 0.00195312 20.4458C0.00195312 14.1908 5.11362 9.0791 11.3687 9.0791C17.6238 9.0791 22.7354 14.1908 22.7354 20.4458C22.7354 26.7009 17.6238 31.8126 11.3687 31.8126ZM11.3687 10.8951C6.05525 10.8951 1.75068 15.1997 1.75068 20.4458C1.75068 25.692 6.05525 30.0639 11.3687 30.0639C16.6821 30.0639 20.9194 25.7593 20.9194 20.5131C20.9194 15.2669 16.6149 10.8951 11.3687 10.8951Z" fill="white"/>
<path d="M43.854 31.8131C37.599 31.8131 32.4873 26.7014 32.4873 20.4463C32.4873 14.1913 37.599 9.07959 43.854 9.07959C50.1091 9.07959 55.2208 14.1913 55.2208 20.4463C55.2208 26.7014 50.1091 31.8131 43.854 31.8131ZM43.854 10.8956C38.5406 10.8956 34.3033 15.2001 34.3033 20.4463C34.3033 25.6925 38.6079 29.9971 43.854 29.9971C49.1002 29.9971 53.4048 25.6925 53.4048 20.4463C53.4048 15.2001 49.1002 10.8956 43.854 10.8956Z" fill="white"/>
<path d="M26.4338 21.321H9.61914L20.3133 6.79305V1.00879H22.062V7.33112L13.1166 19.5722H26.4338V21.321Z" fill="white"/>
<path d="M27.5094 23.2718C25.9625 23.2718 24.6846 21.9939 24.6846 20.4469C24.6846 18.9 25.9625 17.6221 27.5094 17.6221C29.0564 17.6221 30.3343 18.9 30.3343 20.4469C30.2671 21.9939 29.0564 23.2718 27.5094 23.2718ZM27.5094 19.4381C26.9041 19.4381 26.4333 19.9089 26.4333 20.5142C26.4333 21.1195 26.9041 21.5903 27.5094 21.5903C28.1148 21.5903 28.5856 21.1195 28.5856 20.5142C28.5183 19.9089 28.0475 19.4381 27.5094 19.4381Z" fill="white"/>
<path d="M44.7277 4.97667H42.9789V3.29519C42.9789 2.42083 42.3063 1.74824 41.432 1.74824H37.531V4.70763H35.7822V-0.000488281H41.432C43.248 -0.000488281 44.7277 1.47921 44.7277 3.29519V4.97667Z" fill="white"/>
<path d="M36.2194 6.56724L29.5039 15.9863L30.9277 17.0015L37.6432 7.58238L36.2194 6.56724Z" fill="white"/>
<path d="M19.1007 0.465295L18.8457 2.19531L26.2981 3.29362L26.5531 1.56361L19.1007 0.465295Z" fill="white"/>
<path d="M23.2699 9.69317L21.6709 10.4009L25.5905 19.2571L27.1896 18.5494L23.2699 9.69317Z" fill="white"/>
<path d="M43.4507 21.6575L36.3885 7.93672H20.9189V6.18799H37.4646L45.0649 20.8504L43.4507 21.6575Z" fill="white"/>
</g>
<defs>
<clipPath id="clip0_351_11961">
<rect width="55.2195" height="31.8134" fill="white"/>
</clipPath>
</defs>
</svg>
