<svg width="47" height="51" viewBox="0 0 47 51" fill="none" xmlns="http://www.w3.org/2000/svg">
<g clip-path="url(#clip0_351_12276)">
<path d="M18.4268 50.1086C15.2657 50.1086 12.6426 47.4855 12.6426 44.3243V43.4499H14.3913V44.3243C14.3913 46.5438 16.2073 48.3598 18.4268 48.3598C20.6464 48.3598 22.4624 46.5438 22.4624 44.3243V25.29H24.2111V44.3243C24.2111 47.4855 21.588 50.1086 18.4268 50.1086Z" fill="white"/>
<path d="M46.6074 26.0981H45.0605L44.7914 25.6273C43.9171 23.9458 41.294 22.8024 38.4019 22.8024C35.5097 22.8024 32.8194 23.9458 32.0123 25.6273L31.7432 26.0981H29.9272L29.6582 25.6273C28.7838 23.9458 26.1608 22.8024 23.2686 22.8024C20.3765 22.8024 17.6861 23.9458 16.879 25.6273L16.61 26.0981H14.794L14.525 25.6273C13.6506 23.9458 11.0275 22.8024 8.13539 22.8024C5.24326 22.8024 2.62016 23.9458 1.7458 25.6273L1.47676 26.0981H-0.00292969V25.2237C0.333364 12.4445 10.5567 2.49023 23.2686 2.49023C35.9805 2.49023 46.2039 12.4445 46.5402 25.1565L46.6074 26.0981ZM8.20265 21.0537C11.4311 21.0537 14.3905 22.2643 15.7356 24.1476C17.1481 22.2643 20.0402 21.0537 23.2686 21.0537C26.497 21.0537 29.4564 22.2643 30.8016 24.1476C32.214 22.2643 35.1062 21.0537 38.3346 21.0537C40.7559 21.0537 42.9755 21.7263 44.5224 22.8697C43.1772 12.2428 34.2318 4.23896 23.2686 4.23896C12.3727 4.23896 3.42727 12.2428 2.01484 22.8024C3.56179 21.7263 5.78133 21.0537 8.20265 21.0537Z" fill="white"/>
<path d="M15.1315 25.9629L14.8624 25.0886C14.7279 24.685 12.0376 14.6635 17.6873 7.13047L18.2254 6.39062L19.6378 7.46677L19.0997 8.20661C13.9881 15.067 16.5439 24.5505 16.5439 24.6178L16.8129 25.4921L15.1315 25.9629Z" fill="white"/>
<path d="M32.483 19.9089H30.7343V19.0346C30.7343 14.5282 29.5236 8.34041 23.5376 4.57392L22.7305 4.03585L23.6721 2.55615L24.4119 3.02696C31.0706 7.26427 32.483 14.0574 32.4157 19.0346L32.483 19.9089Z" fill="white"/>
<path d="M24.1423 0.000976562H22.3936V3.90199H24.1423V0.000976562Z" fill="white"/>
</g>
<defs>
<clipPath id="clip0_351_12276">
<rect width="46.6104" height="50.1078" fill="white"/>
</clipPath>
</defs>
</svg>
