<svg width="41" height="49" viewBox="0 0 41 49" fill="none" xmlns="http://www.w3.org/2000/svg">
<g clip-path="url(#clip0_351_12486)">
<path d="M20.0427 25.6934H18.2939V48.4268H20.0427V25.6934Z" fill="white"/>
<path d="M24.0786 46.6787H14.2588V48.4274H24.0786V46.6787Z" fill="white"/>
<path d="M22.8669 27.4426H15.4685L5.24512 8.47556L6.79207 7.66846L16.5446 25.6938H21.7908L31.5433 7.66846L33.0903 8.47556L22.8669 27.4426Z" fill="white"/>
<path d="M28.1134 14.5962H19.168V16.3449H28.1134V14.5962Z" fill="white"/>
<path d="M15.7384 14.5962H9.9541V16.3449H15.7384V14.5962Z" fill="white"/>
<path d="M17.2855 19.9091L9.41624 5.9865C8.87817 5.11214 7.80202 4.77585 6.8604 5.24666L0.807106 8.47508L0 6.86087L6.05329 3.63245C7.80202 2.69082 9.95431 3.36341 10.9632 5.11214L18.7652 19.0347L17.2855 19.9091Z" fill="white"/>
<path d="M32.3521 16.3444V14.5957C35.8496 14.5957 38.7417 11.7035 38.7417 8.20607C38.7417 4.70861 35.8496 1.81648 32.3521 1.81648C28.8547 1.81648 25.9625 4.70861 25.9625 8.20607H24.2138C24.1465 3.63246 27.8458 0.000488281 32.3521 0.000488281C36.8585 0.000488281 40.4904 3.63247 40.4904 8.13881C40.4904 12.6451 36.8585 16.3444 32.3521 16.3444Z" fill="white"/>
<path d="M33.2253 0.875H31.4766V3.63261H33.2253V0.875Z" fill="white"/>
<path d="M27.7746 2.43388L26.5381 3.67041L28.488 5.62032L29.7245 4.38379L27.7746 2.43388Z" fill="white"/>
<path d="M36.1584 10.7376L34.9219 11.9741L36.8718 13.924L38.1083 12.6875L36.1584 10.7376Z" fill="white"/>
<path d="M39.615 7.26416H36.8574V9.01289H39.615V7.26416Z" fill="white"/>
<path d="M36.8317 2.39482L34.8818 4.34473L36.1184 5.58125L38.0683 3.63135L36.8317 2.39482Z" fill="white"/>
</g>
<defs>
<clipPath id="clip0_351_12486">
<rect width="40.4898" height="48.4264" fill="white"/>
</clipPath>
</defs>
</svg>
