<svg width="54" height="42" viewBox="0 0 54 42" fill="none" xmlns="http://www.w3.org/2000/svg">
<g clip-path="url(#clip0_351_12644)">
<path d="M47.4824 39.3478H46.4062V37.599H47.5496C49.7019 37.599 51.5179 35.8503 51.5179 33.6308V31.344C51.5179 29.1917 49.7692 27.3757 47.5496 27.3757H46.4062V25.627H47.5496C50.7108 25.627 53.2666 28.1828 53.2666 31.344V33.6308C53.2666 36.7919 50.6436 39.3478 47.4824 39.3478Z" fill="white"/>
<path d="M5.98493 26.7018H4.16895V22.3299C4.16895 10.0216 14.1905 0 26.5661 0C38.8745 0 48.8961 10.0216 48.8961 22.3299V23.8769H47.1473V22.3299C47.1473 10.9632 37.9329 1.74873 26.5661 1.74873C15.1994 1.74873 5.98493 11.0304 5.98493 22.3299V26.7018Z" fill="white"/>
<path d="M10.154 20.5805L8.40527 20.3787C9.41416 11.097 17.2162 4.10205 26.5652 4.10205C31.0042 4.10205 35.2415 5.71626 38.6045 8.60839C38.739 8.67565 38.8063 8.81017 38.8735 8.87743L39.4116 9.4155L40.0169 10.0208L35.8469 14.1909L35.2415 13.5855C32.8875 11.4333 29.7936 10.2226 26.6324 10.2226C23.404 10.2226 20.3773 11.4333 18.0233 13.5855L17.418 14.1909L14.4586 11.2315C12.1045 13.7873 10.5576 17.0157 10.154 20.5805ZM15.602 10.0208L17.3507 11.7696C19.9065 9.68453 23.135 8.47387 26.4979 8.47387C29.8608 8.47387 33.0893 9.61727 35.6451 11.7696L37.3938 10.0208L37.3266 9.95357C34.2999 7.33048 30.4662 5.85078 26.4979 5.85078C22.3951 5.91804 18.4941 7.46499 15.602 10.0208Z" fill="white"/>
<path d="M44.7931 24.4822H43.0444V22.3299C43.0444 18.8997 42.0355 15.6713 40.085 12.9137L41.5647 11.9048C43.7169 14.9987 44.8603 18.6307 44.8603 22.3972V24.4822H44.7931Z" fill="white"/>
<path d="M43.0454 41.498H37.4629V23.4727H43.0454C45.3322 23.4727 47.2154 25.3559 47.2154 27.6427V37.2607C47.2827 39.6148 45.3994 41.498 43.0454 41.498ZM39.2116 39.682H43.0454C44.3906 39.682 45.4667 38.6059 45.4667 37.2607V27.71C45.4667 26.3648 44.3906 25.2886 43.0454 25.2886H39.2116V39.682V39.682Z" fill="white"/>
<path d="M7.73281 39.3473H5.71505C2.55388 39.3473 -0.00195312 36.7914 -0.00195312 33.6303V31.3435C-0.00195312 28.1823 2.55388 25.6265 5.71505 25.6265H7.73281V39.3473ZM5.71505 27.4425C3.56276 27.4425 1.74678 29.1912 1.74678 31.4107V33.6303C1.74678 35.7825 3.49551 37.5985 5.71505 37.5985H5.98408V27.4425H5.71505Z" fill="white"/>
<path d="M15.7379 41.4986H10.1554C7.8686 41.4986 5.98535 39.6154 5.98535 37.3286V27.7106C5.98535 25.4238 7.8686 23.5405 10.1554 23.5405H15.7379V41.4986ZM10.1554 25.2893C8.81022 25.2893 7.73408 26.3654 7.73408 27.7106V37.3286C7.73408 38.6738 8.81022 39.7499 10.1554 39.7499H13.9892V25.2893H10.1554Z" fill="white"/>
</g>
<defs>
<clipPath id="clip0_351_12644">
<rect width="53.269" height="41.4987" fill="white"/>
</clipPath>
</defs>
</svg>
