<svg width="38" height="42" viewBox="0 0 38 42" fill="none" xmlns="http://www.w3.org/2000/svg">
<g clip-path="url(#clip0_351_12512)">
<path d="M11.8383 8.81091C9.55151 7.19669 10.4259 5.31345 10.9639 4.03553C11.5693 2.69035 11.7038 2.15228 10.6276 1.41244L11.7038 0C13.9906 1.68147 13.1835 3.56472 12.5782 4.77538C11.9728 6.12055 11.8383 6.59136 12.8472 7.33121L11.8383 8.81091Z" fill="white"/>
<path d="M16.8158 8.81091C14.529 7.19669 15.4034 5.31345 15.9415 4.03553C16.5468 2.69035 16.6813 2.15228 15.6052 1.41244L16.6813 0C18.9681 1.68147 18.161 3.56472 17.5557 4.77538C16.9504 6.12055 16.8158 6.59136 17.8247 7.33121L16.8158 8.81091Z" fill="white"/>
<path d="M21.7925 8.81091C19.5057 7.19669 20.3128 5.31345 20.8508 4.10279C21.4562 2.75761 21.5907 2.21954 20.5145 1.47969L21.5907 0C23.8775 1.68147 23.0704 3.56472 22.4651 4.77538C21.8597 6.12055 21.7252 6.59136 22.7341 7.33121L21.7925 8.81091Z" fill="white"/>
<path d="M8.0038 37.598C4.77538 35.1767 2.69035 31.6793 2.15228 27.711L0 12.376H33.4949L31.3426 27.7782C30.8045 31.7465 28.7195 35.244 25.4911 37.598L24.415 36.1856C27.2398 34.1006 29.1231 31.0067 29.5939 27.5092L31.4099 14.1247H2.01776L3.90101 27.5092C4.37182 31.0067 6.25507 34.1006 9.07994 36.1856L8.0038 37.598Z" fill="white"/>
<path d="M33.0216 30.8719H29.9277V29.1231H33.0216C34.0305 29.1231 34.9049 28.3833 35.0394 27.3744L35.5775 23.0698C35.712 22.1955 35.1739 21.3211 34.3668 20.9848C34.2323 20.9176 34.165 20.9176 34.0305 20.8503L34.4341 19.1016C34.6359 19.1688 34.8376 19.2361 35.0394 19.3033C36.5864 19.9759 37.528 21.5901 37.3262 23.2716L36.7881 27.5762C36.5864 29.3922 34.9049 30.8719 33.0216 30.8719Z" fill="white"/>
<path d="M7.31397 18.8819L5.58203 19.123L6.66721 26.9168L8.39915 26.6756L7.31397 18.8819Z" fill="white"/>
<path d="M27.778 41.4986H5.78441C3.22858 41.4986 1.14355 39.4136 1.14355 36.8578V35.9834H32.4189V36.8578C32.4189 39.4136 30.3339 41.4986 27.778 41.4986ZM3.0268 37.7321C3.43035 38.8755 4.5065 39.7499 5.78441 39.7499H27.778C29.056 39.7499 30.1321 38.9428 30.5357 37.7321H3.0268Z" fill="white"/>
</g>
<defs>
<clipPath id="clip0_351_12512">
<rect width="37.3287" height="41.4987" fill="white"/>
</clipPath>
</defs>
</svg>
