<svg width="57" height="35" viewBox="0 0 57 35" fill="none" xmlns="http://www.w3.org/2000/svg">
<g clip-path="url(#clip0_353_10844)">
<path d="M39.2454 30.1923H17.5208C17.4045 30.1923 17.2894 30.1693 17.182 30.1246C17.0747 30.0799 16.9773 30.0144 16.8954 29.9318C16.8134 29.8493 16.7487 29.7514 16.7048 29.6437C16.6609 29.536 16.6388 29.4207 16.6397 29.3045C16.6388 29.1885 16.661 29.0735 16.7049 28.9662C16.7489 28.8589 16.8137 28.7614 16.8957 28.6794C16.9777 28.5974 17.0752 28.5326 17.1825 28.4886C17.2898 28.4447 17.4048 28.4225 17.5208 28.4234H39.2454C39.3616 28.4225 39.4769 28.4446 39.5846 28.4885C39.6923 28.5324 39.7902 28.5971 39.8727 28.679C39.9553 28.7609 40.0208 28.8584 40.0655 28.9657C40.1102 29.0731 40.1332 29.1882 40.1332 29.3045C40.1332 29.5399 40.0397 29.7658 39.8732 29.9323C39.7067 30.0988 39.4808 30.1923 39.2454 30.1923Z" fill="white"/>
<path d="M50.7394 30.1925H48.6073C48.491 30.1925 48.3759 30.1695 48.2685 30.1248C48.1612 30.0801 48.0638 30.0146 47.9819 29.9321C47.9 29.8495 47.8352 29.7516 47.7913 29.6439C47.7474 29.5363 47.7253 29.4209 47.7262 29.3047C47.7253 29.1887 47.7475 29.0738 47.7914 28.9665C47.8354 28.8591 47.9003 28.7617 47.9823 28.6797C48.0643 28.5977 48.1618 28.5328 48.2691 28.4889C48.3764 28.4449 48.4913 28.4227 48.6073 28.4236H50.7394C51.0415 28.4236 51.3313 28.304 51.5455 28.0911C51.7598 27.8781 51.881 27.589 51.8828 27.2869V22.5048C51.8792 21.8513 51.6167 21.2259 51.1527 20.7657C50.6887 20.3055 50.0612 20.0481 49.4077 20.0499H39.0162C38.8984 20.049 38.782 20.0247 38.6738 19.9785C38.5655 19.9322 38.4675 19.8649 38.3855 19.7804C38.3035 19.6959 38.2392 19.5959 38.1962 19.4863C38.1532 19.3766 38.1324 19.2596 38.1351 19.1419V8.784C38.1351 8.55032 38.2279 8.32624 38.3932 8.161C38.5584 7.99577 38.7825 7.90291 39.0162 7.90291H52.8446C53.137 7.90386 53.4245 7.82795 53.6783 7.68275C53.9321 7.53755 54.1433 7.32818 54.2907 7.07564C54.4359 6.82412 54.5123 6.53881 54.5123 6.24837C54.5123 5.95793 54.4359 5.67259 54.2907 5.42106C53.687 4.31602 52.7971 3.39383 51.7143 2.75123C50.6315 2.10863 49.3956 1.76932 48.1365 1.76891H5.09083C4.19892 1.76891 3.34355 2.12323 2.71287 2.7539C2.0822 3.38457 1.72788 4.23994 1.72788 5.13185V27.2869C1.72788 27.5884 1.84764 27.8775 2.06081 28.0907C2.27398 28.3038 2.5631 28.4236 2.86456 28.4236H8.11747C8.23374 28.4227 8.34905 28.4449 8.45672 28.4887C8.5644 28.5326 8.66232 28.5974 8.74485 28.6793C8.82738 28.7612 8.89289 28.8586 8.93759 28.966C8.98229 29.0733 9.0053 29.1884 9.00529 29.3047C9.00529 29.4213 8.98233 29.5367 8.93771 29.6444C8.8931 29.7521 8.82769 29.85 8.74525 29.9325C8.66281 30.0149 8.56494 30.0803 8.45723 30.1249C8.34951 30.1695 8.23406 30.1925 8.11747 30.1925H2.86456C2.0945 30.1907 1.35648 29.884 0.811963 29.3395C0.267446 28.795 -0.0392392 28.057 -0.0410156 27.2869V5.13185C-0.039236 3.77135 0.502003 2.4671 1.46403 1.50507C2.42605 0.543049 3.73032 0.0017796 5.09083 0H48.1365C49.7134 0.000949438 51.2609 0.426051 52.6171 1.23072C53.9732 2.0354 55.0879 3.19005 55.8443 4.57363C56.1339 5.0963 56.2807 5.68597 56.2701 6.28339C56.2595 6.8808 56.0918 7.46489 55.7838 7.97693C55.4821 8.49535 55.0491 8.92501 54.5283 9.2226C54.0075 9.52018 53.4175 9.67512 52.8177 9.67182H39.8771V18.2608H49.3875C50.5085 18.2661 51.5822 18.7133 52.3755 19.5053C53.1688 20.2974 53.6177 21.3704 53.6248 22.4914V27.2869C53.6231 28.0535 53.3191 28.7885 52.779 29.3324C52.2388 29.8764 51.5059 30.1854 50.7394 30.1925Z" fill="white"/>
<path d="M17.6209 17.8844H6.73841C6.5041 17.8844 6.27929 17.7918 6.11299 17.6267C5.94668 17.4617 5.85236 17.2376 5.85059 17.0033V9.2483C5.85058 9.13203 5.87359 9.01693 5.91829 8.90959C5.96299 8.80225 6.0285 8.70479 6.11103 8.62288C6.19356 8.54098 6.29148 8.47624 6.39916 8.43236C6.50683 8.38848 6.62214 8.36633 6.73841 8.36721H17.6209C17.8546 8.36721 18.0787 8.46007 18.2439 8.6253C18.4091 8.79054 18.502 9.01462 18.502 9.2483V17.0033C18.502 17.2369 18.4091 17.4611 18.2439 17.6263C18.0787 17.7915 17.8546 17.8844 17.6209 17.8844V17.8844ZM7.6195 16.1154H16.7331V10.1361H7.6195V16.1154Z" fill="white"/>
<path d="M49.4144 20.0098C49.2486 20.0101 49.0859 19.9644 48.9446 19.8777C48.8033 19.791 48.6888 19.6668 48.614 19.5188L43.7916 9.63846C43.7334 9.51668 43.7035 9.38331 43.7041 9.24834C43.7048 9.08281 43.7518 8.9208 43.8398 8.78056C43.9277 8.64032 44.0531 8.52743 44.2018 8.45469C44.3055 8.40316 44.4183 8.37274 44.5338 8.36516C44.6493 8.35758 44.7652 8.37298 44.8747 8.41052C44.9842 8.44806 45.0851 8.50699 45.1717 8.58384C45.2582 8.6607 45.3286 8.75399 45.3789 8.85827L50.208 18.7386C50.2662 18.8604 50.2961 18.9937 50.2955 19.1287C50.2948 19.2942 50.2478 19.4562 50.1598 19.5965C50.0719 19.7367 49.9465 19.8496 49.7978 19.9223C49.6784 19.9806 49.5472 20.0106 49.4144 20.0098V20.0098Z" fill="white"/>
<path d="M33.0365 30.1925H22.1271C21.8916 30.1925 21.6658 30.099 21.4993 29.9325C21.3328 29.766 21.2393 29.5402 21.2393 29.3047V9.20775C21.241 8.97345 21.3354 8.74939 21.5017 8.58434C21.668 8.41929 21.8928 8.32665 22.1271 8.32666H33.0365C33.2708 8.32665 33.4956 8.41929 33.6619 8.58434C33.8282 8.74939 33.9225 8.97345 33.9243 9.20775V29.3047C33.9243 29.5402 33.8307 29.766 33.6642 29.9325C33.4977 30.099 33.2719 30.1925 33.0365 30.1925V30.1925ZM23.0014 28.4236H32.1486V10.0956H23.0014V28.4236Z" fill="white"/>
<path d="M48.6337 5.6903H41.6321C41.3984 5.6903 41.1743 5.59748 41.009 5.43225C40.8438 5.26701 40.751 5.04289 40.751 4.80921C40.751 4.57491 40.8436 4.35009 41.0086 4.18379C41.1737 4.01748 41.3978 3.92316 41.6321 3.92139H48.6337C48.868 3.92316 49.0921 4.01748 49.2572 4.18379C49.4222 4.35009 49.5148 4.57491 49.5148 4.80921C49.5148 5.04289 49.422 5.26701 49.2567 5.43225C49.0915 5.59748 48.8674 5.6903 48.6337 5.6903V5.6903Z" fill="white"/>
<path d="M45.1367 17.3862C44.9695 17.3854 44.8059 17.3376 44.6644 17.2485C44.5229 17.1593 44.4093 17.0323 44.3363 16.8818L42.3589 12.779C42.3013 12.6594 42.2714 12.5284 42.2715 12.3956C42.271 12.2289 42.3173 12.0655 42.4054 11.9239C42.4934 11.7824 42.6195 11.6685 42.7692 11.5953C42.9815 11.4937 43.2254 11.4805 43.4474 11.5587C43.6694 11.6369 43.8512 11.8001 43.953 12.0123L45.9304 16.115C45.9887 16.2344 46.0186 16.3656 46.0178 16.4984C46.0187 16.6643 45.9723 16.827 45.8842 16.9675C45.7961 17.1081 45.6698 17.2206 45.5201 17.2921C45.4009 17.3516 45.2699 17.3838 45.1367 17.3862Z" fill="white"/>
<path d="M32.7947 17.8846H31.1603C30.926 17.8846 30.7012 17.792 30.5349 17.627C30.3686 17.4619 30.2742 17.2378 30.2725 17.0035C30.2725 16.7681 30.366 16.5422 30.5325 16.3757C30.699 16.2092 30.9248 16.1157 31.1603 16.1157H32.7947C33.029 16.1175 33.2531 16.2118 33.4181 16.3781C33.5832 16.5444 33.6758 16.7692 33.6758 17.0035C33.6758 17.2372 33.5829 17.4613 33.4177 17.6266C33.2525 17.7918 33.0283 17.8846 32.7947 17.8846V17.8846Z" fill="white"/>
<path d="M12.1798 17.3866C11.9444 17.3866 11.7185 17.2931 11.552 17.1266C11.3855 16.9601 11.292 16.7343 11.292 16.4988V9.2483C11.292 9.13203 11.315 9.01693 11.3597 8.90959C11.4044 8.80225 11.4699 8.70479 11.5524 8.62288C11.635 8.54098 11.7329 8.47624 11.8406 8.43236C11.9482 8.38848 12.0635 8.36633 12.1798 8.36721C12.4135 8.36721 12.6376 8.46007 12.8028 8.6253C12.9681 8.79054 13.0609 9.01462 13.0609 9.2483V16.4988C13.0609 16.7331 12.9683 16.9579 12.8033 17.1242C12.6382 17.2905 12.4141 17.3849 12.1798 17.3866V17.3866Z" fill="white"/>
<path d="M33.0365 23.3924H22.1271C21.8928 23.3925 21.668 23.2999 21.5017 23.1348C21.3354 22.9698 21.241 22.7457 21.2393 22.5114C21.2393 22.2759 21.3328 22.0501 21.4993 21.8836C21.6658 21.7171 21.8916 21.6235 22.1271 21.6235H33.0365C33.2719 21.6235 33.4977 21.7171 33.6642 21.8836C33.8307 22.0501 33.9243 22.2759 33.9243 22.5114C33.9225 22.7457 33.8282 22.9698 33.6619 23.1348C33.4956 23.2999 33.2708 23.3925 33.0365 23.3924Z" fill="white"/>
<path d="M33.0365 26.8026H22.1271C21.8916 26.8026 21.6658 26.709 21.4993 26.5425C21.3328 26.376 21.2393 26.1502 21.2393 25.9148C21.241 25.6805 21.3354 25.4564 21.5017 25.2913C21.668 25.1263 21.8928 25.0337 22.1271 25.0337H33.0365C33.2708 25.0337 33.4956 25.1263 33.6619 25.2913C33.8282 25.4564 33.9225 25.6805 33.9243 25.9148C33.9243 26.1502 33.8307 26.376 33.6642 26.5425C33.4977 26.709 33.2719 26.8026 33.0365 26.8026V26.8026Z" fill="white"/>
<path d="M52.7629 23.379H50.6711C50.4391 23.3772 50.2171 23.2848 50.0524 23.1214C49.8877 22.958 49.7935 22.7366 49.79 22.5046C49.79 22.2709 49.8829 22.0468 50.0481 21.8816C50.2133 21.7163 50.4374 21.6235 50.6711 21.6235H52.7629C52.9972 21.6235 53.222 21.7161 53.3883 21.8812C53.5546 22.0462 53.6489 22.2703 53.6507 22.5046C53.6472 22.7377 53.5521 22.9601 53.386 23.1237C53.2198 23.2873 52.996 23.379 52.7629 23.379Z" fill="white"/>
<path d="M12.8387 34.8673C11.364 34.8655 9.95025 34.2789 8.9075 33.2361C7.86475 32.1934 7.27815 30.7796 7.27637 29.305C7.27815 27.8303 7.86475 26.4165 8.9075 25.3738C9.95025 24.331 11.364 23.7445 12.8387 23.7427C14.314 23.7445 15.7284 24.3308 16.7722 25.3734C17.8161 26.4159 18.4041 27.8297 18.4077 29.305C18.4041 30.7802 17.8161 32.194 16.7722 33.2365C15.7284 34.2791 14.314 34.8655 12.8387 34.8673ZM12.8387 25.5115C11.8331 25.5133 10.8693 25.9136 10.1583 26.6246C9.44728 27.3356 9.04706 28.2994 9.04528 29.305C9.04706 30.3105 9.44728 31.2743 10.1583 31.9853C10.8693 32.6963 11.8331 33.0966 12.8387 33.0984C13.8454 33.0984 14.8109 32.6989 15.5234 31.9877C16.2359 31.2765 16.637 30.3116 16.6388 29.305C16.637 28.2983 16.2359 27.3334 15.5234 26.6222C14.8109 25.911 13.8454 25.5115 12.8387 25.5115V25.5115Z" fill="white"/>
<path d="M43.9266 34.8673C42.4519 34.8655 41.0381 34.2789 39.9954 33.2361C38.9526 32.1934 38.366 30.7796 38.3643 29.305C38.366 27.8303 38.9526 26.4165 39.9954 25.3738C41.0381 24.331 42.4519 23.7445 43.9266 23.7427C45.4019 23.7445 46.8163 24.3308 47.8601 25.3734C48.9039 26.4159 49.492 27.8297 49.4956 29.305C49.492 30.7802 48.9039 32.194 47.8601 33.2365C46.8163 34.2791 45.4019 34.8655 43.9266 34.8673V34.8673ZM43.9266 25.5115C42.921 25.5133 41.9572 25.9136 41.2462 26.6246C40.5352 27.3356 40.1349 28.2994 40.1332 29.305C40.1349 30.3105 40.5352 31.2743 41.2462 31.9853C41.9572 32.6963 42.921 33.0966 43.9266 33.0984C44.9333 33.0984 45.8988 32.6989 46.6113 31.9877C47.3238 31.2765 47.7249 30.3116 47.7267 29.305C47.7249 28.2983 47.3238 27.3334 46.6113 26.6222C45.8988 25.911 44.9333 25.5115 43.9266 25.5115V25.5115Z" fill="white"/>
<path d="M43.9267 32.0018C43.2132 32.0018 42.5289 31.7184 42.0243 31.2138C41.5198 30.7093 41.2363 30.025 41.2363 29.3114C41.2363 28.5979 41.5198 27.9136 42.0243 27.4091C42.5289 26.9045 43.2132 26.6211 43.9267 26.6211C44.6402 26.6211 45.3245 26.9045 45.8291 27.4091C46.3336 27.9136 46.617 28.5979 46.617 29.3114C46.617 30.025 46.3336 30.7093 45.8291 31.2138C45.3245 31.7184 44.6402 32.0018 43.9267 32.0018ZM43.9267 28.3765C43.6805 28.3765 43.4444 28.4744 43.2704 28.6484C43.0963 28.8225 42.9985 29.0585 42.9985 29.3047C42.9985 29.5509 43.0963 29.787 43.2704 29.961C43.4444 30.1351 43.6805 30.2329 43.9267 30.2329C44.0491 30.2338 44.1706 30.2104 44.2839 30.1642C44.3973 30.1179 44.5004 30.0497 44.5873 29.9634C44.6743 29.8772 44.7432 29.7745 44.7903 29.6615C44.8374 29.5484 44.8616 29.4272 44.8616 29.3047C44.8616 29.1823 44.8374 29.061 44.7903 28.948C44.7432 28.8349 44.6743 28.7323 44.5873 28.646C44.5004 28.5597 44.3973 28.4915 44.2839 28.4453C44.1706 28.399 44.0491 28.3757 43.9267 28.3765V28.3765Z" fill="white"/>
<path d="M12.8398 32.0018C12.1262 32.0018 11.4419 31.7184 10.9374 31.2138C10.4329 30.7093 10.1494 30.025 10.1494 29.3114C10.1494 28.5979 10.4329 27.9136 10.9374 27.4091C11.4419 26.9045 12.1262 26.6211 12.8398 26.6211C13.5533 26.6211 14.2376 26.9045 14.7421 27.4091C15.2467 27.9136 15.5301 28.5979 15.5301 29.3114C15.5301 30.025 15.2467 30.7093 14.7421 31.2138C14.2376 31.7184 13.5533 32.0018 12.8398 32.0018ZM12.8398 28.3765C12.5936 28.3765 12.3575 28.4744 12.1835 28.6484C12.0094 28.8225 11.9116 29.0585 11.9116 29.3047C11.9116 29.5509 12.0094 29.787 12.1835 29.961C12.3575 30.1351 12.5936 30.2329 12.8398 30.2329C13.0866 30.2329 13.3233 30.1353 13.4985 29.9615C13.6736 29.7876 13.7729 29.5515 13.7747 29.3047C13.7729 29.0579 13.6736 28.8219 13.4985 28.648C13.3233 28.4741 13.0866 28.3765 12.8398 28.3765V28.3765Z" fill="white"/>
</g>
<defs>
<clipPath id="clip0_353_10844">
<rect width="56.2956" height="34.867" fill="white"/>
</clipPath>
</defs>
</svg>
