<svg width="42" height="49" viewBox="0 0 42 49" fill="none" xmlns="http://www.w3.org/2000/svg">
<g clip-path="url(#clip0_353_10694)">
<path d="M20.8271 8.73023C19.6674 8.7282 18.5558 8.26764 17.7358 7.44942C16.9158 6.63119 16.4542 5.52201 16.4521 4.36487C16.4521 3.2071 16.9131 2.09676 17.7335 1.2781C18.554 0.459434 19.6668 -0.000488281 20.8271 -0.000488281C21.9874 -0.000488281 23.1002 0.459434 23.9206 1.2781C24.7411 2.09676 25.202 3.2071 25.202 4.36487C25.202 5.52264 24.7411 6.633 23.9206 7.45167C23.1002 8.27033 21.9874 8.73023 20.8271 8.73023V8.73023ZM20.8271 2.0208C20.5172 2.0156 20.2093 2.07268 19.922 2.18864C19.6346 2.3046 19.3735 2.47708 19.1543 2.69579C18.9351 2.91451 18.7623 3.17497 18.6461 3.46172C18.5299 3.74846 18.4727 4.05561 18.4779 4.36487C18.4799 4.98594 18.7281 5.581 19.1682 6.02016C19.6083 6.45932 20.2047 6.70694 20.8271 6.70896C21.1338 6.70901 21.4374 6.64811 21.7203 6.52984C22.0032 6.41158 22.2597 6.2383 22.4748 6.02011C22.6899 5.80193 22.8592 5.5432 22.9731 5.25902C23.0869 4.97483 23.1429 4.67087 23.1378 4.36487C23.1429 4.05887 23.0869 3.75493 22.9731 3.47075C22.8592 3.18656 22.6899 2.92782 22.4748 2.70963C22.2597 2.49145 22.0032 2.31817 21.7203 2.1999C21.4374 2.08163 21.1338 2.02076 20.8271 2.0208V2.0208Z" fill="white"/>
<path d="M20.8274 48.4254C20.5591 48.4233 20.3024 48.3156 20.1134 48.1255C19.9244 47.9355 19.8184 47.6786 19.8184 47.4109V8.21481C19.8184 7.94779 19.9246 7.69171 20.1139 7.5029C20.3031 7.31409 20.5598 7.20801 20.8274 7.20801C21.0957 7.208 21.3531 7.31384 21.5436 7.50243C21.734 7.69102 21.842 7.94708 21.8441 8.21481V47.4109C21.8441 47.6799 21.737 47.9379 21.5463 48.1282C21.3556 48.3185 21.097 48.4254 20.8274 48.4254V48.4254Z" fill="white"/>
<path d="M20.7945 46.3737C15.7495 46.3737 10.7429 43.5915 6.3218 38.3423C4.30607 35.9238 2.58658 33.2741 1.19975 30.4493C1.08896 30.2054 1.07853 29.9278 1.17072 29.6763C1.2629 29.4248 1.45034 29.2194 1.69271 29.1043C1.93717 28.9938 2.21534 28.9834 2.46741 29.0754C2.71948 29.1674 2.92531 29.3544 3.04062 29.5962C3.10994 29.7499 10.0112 44.3524 20.8176 44.3524C31.624 44.3524 38.5946 29.7499 38.6639 29.5962C38.7777 29.3549 38.9821 29.168 39.2329 29.076C39.4837 28.9839 39.7608 28.9941 40.0041 29.1043C40.2479 29.2178 40.4367 29.4231 40.529 29.6752C40.6214 29.9273 40.6099 30.2056 40.4971 30.4493C39.1073 33.2795 37.3769 35.9301 35.3442 38.3423C30.8923 43.5915 25.8472 46.3737 20.7945 46.3737Z" fill="white"/>
<path d="M27.852 19.7664H13.8107C13.6775 19.7674 13.5455 19.7421 13.4222 19.692C13.2988 19.6418 13.1867 19.5679 13.0922 19.4743C12.9977 19.3807 12.9227 19.2693 12.8715 19.1467C12.8203 19.024 12.7939 18.8925 12.7939 18.7596C12.7939 18.4906 12.9011 18.2325 13.0917 18.0423C13.2824 17.852 13.541 17.7451 13.8107 17.7451H27.852C28.1203 17.7471 28.377 17.8549 28.566 18.045C28.755 18.235 28.8611 18.4919 28.861 18.7596C28.861 19.0266 28.7547 19.2827 28.5655 19.4715C28.3763 19.6603 28.1196 19.7664 27.852 19.7664V19.7664Z" fill="white"/>
<path d="M30.1846 22.0339C29.3157 22.0319 28.4831 21.686 27.8694 21.0722C27.2558 20.4585 26.9111 19.6269 26.9111 18.7599C26.9111 17.8929 27.2558 17.0613 27.8694 16.4475C28.4831 15.8337 29.3157 15.4879 30.1846 15.4858C31.0549 15.4858 31.8894 15.8308 32.5048 16.4448C33.1201 17.0588 33.4658 17.8915 33.4658 18.7599C33.4658 19.6282 33.1201 20.461 32.5048 21.075C31.8894 21.689 31.0549 22.0339 30.1846 22.0339V22.0339ZM30.1846 17.5071C29.853 17.5092 29.5356 17.642 29.3018 17.8767C29.0681 18.1115 28.9368 18.429 28.9369 18.7599C28.9368 19.0908 29.0681 19.4083 29.3018 19.643C29.5356 19.8777 29.853 20.0106 30.1846 20.0126C30.5176 20.0126 30.8369 19.8806 31.0724 19.6457C31.3078 19.4108 31.4401 19.0921 31.4401 18.7599C31.4401 18.4276 31.3078 18.109 31.0724 17.8741C30.8369 17.6391 30.5176 17.5071 30.1846 17.5071V17.5071Z" fill="white"/>
<path d="M11.4687 22.0339C10.5985 22.0339 9.76387 21.689 9.14853 21.075C8.53319 20.461 8.1875 19.6282 8.1875 18.7599C8.1875 17.8915 8.53319 17.0588 9.14853 16.4448C9.76387 15.8308 10.5985 15.4858 11.4687 15.4858C12.3389 15.4858 13.1735 15.8308 13.7889 16.4448C14.4042 17.0588 14.7499 17.8915 14.7499 18.7599C14.7499 19.6282 14.4042 20.461 13.7889 21.075C13.1735 21.689 12.3389 22.0339 11.4687 22.0339V22.0339ZM11.4687 17.5071C11.1357 17.5071 10.8164 17.6391 10.5809 17.8741C10.3455 18.109 10.2132 18.4276 10.2132 18.7599C10.2132 19.0921 10.3455 19.4108 10.5809 19.6457C10.8164 19.8806 11.1357 20.0126 11.4687 20.0126C11.8017 20.0126 12.121 19.8806 12.3564 19.6457C12.5919 19.4108 12.7242 19.0921 12.7242 18.7599C12.7242 18.4276 12.5919 18.109 12.3564 17.8741C12.121 17.6391 11.8017 17.5071 11.4687 17.5071V17.5071Z" fill="white"/>
<path d="M40.6842 34.584C40.4679 34.5846 40.2572 34.5153 40.0836 34.3865C39.91 34.2576 39.783 34.0762 39.7214 33.8692L38.9512 31.2792L36.2938 32.0478C36.0365 32.1223 35.7601 32.0933 35.5239 31.9668C35.2878 31.8404 35.1107 31.6267 35.0307 31.3715C34.9916 31.2443 34.9781 31.1107 34.9911 30.9783C35.0041 30.8459 35.0432 30.7175 35.1062 30.6003C35.1693 30.4831 35.2549 30.3795 35.3583 30.2955C35.4617 30.2115 35.5807 30.1488 35.7085 30.111L39.3286 29.0274C39.5849 28.9504 39.8614 28.9775 40.0979 29.1027C40.3344 29.2279 40.5118 29.4411 40.5918 29.696L41.6778 33.2467C41.717 33.3734 41.7308 33.5065 41.7183 33.6385C41.7059 33.7705 41.6674 33.8987 41.6051 34.0158C41.5429 34.1329 41.458 34.2366 41.3555 34.3209C41.253 34.4052 41.1348 34.4685 41.0077 34.5071C40.9048 34.5503 40.7955 34.5763 40.6842 34.584V34.584Z" fill="white"/>
<path d="M1.01646 34.5839C0.914578 34.5837 0.813306 34.5681 0.716056 34.5378C0.588959 34.4992 0.470767 34.4359 0.368243 34.3516C0.265718 34.2673 0.180874 34.1636 0.118612 34.0465C0.056351 33.9294 0.0179027 33.8012 0.00543255 33.6692C-0.00703758 33.5372 0.00672675 33.4041 0.0459563 33.2774L1.13199 29.7267C1.17069 29.5999 1.2341 29.4819 1.3186 29.3796C1.4031 29.2773 1.50702 29.1927 1.62439 29.1306C1.74175 29.0685 1.87025 29.0301 2.00252 29.0176C2.13479 29.0052 2.26823 29.0189 2.39516 29.0581L6.01527 30.1417C6.27219 30.2199 6.48769 30.3963 6.61469 30.6325C6.74169 30.8686 6.76987 31.1453 6.69308 31.4021C6.61303 31.6573 6.43593 31.8711 6.19979 31.9975C5.96365 32.1239 5.68725 32.153 5.42989 32.0785L2.77259 31.3099L2.00236 33.8999C1.93422 34.105 1.80131 34.2824 1.62356 34.4058C1.44582 34.5291 1.23281 34.5916 1.01646 34.5839V34.5839Z" fill="white"/>
</g>
<defs>
<clipPath id="clip0_353_10694">
<rect width="41.7005" height="48.4264" fill="white"/>
</clipPath>
</defs>
</svg>
