<svg width="59" height="28" viewBox="0 0 59 28" fill="none" xmlns="http://www.w3.org/2000/svg">
<g clip-path="url(#clip0_351_12023)">
<path d="M40.7608 13.3168H0.00195312V7.46533H40.7608V13.3168ZM1.75068 11.5681H39.0121V9.28132H1.75068V11.5681Z" fill="white"/>
<path d="M58.8521 19.2352H42.71V13.3164H58.8521V19.2352ZM44.4587 17.4865H57.1034V15.0651H44.4587V17.4865Z" fill="white"/>
<path d="M13.5653 11.9507L3.19043 26.5264L4.61512 27.5405L14.99 12.9648L13.5653 11.9507Z" fill="white"/>
<path d="M27.2802 11.9641L25.8555 12.978L36.2286 27.5537L37.6533 26.5398L27.2802 11.9641Z" fill="white"/>
<path d="M35.1788 17.6216H5.58496V19.3703H35.1788V17.6216Z" fill="white"/>
<path d="M46.3099 17.7445L45.2197 19.1118L55.4747 27.288L56.5649 25.9207L46.3099 17.7445Z" fill="white"/>
<path d="M55.4689 17.6993L45.2139 25.8755L46.304 27.2428L56.559 19.0666L55.4689 17.6993Z" fill="white"/>
<path d="M14.0585 9.28074H11.839C9.21588 9.28074 7.13086 7.19572 7.13086 4.57262V-0.000976562H18.6994V4.57262C18.7666 7.19572 16.6144 9.28074 14.0585 9.28074ZM8.94685 1.74775V4.57262C8.94685 6.18684 10.292 7.53201 11.9062 7.53201H14.1258C15.74 7.53201 17.0852 6.18684 17.0852 4.57262V1.74775H8.94685Z" fill="white"/>
<path d="M27.1078 9.28107H21.9961V3.09326H27.1078V9.28107ZM23.7448 7.53234H25.2918V4.84199H23.7448V7.53234Z" fill="white"/>
<path d="M34.1029 9.28107H28.9912V3.09326H34.1029V9.28107ZM30.7399 7.53234H32.2869V4.84199H30.7399V7.53234Z" fill="white"/>
</g>
<defs>
<clipPath id="clip0_351_12023">
<rect width="58.8515" height="27.5761" fill="white"/>
</clipPath>
</defs>
</svg>
