<svg width="60" height="39" viewBox="0 0 60 39" fill="none" xmlns="http://www.w3.org/2000/svg">
<g clip-path="url(#clip0_351_12095)">
<path d="M7.93623 19.9756H6.1875V10.4248H45.3994L50.5783 18.9667L49.0986 19.9083L44.4578 12.1735H7.93623V19.9756Z" fill="white"/>
<path d="M51.3175 21.5225H15.334V23.2712H51.3175V21.5225Z" fill="white"/>
<path d="M34.0992 12.1739H12.1729V10.4252H31.0726L28.1805 5.24629H13.9888V9.01278H12.1729V3.49756H29.2566L34.0992 12.1739Z" fill="white"/>
<path d="M42.9102 38.8086H3.96729L-0.000976562 18.1602H13.4508L16.612 21.5231H59.1868L53.6043 32.2845C51.5193 36.32 47.4165 38.8086 42.9102 38.8086ZM5.44699 37.0599H42.9102C46.7439 37.0599 50.2414 34.9076 51.9901 31.5447L56.2274 23.3391H15.8048L12.6437 19.9761H2.15131L5.44699 37.0599Z" fill="white"/>
<path d="M21.9252 15.9404H18.4277V17.6892H21.9252V15.9404Z" fill="white"/>
<path d="M28.7191 15.9404H25.2217V17.6892H28.7191V15.9404Z" fill="white"/>
<path d="M35.5121 15.9404H32.0146V17.6892H35.5121V15.9404Z" fill="white"/>
<path d="M42.3051 15.9404H38.8076V17.6892H42.3051V15.9404Z" fill="white"/>
<path d="M13.9216 -0.000488281H12.1729V5.2457H13.9216V-0.000488281Z" fill="white"/>
<path d="M20.4447 6.92773H16.9473V8.67646H20.4447V6.92773Z" fill="white"/>
<path d="M26.5658 6.92773H23.0684V8.67646H26.5658V6.92773Z" fill="white"/>
<path d="M51.3175 26.9033H2.62207V28.652H51.3175V26.9033Z" fill="white"/>
</g>
<defs>
<clipPath id="clip0_351_12095">
<rect width="59.1205" height="38.8083" fill="white"/>
</clipPath>
</defs>
</svg>
