<svg width="55" height="55" viewBox="0 0 55 55" fill="none" xmlns="http://www.w3.org/2000/svg">
<g clip-path="url(#clip0_353_10704)">
<path d="M12.7112 51.8777C11.3835 51.8785 10.0688 51.616 8.84326 51.1052C7.61772 50.5945 6.50569 49.8456 5.57159 48.9021C4.3475 47.6883 3.45514 46.1809 2.97975 44.5239C2.50437 42.8669 2.46185 41.1157 2.85628 39.4376L3.72379 35.6552C3.83656 35.1781 3.932 34.6923 4.02742 34.2152C4.07312 33.9667 4.20025 33.7406 4.38877 33.5725C4.57728 33.4045 4.81645 33.304 5.06844 33.2869C5.32073 33.273 5.57067 33.3417 5.78042 33.4826C5.99017 33.6235 6.14832 33.8289 6.23091 34.0677C7.31198 37.3704 9.15538 40.3723 11.6119 42.8303C14.0685 45.2884 17.0692 47.1337 20.3713 48.2168C20.6102 48.2965 20.8162 48.4527 20.9573 48.6613C21.0985 48.8698 21.1669 49.1192 21.1521 49.3706C21.1373 49.6229 21.0389 49.8631 20.8724 50.0532C20.7059 50.2433 20.4807 50.3724 20.2325 50.4202C19.7467 50.5157 19.2696 50.6111 18.7924 50.7239L15.0101 51.5914C14.2567 51.7712 13.4857 51.8672 12.7112 51.8777V51.8777ZM5.48483 38.223L5.0771 39.9581C4.77382 41.2569 4.80833 42.6118 5.17736 43.8936C5.54639 45.1753 6.23765 46.3411 7.18517 47.2799C8.12478 48.2259 9.29098 48.9155 10.5727 49.283C11.8544 49.6505 13.2088 49.6836 14.5069 49.3792L16.242 48.9802C11.6059 46.6263 7.83866 42.8591 5.48483 38.223V38.223Z" fill="white"/>
<path d="M5.15611 21.2199H5.11275C4.86075 21.2029 4.62161 21.1024 4.4331 20.9343C4.24458 20.7662 4.11742 20.5401 4.07172 20.2917C3.9763 19.8059 3.88089 19.3287 3.76811 18.8516L2.9006 15.0693C2.50132 13.3955 2.53639 11.6474 3.0025 9.99095C3.46861 8.33452 4.35028 6.82467 5.56384 5.60471C6.77723 4.38275 8.28323 3.49169 9.9384 3.0164C11.5936 2.54111 13.3429 2.49739 15.0197 2.8894L18.8021 3.75691C19.2792 3.86969 19.7563 3.96512 20.2421 4.06055C20.4912 4.10803 20.7175 4.23687 20.8855 4.42685C21.0535 4.61682 21.1537 4.85717 21.1704 5.11023C21.1847 5.36272 21.115 5.61284 20.9722 5.82157C20.8294 6.03029 20.6215 6.18588 20.3809 6.26403C17.0851 7.34048 14.0883 9.17625 11.6321 11.6234C9.17592 14.0705 7.32909 17.0605 6.2405 20.3524C6.17974 20.5958 6.04073 20.8125 5.84481 20.9693C5.6489 21.126 5.40693 21.2141 5.15611 21.2199V21.2199ZM12.7208 4.92806C11.6902 4.92781 10.6698 5.13159 9.7184 5.52765C8.76698 5.9237 7.9034 6.50419 7.17742 7.23564C6.23143 8.17525 5.54182 9.34147 5.17432 10.6232C4.80683 11.9048 4.77367 13.2593 5.07804 14.5574V14.5574L5.48577 16.2924C7.8379 11.6501 11.6092 7.87877 16.2516 5.52664L14.5166 5.12759C13.9293 4.97812 13.3267 4.89662 12.7208 4.88469V4.92806Z" fill="white"/>
<path d="M27.2335 42.7597C23.1173 42.7574 19.1702 41.1219 16.2588 38.2121C13.3474 35.3023 11.7097 31.3562 11.7051 27.24C11.7097 23.1238 13.3474 19.1776 16.2588 16.2679C19.1702 13.3581 23.1173 11.7225 27.2335 11.7202C31.3482 11.7248 35.293 13.3614 38.2026 16.2709C41.1121 19.1805 42.7487 23.1253 42.7533 27.24C42.7487 31.3547 41.1121 35.2995 38.2026 38.209C35.293 41.1186 31.3482 42.7551 27.2335 42.7597V42.7597ZM27.2335 14.0018C23.7224 14.0041 20.3557 15.3993 17.8721 17.8812C15.3886 20.3631 13.9912 23.7289 13.9866 27.24C13.9912 30.7511 15.3886 34.1169 17.8721 36.5988C20.3557 39.0807 23.7224 40.4759 27.2335 40.4782C30.7431 40.4736 34.1076 39.0774 36.5893 36.5957C39.0709 34.1141 40.4671 30.7496 40.4717 27.24C40.4671 23.7304 39.0709 20.3659 36.5893 17.8842C34.1076 15.4026 30.7431 14.0064 27.2335 14.0018V14.0018Z" fill="white"/>
<path d="M41.7465 51.8777C40.9729 51.8767 40.2018 51.7894 39.4476 51.6175L35.6652 50.75C35.1881 50.6372 34.7023 50.5418 34.2252 50.4463C33.976 50.3989 33.7497 50.27 33.5818 50.08C33.4138 49.8901 33.3136 49.6497 33.2969 49.3967C33.2821 49.1452 33.3505 48.8959 33.4917 48.6874C33.6328 48.4788 33.8388 48.3225 34.0777 48.2429C37.3804 47.1618 40.3823 45.3184 42.8403 42.8618C45.2984 40.4053 47.1437 37.4045 48.2268 34.1024C48.3062 33.8627 48.4621 33.6557 48.6705 33.5131C48.8789 33.3705 49.1284 33.3002 49.3806 33.313C49.6336 33.3297 49.874 33.4298 50.064 33.5978C50.2539 33.7658 50.3828 33.9921 50.4302 34.2413C50.517 34.7184 50.6211 35.2042 50.7339 35.6813L51.6014 39.4637C51.9963 41.1384 51.9548 42.8864 51.4809 44.5404C51.007 46.1945 50.1166 47.6993 48.8948 48.9109C47.9578 49.8523 46.8438 50.5991 45.617 51.1083C44.3902 51.6175 43.0748 51.879 41.7465 51.8777ZM38.2157 48.9889L39.9507 49.388C41.2489 49.6923 42.6033 49.6592 43.885 49.2917C45.1667 48.9242 46.3329 48.2346 47.2725 47.2886C48.2185 46.349 48.9081 45.1828 49.2756 43.9011C49.6431 42.6194 49.6763 41.2649 49.3719 39.9668L48.9728 38.2318C46.6151 42.8628 42.8486 46.6262 38.2157 48.9802V48.9889Z" fill="white"/>
<path d="M49.3535 21.2196C49.1121 21.2214 48.8764 21.1457 48.6812 21.0036C48.486 20.8615 48.3416 20.6605 48.2691 20.4302C47.186 17.1281 45.3408 14.1273 42.8827 11.6708C40.4247 9.21422 37.4228 7.37082 34.1201 6.28975C33.8803 6.21134 33.6735 6.0554 33.5321 5.84651C33.3908 5.63762 33.323 5.38763 33.3393 5.13594C33.356 4.88289 33.4561 4.64254 33.6241 4.45256C33.7921 4.26259 34.0184 4.13375 34.2675 4.08626C34.7447 3.99084 35.2305 3.8954 35.7076 3.78263L39.4899 2.91512C41.1568 2.52839 42.8947 2.57234 44.5399 3.04283C46.1851 3.51332 47.6834 4.39486 48.8938 5.60441C50.1156 6.81592 51.006 8.3207 51.4799 9.97478C51.9538 11.6289 51.9953 13.3769 51.6004 15.0516L50.7329 18.8339C50.6201 19.3111 50.516 19.7882 50.4292 20.274C50.3841 20.5304 50.253 20.7638 50.0575 20.9357C49.8619 21.1076 49.6136 21.2077 49.3535 21.2196V21.2196ZM38.2494 5.53502C42.8943 7.88665 46.6685 11.6578 49.0239 16.3008L49.4229 14.5658C49.7273 13.2676 49.6942 11.9132 49.3267 10.6315C48.9592 9.34982 48.2696 8.18362 47.3236 7.24401C46.384 6.29801 45.2177 5.60838 43.936 5.24089C42.6544 4.87339 41.2999 4.84025 40.0018 5.14463L38.2494 5.53502Z" fill="white"/>
<path d="M4.0359 31.9248C2.96603 31.9248 1.93998 31.4998 1.18348 30.7433C0.426968 29.9868 0.00195312 28.9607 0.00195313 27.8908V26.5896C0.00195312 25.5197 0.426968 24.4937 1.18348 23.7372C1.93998 22.9807 2.96603 22.5557 4.0359 22.5557C4.3373 22.5557 4.62635 22.6754 4.83947 22.8885C5.0526 23.1016 5.17233 23.3907 5.17233 23.6921C5.17234 23.9943 5.05288 24.2843 4.84 24.4988C4.62712 24.7133 4.3381 24.8349 4.0359 24.8372C3.57574 24.8372 3.13443 25.02 2.80905 25.3454C2.48367 25.6708 2.30088 26.1121 2.30088 26.5722V27.8735C2.30088 28.3337 2.48367 28.775 2.80905 29.1004C3.13443 29.4257 3.57574 29.6085 4.0359 29.6085C4.3381 29.6108 4.62712 29.7325 4.84 29.947C5.05288 30.1615 5.17234 30.4514 5.17233 30.7536C5.17698 30.9058 5.15101 31.0573 5.09598 31.1992C5.04096 31.3411 4.95799 31.4705 4.852 31.5798C4.746 31.689 4.61914 31.7758 4.47895 31.8351C4.33875 31.8943 4.1881 31.9248 4.0359 31.9248V31.9248Z" fill="white"/>
<path d="M50.4489 31.9249C50.1505 31.9136 49.8685 31.7853 49.664 31.5678C49.4595 31.3502 49.3487 31.0609 49.3558 30.7624C49.3546 30.6125 49.3832 30.4637 49.4398 30.3249C49.4964 30.186 49.5799 30.0597 49.6856 29.9532C49.7912 29.8468 49.9169 29.7623 50.0553 29.7047C50.1938 29.647 50.3423 29.6173 50.4922 29.6173C50.9524 29.6173 51.3937 29.4345 51.7191 29.1091C52.0444 28.7838 52.2272 28.3425 52.2272 27.8823V26.581C52.2272 26.1209 52.0444 25.6796 51.7191 25.3542C51.3937 25.0288 50.9524 24.846 50.4922 24.846C50.3423 24.846 50.1938 24.8163 50.0553 24.7587C49.9169 24.701 49.7912 24.6166 49.6856 24.5101C49.5799 24.4037 49.4964 24.2773 49.4398 24.1385C49.3832 23.9996 49.3546 23.8509 49.3558 23.7009C49.3558 23.3995 49.4755 23.1104 49.6886 22.8973C49.9018 22.6842 50.1908 22.5645 50.4922 22.5645C51.5621 22.5645 52.5881 22.9895 53.3446 23.746C54.1012 24.5025 54.5261 25.5285 54.5261 26.5984V27.8997C54.525 28.4323 54.4184 28.9595 54.2125 29.4508C54.0065 29.9421 53.7053 30.3876 53.3263 30.7619C52.9472 31.1361 52.4977 31.4316 52.0039 31.6312C51.51 31.8308 50.9815 31.9306 50.4489 31.9249Z" fill="white"/>
<path d="M30.7898 5.17084C30.6398 5.17199 30.4911 5.14344 30.3522 5.08684C30.2133 5.03024 30.087 4.94672 29.9806 4.84108C29.8741 4.73544 29.7897 4.60976 29.732 4.47131C29.6743 4.33286 29.6447 4.18438 29.6447 4.03441C29.6447 3.57425 29.4619 3.13294 29.1365 2.80756C28.8111 2.48218 28.3698 2.29939 27.9096 2.29939H26.6084C26.1482 2.29939 25.7069 2.48218 25.3815 2.80756C25.0561 3.13294 24.8734 3.57425 24.8734 4.03441C24.8734 4.18438 24.8437 4.33286 24.786 4.47131C24.7284 4.60976 24.6439 4.73544 24.5374 4.84108C24.431 4.94672 24.3047 5.03024 24.1658 5.08684C24.0269 5.14344 23.8782 5.17199 23.7282 5.17084C23.4268 5.17084 23.1378 5.0511 22.9247 4.83798C22.7115 4.62486 22.5918 4.33581 22.5918 4.03441C22.5918 2.96454 23.0168 1.93849 23.7733 1.18198C24.5298 0.425477 25.5559 0.000488281 26.6257 0.000488281H27.927C28.9968 0.000488281 30.0229 0.425477 30.7794 1.18198C31.5359 1.93849 31.9609 2.96454 31.9609 4.03441C31.961 4.18661 31.9305 4.33729 31.8712 4.47748C31.8119 4.61767 31.7251 4.74451 31.6159 4.8505C31.5067 4.9565 31.3773 5.03946 31.2353 5.09449C31.0934 5.14952 30.9419 5.17549 30.7898 5.17084V5.17084Z" fill="white"/>
<path d="M27.8938 54.4799H26.5925C25.5227 54.4799 24.4966 54.0549 23.7401 53.2984C22.9836 52.5419 22.5586 51.5159 22.5586 50.446C22.5586 50.1446 22.6783 49.8556 22.8915 49.6424C23.1046 49.4293 23.3937 49.3096 23.6951 49.3096C23.9973 49.3096 24.2872 49.429 24.5017 49.6419C24.7162 49.8548 24.8379 50.1438 24.8402 50.446C24.8402 50.9062 25.0229 51.3475 25.3483 51.6729C25.6737 51.9982 26.115 52.181 26.5752 52.181H27.8764C28.3366 52.181 28.7779 51.9982 29.1033 51.6729C29.4287 51.3475 29.6115 50.9062 29.6115 50.446C29.6137 50.1438 29.7354 49.8548 29.9499 49.6419C30.1644 49.429 30.4544 49.3096 30.7566 49.3096C31.058 49.3096 31.347 49.4293 31.5602 49.6424C31.7733 49.8556 31.893 50.1446 31.893 50.446C31.8931 51.5099 31.4728 52.5307 30.7238 53.2862C29.9748 54.0417 28.9576 54.4708 27.8938 54.4799Z" fill="white"/>
<path d="M5.1556 35.5857C4.91415 35.5876 4.67851 35.5119 4.48331 35.3698C4.2881 35.2277 4.14364 35.0266 4.07121 34.7963C3.27396 32.3571 2.86988 29.8065 2.87407 27.2403C2.86929 24.674 3.27339 22.1234 4.07121 19.6843C4.11737 19.5415 4.19135 19.4093 4.28888 19.2953C4.3864 19.1812 4.50554 19.0876 4.63943 19.0199C4.77331 18.9521 4.91928 18.9116 5.06892 18.9005C5.21856 18.8895 5.3689 18.9082 5.51128 18.9556C5.79762 19.0489 6.0352 19.2521 6.17184 19.5205C6.30847 19.7889 6.33298 20.1005 6.23998 20.387C5.51957 22.6 5.15358 24.913 5.1556 27.2403C5.15289 29.5648 5.5189 31.8751 6.23998 34.0849C6.28735 34.2273 6.30606 34.3777 6.29502 34.5273C6.28398 34.677 6.24342 34.8229 6.17568 34.9568C6.10793 35.0907 6.01432 35.2098 5.90029 35.3074C5.78626 35.4049 5.65405 35.4788 5.51128 35.525C5.39707 35.5655 5.27676 35.586 5.1556 35.5857V35.5857Z" fill="white"/>
<path d="M27.233 51.5827C24.6643 51.5826 22.1116 51.1786 19.6683 50.3856C19.3813 50.2904 19.1437 50.0855 19.0072 49.8157C18.8706 49.5459 18.8464 49.2331 18.9396 48.9455C18.9858 48.8027 19.0598 48.6705 19.1573 48.5565C19.2548 48.4424 19.374 48.3489 19.5078 48.2811C19.6417 48.2134 19.7877 48.1728 19.9373 48.1618C20.087 48.1507 20.2373 48.1694 20.3797 48.2168C24.8322 49.6566 29.6252 49.6566 34.0777 48.2168C34.2201 48.1694 34.3704 48.1507 34.52 48.1618C34.6697 48.1728 34.8157 48.2134 34.9495 48.2811C35.0834 48.3489 35.2026 48.4424 35.3001 48.5565C35.3976 48.6705 35.4716 48.8027 35.5177 48.9455C35.5651 49.0879 35.5838 49.2382 35.5728 49.3879C35.5617 49.5375 35.5212 49.6835 35.4534 49.8173C35.3857 49.9512 35.2921 50.0704 35.178 50.1679C35.064 50.2654 34.9318 50.3394 34.789 50.3856C32.3486 51.178 29.7989 51.582 27.233 51.5827V51.5827Z" fill="white"/>
<path d="M34.4333 6.30704C34.3121 6.3073 34.1918 6.28676 34.0776 6.2463C29.6251 4.80653 24.8321 4.80653 20.3796 6.2463C20.2372 6.29367 20.0869 6.31238 19.9372 6.30134C19.7876 6.2903 19.6416 6.24975 19.5077 6.182C19.3739 6.11425 19.2547 6.02064 19.1572 5.90661C19.0597 5.79258 18.9857 5.66037 18.9395 5.5176C18.849 5.22882 18.8756 4.91604 19.0135 4.64667C19.1515 4.3773 19.3897 4.1729 19.6769 4.07753C24.5892 2.48978 29.8767 2.48978 34.7889 4.07753C34.9317 4.12369 35.0639 4.19768 35.178 4.2952C35.292 4.39273 35.3856 4.51186 35.4533 4.64575C35.5211 4.77963 35.5616 4.9256 35.5727 5.07524C35.5837 5.22488 35.565 5.37522 35.5176 5.5176C35.4417 5.74578 35.2964 5.94454 35.102 6.08608C34.9075 6.22762 34.6737 6.30487 34.4333 6.30704Z" fill="white"/>
<path d="M27.2335 42.7597C23.1173 42.7574 19.1702 41.1219 16.2588 38.2121C13.3474 35.3023 11.7097 31.3562 11.7051 27.24C11.7097 23.1238 13.3474 19.1776 16.2588 16.2679C19.1702 13.3581 23.1173 11.7225 27.2335 11.7202C31.3482 11.7248 35.293 13.3614 38.2026 16.2709C41.1121 19.1805 42.7487 23.1253 42.7533 27.24C42.7487 31.3547 41.1121 35.2995 38.2026 38.209C35.293 41.1186 31.3482 42.7551 27.2335 42.7597V42.7597ZM27.2335 14.0018C23.7224 14.0041 20.3557 15.3993 17.8721 17.8812C15.3886 20.3631 13.9912 23.7289 13.9866 27.24C13.9912 30.7511 15.3886 34.1169 17.8721 36.5988C20.3557 39.0807 23.7224 40.4759 27.2335 40.4782C30.7431 40.4736 34.1076 39.0774 36.5893 36.5957C39.0709 34.1141 40.4671 30.7496 40.4717 27.24C40.4671 23.7304 39.0709 20.3659 36.5893 17.8842C34.1076 15.4026 30.7431 14.0064 27.2335 14.0018V14.0018Z" fill="white"/>
<path d="M49.3554 35.5857C49.2349 35.5861 49.115 35.5685 48.9997 35.5336C48.8569 35.4875 48.7247 35.4135 48.6107 35.316C48.4967 35.2184 48.4031 35.0993 48.3353 34.9654C48.2676 34.8315 48.227 34.6856 48.216 34.5359C48.2049 34.3863 48.2236 34.2359 48.271 34.0936C48.9921 31.8807 49.3581 29.5676 49.3554 27.2402C49.3581 24.9129 48.9921 22.5998 48.271 20.3869C48.2236 20.2445 48.2049 20.0942 48.216 19.9446C48.227 19.7949 48.2676 19.649 48.3353 19.5151C48.4031 19.3812 48.4967 19.262 48.6107 19.1645C48.7247 19.067 48.8569 18.993 48.9997 18.9469C49.2885 18.8563 49.6013 18.8829 49.8706 19.0208C50.14 19.1588 50.3444 19.397 50.4398 19.6842C51.2335 22.1243 51.6375 24.6743 51.637 27.2402C51.6375 29.8062 51.2335 32.3562 50.4398 34.7963C50.3662 35.0259 50.2214 35.2261 50.0265 35.368C49.8315 35.5099 49.5965 35.5862 49.3554 35.5857V35.5857Z" fill="white"/>
<path d="M27.2335 42.7597C23.1173 42.7574 19.1702 41.1219 16.2588 38.2121C13.3474 35.3023 11.7097 31.3562 11.7051 27.24C11.7097 23.1238 13.3474 19.1776 16.2588 16.2679C19.1702 13.3581 23.1173 11.7225 27.2335 11.7202C31.3482 11.7248 35.293 13.3614 38.2026 16.2709C41.1121 19.1805 42.7487 23.1253 42.7533 27.24C42.7487 31.3547 41.1121 35.2995 38.2026 38.209C35.293 41.1186 31.3482 42.7551 27.2335 42.7597V42.7597ZM27.2335 14.0018C23.7224 14.0041 20.3557 15.3993 17.8721 17.8812C15.3886 20.3631 13.9912 23.7289 13.9866 27.24C13.9912 30.7511 15.3886 34.1169 17.8721 36.5988C20.3557 39.0807 23.7224 40.4759 27.2335 40.4782C30.7431 40.4736 34.1076 39.0774 36.5893 36.5957C39.0709 34.1141 40.4671 30.7496 40.4717 27.24C40.4671 23.7304 39.0709 20.3659 36.5893 17.8842C34.1076 15.4026 30.7431 14.0064 27.2335 14.0018V14.0018Z" fill="white"/>
<path d="M19.3904 15.8672C19.2406 15.8695 19.092 15.8415 18.9533 15.7848C18.8147 15.7281 18.6889 15.6441 18.5836 15.5375L12.6498 9.60374C12.4369 9.38923 12.3174 9.09923 12.3174 8.79696C12.3174 8.49469 12.4369 8.20469 12.6498 7.99018C12.8644 7.77722 13.1544 7.65771 13.4566 7.65771C13.7589 7.65771 14.0489 7.77722 14.2634 7.99018L20.1972 13.9239C20.4102 14.1385 20.5297 14.4285 20.5297 14.7307C20.5297 15.033 20.4102 15.323 20.1972 15.5375C20.091 15.6429 19.9651 15.7262 19.8266 15.7828C19.6882 15.8393 19.5399 15.868 19.3904 15.8672V15.8672Z" fill="white"/>
<path d="M14.8185 20.4474C14.5154 20.4459 14.2253 20.3242 14.0117 20.1091L8.10398 14.2014C7.89101 13.9869 7.77148 13.6969 7.77148 13.3946C7.77148 13.0923 7.89101 12.8023 8.10398 12.5878C8.20902 12.4802 8.3345 12.3948 8.47305 12.3364C8.6116 12.2781 8.76042 12.248 8.91075 12.248C9.06109 12.248 9.2099 12.2781 9.34845 12.3364C9.487 12.3948 9.61249 12.4802 9.71753 12.5878L15.6253 18.4955C15.7328 18.6006 15.8183 18.7261 15.8766 18.8646C15.935 19.0032 15.965 19.152 15.965 19.3023C15.965 19.4527 15.935 19.6015 15.8766 19.74C15.8183 19.8786 15.7328 20.0041 15.6253 20.1091C15.5204 20.2168 15.3949 20.3023 15.2563 20.3604C15.1177 20.4185 14.9688 20.4481 14.8185 20.4474V20.4474Z" fill="white"/>
<path d="M45.6584 42.1357C45.3566 42.1365 45.0666 42.018 44.8517 41.8061L38.9179 35.8723C38.8103 35.7673 38.7249 35.6418 38.6665 35.5032C38.6082 35.3647 38.5781 35.2158 38.5781 35.0655C38.5781 34.9152 38.6082 34.7664 38.6665 34.6278C38.7249 34.4893 38.8103 34.3638 38.9179 34.2587C39.1324 34.0458 39.4224 33.9263 39.7247 33.9263C40.0269 33.9263 40.3169 34.0458 40.5315 34.2587L46.4652 40.1925C46.6782 40.407 46.7977 40.697 46.7977 40.9993C46.7977 41.3015 46.6782 41.5916 46.4652 41.8061C46.2487 42.0157 45.9598 42.1337 45.6584 42.1357V42.1357Z" fill="white"/>
<path d="M41.0865 46.716C40.7834 46.7145 40.4933 46.5928 40.2797 46.3777L34.372 40.4699C34.2645 40.3649 34.179 40.2394 34.1206 40.1009C34.0623 39.9623 34.0322 39.8135 34.0322 39.6632C34.0322 39.5128 34.0623 39.364 34.1206 39.2255C34.179 39.0869 34.2645 38.9614 34.372 38.8563C34.477 38.7488 34.6025 38.6633 34.7411 38.605C34.8796 38.5467 35.0284 38.5166 35.1788 38.5166C35.3291 38.5166 35.4779 38.5467 35.6165 38.605C35.755 38.6633 35.8805 38.7488 35.9856 38.8563L41.8933 44.7641C42.0008 44.8692 42.0863 44.9946 42.1447 45.1332C42.203 45.2717 42.2331 45.4206 42.2331 45.5709C42.2331 45.7212 42.203 45.87 42.1447 46.0086C42.0863 46.1471 42.0008 46.2726 41.8933 46.3777C41.7884 46.4854 41.663 46.5708 41.5243 46.6289C41.3857 46.6871 41.2368 46.7167 41.0865 46.716V46.716Z" fill="white"/>
<path d="M39.7252 20.439C39.4239 20.437 39.1349 20.3189 38.9184 20.1093C38.7054 19.8948 38.5859 19.6048 38.5859 19.3025C38.5859 19.0003 38.7054 18.7102 38.9184 18.4957L44.8522 12.562C45.0667 12.349 45.3567 12.2295 45.6589 12.2295C45.9612 12.2295 46.2512 12.349 46.4657 12.562C46.6787 12.7765 46.7982 13.0665 46.7982 13.3688C46.7982 13.671 46.6787 13.961 46.4657 14.1755L40.532 20.1093C40.317 20.3212 40.027 20.4397 39.7252 20.439Z" fill="white"/>
<path d="M35.1539 15.8759C35.0037 15.8761 34.8549 15.8463 34.7164 15.7882C34.5778 15.7301 34.4523 15.6449 34.3471 15.5376C34.1342 15.3231 34.0146 15.0331 34.0146 14.7308C34.0146 14.4285 34.1342 14.1385 34.3471 13.924L40.2635 8.01629C40.4766 7.80386 40.7652 7.68457 41.066 7.68457C41.3669 7.68457 41.6554 7.80386 41.8684 8.01629C41.976 8.12134 42.0614 8.24682 42.1198 8.38537C42.1781 8.52392 42.2082 8.67274 42.2082 8.82307C42.2082 8.97341 42.1781 9.12222 42.1198 9.26077C42.0614 9.39932 41.976 9.52483 41.8684 9.62988L35.9607 15.5376C35.8555 15.6449 35.73 15.7301 35.5915 15.7882C35.4529 15.8463 35.3042 15.8761 35.1539 15.8759V15.8759Z" fill="white"/>
<path d="M13.4566 46.707C13.1553 46.705 12.8664 46.5869 12.6498 46.3773C12.4369 46.1628 12.3174 45.8728 12.3174 45.5705C12.3174 45.2683 12.4369 44.9783 12.6498 44.7638L18.5836 38.83C18.6887 38.7224 18.8141 38.637 18.9527 38.5786C19.0912 38.5203 19.2401 38.4902 19.3904 38.4902C19.5407 38.4902 19.6895 38.5203 19.8281 38.5786C19.9666 38.637 20.0922 38.7224 20.1972 38.83C20.3047 38.935 20.3902 39.0605 20.4485 39.1991C20.5069 39.3376 20.5369 39.4864 20.5369 39.6368C20.5369 39.7871 20.5069 39.9359 20.4485 40.0745C20.3902 40.213 20.3047 40.3385 20.1972 40.4436L14.2634 46.3773C14.0484 46.5893 13.7585 46.7077 13.4566 46.707V46.707Z" fill="white"/>
<path d="M8.88536 42.1442C8.73513 42.1444 8.58637 42.1146 8.44782 42.0565C8.30928 41.9984 8.18375 41.9132 8.07858 41.8059C7.86562 41.5914 7.74609 41.3014 7.74609 40.9991C7.74609 40.6968 7.86562 40.4068 8.07858 40.1923L13.995 34.2846C14.1 34.177 14.2255 34.0916 14.3641 34.0332C14.5026 33.9749 14.6515 33.9448 14.8018 33.9448C14.9521 33.9448 15.1009 33.9749 15.2395 34.0332C15.378 34.0916 15.5035 34.177 15.6086 34.2846C15.8215 34.4991 15.941 34.7891 15.941 35.0914C15.941 35.3936 15.8215 35.6837 15.6086 35.8982L9.69214 41.8059C9.58698 41.9132 9.46145 41.9984 9.3229 42.0565C9.18436 42.1146 9.0356 42.1444 8.88536 42.1442V42.1442Z" fill="white"/>
</g>
<defs>
<clipPath id="clip0_353_10704">
<rect width="54.4797" height="54.4797" fill="white"/>
</clipPath>
</defs>
</svg>
