<svg width="50" height="52" viewBox="0 0 50 52" fill="none" xmlns="http://www.w3.org/2000/svg">
<g clip-path="url(#clip0_353_10729)">
<path d="M18.6569 46.4328C17.658 46.4344 16.6777 46.1625 15.8222 45.6465C14.9667 45.1305 14.2685 44.3902 13.8034 43.5056L7.11139 30.8486L7.05419 30.7095L0.0844138 6.76089C-0.0916634 6.07025 0.0133752 5.33789 0.37646 4.72468C0.739544 4.11147 1.33099 3.66753 2.02091 3.49033L4.01462 2.99156C4.44214 2.88493 4.88931 2.8851 5.31675 2.99204C5.7442 3.09897 6.13881 3.30939 6.46589 3.60479C6.52809 3.66363 6.60419 3.70576 6.68706 3.72721C6.76994 3.74865 6.8569 3.74872 6.93981 3.72743L11.7198 2.53369C11.802 2.513 11.8778 2.47234 11.9405 2.41529C12.0032 2.35823 12.0509 2.28655 12.0793 2.20663C12.2265 1.79141 12.4746 1.41932 12.8013 1.12388C13.1279 0.82843 13.5228 0.618895 13.9504 0.514114L15.7726 0.0562381C16.113 -0.0308854 16.4674 -0.0497245 16.8151 0.000793878C17.1629 0.0513122 17.4973 0.170202 17.7989 0.350601C18.401 0.715615 18.8354 1.30302 19.0082 1.98588L24.1232 26.3597C24.1312 26.4331 24.1312 26.5071 24.1232 26.5805V40.8728C24.1302 42.1049 23.7231 43.3037 22.9674 44.2764C22.2116 45.2492 21.1511 45.9395 19.9561 46.2365V46.2365C19.5325 46.3543 19.0963 46.4202 18.6569 46.4328V46.4328ZM9.06423 29.9655L15.699 42.4999C16.0508 43.1633 16.6146 43.6897 17.3003 43.995C17.986 44.3003 18.7541 44.3669 19.4821 44.1843V44.1843C20.2115 44.0031 20.859 43.5824 21.3212 42.9895C21.7834 42.3966 22.0335 41.6657 22.0315 40.9137L21.9906 26.7276L16.9083 2.50097C16.8715 2.38181 16.7893 2.28194 16.6795 2.22298C16.6215 2.1871 16.5568 2.16353 16.4894 2.15369C16.4219 2.14384 16.3531 2.14795 16.2873 2.16576L14.457 2.62364C14.3748 2.64432 14.299 2.68498 14.2363 2.74204C14.1736 2.79909 14.1259 2.87077 14.0975 2.95069C13.9503 3.36591 13.7022 3.73798 13.3756 4.03342C13.0489 4.32887 12.654 4.53843 12.2264 4.64321L7.45458 5.83696C7.02729 5.94727 6.5792 5.94895 6.1511 5.84185C5.72299 5.73475 5.32845 5.52228 5.00331 5.22373C4.93994 5.16675 4.86379 5.12585 4.78131 5.1045C4.69883 5.08316 4.61242 5.08199 4.52939 5.10109L2.53568 5.59983C2.39919 5.63633 2.28209 5.72424 2.20885 5.84514C2.13989 5.96368 2.11939 6.10429 2.15165 6.23759L9.06423 29.9655Z" fill="white"/>
<path d="M18.534 43.2686C18.0118 43.2678 17.4995 43.1251 17.052 42.8559C16.6045 42.5866 16.2384 42.2008 15.9928 41.7396L13.2801 36.613C13.2768 36.5803 13.2768 36.5475 13.2801 36.5149V36.4495C13.2627 36.4043 13.2491 36.3578 13.2392 36.3104C13.035 35.2312 13.468 32.9908 16.5566 32.2222C19.6452 31.4537 21.0833 33.228 21.4101 34.2745C21.4423 34.3778 21.4589 34.4852 21.4592 34.5934V40.3905C21.4613 41.0338 21.2475 41.6592 20.8518 42.1663C20.4562 42.6735 19.9017 43.0328 19.2775 43.1868C19.0342 43.2461 18.7843 43.2736 18.534 43.2686V43.2686ZM15.2656 35.7872L17.8803 40.693C17.9561 40.8363 18.078 40.9498 18.2263 41.0151C18.3746 41.0804 18.5406 41.0937 18.6974 41.0528V41.0528C18.8536 41.0129 18.9922 40.9222 19.0913 40.7949C19.1904 40.6676 19.2444 40.5109 19.2448 40.3496V34.7651C19.0896 34.4871 18.5585 33.8739 17.0142 34.2582C15.4699 34.6425 15.282 35.4928 15.282 35.7545L15.2656 35.7872Z" fill="white"/>
<path d="M12.7657 29.6467C12.5276 29.6444 12.2971 29.5627 12.1107 29.4147C11.9242 29.2666 11.7924 29.0605 11.7361 28.8291L6.57209 10.5221C6.54652 10.4261 6.53281 10.3272 6.53125 10.2278C6.53358 9.98959 6.61517 9.75896 6.76315 9.57238C6.91113 9.3858 7.11706 9.2539 7.34834 9.19754C7.48354 9.15884 7.62503 9.14719 7.76474 9.16323C7.90445 9.17928 8.03961 9.2227 8.16254 9.29104C8.28546 9.35938 8.39375 9.45128 8.48116 9.5615C8.56858 9.67172 8.63343 9.79812 8.67202 9.93344L13.836 28.2404C13.8479 28.3381 13.8479 28.437 13.836 28.5347C13.8341 28.774 13.7528 29.0058 13.6049 29.1937C13.457 29.3817 13.2509 29.5152 13.0189 29.5731C12.9374 29.6068 12.8525 29.6314 12.7657 29.6467Z" fill="white"/>
<path d="M18.0595 28.3217C17.8191 28.3216 17.5855 28.2411 17.396 28.0929C17.2065 27.9448 17.0719 27.7375 17.0136 27.5041L12.9282 8.91911C12.9198 8.84304 12.9198 8.76626 12.9282 8.69018C12.9269 8.44918 13.0068 8.21479 13.1551 8.02487C13.3034 7.83496 13.5113 7.70063 13.7453 7.6436C14.0237 7.58265 14.3149 7.63442 14.5552 7.78762C14.7956 7.94083 14.9656 8.18301 15.0281 8.46124L19.1136 27.0462C19.1216 27.1223 19.1216 27.199 19.1136 27.2751C19.1153 27.5172 19.0356 27.7527 18.8875 27.944C18.7393 28.1353 18.5311 28.2712 18.2965 28.3299C18.2174 28.3352 18.138 28.3325 18.0595 28.3217V28.3217Z" fill="white"/>
<path d="M30.497 51.7882C30.0479 51.7903 29.6004 51.7354 29.1651 51.6247C27.9691 51.3299 26.9067 50.6417 26.1481 49.6707C25.3896 48.6996 24.9788 47.5017 24.9816 46.2692V31.9768C24.9736 31.9035 24.9736 31.8294 24.9816 31.7561L30.0394 7.41494C30.1207 7.0681 30.2703 6.74095 30.4794 6.4526C30.6884 6.16424 30.9528 5.92046 31.2571 5.73549C31.5614 5.55052 31.8994 5.42809 32.2515 5.3753C32.6036 5.32252 32.9627 5.34046 33.3078 5.42808L35.138 5.87777C35.5645 5.98522 35.9581 6.19572 36.2843 6.4908C36.6105 6.78588 36.8594 7.15655 37.0092 7.57029C37.0383 7.65118 37.0872 7.72349 37.1515 7.78061C37.2157 7.83774 37.2932 7.87787 37.3769 7.89734L42.1487 9.08293C42.231 9.10452 42.3173 9.10538 42.4 9.0854C42.4827 9.06542 42.5592 9.02523 42.6226 8.96845C42.9469 8.66848 43.3412 8.4545 43.7693 8.34596C44.1974 8.23743 44.6459 8.2378 45.0739 8.34706L47.0676 8.83762C47.4067 8.92301 47.7256 9.0746 48.0061 9.28367C48.2865 9.49274 48.5229 9.75518 48.7017 10.0559C48.8831 10.3558 49.0033 10.6887 49.0552 11.0354C49.1071 11.3821 49.0897 11.7356 49.0041 12.0755L42.0997 35.9996C42.0694 36.098 42.0254 36.1916 41.9689 36.2776L35.3587 48.8366C34.8947 49.7258 34.1964 50.4709 33.3394 50.9913C32.4824 51.5116 31.4994 51.7872 30.497 51.7882ZM27.1387 32.0913V46.2774C27.1367 47.0293 27.3868 47.7602 27.849 48.3532C28.3112 48.9461 28.9587 49.3668 29.6881 49.5479V49.5479C30.417 49.7299 31.1858 49.662 31.8716 49.3552C32.5574 49.0484 33.1206 48.5203 33.4712 47.8554L40.0896 35.3046L46.9532 11.5277C46.9724 11.4054 46.9462 11.2804 46.8796 11.1761C46.846 11.1165 46.8002 11.0646 46.7454 11.0238C46.6905 10.983 46.6277 10.9541 46.561 10.939L44.5673 10.4402C44.4844 10.4181 44.3972 10.4178 44.3142 10.4393C44.2312 10.4608 44.1551 10.5033 44.0934 10.5629C43.7678 10.8609 43.3736 11.0737 42.9458 11.1821C42.5181 11.2905 42.0702 11.2913 41.6421 11.1843L36.8621 9.99868C36.4357 9.89123 36.0421 9.68074 35.7158 9.38565C35.3896 9.09057 35.1407 8.7199 34.991 8.30616C34.9626 8.22624 34.9149 8.15459 34.8522 8.09753C34.7895 8.04048 34.7136 7.99979 34.6314 7.97911L32.8012 7.52123C32.6668 7.48918 32.5253 7.51159 32.4074 7.58359C32.2895 7.65559 32.2049 7.77132 32.172 7.90553L27.1387 32.0913Z" fill="white"/>
<path d="M30.6262 48.6165C30.3922 48.6175 30.159 48.5901 29.9317 48.5347C29.3067 48.3821 28.7515 48.023 28.3556 47.5156C27.9597 47.0082 27.7464 46.3821 27.75 45.7384V39.9413C27.7497 39.8358 27.7663 39.7309 27.7991 39.6306C28.1259 38.5759 29.5558 36.8016 32.6526 37.562C35.7494 38.3224 36.1742 40.5791 35.97 41.6502C35.9737 41.691 35.9737 41.732 35.97 41.7728C35.9527 41.8355 35.928 41.8959 35.8964 41.9527L33.1919 47.0793C32.9469 47.5469 32.5777 47.9378 32.1251 48.209C31.6724 48.4802 31.1538 48.6212 30.6262 48.6165V48.6165ZM29.899 40.1703V45.7466C29.898 45.9083 29.9515 46.0656 30.0508 46.1932C30.1501 46.3208 30.2895 46.4111 30.4464 46.4497C30.6041 46.487 30.7697 46.4712 30.9174 46.4047C31.0652 46.3381 31.1869 46.2246 31.2635 46.0818L33.8619 41.176C33.8619 40.8571 33.6739 40.0721 32.1296 39.6879C30.5853 39.3036 30.0706 39.8432 29.899 40.1703V40.1703Z" fill="white"/>
<path d="M36.3476 34.986C36.2479 34.9885 36.1486 34.9747 36.0534 34.9451C35.8221 34.8888 35.6162 34.7569 35.4682 34.5703C35.3202 34.3837 35.2387 34.1531 35.2363 33.9149C35.2379 33.8155 35.2516 33.7166 35.2772 33.6206L40.433 15.3136C40.4698 15.1769 40.5334 15.049 40.6202 14.9373C40.707 14.8256 40.8152 14.7324 40.9385 14.6631C41.0618 14.5937 41.1977 14.5498 41.3382 14.5337C41.4787 14.5177 41.621 14.5298 41.7567 14.5695C41.988 14.6259 42.1939 14.7578 42.3419 14.9444C42.4899 15.1309 42.5715 15.3616 42.5738 15.5998C42.5722 15.6992 42.5585 15.798 42.5329 15.8941L37.4016 34.2092C37.3366 34.4372 37.1978 34.6371 37.0071 34.7776C36.8163 34.9182 36.5844 34.9915 36.3476 34.986V34.986Z" fill="white"/>
<path d="M31.0685 33.6687C30.9925 33.6768 30.9158 33.6768 30.8397 33.6687C30.6057 33.6117 30.3978 33.4774 30.2495 33.2875C30.1012 33.0976 30.0213 32.8632 30.0226 32.6222C30.0146 32.5461 30.0146 32.4693 30.0226 32.3932L34.0509 13.8001C34.0799 13.6621 34.1361 13.5313 34.2161 13.4152C34.2962 13.2992 34.3985 13.2002 34.5171 13.1241C34.6357 13.048 34.7683 12.9963 34.9071 12.972C35.0459 12.9477 35.1881 12.9512 35.3255 12.9824C35.5603 13.0381 35.769 13.1721 35.9175 13.3623C36.0661 13.5525 36.1454 13.7877 36.1426 14.029C36.1507 14.1051 36.1507 14.1819 36.1426 14.258L32.1144 32.8511C32.0587 33.086 31.9249 33.2949 31.7348 33.4435C31.5447 33.5921 31.3097 33.6715 31.0685 33.6687Z" fill="white"/>
</g>
<defs>
<clipPath id="clip0_353_10729">
<rect width="49.0989" height="51.7893" fill="white"/>
</clipPath>
</defs>
</svg>
