<svg width="58" height="52" viewBox="0 0 58 52" fill="none" xmlns="http://www.w3.org/2000/svg">
<g clip-path="url(#clip0_353_10676)">
<path d="M28.9532 46.6243C23.3678 46.6093 18.0154 44.3851 14.0659 40.4378C10.1164 36.4904 7.89099 31.141 7.87598 25.5586C7.89314 19.9776 10.1195 14.6303 14.0688 10.6847C18.0181 6.73911 23.3692 4.51598 28.9532 4.50098C34.5358 4.51812 39.8849 6.7422 43.8324 10.6876C47.7799 14.6329 50.0052 19.979 50.0224 25.5586C50.0074 31.1396 47.783 36.4878 43.8353 40.4349C39.8875 44.382 34.5373 46.6072 28.9532 46.6243V46.6243ZM28.9532 6.63761C23.9329 6.64191 19.1193 8.63649 15.5687 12.1837C12.018 15.7309 10.0202 20.541 10.0138 25.5586C10.0181 30.5768 12.0151 35.3882 15.5663 38.9359C19.1174 42.4835 23.9322 44.4774 28.9532 44.4796C33.9728 44.4753 38.7856 42.4804 42.3349 38.933C45.8843 35.3856 47.8803 30.5754 47.8846 25.5586C47.8781 20.5424 45.8815 15.7335 42.3326 12.1866C38.7837 8.6396 33.9722 6.64406 28.9532 6.63761V6.63761Z" fill="white"/>
<path d="M28.9538 40.8646C24.8936 40.8603 21.0009 39.2464 18.1298 36.3769C15.2588 33.5075 13.644 29.6169 13.6396 25.5589C13.6461 21.5022 15.2619 17.6138 18.1327 14.7461C21.0035 11.8784 24.895 10.2655 28.9538 10.2612C33.0112 10.2677 36.9006 11.8814 39.7697 14.7489C42.6387 17.6164 44.2534 21.5037 44.2598 25.5589C44.2555 29.6155 42.6418 33.5048 39.7725 36.3741C36.9033 39.2433 33.0126 40.8582 28.9538 40.8646ZM28.9538 12.4303C25.4669 12.4325 22.1229 13.815 19.6534 16.2755C17.184 18.7359 15.7904 22.0739 15.7775 25.5589C15.7818 29.0502 17.1714 32.3973 19.6415 34.8661C22.1116 37.3349 25.4606 38.7237 28.9538 38.728C32.4463 38.7237 35.7944 37.3346 38.2633 34.8656C40.7321 32.3966 42.1199 29.0495 42.122 25.5589C42.1177 22.0697 40.729 18.7246 38.2604 16.2574C35.7918 13.7901 32.4449 12.4021 28.9538 12.3978V12.4303Z" fill="white"/>
<path d="M28.9532 32.7157C27.0546 32.7135 25.2344 31.9588 23.8918 30.617C22.5493 29.2752 21.7941 27.4559 21.792 25.5584C21.7963 23.6622 22.5524 21.845 23.8947 20.505C25.237 19.165 27.056 18.4113 28.9532 18.4092C30.8497 18.4113 32.6678 19.1652 34.0088 20.5055C35.3498 21.8458 36.1042 23.6629 36.1063 25.5584C36.1042 27.4545 35.3501 29.2726 34.0093 30.6141C32.6686 31.9557 30.8504 32.7114 28.9532 32.7157V32.7157ZM28.9532 20.5296C27.6223 20.5296 26.3458 21.0574 25.404 21.9972C24.4621 22.937 23.932 24.212 23.9298 25.5421C23.932 26.8723 24.4621 28.1472 25.404 29.087C26.3458 30.0268 27.6223 30.5547 28.9532 30.5547C30.2834 30.5547 31.559 30.0266 32.4996 29.0865C33.4401 28.1465 33.9685 26.8715 33.9685 25.5421C33.9621 24.2162 33.4311 22.9466 32.4915 22.0106C31.5519 21.0745 30.2799 20.5479 28.9532 20.5458V20.5296Z" fill="white"/>
<path d="M28.9534 28.4019C28.1988 28.4019 27.4752 28.1023 26.9417 27.5691C26.4082 27.0358 26.1084 26.3126 26.1084 25.5585C26.1106 24.8057 26.4112 24.0846 26.9445 23.5531C27.4778 23.0216 28.2003 22.7232 28.9534 22.7232C29.3266 22.7221 29.6964 22.7946 30.0415 22.9366C30.3866 23.0787 30.7003 23.2873 30.9646 23.5507C31.2289 23.8141 31.4386 24.127 31.5817 24.4715C31.7247 24.8161 31.7984 25.1854 31.7984 25.5585C31.7984 26.3126 31.4986 27.0358 30.9651 27.5691C30.4315 28.1023 29.7079 28.4019 28.9534 28.4019V28.4019ZM28.9534 24.8598C28.8609 24.8587 28.7691 24.876 28.6834 24.9106C28.5976 24.9452 28.5196 24.9965 28.4538 25.0615C28.3881 25.1265 28.3358 25.2039 28.3002 25.2892C28.2645 25.3745 28.2462 25.466 28.2462 25.5585C28.2462 25.6509 28.2645 25.7424 28.3002 25.8277C28.3358 25.913 28.3881 25.9904 28.4538 26.0554C28.5196 26.1204 28.5976 26.1717 28.6834 26.2063C28.7691 26.2409 28.8609 26.2582 28.9534 26.2571C29.1388 26.2571 29.3166 26.1835 29.4477 26.0525C29.5788 25.9215 29.6524 25.7438 29.6524 25.5585C29.6524 25.3732 29.5788 25.1954 29.4477 25.0644C29.3166 24.9334 29.1388 24.8598 28.9534 24.8598V24.8598Z" fill="white"/>
<path d="M22.7773 26.6303H14.852C14.7115 26.6303 14.5723 26.6025 14.4426 26.5485C14.3128 26.4945 14.1951 26.4154 14.0961 26.3157C13.9971 26.216 13.9189 26.0978 13.8658 25.9677C13.8128 25.8376 13.7861 25.6984 13.7871 25.5579C13.7861 25.4179 13.8128 25.279 13.866 25.1494C13.9191 25.0198 13.9975 24.902 14.0966 24.803C14.1957 24.7039 14.3135 24.6256 14.4432 24.5725C14.5728 24.5194 14.7118 24.4926 14.852 24.4937H22.7773C23.0597 24.4937 23.3305 24.6058 23.5302 24.8054C23.7299 25.005 23.8421 25.2757 23.8421 25.5579C23.8421 25.8409 23.7302 26.1125 23.5307 26.3134C23.3312 26.5142 23.0604 26.6282 22.7773 26.6303V26.6303Z" fill="white"/>
<path d="M42.813 26.6303H35.0502C34.9097 26.6303 34.7705 26.6025 34.6408 26.5485C34.5111 26.4945 34.3934 26.4154 34.2944 26.3157C34.1954 26.216 34.1171 26.0978 34.0641 25.9677C34.011 25.8376 33.9843 25.6984 33.9854 25.5579C33.9843 25.4179 34.0111 25.279 34.0642 25.1494C34.1173 25.0198 34.1958 24.902 34.2949 24.803C34.394 24.7039 34.5118 24.6256 34.6415 24.5725C34.7711 24.5194 34.9101 24.4926 35.0502 24.4937H42.8211C43.1035 24.4937 43.3744 24.6058 43.5741 24.8054C43.7738 25.005 43.8859 25.2757 43.8859 25.5579C43.8859 25.8423 43.7729 26.1151 43.5717 26.3162C43.3705 26.5173 43.0975 26.6303 42.813 26.6303V26.6303Z" fill="white"/>
<path d="M3.91819 29.4742H3.77189C2.80423 29.4308 1.88624 29.0336 1.19238 28.3581C0.49852 27.6826 0.0771579 26.7759 0.00837319 25.8102C-0.02676 25.275 0.0489158 24.7383 0.230737 24.2337C0.412558 23.7291 0.696605 23.2674 1.06507 22.8774C1.6561 22.2623 2.42815 21.8518 3.26881 21.7057C4.10948 21.5596 4.97486 21.6855 5.73897 22.065C6.61083 22.5372 7.58429 22.7909 8.57582 22.8043H8.87657C9.15899 22.8043 9.42985 22.9164 9.62954 23.116C9.82924 23.3156 9.94141 23.5863 9.94141 23.8686C9.94248 24.009 9.91576 24.1483 9.86272 24.2783C9.80969 24.4084 9.73141 24.5267 9.63242 24.6264C9.53344 24.7261 9.4157 24.8052 9.28598 24.8592C9.15625 24.9132 9.0171 24.9409 8.87657 24.9409H8.57582C7.23867 24.9292 5.92454 24.5917 4.74727 23.9579C4.40273 23.7794 4.00944 23.7176 3.62672 23.7821C3.244 23.8466 2.89265 24.0338 2.62573 24.3154C2.45799 24.4923 2.32879 24.702 2.24625 24.9313C2.1637 25.1606 2.12963 25.4046 2.14618 25.6477C2.17578 26.0866 2.36625 26.4992 2.6812 26.8065C2.99615 27.1138 3.41343 27.2942 3.85315 27.3132C4.17702 27.3342 4.49976 27.2578 4.77981 27.0938C5.99286 26.4485 7.34797 26.1162 8.72213 26.1271H8.88471C9.16928 26.1271 9.44222 26.24 9.64344 26.4412C9.84466 26.6423 9.95768 26.915 9.95768 27.1994C9.95769 27.3399 9.92989 27.4789 9.87587 27.6086C9.82185 27.7382 9.74268 27.8559 9.64294 27.9549C9.5432 28.0538 9.42484 28.132 9.29471 28.185C9.16458 28.238 9.02523 28.2648 8.88471 28.2637H8.72213C7.70782 28.2486 6.70639 28.4918 5.81215 28.9705C5.23359 29.2957 4.58196 29.469 3.91819 29.4742V29.4742Z" fill="white"/>
<path d="M53.9171 29.474C53.2857 29.4736 52.6637 29.3203 52.1044 29.0272C51.23 28.5541 50.2537 28.3003 49.2595 28.2879H48.9669C48.8263 28.289 48.687 28.2622 48.5569 28.2092C48.4267 28.1562 48.3084 28.078 48.2086 27.9791C48.1089 27.8802 48.0298 27.7625 47.9757 27.6328C47.9217 27.5032 47.8939 27.3641 47.8939 27.2237C47.8939 27.0828 47.9216 26.9434 47.9755 26.8133C48.0295 26.6832 48.1085 26.5649 48.2082 26.4654C48.3078 26.3658 48.4261 26.2868 48.5563 26.2329C48.6864 26.179 48.8259 26.1513 48.9669 26.1513H49.2595C50.6041 26.1727 51.9223 26.5272 53.0962 27.183C53.4421 27.358 53.8353 27.4169 54.2174 27.3511C54.5996 27.2852 54.9503 27.0981 55.2177 26.8174C55.3858 26.6408 55.5153 26.4312 55.5979 26.2018C55.6805 25.9724 55.7143 25.7283 55.6973 25.4851C55.6677 25.0462 55.4772 24.6336 55.1622 24.3263C54.8473 24.0191 54.43 23.8387 53.9903 23.8197C53.6671 23.8061 53.3464 23.882 53.0636 24.039C51.8524 24.6893 50.4961 25.0219 49.1213 25.0058H48.9587C48.8178 25.0058 48.6783 24.978 48.5481 24.9242C48.4179 24.8703 48.2997 24.7913 48.2 24.6917C48.1004 24.5921 48.0214 24.4739 47.9675 24.3438C47.9135 24.2137 47.8857 24.0742 47.8857 23.9334C47.8879 23.6504 48.0019 23.3797 48.2029 23.1804C48.4039 22.981 48.6755 22.8691 48.9587 22.8692H49.1213C50.1355 22.8832 51.1367 22.6401 52.0313 22.1624C52.6557 21.8215 53.3607 21.6559 54.0716 21.683C55.0292 21.7331 55.9361 22.1288 56.6238 22.7967C57.3115 23.4646 57.7332 24.3593 57.8107 25.3145C57.8452 25.8484 57.7692 26.3837 57.5873 26.8869C57.4055 27.3901 57.1218 27.8505 56.754 28.2392C56.3895 28.6263 55.9501 28.9354 55.4624 29.1477C54.9748 29.36 54.449 29.471 53.9171 29.474V29.474Z" fill="white"/>
<path d="M25.8489 21.3094C25.661 21.309 25.4765 21.2592 25.3139 21.1651C25.1513 21.071 25.0162 20.9359 24.9222 20.7732L20.9636 13.9165C20.8924 13.7951 20.846 13.6608 20.8271 13.5213C20.8081 13.3818 20.817 13.24 20.8533 13.104C20.8896 12.9679 20.9526 12.8405 21.0385 12.729C21.1244 12.6174 21.2316 12.524 21.3539 12.4542C21.599 12.3151 21.889 12.2781 22.1613 12.351C22.4336 12.424 22.6662 12.6012 22.8088 12.8441L26.7756 19.709C26.8455 19.8301 26.8909 19.9637 26.9092 20.1024C26.9274 20.241 26.9182 20.3819 26.8819 20.5169C26.8457 20.652 26.7832 20.7785 26.698 20.8894C26.6128 21.0003 26.5066 21.0934 26.3854 21.1632C26.2223 21.2575 26.0374 21.3079 25.8489 21.3094V21.3094Z" fill="white"/>
<path d="M35.8633 38.6545C35.6756 38.6532 35.4914 38.6031 35.3289 38.5091C35.1664 38.4151 35.0312 38.2804 34.9367 38.1183L31.0594 31.3916C30.9881 31.2701 30.9417 31.1358 30.9228 30.9963C30.9038 30.8569 30.9128 30.715 30.949 30.579C30.9853 30.443 31.0482 30.3155 31.1342 30.204C31.2201 30.0925 31.3273 29.9991 31.4495 29.9292C31.5712 29.8596 31.7053 29.8147 31.8444 29.7971C31.9834 29.7794 32.1245 29.7894 32.2597 29.8263C32.3949 29.8633 32.5215 29.9266 32.6321 30.0126C32.7428 30.0986 32.8353 30.2055 32.9045 30.3273L36.79 37.0459C36.9317 37.2917 36.9702 37.5836 36.8971 37.8576C36.8239 38.1317 36.6451 38.3656 36.3998 38.5083C36.2371 38.6036 36.052 38.6541 35.8633 38.6545V38.6545Z" fill="white"/>
<path d="M17.4606 10.1226C17.2729 10.1213 17.0887 10.0712 16.9262 9.97719C16.7638 9.88317 16.6285 9.74848 16.534 9.58638L16.4527 9.44015C15.9579 8.55509 15.2478 7.80902 14.3881 7.27101C13.784 6.89883 13.288 6.37506 12.9493 5.75181C12.5044 4.89089 12.391 3.89672 12.6307 2.95782C12.8705 2.01892 13.4466 1.20059 14.2498 0.658023C14.6951 0.360157 15.1971 0.157336 15.7244 0.0622788C16.2517 -0.0327787 16.793 -0.0180216 17.3143 0.105592C17.8354 0.228637 18.3261 0.456278 18.7565 0.774698C19.1869 1.09312 19.548 1.49567 19.8179 1.95788C20.1348 2.50815 20.3133 3.12704 20.3382 3.76143C20.3737 4.75608 20.6528 5.72682 21.151 6.58859L21.2973 6.84044C21.439 7.0862 21.4775 7.37806 21.4044 7.65212C21.3313 7.92619 21.1524 8.16016 20.9071 8.30279C20.6612 8.44439 20.3692 8.48285 20.095 8.40977C19.8208 8.33668 19.5867 8.158 19.444 7.91282L19.2977 7.65284C18.6359 6.4891 18.2702 5.1807 18.2328 3.84265C18.2238 3.55636 18.1427 3.27697 17.9971 3.03024C17.8725 2.82475 17.7074 2.64676 17.5117 2.50709C17.3161 2.36742 17.094 2.26901 16.8591 2.21783C16.6213 2.16164 16.3744 2.15499 16.1338 2.19832C15.8933 2.24165 15.6643 2.33402 15.461 2.46968C15.0978 2.71793 14.8378 3.0903 14.73 3.5167C14.6223 3.9431 14.6741 4.39416 14.8758 4.78504C15.0257 5.07003 15.2505 5.30877 15.526 5.4756C16.6928 6.20095 17.6596 7.20632 18.3385 8.40027L18.4198 8.5465C18.491 8.66792 18.5375 8.80226 18.5564 8.94174C18.5754 9.08122 18.5664 9.22305 18.5301 9.35905C18.4938 9.49506 18.4309 9.62254 18.345 9.73407C18.2591 9.8456 18.1519 9.93898 18.0296 10.0088C17.8542 10.0986 17.6572 10.138 17.4606 10.1226V10.1226Z" fill="white"/>
<path d="M41.4309 51.1163C41.127 51.1174 40.8241 51.0819 40.5287 51.0107C40.0065 50.8904 39.5146 50.6638 39.0839 50.3451C38.6532 50.0264 38.2927 49.6224 38.0251 49.1584C37.7095 48.6105 37.531 47.9946 37.5049 47.363C37.4655 46.3664 37.1867 45.3939 36.692 44.5277L36.5457 44.2758C36.4745 44.1544 36.428 44.0201 36.4091 43.8806C36.3901 43.7411 36.3991 43.5993 36.4354 43.4633C36.4717 43.3273 36.5346 43.1998 36.6205 43.0883C36.7064 42.9767 36.8136 42.8833 36.9359 42.8135C37.057 42.7436 37.1907 42.6982 37.3294 42.6799C37.4681 42.6617 37.6091 42.6709 37.7442 42.7072C37.8793 42.7434 38.006 42.8058 38.1169 42.891C38.2279 42.9762 38.321 43.0823 38.3909 43.2035L38.5453 43.4634C39.2071 44.6272 39.5727 45.9356 39.6101 47.2736C39.6192 47.5599 39.7003 47.8393 39.8459 48.086C39.9694 48.2925 40.1342 48.4712 40.33 48.611C40.5258 48.7507 40.7484 48.8486 40.9839 48.8984C41.2204 48.955 41.4661 48.9617 41.7053 48.9184C41.9446 48.875 42.1723 48.7825 42.3739 48.6466C42.7393 48.4022 43.0017 48.0318 43.1112 47.6062C43.2207 47.1806 43.1694 46.7296 42.9672 46.3393C42.8146 46.0515 42.5871 45.8102 42.3088 45.6407C41.1419 44.9181 40.1772 43.9119 39.5045 42.716L39.4232 42.5698C39.352 42.4484 39.3055 42.314 39.2866 42.1745C39.2676 42.0351 39.2766 41.8932 39.3129 41.7572C39.3491 41.6212 39.4121 41.4937 39.498 41.3822C39.5839 41.2707 39.6911 41.1773 39.8134 41.1075C39.935 41.0379 40.0692 40.9929 40.2082 40.9753C40.3473 40.9576 40.4884 40.9676 40.6236 41.0046C40.7588 41.0415 40.8853 41.1048 40.9959 41.1908C41.1066 41.2768 41.1992 41.3837 41.2684 41.5055L41.3578 41.6436C41.852 42.5265 42.5588 43.2721 43.4143 43.8128C44.025 44.1803 44.5227 44.7087 44.8531 45.3401C45.2983 46.1989 45.4126 47.1911 45.1744 48.1285C44.9362 49.066 44.3619 49.8834 43.5606 50.4258C42.9345 50.8611 42.1935 51.1014 41.4309 51.1163Z" fill="white"/>
<path d="M31.9932 21.3095C31.8047 21.308 31.6199 21.2576 31.4567 21.1633C31.3356 21.0934 31.2293 21.0004 31.1441 20.8895C31.0589 20.7786 30.9964 20.652 30.9602 20.517C30.9239 20.3819 30.9147 20.2411 30.9329 20.1024C30.9512 19.9638 30.9966 19.8301 31.0665 19.7091L35.0251 12.8442C35.1693 12.6007 35.4034 12.4234 35.677 12.3505C35.9506 12.2775 36.2419 12.3148 36.4883 12.4543C36.6106 12.5241 36.7177 12.6175 36.8036 12.729C36.8896 12.8406 36.9525 12.968 36.9888 13.104C37.0251 13.24 37.034 13.3819 37.0151 13.5214C36.9962 13.6608 36.9497 13.7952 36.8785 13.9166L32.9199 20.7733C32.8259 20.936 32.6908 21.0711 32.5282 21.1652C32.3656 21.2593 32.1811 21.3091 31.9932 21.3095Z" fill="white"/>
<path d="M21.971 38.6541C21.7851 38.6526 21.6029 38.6022 21.4427 38.5078C21.3204 38.438 21.2132 38.3446 21.1273 38.2331C21.0414 38.1215 20.9785 37.9941 20.9422 37.8581C20.9059 37.7221 20.897 37.5802 20.9159 37.4407C20.9349 37.3013 20.9813 37.1669 21.0526 37.0455L24.9298 30.3269C25.0727 30.0819 25.3061 29.9029 25.5798 29.8285C25.8536 29.754 26.1456 29.79 26.3929 29.9288C26.5152 29.9986 26.6224 30.092 26.7083 30.2036C26.7942 30.3151 26.8572 30.4426 26.8935 30.5786C26.9298 30.7146 26.9387 30.8564 26.9197 30.9959C26.9008 31.1354 26.8544 31.2697 26.7832 31.3911L22.8977 38.1179C22.8044 38.2811 22.6695 38.4167 22.5067 38.5109C22.3439 38.605 22.1591 38.6544 21.971 38.6541V38.6541Z" fill="white"/>
<path d="M40.3827 10.1226C40.1949 10.1239 40.0101 10.0763 39.8463 9.98446C39.6026 9.84034 39.4252 9.60643 39.3522 9.33298C39.2793 9.05954 39.3165 8.76839 39.4561 8.52214L39.6105 8.27029C40.2827 7.11322 41.2325 6.1416 42.3742 5.4431C42.619 5.28812 42.8225 5.07631 42.9676 4.82569C43.0881 4.61447 43.1646 4.38108 43.1925 4.13955C43.2205 3.89802 43.1993 3.65334 43.1302 3.42021C43.0594 3.18681 42.9413 2.97046 42.7832 2.78458C42.6252 2.5987 42.4307 2.44728 42.2117 2.33972C41.8149 2.14892 41.362 2.10966 40.9384 2.22937C40.5147 2.34908 40.1494 2.61947 39.9113 2.98964C39.7397 3.26293 39.6443 3.57705 39.6349 3.89953C39.5932 5.27123 39.2045 6.61003 38.5051 7.79097L38.4238 7.9372C38.2811 8.18238 38.047 8.36106 37.7728 8.43415C37.4986 8.50723 37.2065 8.46878 36.9606 8.32717C36.8394 8.25732 36.7332 8.16428 36.648 8.05338C36.5628 7.94248 36.5003 7.81589 36.464 7.68085C36.4278 7.5458 36.4186 7.40493 36.4369 7.26631C36.4551 7.12769 36.5005 6.99403 36.5705 6.87295L36.6517 6.72672C37.1605 5.85469 37.4402 4.86811 37.4646 3.85892C37.482 3.14463 37.6927 2.44839 38.0742 1.84414C38.5925 1.01145 39.4011 0.40029 40.3439 0.128708C41.2867 -0.142874 42.2968 -0.0556004 43.179 0.373685C43.6595 0.610958 44.0859 0.944839 44.4314 1.35444C44.7769 1.76403 45.034 2.24051 45.1867 2.75403C45.3431 3.26683 45.3922 3.80637 45.3307 4.33893C45.2691 4.8715 45.0984 5.38566 44.8291 5.84931C44.5147 6.39742 44.071 6.86039 43.5366 7.19791C42.6905 7.71786 41.9822 8.43407 41.472 9.2858L41.3256 9.54578C41.2371 9.71956 41.1021 9.86544 40.9357 9.96726C40.7692 10.0691 40.5779 10.1228 40.3827 10.1226Z" fill="white"/>
<path d="M16.3952 51.1086C15.8005 51.1094 15.2136 50.9732 14.6801 50.7105C14.1977 50.4745 13.7695 50.1412 13.4226 49.7315C13.0756 49.3218 12.8174 48.8446 12.6642 48.3302C12.5109 47.8165 12.4643 47.277 12.5272 46.7448C12.5901 46.2125 12.7612 45.6987 13.03 45.2349C13.3444 44.6868 13.7881 44.2238 14.3224 43.8863C15.1576 43.3668 15.8547 42.6533 16.3546 41.8065L16.5009 41.5547C16.57 41.4327 16.6627 41.3258 16.7735 41.24C16.8844 41.1542 17.0112 41.0914 17.1466 41.0551C17.282 41.0188 17.4234 41.0098 17.5623 41.0286C17.7012 41.0474 17.835 41.0937 17.9559 41.1647C18.0777 41.2339 18.1848 41.3264 18.2708 41.437C18.3568 41.5476 18.4201 41.6741 18.4571 41.8092C18.4941 41.9443 18.5041 42.0853 18.4864 42.2243C18.4688 42.3633 18.4238 42.4974 18.3542 42.6189L18.1998 42.8789C17.5232 44.0353 16.5709 45.0065 15.4279 45.7061C15.1861 45.8585 14.9852 46.0677 14.8427 46.3154C14.7222 46.5266 14.6457 46.76 14.6177 47.0015C14.5898 47.243 14.611 47.4877 14.6801 47.7208C14.75 47.9547 14.8678 48.1715 15.0259 48.3574C15.184 48.5434 15.379 48.6946 15.5986 48.8013C15.9944 48.9929 16.4466 49.0334 16.8702 48.9152C17.2938 48.797 17.6597 48.5283 17.899 48.1596C18.0717 47.8843 18.1646 47.5665 18.1672 47.2415C18.2159 45.8698 18.6071 44.5321 19.3052 43.3501L19.3865 43.2039C19.4564 43.0827 19.5495 42.9766 19.6605 42.8914C19.7714 42.8062 19.898 42.7438 20.0331 42.7076C20.1683 42.6713 20.3092 42.6621 20.4479 42.6803C20.5866 42.6986 20.7204 42.744 20.8415 42.8139C20.9634 42.8831 21.0704 42.9756 21.1564 43.0862C21.2424 43.1968 21.3058 43.3233 21.3428 43.4584C21.3798 43.5935 21.3897 43.7345 21.372 43.8735C21.3544 44.0124 21.3094 44.1465 21.2398 44.2681L21.1585 44.4143C20.6396 45.2873 20.3463 46.2757 20.305 47.2903C20.2935 48.0018 20.0853 48.6963 19.7035 49.2969C19.347 49.8507 18.8575 50.3065 18.2797 50.6229C17.7019 50.9394 17.0541 51.1063 16.3952 51.1086Z" fill="white"/>
</g>
<defs>
<clipPath id="clip0_353_10676">
<rect width="57.8426" height="51.1167" fill="white"/>
</clipPath>
</defs>
</svg>
