<svg width="46" height="53" viewBox="0 0 46 53" fill="none" xmlns="http://www.w3.org/2000/svg">
<g clip-path="url(#clip0_351_12148)">
<path d="M25.6148 25.5968L23.9834 26.2266L25.6546 30.556L27.286 29.9263L25.6148 25.5968Z" fill="white"/>
<path d="M15.1726 23.0182L13.4395 30.0723L15.1376 30.4895L16.8708 23.4355L15.1726 23.0182Z" fill="white"/>
<path d="M20.3141 26.097C15.3369 26.097 11.0996 19.6401 11.0996 12.0399V11.1655H12.8483V12.1072C12.8483 18.4967 16.4131 24.3483 20.3141 24.3483C24.2151 24.3483 27.7798 18.4967 27.7798 12.1072V11.2328H29.5285V12.1072C29.5285 19.7074 25.3585 26.097 20.3141 26.097Z" fill="white"/>
<path d="M15.8736 12.2419C14.5285 12.2419 12.9815 12.0402 11.2328 11.5021L10.8965 11.4348L10.6947 11.0985C10.6275 10.964 9.21502 8.47545 10.0894 5.71784C10.6947 3.90185 12.1071 2.42216 14.3267 1.34602C20.649 -1.61337 27.1059 0.673429 29.3254 3.4983C31.545 6.25591 29.7962 10.695 29.729 10.8968L29.3927 11.7039L27.7785 11.0313L28.1148 10.2242C28.1148 10.1569 29.5272 6.52495 27.9802 4.57444C26.4333 2.69119 20.9853 0.135358 15.1338 2.89297C13.3851 3.70008 12.2417 4.84348 11.8381 6.18865C11.3673 7.73561 11.8381 9.2153 12.1071 9.82063C17.0843 11.1658 19.7747 9.75337 21.7252 8.67723C23.0031 8.00464 24.1465 7.39931 25.3571 7.80286L26.1642 8.0719L25.6262 9.75337L24.8191 9.48434C24.281 9.28256 23.6757 9.61885 22.5323 10.2242C21.0526 11.0985 19.0348 12.2419 15.8736 12.2419Z" fill="white"/>
<path d="M40.6253 53.0003H0.000976562V39.6158C0.000976562 33.4952 4.97813 28.5181 11.0987 28.5181H15.1342L15.336 29.0561C16.3449 31.5447 18.5644 32.4191 20.3131 32.4191C22.0619 32.4191 24.2814 31.5447 25.2903 29.0561L25.4921 28.5181H29.5276C30.7383 28.5181 32.0162 28.7198 33.1596 29.1234L33.9667 29.3924L33.3614 31.0739L32.5542 30.8049C31.5454 30.4686 30.5365 30.2668 29.5276 30.2668H26.7027C25.4921 32.6881 23.0708 34.1678 20.3131 34.1678C17.5555 34.1678 15.1342 32.6881 13.9236 30.2668H11.0987C5.98701 30.2668 1.74971 34.4368 1.74971 39.6158V51.2515H38.8766V39.6158C38.8766 37.329 38.0022 35.1094 36.5225 33.428L35.9172 32.7554L37.2624 31.5447L37.8677 32.2173C39.6837 34.2351 40.6926 36.8582 40.6926 39.6158V53.0003H40.6253Z" fill="white"/>
<path d="M34.3698 19.9756H32.6211V41.6329H34.3698V19.9756Z" fill="white"/>
<path d="M45.6693 25.6929H32.6211V16.6802H45.6693L42.979 21.1865L45.6693 25.6929ZM34.3698 23.8769H42.5754L40.9612 21.1193L42.5754 18.3616H34.3698V23.8769Z" fill="white"/>
<path d="M28.6409 29.2174L22.8936 43.29L24.5125 43.9512L30.2598 29.8786L28.6409 29.2174Z" fill="white"/>
<path d="M11.9909 29.2581L10.3789 29.936L16.2721 43.9479L17.8841 43.2699L11.9909 29.2581Z" fill="white"/>
<path d="M25.9635 48.7632H14.6641V41.9028H25.9635V48.7632ZM16.4128 46.9472H24.2148V43.6516H16.4128V46.9472Z" fill="white"/>
</g>
<defs>
<clipPath id="clip0_351_12148">
<rect width="45.6687" height="53" fill="white"/>
</clipPath>
</defs>
</svg>
