<svg width="62" height="42" viewBox="0 0 62 42" fill="none" xmlns="http://www.w3.org/2000/svg">
<g clip-path="url(#clip0_353_10752)">
<path d="M28.2187 17.4573C27.9346 17.4573 27.6621 17.344 27.4612 17.1425C27.2603 16.9409 27.1475 16.6676 27.1475 16.3825V12.1649C27.1496 11.1874 27.5376 10.2505 28.2266 9.55924C28.9155 8.868 29.8493 8.47871 30.8237 8.47656H42.7531C44.5432 8.47872 46.2593 9.19313 47.5251 10.4631C48.7909 11.733 49.5029 13.4548 49.5051 15.2508C49.5051 15.5337 49.3931 15.8049 49.1937 16.005C48.9944 16.205 48.7239 16.3174 48.442 16.3174C48.3017 16.3185 48.1626 16.2917 48.0326 16.2385C47.9027 16.1854 47.7846 16.107 47.685 16.0079C47.5854 15.9087 47.5064 15.7908 47.4524 15.6608C47.3985 15.5309 47.3707 15.3915 47.3708 15.2508C47.3708 14.6424 47.2513 14.0399 47.0193 13.4779C46.7872 12.9158 46.4471 12.4051 46.0183 11.9749C45.5895 11.5447 45.0805 11.2034 44.5202 10.9706C43.96 10.7378 43.3595 10.6179 42.7531 10.6179H30.8237C30.4154 10.6201 30.0244 10.7837 29.7357 11.0734C29.447 11.3631 29.2839 11.7553 29.2818 12.1649V16.3825C29.2829 16.5233 29.2561 16.6628 29.2032 16.7932C29.1502 16.9235 29.0721 17.0421 28.9733 17.142C28.8745 17.2419 28.7569 17.3212 28.6274 17.3753C28.4979 17.4294 28.359 17.4573 28.2187 17.4573V17.4573Z" fill="white"/>
<path d="M5.65829 30.8433H2.85043C2.09497 30.8433 1.37046 30.5422 0.836267 30.0063C0.302076 29.4703 0.00195312 28.7434 0.00195312 27.9854V27.4806C0.00410143 26.7241 0.305132 25.9993 0.83909 25.4651C1.37305 24.9309 2.09637 24.6309 2.85043 24.6309H5.65829C5.79858 24.6298 5.9377 24.6566 6.06762 24.7097C6.19754 24.7629 6.3157 24.8413 6.41528 24.9404C6.51486 25.0396 6.5939 25.1575 6.64784 25.2874C6.70177 25.4174 6.72952 25.5568 6.72951 25.6975V29.7685C6.72951 30.0536 6.61667 30.327 6.41578 30.5285C6.21489 30.7301 5.94239 30.8433 5.65829 30.8433V30.8433ZM2.85043 26.7723C2.75703 26.7712 2.66435 26.7887 2.57776 26.8238C2.49116 26.8589 2.41237 26.9109 2.34595 26.9768C2.27952 27.0427 2.22675 27.1212 2.19076 27.2077C2.15478 27.2941 2.13627 27.3869 2.13628 27.4806V27.9854C2.13519 28.0798 2.15293 28.1735 2.18844 28.2609C2.22394 28.3483 2.27649 28.4278 2.34302 28.4945C2.40956 28.5613 2.48869 28.614 2.57582 28.6496C2.66296 28.6852 2.75634 28.703 2.85043 28.7019H4.59519V26.7723H2.85043Z" fill="white"/>
<path d="M3.36141 26.7557C1.5517 26.7557 0.72391 24.5655 0.594065 19.4278C0.589268 19.1549 0.639252 18.8838 0.741026 18.6306C0.8428 18.3774 0.994317 18.1474 1.18652 17.9541C1.47632 17.6817 1.81697 17.4696 2.18884 17.3298C2.56071 17.1901 2.95644 17.1256 3.35328 17.1399C3.75287 17.1229 4.15182 17.1862 4.52669 17.326C4.90157 17.4658 5.24481 17.6794 5.5363 17.9541C5.72874 18.1498 5.87912 18.383 5.97822 18.6392C6.07732 18.8955 6.12306 19.1694 6.1125 19.4441C5.88528 24.5818 5.07373 26.7557 3.36141 26.7557ZM2.72839 19.4278C2.69215 21.0339 2.89454 22.6365 3.32891 24.1828C3.75182 22.6304 3.97012 21.029 3.97818 19.4197C3.79619 19.2906 3.5758 19.2274 3.35328 19.2406C3.12614 19.2317 2.90369 19.3071 2.72839 19.4523V19.4278Z" fill="white"/>
<path d="M3.35433 38.3498C2.95485 38.3659 2.55616 38.3022 2.18142 38.1624C1.80667 38.0227 1.46332 37.8096 1.17131 37.5356C0.97927 37.3397 0.82911 37.1065 0.730036 36.8503C0.630961 36.5941 0.585039 36.3203 0.595111 36.0456C0.814224 30.9324 1.63388 28.7178 3.34621 28.7178C5.05853 28.7178 5.98366 30.908 6.12162 36.0456C6.12381 36.3177 6.07184 36.5875 5.96872 36.8392C5.8656 37.0909 5.7134 37.3193 5.5211 37.5112C5.23352 37.7883 4.89382 38.0052 4.52179 38.1492C4.14977 38.2932 3.75291 38.3614 3.35433 38.3498ZM2.72944 36.0212C2.90817 36.1577 3.13029 36.2242 3.35433 36.2085C3.57837 36.2242 3.80049 36.1577 3.97922 36.0212C4.01547 34.4151 3.81303 32.8125 3.37865 31.2662C2.95553 32.8159 2.73727 34.4145 2.72944 36.0212V36.0212Z" fill="white"/>
<path d="M42.1044 41.0371C27.1966 41.0371 4.65234 35.7285 4.65234 27.733C4.65234 23.1165 11.8912 19.9248 17.9696 18.0684C25.8092 15.7473 33.9311 14.5253 42.1044 14.437C55.3161 14.437 61.2078 18.508 61.2078 27.733C61.2078 36.958 55.3161 41.0371 42.1044 41.0371ZM42.1044 16.6109C25.6061 16.6109 6.78667 22.5546 6.78667 27.7656C6.78667 32.9765 25.6061 38.9283 42.1044 38.9283C57.0204 38.9283 59.0735 33.5627 59.0735 27.7656C59.0735 21.9684 57.0122 16.5458 42.1044 16.5458V16.6109Z" fill="white"/>
<path d="M18.3348 31.5349C17.3297 31.5349 16.3657 31.1343 15.655 30.4212C14.9442 29.7081 14.5449 28.741 14.5449 27.7325C14.5471 26.7247 14.947 25.7588 15.6573 25.0462C16.3676 24.3336 17.3303 23.9323 18.3348 23.9302C19.3393 23.9323 20.302 24.3336 21.0122 25.0462C21.7225 25.7588 22.1225 26.7247 22.1246 27.7325C22.1246 28.741 21.7254 29.7081 21.0146 30.4212C20.3039 31.1343 19.3399 31.5349 18.3348 31.5349V31.5349ZM18.3348 26.0715C17.9043 26.0715 17.4915 26.2431 17.1871 26.5485C16.8827 26.8539 16.7117 27.2681 16.7117 27.6999C16.7117 28.1318 16.8827 28.546 17.1871 28.8514C17.4915 29.1568 17.9043 29.3284 18.3348 29.3284C18.7653 29.3284 19.1781 29.1568 19.4825 28.8514C19.7868 28.546 19.9579 28.1318 19.9579 27.6999C19.9579 27.2681 19.7868 26.8539 19.4825 26.5485C19.1781 26.2431 18.7653 26.0715 18.3348 26.0715Z" fill="white"/>
<path d="M28.5194 31.5349C27.5149 31.5327 26.5522 31.1314 25.8419 30.4188C25.1317 29.7062 24.7316 28.7403 24.7295 27.7325C24.7316 26.7247 25.1317 25.7588 25.8419 25.0462C26.5522 24.3336 27.5149 23.9323 28.5194 23.9302C29.5238 23.9323 30.4865 24.3336 31.1968 25.0462C31.9071 25.7588 32.3071 26.7247 32.3092 27.7325C32.3092 28.741 31.9099 29.7081 31.1992 30.4212C30.4885 31.1343 29.5245 31.5349 28.5194 31.5349V31.5349ZM28.5194 26.0715C28.0889 26.0715 27.6761 26.2431 27.3717 26.5485C27.0673 26.8539 26.8963 27.2681 26.8963 27.6999C26.8963 28.1318 27.0673 28.546 27.3717 28.8514C27.6761 29.1568 28.0889 29.3284 28.5194 29.3284C28.9498 29.3284 29.3626 29.1568 29.667 28.8514C29.9714 28.546 30.1424 28.1318 30.1424 27.6999C30.1424 27.2681 29.9714 26.8539 29.667 26.5485C29.3626 26.2431 28.9498 26.0715 28.5194 26.0715Z" fill="white"/>
<path d="M38.7049 31.5349C37.7004 31.5327 36.7377 31.1314 36.0274 30.4188C35.3172 29.7062 34.9172 28.7403 34.915 27.7325C34.9172 26.7247 35.3172 25.7588 36.0274 25.0462C36.7377 24.3336 37.7004 23.9323 38.7049 23.9302C39.7093 23.9323 40.672 24.3336 41.3823 25.0462C42.0926 25.7588 42.4925 26.7247 42.4947 27.7325C42.4947 28.741 42.0954 29.7081 41.3847 30.4212C40.674 31.1343 39.71 31.5349 38.7049 31.5349V31.5349ZM38.7049 26.0715C38.2744 26.0715 37.8615 26.2431 37.5572 26.5485C37.2528 26.8539 37.0818 27.2681 37.0818 27.6999C37.0818 28.1318 37.2528 28.546 37.5572 28.8514C37.8615 29.1568 38.2744 29.3284 38.7049 29.3284C39.1353 29.3284 39.5481 29.1568 39.8525 28.8514C40.1569 28.546 40.3279 28.1318 40.3279 27.6999C40.3279 27.2681 40.1569 26.8539 39.8525 26.5485C39.5481 26.2431 39.1353 26.0715 38.7049 26.0715Z" fill="white"/>
<path d="M48.8973 31.5349C47.8921 31.5349 46.9282 31.1343 46.2174 30.4212C45.5067 29.7081 45.1074 28.741 45.1074 27.7325C45.1096 26.7247 45.5095 25.7588 46.2198 25.0462C46.9301 24.3336 47.8928 23.9323 48.8973 23.9302C49.9017 23.9323 50.8644 24.3336 51.5747 25.0462C52.285 25.7588 52.6849 26.7247 52.6871 27.7325C52.6849 28.7403 52.285 29.7062 51.5747 30.4188C50.8644 31.1314 49.9017 31.5327 48.8973 31.5349V31.5349ZM48.8973 26.0715C48.4668 26.0715 48.054 26.2431 47.7496 26.5485C47.4452 26.8539 47.2742 27.2681 47.2742 27.6999C47.2742 28.1318 47.4452 28.546 47.7496 28.8514C48.054 29.1568 48.4668 29.3284 48.8973 29.3284C49.3277 29.3284 49.7405 29.1568 50.0449 28.8514C50.3493 28.546 50.5203 28.1318 50.5203 27.6999C50.5203 27.2681 50.3493 26.8539 50.0449 26.5485C49.7405 26.2431 49.3277 26.0715 48.8973 26.0715Z" fill="white"/>
<path d="M40.7072 10.6016H37.6559C37.3732 10.5995 37.1028 10.4853 36.9036 10.284C36.7045 10.0826 36.5928 9.81051 36.5928 9.52687V3.82742C36.5928 2.81607 36.9926 1.84601 37.7047 1.13011C38.4167 0.414214 39.3827 0.0109455 40.3907 0.00878906H42.8253C43.5126 0.0087857 44.172 0.282168 44.6587 0.769027C45.1455 1.25589 45.42 1.91651 45.4222 2.60611C45.4222 2.94826 45.355 3.28706 45.2245 3.60317C45.094 3.91928 44.9027 4.20651 44.6616 4.44845C44.4204 4.69039 44.1341 4.8823 43.8191 5.01324C43.504 5.14417 43.1663 5.21157 42.8253 5.21157H41.746V9.53501C41.744 9.81308 41.6347 10.0796 41.4409 10.2785C41.2472 10.4774 40.9842 10.5932 40.7072 10.6016V10.6016ZM38.727 8.46026H39.636V4.98359C39.636 4.47397 39.8378 3.98522 40.197 3.62486C40.5561 3.26451 41.0433 3.06206 41.5512 3.06206H42.8496C42.9723 3.06206 43.09 3.01317 43.1767 2.92614C43.2635 2.8391 43.3122 2.72105 43.3122 2.59796C43.3101 2.47629 43.2604 2.36034 43.1739 2.27505C43.0874 2.18977 42.9709 2.14199 42.8496 2.14201H40.415C39.9795 2.15266 39.5655 2.33432 39.262 2.64795C38.9585 2.96158 38.7897 3.38215 38.792 3.81927L38.727 8.46026Z" fill="white"/>
</g>
<defs>
<clipPath id="clip0_353_10752">
<rect width="61.2055" height="41.0279" fill="white"/>
</clipPath>
</defs>
</svg>
