<svg width="49" height="48" viewBox="0 0 49 48" fill="none" xmlns="http://www.w3.org/2000/svg">
<g clip-path="url(#clip0_353_10667)">
<path d="M29.5899 47.7536H18.4027C15.5834 47.7486 12.7952 47.1643 10.2114 46.0369C7.62762 44.9096 5.30341 43.2632 3.38318 41.2002L0.286373 37.8501C0.150981 37.7054 0.0605832 37.5245 0.0262184 37.3295C-0.00814653 37.1344 0.0150046 36.9335 0.0928223 36.7514C0.173409 36.5701 0.304699 36.416 0.470898 36.3075C0.637097 36.1991 0.831116 36.1409 1.0296 36.1401H47.4198C47.6236 36.14 47.8227 36.2011 47.9912 36.3157C48.1596 36.4302 48.2897 36.5928 48.3643 36.7823C48.4407 36.9707 48.4587 37.1776 48.4159 37.3763C48.3731 37.575 48.2715 37.7562 48.1243 37.8965L43.7733 42.0591C39.964 45.7246 34.878 47.7666 29.5899 47.7536V47.7536ZM3.35221 38.175L4.90061 39.8153C6.62588 41.6719 8.71482 43.1541 11.0376 44.1697C13.3604 45.1853 15.8674 45.7125 18.4027 45.7187H29.5899C34.35 45.7278 38.9275 43.8885 42.3565 40.589L44.8804 38.175H3.35221Z" fill="white"/>
<path d="M13.2917 35.4673C9.81554 35.4673 5.89809 33.6181 5.34066 33.3473C5.14649 33.253 4.98721 33.0996 4.88568 32.9092C4.78415 32.7187 4.74557 32.5011 4.77548 32.2874C4.82968 31.9547 6.06065 24.0705 15.173 13.5015C15.3092 13.3459 15.4894 13.2352 15.6898 13.1841C15.8902 13.1329 16.1015 13.1438 16.2956 13.2153C16.4908 13.2866 16.6593 13.4161 16.7784 13.5864C16.8975 13.7566 16.9614 13.9592 16.9614 14.1669V33.858C16.9618 34.037 16.9147 34.213 16.825 34.3679C16.7352 34.5228 16.606 34.6512 16.4505 34.74C15.479 35.2536 14.3901 35.5043 13.2917 35.4673V35.4673ZM6.95099 31.8463C8.95618 32.7052 12.7266 33.9586 14.9253 33.2081V17.0065C9.21942 24.2407 7.43874 29.8966 6.95099 31.8463Z" fill="white"/>
<path d="M18.6432 35.281C18.4418 35.283 18.2447 35.2236 18.078 35.1108C17.9386 35.019 17.8244 34.8937 17.746 34.7463C17.6675 34.599 17.6273 34.4344 17.629 34.2675V7.44273C17.6278 7.26536 17.6729 7.09076 17.7598 6.9361C17.8466 6.78144 17.9723 6.65206 18.1245 6.56069C18.2791 6.47322 18.4538 6.42725 18.6316 6.42725C18.8093 6.42725 18.984 6.47322 19.1387 6.56069C41.5905 19.0717 44.2151 33.5015 44.3157 34.105C44.3426 34.2709 44.3284 34.4408 44.2745 34.6C44.2205 34.7591 44.1283 34.9026 44.006 35.018C43.8846 35.1316 43.737 35.2136 43.5763 35.2568C43.4157 35.3 43.2468 35.303 43.0847 35.2656C42.9299 35.2269 27.5 31.6833 19.038 35.2114C18.9123 35.2604 18.7781 35.2841 18.6432 35.281V35.281ZM29.0252 31.5981C33.3461 31.6465 37.6533 32.0919 41.8925 32.9289C40.615 29.1068 35.8304 18.6616 19.6574 9.19132V32.8129C22.702 31.944 25.8595 31.5345 29.0252 31.5981V31.5981Z" fill="white"/>
<path d="M33.9496 26.7392C33.769 26.737 33.5921 26.6881 33.4361 26.5973C33.2801 26.5064 33.1502 26.3767 33.0593 26.2208C29.6373 20.1549 23.1108 16.2321 23.0489 16.2321C22.8173 16.0923 22.6501 15.867 22.5835 15.6049C22.5168 15.3428 22.5561 15.0651 22.6927 14.8317C22.8312 14.6008 23.0553 14.4339 23.3162 14.3673C23.5772 14.3006 23.854 14.3396 24.0863 14.4758C24.3727 14.646 31.1393 18.6848 34.84 25.2305C34.9063 25.3462 34.9491 25.4739 34.9659 25.6063C34.9827 25.7386 34.9732 25.873 34.938 26.0016C34.9028 26.1303 34.8424 26.2508 34.7605 26.3561C34.6786 26.4614 34.5767 26.5495 34.4606 26.6154C34.3043 26.7012 34.1279 26.7439 33.9496 26.7392V26.7392Z" fill="white"/>
<path d="M18.6431 13.1377C18.5093 13.1377 18.3768 13.1112 18.2532 13.0598C18.1297 13.0084 18.0175 12.933 17.9232 12.8381C17.829 12.7432 17.7544 12.6305 17.7039 12.5066C17.6534 12.3828 17.6279 12.2501 17.6289 12.1164V1.01357C17.6289 0.744751 17.7358 0.486942 17.926 0.296861C18.1162 0.10678 18.3742 0 18.6431 0C18.9121 0 19.1701 0.10678 19.3603 0.296861C19.5505 0.486942 19.6573 0.744751 19.6573 1.01357V12.1164C19.6584 12.2501 19.6329 12.3828 19.5824 12.5066C19.5319 12.6305 19.4573 12.7432 19.363 12.8381C19.2688 12.933 19.1566 13.0084 19.0331 13.0598C18.9095 13.1112 18.777 13.1377 18.6431 13.1377V13.1377Z" fill="white"/>
<path d="M18.6029 5.66365C18.5282 5.67125 18.453 5.67125 18.3784 5.66365L10.8996 4.03111C10.6817 3.97811 10.4875 3.85446 10.3475 3.67947C10.2074 3.50448 10.1293 3.28802 10.1254 3.06396C10.1191 2.83294 10.1927 2.60683 10.3337 2.42364C10.4747 2.24046 10.6745 2.11138 10.8996 2.05813L18.3784 0.0542074C18.6391 -0.0144376 18.9164 0.0226721 19.1499 0.157451C19.3833 0.292229 19.5541 0.51376 19.6248 0.77377C19.6599 0.902815 19.6691 1.03752 19.6518 1.17012C19.6346 1.30272 19.5912 1.43061 19.5243 1.5464C19.4574 1.66219 19.3682 1.7636 19.2619 1.84478C19.1555 1.92597 19.0342 1.98534 18.9048 2.01945L15.4829 2.94018L18.8584 3.71389C18.9885 3.74232 19.1118 3.79608 19.2211 3.87213C19.3305 3.94818 19.4238 4.04502 19.4957 4.1571C19.5676 4.26919 19.6167 4.39432 19.6402 4.52538C19.6636 4.65643 19.6611 4.79083 19.6326 4.92089C19.5699 5.14262 19.4341 5.33666 19.2472 5.47151C19.0603 5.60635 18.8332 5.67406 18.6029 5.66365V5.66365Z" fill="white"/>
<path d="M43.9518 41.1931H4.16557C3.89659 41.1931 3.63863 41.0863 3.44843 40.8962C3.25823 40.7061 3.15137 40.4483 3.15137 40.1795C3.15136 39.91 3.25797 39.6514 3.44795 39.4601C3.63794 39.2687 3.89588 39.1602 4.16557 39.1582H43.9518C44.2229 39.1582 44.4828 39.2658 44.6745 39.4573C44.8661 39.6489 44.9738 39.9086 44.9738 40.1795C44.9717 40.449 44.8632 40.7068 44.6717 40.8967C44.4803 41.0865 44.2215 41.1931 43.9518 41.1931Z" fill="white"/>
</g>
<defs>
<clipPath id="clip0_353_10667">
<rect width="48.4264" height="47.7538" fill="white"/>
</clipPath>
</defs>
</svg>
