<svg width="54" height="47" viewBox="0 0 54 47" fill="none" xmlns="http://www.w3.org/2000/svg">
<g clip-path="url(#clip0_353_10739)">
<path d="M34.8279 31.338H32.4997C30.1315 31.3337 27.8615 30.3862 26.1869 28.7029C24.5123 27.0197 23.5697 24.7379 23.5654 22.3575V19.5799C23.5676 18.5562 23.9731 17.5749 24.6933 16.851C25.4135 16.1271 26.3897 15.7194 27.4082 15.7173H36.6486C37.66 15.7194 38.6292 16.1248 39.3436 16.8444C40.058 17.564 40.4592 18.539 40.4592 19.5556V25.6776C40.4571 27.1782 39.8631 28.6167 38.8075 29.6777C37.7519 30.7388 36.3208 31.3358 34.8279 31.338V31.338ZM27.4082 17.847C26.951 17.847 26.5125 18.0296 26.1891 18.3546C25.8658 18.6796 25.6842 19.1203 25.6842 19.5799V22.3575C25.6884 24.1731 26.4079 25.9131 27.6851 27.197C28.9623 28.4808 30.6934 29.204 32.4997 29.2082H34.8279C35.7588 29.2061 36.651 28.8334 37.3093 28.1718C37.9675 27.5101 38.3383 26.6133 38.3404 25.6776V19.5556C38.3404 19.1039 38.1624 18.6705 37.8454 18.3503C37.5283 18.0301 37.098 17.8491 36.6486 17.847H27.4082Z" fill="white"/>
<path d="M9.71546 31.338H9.67517C7.97286 31.3273 6.34391 30.64 5.14395 29.4263C3.94399 28.2125 3.2705 26.5709 3.27054 24.8597V20.0658C3.26625 18.9182 3.71514 17.8158 4.51867 17.0005C5.3222 16.1852 6.4147 15.7237 7.55639 15.7173H15.7656C16.9059 15.7258 17.9964 16.1883 18.7982 17.0033C19.6 17.8184 20.0477 18.9196 20.0434 20.0658V20.8756C20.0456 23.6349 18.9616 26.283 17.0281 28.2417C15.0945 30.2004 12.4686 31.3106 9.7235 31.3299L9.71546 31.338ZM7.55639 17.847C7.269 17.8491 6.98487 17.9083 6.72027 18.021C6.45566 18.1338 6.21581 18.2979 6.01447 18.5041C5.81313 18.7102 5.65426 18.9543 5.54698 19.2223C5.4397 19.4903 5.3861 19.7769 5.38929 20.0658V24.8192C5.38711 25.9755 5.83983 27.0858 6.64872 27.908C7.45762 28.7302 8.55708 29.1976 9.7074 29.2082C11.8954 29.1954 13.989 28.311 15.5294 26.7491C17.0697 25.1871 17.9311 23.0749 17.9247 20.8756V20.0658C17.9279 19.7776 17.8746 19.4916 17.7678 19.2241C17.661 18.9567 17.5028 18.7129 17.3024 18.5069C17.1019 18.3009 16.863 18.1365 16.5993 18.0233C16.3356 17.9101 16.0523 17.8502 15.7656 17.847H7.55639Z" fill="white"/>
<path d="M7.2353 22.6412C7.09604 22.6423 6.95793 22.6157 6.82896 22.5628C6.69998 22.51 6.5827 22.432 6.48385 22.3334C6.385 22.2348 6.30653 22.1175 6.25299 21.9883C6.19945 21.859 6.17188 21.7204 6.17189 21.5804C6.17083 21.1689 6.25043 20.7612 6.40614 20.3805C6.56184 19.9999 6.7906 19.6538 7.07936 19.3621C7.36812 19.0703 7.71123 18.8386 8.08908 18.6801C8.46694 18.5216 8.87215 18.4395 9.28157 18.4385H11.5454C11.6846 18.4385 11.8225 18.4662 11.9511 18.52C12.0797 18.5738 12.1964 18.6527 12.2945 18.752C12.3926 18.8514 12.4701 18.9693 12.5227 19.0989C12.5753 19.2286 12.6018 19.3674 12.6007 19.5074C12.6007 19.7887 12.4895 20.0586 12.2916 20.2575C12.0937 20.4564 11.8253 20.5682 11.5454 20.5682H9.28157C9.15008 20.5682 9.01989 20.5945 8.89861 20.6455C8.77732 20.6966 8.66736 20.7714 8.57514 20.8656C8.48291 20.9598 8.41025 21.0716 8.36142 21.1943C8.31258 21.317 8.28852 21.4483 8.29066 21.5804C8.29066 21.8618 8.17949 22.1316 7.98157 22.3305C7.78365 22.5295 7.5152 22.6412 7.2353 22.6412V22.6412Z" fill="white"/>
<path d="M36.5036 22.6412C36.2237 22.6412 35.9553 22.5295 35.7573 22.3305C35.5594 22.1316 35.4482 21.8618 35.4482 21.5804C35.4504 21.4489 35.4266 21.3183 35.3782 21.1962C35.3299 21.074 35.258 20.9626 35.1666 20.8685C35.0752 20.7744 34.9662 20.6994 34.8459 20.6479C34.7255 20.5963 34.5962 20.5692 34.4654 20.5682H32.1855C31.9048 20.5682 31.6356 20.4567 31.4364 20.258C31.2372 20.0593 31.1242 19.7895 31.1221 19.5074C31.1221 19.2239 31.2341 18.952 31.4335 18.7515C31.633 18.5511 31.9035 18.4385 32.1855 18.4385H34.5057C35.3311 18.4428 36.1212 18.7759 36.7027 19.3649C37.2841 19.9539 37.6094 20.7507 37.6073 21.5804C37.6074 21.7239 37.5786 21.866 37.5226 21.9979C37.4666 22.1299 37.3845 22.2491 37.2813 22.3483C37.1781 22.4474 37.056 22.5245 36.9223 22.5749C36.7886 22.6252 36.6462 22.6478 36.5036 22.6412V22.6412Z" fill="white"/>
<path d="M34.8514 34.2853H33.6269C31.5622 34.2783 29.5275 33.789 27.6833 32.8558C25.8392 31.9226 24.2361 30.5712 23.0008 28.9083C22.8704 28.7277 22.6997 28.5802 22.5025 28.4775C22.3053 28.3749 22.087 28.32 21.8649 28.3172C21.6416 28.3252 21.4227 28.3823 21.2237 28.4844C21.0247 28.5865 20.8503 28.7312 20.7129 28.9083C19.4751 30.5745 17.8682 31.9279 16.0196 32.8612C14.1709 33.7946 12.1314 34.2821 10.0626 34.2853H8.84615C6.49586 34.2853 4.24184 33.3468 2.57993 31.6763C0.918029 30.0058 -0.015625 27.7401 -0.015625 25.3777V18.535C-0.0134903 17.003 0.593473 15.5344 1.67197 14.4519C2.75046 13.3693 4.21233 12.7613 5.73648 12.7613H37.9611C39.4895 12.7569 40.9572 13.3626 42.0417 14.4451C43.1263 15.5277 43.739 16.9987 43.7454 18.535V25.3777C43.7454 26.5501 43.5152 27.7111 43.0678 28.7939C42.6204 29.8768 41.9648 30.8602 41.1385 31.6878C40.3122 32.5153 39.3315 33.1708 38.2526 33.6165C37.1737 34.0623 36.0179 34.2895 34.8514 34.2853ZM21.8649 26.1874C22.4175 26.189 22.962 26.321 23.4545 26.5727C23.9471 26.8245 24.3739 27.189 24.7007 27.637C25.7308 29.042 27.0759 30.1832 28.6267 30.9683C30.1775 31.7533 31.8905 32.16 33.6269 32.1555H34.8514C36.6405 32.1577 38.3573 31.4459 39.6247 30.1766C40.892 28.9072 41.6063 27.1841 41.6105 25.3858V18.5431C41.6042 17.5716 41.2146 16.6423 40.5274 15.9592C39.8402 15.276 38.9115 14.8948 37.945 14.8991H5.72035C4.75813 14.8991 3.8352 15.2827 3.15405 15.9659C2.4729 16.649 2.08918 17.5759 2.08704 18.5431V25.3858C2.08704 27.1798 2.7955 28.9005 4.05681 30.1698C5.31811 31.4392 7.02909 32.1534 8.81392 32.1555H10.0304C11.7709 32.1639 13.4887 31.759 15.044 30.9738C16.5993 30.1886 17.9482 29.0453 18.9808 27.637C19.319 27.1894 19.7549 26.826 20.2549 26.5746C20.755 26.3233 21.3058 26.1908 21.8649 26.1874V26.1874Z" fill="white"/>
<path d="M15.041 17.855C14.7603 17.855 14.491 17.7435 14.2918 17.5447C14.0926 17.346 13.9797 17.0762 13.9775 16.7941V13.8303C13.9797 13.5483 14.0926 13.2784 14.2918 13.0797C14.491 12.881 14.7603 12.7695 15.041 12.7695C15.3209 12.7695 15.5893 12.8813 15.7872 13.0802C15.9851 13.2792 16.0963 13.549 16.0963 13.8303V16.8265C16.0879 17.1022 15.9731 17.3638 15.776 17.5558C15.579 17.7478 15.3154 17.8551 15.041 17.855V17.855Z" fill="white"/>
<path d="M27.8984 17.8552C27.6177 17.8552 27.3485 17.7437 27.1493 17.545C26.9501 17.3462 26.8371 17.0764 26.835 16.7944V13.8306C26.8392 13.5499 26.9531 13.2821 27.1521 13.0852C27.351 12.8882 27.6191 12.7778 27.8984 12.7778C28.1783 12.7778 28.4467 12.8896 28.6446 13.0885C28.8425 13.2875 28.9537 13.5573 28.9537 13.8386V16.8267C28.9453 17.1024 28.8305 17.364 28.6335 17.556C28.4364 17.748 28.1728 17.8553 27.8984 17.8552V17.8552Z" fill="white"/>
<path d="M23.9111 21.1346H19.738C19.4581 21.1346 19.1896 21.0228 18.9917 20.8239C18.7938 20.625 18.6826 20.3551 18.6826 20.0738C18.6826 19.7917 18.7935 19.521 18.9912 19.3208C19.1889 19.1206 19.4574 19.007 19.738 19.0049H23.9111C24.1917 19.007 24.4601 19.1206 24.6578 19.3208C24.8555 19.521 24.9664 19.7917 24.9664 20.0738C24.9664 20.3551 24.8552 20.625 24.6573 20.8239C24.4594 21.0228 24.191 21.1346 23.9111 21.1346V21.1346Z" fill="white"/>
<path d="M38.8226 44.2621H28.8007C28.5187 44.2621 28.2482 44.1495 28.0488 43.949C27.8493 43.7485 27.7373 43.4767 27.7373 43.1932V39.452C27.7394 39.1699 27.8524 38.9001 28.0516 38.7014C28.2508 38.5027 28.5201 38.3912 28.8007 38.3912H37.9928C40.1779 38.389 42.2729 37.5156 43.818 35.9625C45.3631 34.4094 46.2321 32.3035 46.2342 30.1071V4.88239C46.2342 4.6003 46.3452 4.32963 46.5429 4.1294C46.7405 3.92917 47.0089 3.81561 47.2896 3.81348H51.0115C51.2936 3.81348 51.564 3.9261 51.7635 4.12656C51.9629 4.32702 52.0749 4.5989 52.0749 4.88239V30.9412C52.0707 34.4728 50.6731 37.8585 48.1887 40.3557C45.7043 42.853 42.336 44.2578 38.8226 44.2621V44.2621ZM29.8561 42.1324H38.8226C41.7741 42.1281 44.6035 40.9476 46.6905 38.8498C48.7775 36.752 49.9519 33.9079 49.9562 30.9412V5.94321H48.3449V30.1071C48.3407 32.8677 47.2478 35.514 45.3058 37.466C43.3638 39.4181 40.7311 40.5166 37.9847 40.5209H29.848L29.8561 42.1324Z" fill="white"/>
<path d="M26.2073 46.4164H17.5147C16.5481 46.4121 15.6223 46.0242 14.9388 45.3372C14.2553 44.6502 13.8695 43.7196 13.8652 42.748V39.7923C13.8674 38.8187 14.2536 37.8857 14.9393 37.198C15.625 36.5102 16.5541 36.124 17.5227 36.124C17.7545 36.1287 17.981 36.1939 18.1802 36.3131C18.3793 36.4324 18.5442 36.6016 18.6586 36.8042C19.0046 37.3372 19.4854 37.7681 20.0516 38.0528C20.6179 38.3374 21.2493 38.4654 21.8811 38.4238C22.5098 38.4441 23.1336 38.3067 23.6963 38.024C24.2589 37.7412 24.7425 37.322 25.1036 36.8042C25.2157 36.6156 25.3719 36.4574 25.5586 36.3431C25.7453 36.2288 25.9569 36.1619 26.175 36.1483V36.1483C27.1536 36.1483 28.0921 36.5391 28.7841 37.2346C29.476 37.9301 29.8647 38.8735 29.8647 39.8571V42.7399C29.8647 43.2227 29.7701 43.7008 29.5863 44.1469C29.4025 44.5929 29.1331 44.9982 28.7935 45.3396C28.4539 45.6809 28.0507 45.9518 27.6069 46.1365C27.1632 46.3213 26.6876 46.4164 26.2073 46.4164ZM17.136 38.3185C16.808 38.4027 16.517 38.5938 16.3085 38.862C16.1001 39.1301 15.986 39.4601 15.984 39.8004V42.7399C15.9861 43.1473 16.1481 43.5375 16.4347 43.8255C16.7213 44.1136 17.1094 44.2764 17.5147 44.2785H26.2073C26.614 44.2764 27.0033 44.1125 27.2901 43.8226C27.5769 43.5328 27.7379 43.1406 27.7379 42.7318V39.8247C27.7322 39.4774 27.6156 39.1412 27.4053 38.8656C27.1949 38.59 26.902 38.3897 26.5698 38.2942C26.0159 39.0137 25.3015 39.5923 24.4843 39.9834C23.667 40.3744 22.7698 40.5669 21.865 40.5454C20.9564 40.58 20.0529 40.395 19.23 40.0061C18.4072 39.6173 17.6892 39.0358 17.136 38.3104V38.3185Z" fill="white"/>
<path d="M51.5606 5.94318H46.7269C46.1329 5.94318 45.5633 5.70601 45.1433 5.28383C44.7233 4.86165 44.4873 4.28904 44.4873 3.69199V2.25058C44.4894 1.65418 44.7261 1.08282 45.1456 0.661104C45.5652 0.239385 46.1336 0.00152146 46.7269 -0.000612362H51.5606C51.8581 -0.0059913 52.1536 0.0482591 52.43 0.158981C52.7064 0.269704 52.9581 0.434682 53.1703 0.644262C53.3826 0.853843 53.5512 1.10383 53.6662 1.37963C53.7813 1.65543 53.8405 1.95151 53.8405 2.25058V3.69199C53.8416 3.99137 53.7831 4.28795 53.6685 4.56426C53.5538 4.84056 53.3852 5.09099 53.1728 5.30079C52.9603 5.51059 52.7082 5.67552 52.4313 5.78585C52.1544 5.89618 51.8584 5.94967 51.5606 5.94318V5.94318ZM46.7269 2.12912C46.6949 2.12912 46.6641 2.14191 46.6415 2.16469C46.6188 2.18747 46.6061 2.21836 46.6061 2.25058V3.69199C46.6061 3.72421 46.6188 3.7551 46.6415 3.77788C46.6641 3.80066 46.6949 3.81345 46.7269 3.81345H51.5606C51.5768 3.81466 51.593 3.81236 51.6082 3.80668C51.6234 3.801 51.6372 3.79209 51.6487 3.78056C51.6602 3.76903 51.669 3.75516 51.6747 3.73987C51.6803 3.72459 51.6826 3.70825 51.6814 3.69199V2.25058C51.6814 2.21836 51.6687 2.18747 51.646 2.16469C51.6234 2.14191 51.5927 2.12912 51.5606 2.12912H46.7269Z" fill="white"/>
</g>
<defs>
<clipPath id="clip0_353_10739">
<rect width="53.8071" height="46.4086" fill="white"/>
</clipPath>
</defs>
</svg>
