<svg width="43" height="43" viewBox="0 0 43 43" fill="none" xmlns="http://www.w3.org/2000/svg">
<g clip-path="url(#clip0_351_12468)">
<path d="M0.000976562 42.8434L12.1748 7.86877L12.1076 7.80151L12.1748 7.73425L13.789 3.16065C14.1926 2.08451 14.9997 1.21014 16.0086 0.806591C21.9274 -1.48021 29.6621 0.941108 35.7154 7.06166C41.4324 12.7787 43.9883 20.0426 42.5086 26.4995L42.4413 26.903L39.8182 28.2482L39.0111 26.7012L40.8943 25.7596C42.0377 19.9754 39.6837 13.5185 34.5048 8.33958C28.9223 2.7571 21.9274 0.470297 16.6812 2.48806C16.1431 2.68984 15.7395 3.16065 15.5378 3.76598L14.5961 6.45633C19.8423 4.23679 26.5682 5.98552 31.7471 11.1645C34.7065 14.1238 36.657 17.6886 37.3969 21.2533C38.1367 24.8853 37.3969 28.1137 35.3791 30.1314L34.7738 30.7368L0.000976562 42.8434ZM13.7218 8.94491L2.89311 39.9512L33.7649 29.1898L34.1012 28.8535C35.6482 27.3066 36.2535 24.6162 35.5809 21.5896C34.9083 18.3611 33.0923 15.1327 30.402 12.4424C24.4832 6.52359 17.6228 6.45633 13.8563 8.87765L13.7218 8.94491Z" fill="white"/>
<path d="M19.1036 18.6974C18.0275 18.6974 16.9514 18.2938 16.1443 17.4867C14.53 15.8725 14.53 13.1822 16.1443 11.5007C17.7585 9.88649 20.4488 9.88649 22.1303 11.5007C23.7445 13.1149 23.7445 15.8053 22.1303 17.4867C21.2559 18.2938 20.1798 18.6974 19.1036 18.6974ZM19.1036 12.0388C18.4983 12.0388 17.8257 12.3078 17.3549 12.7786C16.4133 13.7202 16.4133 15.2672 17.3549 16.2088C18.2965 17.1504 19.8435 17.1504 20.7851 16.2088C21.7267 15.2672 21.7267 13.7202 20.7851 12.7786C20.3816 12.3078 19.7762 12.0388 19.1036 12.0388Z" fill="white"/>
<path d="M12.6457 34.3017C11.6368 34.3017 10.6279 33.8981 9.88809 33.1583C8.4084 31.6786 8.4084 29.19 9.88809 27.7103C10.6279 26.9704 11.5696 26.5669 12.6457 26.5669C13.7218 26.5669 14.6635 26.9704 15.4033 27.7103C16.883 29.19 16.883 31.6786 15.4033 33.1583C14.5962 33.8981 13.6546 34.3017 12.6457 34.3017ZM12.6457 28.3829C12.1076 28.3829 11.5696 28.5847 11.166 28.9882C10.3589 29.7953 10.3589 31.1405 11.166 31.9476C11.9731 32.7547 13.3183 32.7547 14.1254 31.9476C14.9325 31.1405 14.9325 29.7953 14.1254 28.9882C13.7218 28.5847 13.1838 28.3829 12.6457 28.3829Z" fill="white"/>
<path d="M13.7219 24.1459C14.5391 24.1459 15.2016 23.4834 15.2016 22.6662C15.2016 21.849 14.5391 21.1865 13.7219 21.1865C12.9047 21.1865 12.2422 21.849 12.2422 22.6662C12.2422 23.4834 12.9047 24.1459 13.7219 24.1459Z" fill="white"/>
<path d="M21.7238 29.3246C22.541 29.3246 23.2035 28.6621 23.2035 27.8449C23.2035 27.0277 22.541 26.3652 21.7238 26.3652C20.9066 26.3652 20.2441 27.0277 20.2441 27.8449C20.2441 28.6621 20.9066 29.3246 21.7238 29.3246Z" fill="white"/>
<path d="M27.2395 18.5629C28.0567 18.5629 28.7192 17.9004 28.7192 17.0832C28.7192 16.266 28.0567 15.6035 27.2395 15.6035C26.4222 15.6035 25.7598 16.266 25.7598 17.0832C25.7598 17.9004 26.4222 18.5629 27.2395 18.5629Z" fill="white"/>
<path d="M28.7868 28.4506C27.7779 28.4506 26.769 28.047 26.0291 27.3072C25.2893 26.5673 24.8857 25.6257 24.8857 24.6168C24.8857 23.6079 25.2893 22.5991 26.0291 21.8592C26.769 21.1194 27.7106 20.7158 28.7868 20.7158C29.8629 20.7158 30.8045 21.1194 31.5444 21.8592C32.2842 22.5991 32.6878 23.5407 32.6878 24.6168C32.6878 25.693 32.2842 26.6346 31.5444 27.3744C30.8045 28.1143 29.7956 28.4506 28.7868 28.4506ZM28.7868 22.5318C28.2487 22.5318 27.7106 22.7336 27.3071 23.1371C26.9035 23.5407 26.7017 24.0788 26.7017 24.6168C26.7017 25.1549 26.9035 25.693 27.3071 26.0965C28.1142 26.9036 29.4593 26.9036 30.2664 26.0965C30.67 25.693 30.8718 25.1549 30.8718 24.6168C30.8718 24.0788 30.67 23.5407 30.2664 23.1371C29.8629 22.7336 29.3248 22.5318 28.7868 22.5318Z" fill="white"/>
<path d="M19.5276 21.2204L18.833 22.8252L21.734 24.0808L22.4286 22.476L19.5276 21.2204Z" fill="white"/>
</g>
<defs>
<clipPath id="clip0_351_12468">
<rect width="42.9784" height="42.8439" fill="white"/>
</clipPath>
</defs>
</svg>
