<svg width="25" height="49" viewBox="0 0 25 49" fill="none" xmlns="http://www.w3.org/2000/svg">
<g clip-path="url(#clip0_351_12629)">
<path d="M19.7088 40.2889H5.11362C2.28875 40.2889 0.00195312 38.0021 0.00195312 35.1772V12.9818C0.00195312 10.1569 2.28875 7.87012 5.11362 7.87012H19.7088C22.5337 7.87012 24.8205 10.1569 24.8205 12.9818V35.1772C24.8205 38.0021 22.5337 40.2889 19.7088 40.2889ZM5.11362 9.68611C3.29764 9.68611 1.75068 11.1658 1.75068 13.049V35.2445C1.75068 37.0604 3.23038 38.6074 5.11362 38.6074H19.7088C21.5248 38.6074 23.0717 37.1277 23.0717 35.2445V13.049C23.0717 11.2331 21.592 9.68611 19.7088 9.68611H5.11362V9.68611Z" fill="white"/>
<path d="M20.2445 35.7149H4.57324V12.4434H20.3118V35.7149H20.2445ZM6.32197 33.9662H18.4958V14.1921H6.32197V33.9662Z" fill="white"/>
<path d="M18.5643 9.75351L17.959 1.74971H6.86127L6.52497 6.32331L4.70898 6.18879L5.1798 0.000976562H19.6404L20.313 9.61899L18.5643 9.75351Z" fill="white"/>
<path d="M19.6411 48.1584H5.1804L4.50781 38.6077L6.25654 38.4731L6.86187 46.4097H17.9596L18.2959 41.7016L20.1119 41.8361L19.6411 48.1584Z" fill="white"/>
<path d="M12.3774 25.3576L8.6782 21.6584C7.60206 20.5822 7.60206 18.7662 8.6782 17.6901C9.68708 16.6812 11.3013 16.614 12.3774 17.4211C13.4536 16.614 15.135 16.6812 16.0767 17.6228C16.6147 18.1609 16.8838 18.8335 16.8838 19.5734C16.8838 20.3132 16.6147 21.053 16.0767 21.5911L12.3774 25.3576ZM10.696 18.6317C10.4269 18.6317 10.1579 18.7662 9.95612 18.968C9.55257 19.3716 9.55257 20.0442 9.95612 20.4477L12.3774 22.869L14.7988 20.4477C15.0005 20.2459 15.135 19.9769 15.135 19.7079C15.135 19.4388 15.0005 19.1698 14.7988 18.968C14.3952 18.5645 13.7226 18.5645 13.3191 18.968L12.3102 19.9769L11.4358 18.9008C11.234 18.699 10.965 18.6317 10.696 18.6317Z" fill="white"/>
<path d="M10.9644 32.6206L9.28291 30.8718H7.53418V29.1231H10.0228L10.8971 29.9975L13.6547 26.769L15.4707 29.1231H17.2867V30.8718H14.5964L13.5875 29.5939L10.9644 32.6206Z" fill="white"/>
</g>
<defs>
<clipPath id="clip0_351_12629">
<rect width="24.8185" height="48.1573" fill="white"/>
</clipPath>
</defs>
</svg>
