<svg width="42" height="41" viewBox="0 0 42 41" fill="none" xmlns="http://www.w3.org/2000/svg">
<g clip-path="url(#clip0_353_10610)">
<path d="M21.9816 32.3503H0.882491C0.720872 32.3513 0.562206 32.3071 0.424356 32.2227C0.286506 32.1383 0.17495 32.0171 0.102286 31.8728C0.0259652 31.7298 -0.00880393 31.5684 0.00189438 31.4067C0.0125927 31.2451 0.0683286 31.0896 0.162816 30.958L7.44023 20.6136H4.86422C4.70225 20.6121 4.54367 20.5669 4.40518 20.4829C4.2667 20.3989 4.15343 20.2791 4.07729 20.1361C4.00404 19.9911 3.97103 19.8292 3.98168 19.6671C3.99232 19.505 4.04624 19.3488 4.13782 19.2146L9.94899 10.962H8.07246C7.90964 10.9605 7.75031 10.9147 7.61164 10.8293C7.47296 10.744 7.3602 10.6224 7.28552 10.4777C7.21205 10.3322 7.18009 10.1691 7.19314 10.0066C7.20619 9.84407 7.26376 9.68826 7.35952 9.55627L14.0854 0.341816C14.1718 0.235065 14.2809 0.148972 14.4049 0.089831C14.5288 0.03069 14.6644 0 14.8017 0C14.939 0 15.0746 0.03069 15.1986 0.089831C15.3225 0.148972 15.4316 0.235065 15.518 0.341816L22.2439 9.55627C22.3397 9.68826 22.3972 9.84407 22.4103 10.0066C22.4233 10.1691 22.3914 10.3322 22.3179 10.4777C22.2427 10.6234 22.1289 10.7457 21.9889 10.8311C21.8489 10.9165 21.6882 10.9617 21.5242 10.962H19.6544L22.2103 14.594C22.3438 14.7861 22.3961 15.0232 22.3558 15.2537C22.3155 15.4841 22.1859 15.6894 21.995 15.8248C21.9005 15.8927 21.7934 15.941 21.6799 15.967C21.5665 15.9929 21.449 15.9959 21.3344 15.9759C21.2198 15.9559 21.1103 15.9131 21.0124 15.8502C20.9144 15.7873 20.8301 15.7055 20.7642 15.6096L17.2264 10.5853C17.1319 10.4537 17.0762 10.2983 17.0655 10.1366C17.0548 9.97495 17.0895 9.81353 17.1658 9.67061C17.2385 9.52625 17.3501 9.40505 17.4879 9.32068C17.6258 9.2363 17.7844 9.19211 17.9461 9.19308H19.7822L14.7916 2.3663L9.80102 9.19308H11.6439C11.8055 9.19211 11.9642 9.2363 12.102 9.32068C12.2399 9.40505 12.3514 9.52625 12.4241 9.67061C12.4989 9.81396 12.5328 9.97512 12.5222 10.1365C12.5115 10.2978 12.4566 10.4531 12.3636 10.5853L6.55241 18.8447H9.13514C9.2959 18.8439 9.45379 18.8874 9.59143 18.9704C9.72907 19.0535 9.84115 19.1729 9.91535 19.3155C9.99075 19.4599 10.025 19.6222 10.0143 19.7847C10.0036 19.9473 9.94846 20.1037 9.85482 20.237L2.57741 30.5814H21.9614C22.1969 30.5814 22.4227 30.6749 22.5892 30.8414C22.7557 31.0079 22.8492 31.2337 22.8492 31.4692C22.8475 31.7 22.756 31.9211 22.594 32.0856C22.4321 32.2501 22.2124 32.345 21.9816 32.3503V32.3503Z" fill="white"/>
<path d="M29.2327 35.0403C26.0533 35.0367 23.0055 33.7708 20.7592 31.5207C18.5129 29.2707 17.2521 26.2207 17.2539 23.0413C17.2575 19.8654 18.5207 16.8206 20.7664 14.5749C23.012 12.3292 26.0568 11.0661 29.2327 11.0625C30.8075 11.0607 32.3673 11.3692 33.823 11.9702C35.2786 12.5713 36.6016 13.4531 37.7165 14.5654C38.8313 15.6778 39.7161 16.9988 40.3204 18.4531C40.9247 19.9074 41.2366 21.4665 41.2384 23.0413C41.2393 24.6178 40.9293 26.1791 40.3262 27.6357C39.7231 29.0923 38.8387 30.4157 37.7236 31.5302C36.6085 32.6447 35.2846 33.5283 33.8276 34.1306C32.3707 34.7329 30.8092 35.042 29.2327 35.0403V35.0403ZM29.2327 12.8449C26.5318 12.8537 23.9441 13.9311 22.0349 15.8415C20.1257 17.752 19.0501 20.3404 19.043 23.0413C19.0466 25.748 20.1234 28.3429 22.0373 30.2569C23.9513 32.1708 26.5461 33.2476 29.2529 33.2512C31.9561 33.2423 34.5458 32.1631 36.4554 30.2497C38.365 28.3364 39.4391 25.7446 39.4426 23.0413C39.4337 20.3381 38.3545 17.7484 36.4411 15.8388C34.5278 13.9292 31.936 12.8551 29.2327 12.8516V12.8449Z" fill="white"/>
<path d="M29.2316 40.0038C28.9973 40.0038 28.7725 39.9111 28.6062 39.7461C28.4398 39.5811 28.3455 39.357 28.3438 39.1227V20.761C28.3437 20.6447 28.3668 20.5296 28.4115 20.4223C28.4562 20.3149 28.5217 20.2175 28.6042 20.1356C28.6867 20.0537 28.7846 19.9889 28.8923 19.945C29 19.9012 29.1153 19.879 29.2316 19.8799C29.4653 19.8799 29.6894 19.9727 29.8546 20.138C30.0198 20.3032 30.1127 20.5273 30.1127 20.761V39.1227C30.1127 39.3563 30.0198 39.5805 29.8546 39.7457C29.6894 39.9109 29.4653 40.0038 29.2316 40.0038V40.0038Z" fill="white"/>
<path d="M29.0704 30.0842C28.8589 30.0858 28.6538 30.0119 28.492 29.8757L25.7209 27.4813C25.6329 27.4059 25.5606 27.3138 25.5082 27.2104C25.4558 27.107 25.4243 26.9943 25.4156 26.8787C25.4069 26.7631 25.421 26.6469 25.4572 26.5368C25.4935 26.4267 25.5511 26.3248 25.6267 26.237C25.7022 26.149 25.7942 26.0767 25.8976 26.0243C26.001 25.9719 26.1138 25.9405 26.2293 25.9317C26.3449 25.923 26.4611 25.9371 26.5712 25.9733C26.6813 26.0096 26.7832 26.0672 26.871 26.1428L29.6488 28.5305C29.8255 28.685 29.9343 28.9028 29.952 29.1368C29.9696 29.3708 29.8945 29.6024 29.743 29.7815C29.6591 29.8772 29.5557 29.9538 29.4396 30.006C29.3236 30.0583 29.1976 30.0849 29.0704 30.0842V30.0842Z" fill="white"/>
<path d="M29.3051 25.6647C29.1774 25.6641 29.0513 25.6362 28.9353 25.5828C28.8193 25.5295 28.716 25.4519 28.6325 25.3553C28.556 25.2679 28.4976 25.1661 28.4609 25.0559C28.4242 24.9457 28.4097 24.8292 28.4185 24.7134C28.4273 24.5975 28.459 24.4846 28.5119 24.3812C28.5648 24.2778 28.6378 24.1859 28.7266 24.111L31.4977 21.7166C31.5855 21.6409 31.6874 21.5833 31.7975 21.5471C31.9076 21.5109 32.0238 21.4967 32.1394 21.5054C32.255 21.5142 32.3677 21.5457 32.4711 21.5981C32.5745 21.6504 32.6666 21.7227 32.742 21.8108C32.896 21.9884 32.9733 22.2198 32.9569 22.4543C32.9405 22.6889 32.8318 22.9073 32.6546 23.0618L29.8768 25.4494C29.7177 25.5866 29.5151 25.6628 29.3051 25.6647V25.6647Z" fill="white"/>
<path d="M14.8118 38.2351C14.5775 38.2333 14.3534 38.139 14.1883 37.9727C14.0233 37.8064 13.9307 37.5816 13.9307 37.3473V31.4689C13.9307 31.2346 14.0233 31.0098 14.1883 30.8435C14.3534 30.6772 14.5775 30.5828 14.8118 30.5811C15.0472 30.5811 15.273 30.6746 15.4395 30.8411C15.606 31.0076 15.6996 31.2334 15.6996 31.4689V37.3473C15.6996 37.5828 15.606 37.8086 15.4395 37.9751C15.273 38.1416 15.0472 38.2351 14.8118 38.2351Z" fill="white"/>
</g>
<defs>
<clipPath id="clip0_353_10610">
<rect width="41.2028" height="40.0056" fill="white"/>
</clipPath>
</defs>
</svg>
