<svg width="41" height="41" viewBox="0 0 41 41" fill="none" xmlns="http://www.w3.org/2000/svg">
<g clip-path="url(#clip0_353_10883)">
<path d="M0.879755 29.0701C0.705423 29.07 0.535042 29.0182 0.390174 28.9212C0.245306 28.8242 0.132467 28.6864 0.0659286 28.5253C-0.0233727 28.3085 -0.0232726 28.0652 0.0661954 27.8484C0.155664 27.6317 0.327228 27.4591 0.543461 27.3685L3.9064 25.9829C4.12321 25.8936 4.36656 25.8937 4.5833 25.9832C4.80004 26.0727 4.97257 26.2442 5.06325 26.4605C5.15034 26.6783 5.14839 26.9216 5.05782 27.138C4.96724 27.3543 4.79527 27.5265 4.57899 27.6173L1.21605 29.0028C1.10939 29.0469 0.995159 29.0697 0.879755 29.0701Z" fill="white"/>
<path d="M36.1776 14.5286C36.0027 14.5271 35.8322 14.4739 35.6874 14.3758C35.5426 14.2777 35.43 14.139 35.3638 13.9771C35.2745 13.7603 35.2746 13.5169 35.364 13.3002C35.4535 13.0835 35.6251 12.9109 35.8413 12.8202L39.2043 11.4347C39.3119 11.3898 39.4274 11.3666 39.5441 11.3667C39.6608 11.3668 39.7763 11.39 39.8839 11.435C39.9915 11.4801 40.0891 11.5461 40.171 11.6291C40.253 11.7122 40.3176 11.8107 40.3611 11.919C40.405 12.0263 40.4273 12.1412 40.4267 12.2571C40.4261 12.373 40.4027 12.4877 40.3577 12.5945C40.3127 12.7014 40.2471 12.7983 40.1646 12.8797C40.082 12.9612 39.9843 13.0255 39.8768 13.0691L36.5139 14.4613C36.4067 14.5036 36.2928 14.5264 36.1776 14.5286V14.5286Z" fill="white"/>
<path d="M12.1797 40.4093C12.0621 40.4099 11.9454 40.387 11.8367 40.3421C11.7296 40.2972 11.6325 40.2317 11.5509 40.1492C11.4692 40.0668 11.4047 39.969 11.3609 39.8615C11.3172 39.754 11.2951 39.6389 11.2959 39.5228C11.2968 39.4068 11.3206 39.2921 11.3659 39.1852L12.7649 35.8223C12.8556 35.606 13.0281 35.4345 13.2448 35.345C13.4616 35.2555 13.7049 35.2554 13.9217 35.3447C14.138 35.4354 14.3095 35.608 14.399 35.8247C14.4885 36.0414 14.4886 36.2848 14.3993 36.5016L12.9935 39.8645C12.9263 40.0251 12.8132 40.1624 12.6685 40.2593C12.5238 40.3562 12.3539 40.4083 12.1797 40.4093V40.4093Z" fill="white"/>
<path d="M26.8485 5.16628C26.7334 5.16348 26.6196 5.14074 26.5122 5.09903C26.296 5.00835 26.1244 4.8358 26.0349 4.61906C25.9455 4.40232 25.9454 4.15899 26.0347 3.94218L27.4337 0.579239C27.4778 0.471594 27.5429 0.373767 27.6251 0.291406C27.7073 0.209045 27.805 0.143766 27.9126 0.0993672C28.0201 0.0549684 28.1354 0.0323218 28.2518 0.03272C28.3681 0.0331182 28.4833 0.0565527 28.5905 0.101687C28.8067 0.192373 28.9783 0.364922 29.0678 0.581661C29.1573 0.798401 29.1573 1.04173 29.068 1.25854L27.6691 4.62148C27.6006 4.78263 27.4864 4.92015 27.3405 5.01699C27.1947 5.11383 27.0236 5.16573 26.8485 5.16628V5.16628Z" fill="white"/>
<path d="M13.6392 5.13926C13.4637 5.14049 13.2919 5.08928 13.1457 4.99222C12.9995 4.89515 12.8856 4.75666 12.8186 4.59447L11.4331 1.23153C11.3438 1.01472 11.3439 0.771368 11.4334 0.554628C11.5229 0.337888 11.6944 0.165361 11.9107 0.0746741C12.1285 -0.012408 12.3718 -0.0104653 12.5882 0.0801134C12.8045 0.170692 12.9767 0.342659 13.0675 0.558938L14.4531 3.92188C14.4981 4.02865 14.5214 4.14329 14.5217 4.25916C14.522 4.37503 14.4993 4.48981 14.4549 4.59683C14.4104 4.70384 14.3452 4.80095 14.2629 4.88253C14.1806 4.9641 14.0829 5.02851 13.9755 5.072C13.8689 5.11623 13.7546 5.13909 13.6392 5.13926V5.13926Z" fill="white"/>
<path d="M28.1802 40.4372C28.006 40.4362 27.836 40.384 27.6913 40.2871C27.5466 40.1903 27.4336 40.053 27.3663 39.8924L25.9741 36.5294C25.887 36.3116 25.8889 36.0683 25.9795 35.8519C26.0701 35.6355 26.2421 35.4634 26.4583 35.3726C26.676 35.2837 26.92 35.2847 27.1369 35.3755C27.3538 35.4663 27.5258 35.6394 27.6152 35.8568L29.0007 39.2198C29.0457 39.3274 29.0688 39.443 29.0687 39.5596C29.0687 39.6763 29.0454 39.7918 29.0004 39.8994C28.9553 40.007 28.8894 40.1046 28.8063 40.1866C28.7232 40.2685 28.6247 40.3331 28.5165 40.3766C28.4098 40.4198 28.2953 40.4404 28.1802 40.4372V40.4372Z" fill="white"/>
<path d="M39.4994 29.144C39.3814 29.1421 39.2648 29.1169 39.1564 29.07L35.7935 27.671C35.5772 27.5804 35.4057 27.4078 35.3162 27.1911C35.2267 26.9743 35.2266 26.731 35.3159 26.5142C35.4066 26.298 35.5792 26.1264 35.7959 26.0369C36.0126 25.9474 36.256 25.9473 36.4728 26.0366L39.8357 27.4424C39.9434 27.4865 40.0412 27.5516 40.1236 27.6338C40.2059 27.716 40.2712 27.8137 40.3156 27.9212C40.36 28.0288 40.3826 28.1441 40.3822 28.2605C40.3818 28.3768 40.3584 28.4919 40.3133 28.5992C40.246 28.7598 40.133 28.8971 39.9883 28.994C39.8436 29.0908 39.6736 29.143 39.4994 29.144V29.144Z" fill="white"/>
<path d="M4.27677 14.4683C4.1591 14.4689 4.0425 14.446 3.93375 14.4011L0.570804 13.0021C0.354572 12.9114 0.183007 12.7389 0.0935392 12.5221C0.00407111 12.3054 0.00397107 12.062 0.0932724 11.8452C0.183959 11.629 0.356507 11.4574 0.573247 11.368C0.789986 11.2785 1.03332 11.2784 1.25013 11.3677L4.61307 12.7667C4.8293 12.8574 5.00086 13.0299 5.09033 13.2467C5.1798 13.4634 5.1799 13.7067 5.0906 13.9235C5.02406 14.0847 4.91122 14.2224 4.76635 14.3194C4.62148 14.4164 4.4511 14.4682 4.27677 14.4683V14.4683Z" fill="white"/>
<path d="M20.2164 33.6433C16.6488 33.6433 13.2273 32.2261 10.7046 29.7034C8.18189 27.1807 6.76465 23.7591 6.76465 20.1915C6.76465 16.6239 8.18189 13.2024 10.7046 10.6797C13.2273 8.15699 16.6488 6.73975 20.2164 6.73975C23.784 6.73975 27.2056 8.15699 29.7283 10.6797C32.251 13.2024 33.6682 16.6239 33.6682 20.1915C33.6682 23.7591 32.251 27.1807 29.7283 29.7034C27.2056 32.2261 23.784 33.6433 20.2164 33.6433ZM20.2164 8.56248C17.1256 8.56426 14.1619 9.79286 11.9764 11.9784C9.79086 14.1639 8.56225 17.1276 8.56047 20.2184C8.55958 21.75 8.86037 23.2667 9.44566 24.6821C10.031 26.0974 10.8893 27.3835 11.9716 28.4672C13.054 29.5508 14.3392 30.4106 15.7538 30.9975C17.1685 31.5844 18.6848 31.8869 20.2164 31.8878C23.3072 31.8861 26.2709 30.6574 28.4565 28.4719C30.642 26.2864 31.8706 23.3227 31.8724 20.2319C31.8733 18.7003 31.5725 17.1836 30.9872 15.7683C30.4019 14.3529 29.5436 13.0668 28.4612 11.9832C27.3789 10.8996 26.0937 10.0397 24.679 9.45282C23.2644 8.8659 21.748 8.56336 20.2164 8.56248V8.56248Z" fill="white"/>
</g>
<defs>
<clipPath id="clip0_353_10883">
<rect width="40.436" height="40.436" fill="white"/>
</clipPath>
</defs>
</svg>
