<svg width="51" height="40" viewBox="0 0 51 40" fill="none" xmlns="http://www.w3.org/2000/svg">
<g clip-path="url(#clip0_351_12547)">
<path d="M50.2433 39.6818H0.000976562V6.65771H50.2433V8.40644H1.74971V37.9331H48.4946V11.1641H50.2433V39.6818Z" fill="white"/>
<path d="M26.7692 8.40589H25.0205V-0.00146484H40.0192V5.11021H38.2705V1.74726H26.7692V8.40589Z" fill="white"/>
<path d="M13.0485 8.40536H5.44824V2.89014H13.0485V8.40536ZM7.26423 6.65663H11.2998V4.63887H7.26423V6.65663Z" fill="white"/>
<path d="M9.28274 18.4952C7.39949 18.4952 5.85254 16.9482 5.85254 15.065C5.85254 13.1817 7.39949 11.6348 9.28274 11.6348C11.166 11.6348 12.7129 13.1817 12.7129 15.065C12.7129 16.9482 11.166 18.4952 9.28274 18.4952ZM9.28274 13.4508C8.34112 13.4508 7.60127 14.1906 7.60127 15.1322C7.60127 16.0738 8.34112 16.8137 9.28274 16.8137C10.2244 16.8137 10.9642 16.0738 10.9642 15.1322C10.9642 14.1906 10.1571 13.4508 9.28274 13.4508Z" fill="white"/>
<path d="M32.4869 36.1165C25.3575 36.1165 19.5732 30.3322 19.5732 23.2028C19.5732 16.0733 25.3575 10.2891 32.4869 10.2891C39.6164 10.2891 45.4006 16.0733 45.4006 23.2028C45.4006 30.3322 39.6164 36.1165 32.4869 36.1165ZM32.4869 12.0378C26.3664 12.0378 21.322 17.0149 21.322 23.2028C21.322 29.3233 26.2991 34.3677 32.4869 34.3677C38.6075 34.3677 43.6519 29.3906 43.6519 23.2028C43.6519 17.0149 38.6747 12.0378 32.4869 12.0378Z" fill="white"/>
<path d="M32.4864 32.1487C27.5765 32.1487 23.541 28.1131 23.541 23.2032C23.541 18.2933 27.5765 14.2578 32.4864 14.2578C37.3963 14.2578 41.4319 18.2933 41.4319 23.2032C41.4319 28.1131 37.4636 32.1487 32.4864 32.1487ZM32.4864 16.0065C28.5182 16.0065 25.2897 19.235 25.2897 23.2032C25.2897 27.1715 28.5182 30.3999 32.4864 30.3999C36.4547 30.3999 39.6831 27.1715 39.6831 23.2032C39.6831 19.235 36.4547 16.0065 32.4864 16.0065Z" fill="white"/>
<path d="M32.4867 27.239C30.2672 27.239 28.4512 25.423 28.4512 23.2035C28.4512 20.984 30.2672 19.168 32.4867 19.168H33.3611V20.9167H32.4867C31.2088 20.9167 30.1999 21.9256 30.1999 23.2035C30.1999 24.4814 31.2088 25.4903 32.4867 25.4903C33.3611 25.4903 34.1682 25.0195 34.5717 24.2124C34.7062 23.8761 34.7735 23.5398 34.7735 23.2035V22.3291H36.5222V23.2035C36.5222 23.8088 36.3877 24.4142 36.1187 24.9522C35.4461 26.3647 34.1009 27.239 32.4867 27.239Z" fill="white"/>
<path d="M36.5895 3.29443H28.4512V5.04316H36.5895V3.29443Z" fill="white"/>
<path d="M11.2321 20.6475H7.33105V22.3962H11.2321V20.6475Z" fill="white"/>
</g>
<defs>
<clipPath id="clip0_351_12547">
<rect width="50.2423" height="39.6827" fill="white"/>
</clipPath>
</defs>
</svg>
