<svg width="62" height="33" viewBox="0 0 62 33" fill="none" xmlns="http://www.w3.org/2000/svg">
<g clip-path="url(#clip0_353_10912)">
<path d="M11.9963 32.3853C6.93171 32.3853 3.41406 28.3497 3.41406 22.5319V19.9895C3.42296 18.4726 4.03361 17.0213 5.11187 15.9544C6.19013 14.8875 7.64781 14.2922 9.16468 14.2994H20.0068C23.5782 14.2994 25.9525 14.972 27.2842 16.2768C27.683 16.6792 27.9955 17.1588 28.2025 17.6861C28.4095 18.2135 28.5067 18.7776 28.4882 19.3438C28.4747 26.3656 19.4082 32.3853 11.9963 32.3853ZM9.16468 16.0683C8.11695 16.0611 7.1092 16.47 6.36267 17.2052C5.61614 17.9404 5.19186 18.9418 5.18297 19.9895V22.5319C5.18297 26.5674 7.28146 30.6029 11.9627 30.6029C18.4801 30.6029 26.7058 25.2962 26.7193 19.3303C26.7369 18.9978 26.6864 18.6651 26.5707 18.3528C26.455 18.0405 26.2767 17.7552 26.0467 17.5144C25.0781 16.5458 23.0537 16.0548 19.9934 16.0548L9.16468 16.0683Z" fill="white"/>
<path d="M12.3797 28.2553C11.6084 28.2547 10.8527 28.0367 10.1996 27.6263C9.5465 27.2159 9.02235 26.6296 8.68724 25.9348L8.38457 25.3228C8.3011 25.1522 8.27499 24.9592 8.31014 24.7725C8.34529 24.5859 8.4398 24.4156 8.5796 24.287C8.66471 24.2068 8.76483 24.1443 8.87419 24.1029C8.98355 24.0615 9.09998 24.0421 9.21685 24.0459C9.33371 24.0496 9.44871 24.0764 9.55519 24.1247C9.66168 24.173 9.75755 24.2419 9.83734 24.3274C9.92369 24.4257 9.98998 24.5399 10.0324 24.6637L10.2745 25.1614C10.5193 25.6644 10.9357 26.0635 11.4487 26.2867C11.9617 26.5099 12.5376 26.5426 13.0725 26.3788L16.6305 25.3093C16.8553 25.2423 17.0974 25.2669 17.3041 25.3778C17.5108 25.4887 17.6651 25.6769 17.7335 25.9012C17.8006 26.126 17.776 26.3681 17.6651 26.5748C17.5542 26.7815 17.366 26.9359 17.1416 27.0043L13.5837 28.0737C13.1936 28.1936 12.7878 28.2548 12.3797 28.2553V28.2553Z" fill="white"/>
<path d="M49.3125 28.2556C48.9045 28.2541 48.4989 28.193 48.1086 28.0741L44.5574 27.0046C44.4458 26.9715 44.3418 26.9167 44.2516 26.8432C44.1613 26.7697 44.0865 26.6791 44.0315 26.5765C43.9764 26.4739 43.9423 26.3615 43.9309 26.2456C43.9196 26.1298 43.9314 26.0129 43.9655 25.9016C44.0324 25.6777 44.1855 25.4896 44.3911 25.3786C44.5967 25.2676 44.8379 25.2429 45.0618 25.3097L48.6198 26.3791C49.1557 26.5433 49.7325 26.5109 50.2467 26.2877C50.7608 26.0646 51.1784 25.6653 51.4245 25.1617L51.6733 24.6438C51.7137 24.5266 51.7778 24.419 51.8617 24.3277C52.0196 24.1557 52.2394 24.0534 52.4727 24.0433C52.706 24.0332 52.9338 24.1162 53.106 24.2739V24.2739C53.2467 24.4019 53.3419 24.5722 53.3771 24.7591C53.4123 24.946 53.3856 25.1393 53.301 25.3097L53.0051 25.9218C52.6706 26.6181 52.1469 27.2062 51.4939 27.6189C50.841 28.0317 50.085 28.2523 49.3125 28.2556V28.2556Z" fill="white"/>
<path d="M34.9447 23.5135C34.778 23.514 34.6145 23.4676 34.473 23.3796C34.3314 23.2916 34.2175 23.1655 34.1443 23.0157C34.1443 22.9619 33.3305 21.5091 30.8553 21.5091C28.3802 21.5091 27.6471 22.9552 27.6135 23.0157C27.5081 23.2244 27.3248 23.3831 27.1031 23.4574C26.8815 23.5317 26.6395 23.5156 26.4297 23.4126C26.2214 23.3123 26.0612 23.1335 25.9843 22.9155C25.9074 22.6974 25.9201 22.4578 26.0194 22.249C26.0665 22.1481 27.2435 19.7402 30.8553 19.7402C34.4671 19.7402 35.6845 22.1346 35.7383 22.2423C35.7887 22.3465 35.8181 22.4596 35.8247 22.5752C35.8314 22.6907 35.8152 22.8065 35.7771 22.9158C35.739 23.0251 35.6797 23.1258 35.6027 23.2122C35.5256 23.2986 35.4323 23.369 35.3281 23.4193C35.2103 23.4827 35.0784 23.5152 34.9447 23.5135V23.5135Z" fill="white"/>
<path d="M49.8168 32.3852C42.3712 32.3852 33.3047 26.3319 33.298 19.3437C33.2801 18.7782 33.377 18.2148 33.5827 17.6877C33.7885 17.1606 34.0989 16.6806 34.4952 16.2767C35.8404 14.9316 38.2079 14.2993 41.7726 14.2993H52.6147C53.3628 14.2984 54.1038 14.4449 54.7953 14.7304C55.4868 15.0159 56.1153 15.4347 56.645 15.9631C57.1746 16.4915 57.595 17.119 57.8821 17.8098C58.1692 18.5007 58.3174 19.2413 58.3183 19.9894V22.5318C58.3183 28.4237 54.9015 32.3852 49.8168 32.3852ZM41.7457 16.0682C38.719 16.0682 36.6878 16.5592 35.726 17.5277C35.495 17.7679 35.316 18.0531 35.2003 18.3656C35.0846 18.678 35.0346 19.011 35.0535 19.3437C35.0535 25.3096 43.2927 30.6163 49.7697 30.6163C54.7737 30.6163 56.5359 26.2647 56.5359 22.5453V19.9894C56.5404 19.4721 56.4416 18.9591 56.2453 18.4804C56.049 18.0017 55.7592 17.5671 55.3927 17.2019C55.0263 16.8367 54.5906 16.5483 54.1113 16.3536C53.6319 16.159 53.1186 16.0619 52.6013 16.0682H41.7457Z" fill="white"/>
<path d="M34.5084 17.8373H27.2512C27.0175 17.8373 26.7934 17.7444 26.6282 17.5792C26.4629 17.414 26.3701 17.1899 26.3701 16.9562C26.3701 16.7219 26.4627 16.4971 26.6278 16.3308C26.7928 16.1645 27.0169 16.0701 27.2512 16.0684H34.5084C34.7439 16.0684 34.9697 16.1619 35.1362 16.3284C35.3027 16.4949 35.3962 16.7207 35.3962 16.9562C35.3945 17.1905 35.3001 17.4146 35.1338 17.5796C34.9675 17.7447 34.7427 17.8373 34.5084 17.8373V17.8373Z" fill="white"/>
<path d="M0.906014 18.6844C0.819212 18.6847 0.732924 18.6711 0.650427 18.6441C0.426074 18.5757 0.237876 18.4213 0.126979 18.2146C0.0160816 18.008 -0.00850667 17.7658 0.058546 17.541L3.66361 5.73712C3.87115 4.4456 4.46369 3.24679 5.36372 2.29756C6.26375 1.34833 7.42936 0.692868 8.70802 0.416945L10.5038 0.0201179C10.732 -0.0280422 10.97 0.0155099 11.1663 0.141362C11.3626 0.267215 11.5015 0.465261 11.5531 0.692706C11.5787 0.805817 11.5817 0.922908 11.5617 1.03716C11.5417 1.15141 11.4991 1.26054 11.4365 1.35819C11.3739 1.45584 11.2925 1.54006 11.1971 1.60594C11.1016 1.67182 10.994 1.71806 10.8805 1.74194L9.0914 2.13877C8.15353 2.34882 7.30027 2.83544 6.64198 3.53571C5.98369 4.23597 5.55066 5.11764 5.3989 6.06669C5.40203 6.10698 5.40203 6.14746 5.3989 6.18775L1.73328 18.0589C1.67659 18.2357 1.5667 18.3907 1.41862 18.5026C1.27055 18.6146 1.09154 18.6781 0.906014 18.6844V18.6844Z" fill="white"/>
<path d="M4.2959 22.1412H0.879136C0.64484 22.1394 0.420773 22.0451 0.255727 21.8788C0.0906813 21.7125 -0.00195985 21.4877 -0.00195312 21.2534V17.8367C-0.00195312 17.603 0.0909013 17.3789 0.256138 17.2136C0.421374 17.0484 0.645456 16.9556 0.879136 16.9556H4.2959C4.5302 16.9556 4.75501 17.0482 4.92132 17.2132C5.08762 17.3783 5.18194 17.6024 5.18372 17.8367C5.18372 17.9532 5.16076 18.0687 5.11615 18.1764C5.07153 18.2841 5.00614 18.382 4.9237 18.4644C4.84126 18.5469 4.74335 18.6123 4.63564 18.6569C4.52792 18.7015 4.41249 18.7245 4.2959 18.7245H1.76696V20.3723H4.2959C4.5302 20.3723 4.75501 20.4649 4.92132 20.63C5.08762 20.795 5.18194 21.0191 5.18372 21.2534C5.18372 21.37 5.16076 21.4854 5.11615 21.5932C5.07153 21.7009 5.00614 21.7987 4.9237 21.8812C4.84126 21.9636 4.74335 22.029 4.63564 22.0736C4.52792 22.1183 4.41249 22.1412 4.2959 22.1412V22.1412Z" fill="white"/>
<path d="M60.9202 18.6841C60.7307 18.6839 60.5462 18.6231 60.3937 18.5106C60.2412 18.398 60.1287 18.2396 60.0727 18.0586L56.4542 6.1941C56.4511 6.15381 56.4511 6.11333 56.4542 6.07303C56.3025 5.12399 55.8694 4.24231 55.2111 3.54205C54.5528 2.84179 53.6996 2.35517 52.7617 2.14512L50.9726 1.74829C50.8591 1.7244 50.7515 1.67817 50.656 1.61229C50.5606 1.5464 50.4792 1.46218 50.4166 1.36454C50.354 1.26689 50.3114 1.15776 50.2914 1.04351C50.2714 0.929255 50.2743 0.812164 50.3 0.699054C50.3515 0.471609 50.4905 0.273562 50.6868 0.14771C50.8831 0.0218575 51.1211 -0.0216945 51.3493 0.0264656L53.1384 0.423293C54.4072 0.713247 55.5617 1.37273 56.4559 2.31844C57.3501 3.26416 57.944 4.45367 58.1626 5.73674L61.7677 17.5474C61.8347 17.7721 61.8101 18.0143 61.6992 18.221C61.5883 18.4277 61.4001 18.582 61.1758 18.6504C61.0927 18.6741 61.0066 18.6854 60.9202 18.6841Z" fill="white"/>
<path d="M60.8544 22.1412H57.4376C57.2022 22.1412 56.9763 22.0477 56.8098 21.8812C56.6433 21.7147 56.5498 21.4889 56.5498 21.2534C56.5516 21.0191 56.6459 20.795 56.8122 20.63C56.9785 20.4649 57.2033 20.3723 57.4376 20.3723H59.9665V18.7245H57.4376C57.2022 18.7245 56.9763 18.6309 56.8098 18.4644C56.6433 18.2979 56.5498 18.0721 56.5498 17.8367C56.5516 17.6024 56.6459 17.3783 56.8122 17.2132C56.9785 17.0482 57.2033 16.9556 57.4376 16.9556H60.8544C61.088 16.9556 61.3122 17.0484 61.4774 17.2136C61.6426 17.3789 61.7355 17.603 61.7355 17.8367V21.2534C61.7355 21.4877 61.6429 21.7125 61.4778 21.8788C61.3128 22.0451 61.0887 22.1394 60.8544 22.1412V22.1412Z" fill="white"/>
</g>
<defs>
<clipPath id="clip0_353_10912">
<rect width="61.8041" height="32.3851" fill="white"/>
</clipPath>
</defs>
</svg>
