<svg width="50" height="50" viewBox="0 0 50 50" fill="none" xmlns="http://www.w3.org/2000/svg">
<g clip-path="url(#clip0_351_12122)">
<path d="M44.0555 31.2066H5.31445V3.83229C5.31445 1.74726 6.99592 -0.00146484 9.14821 -0.00146484H40.289C42.3741 -0.00146484 44.1228 1.68001 44.1228 3.83229V31.2066H44.0555ZM7.06318 29.4579H42.3068V3.83229C42.3068 2.68889 41.3652 1.81452 40.289 1.81452H9.08095C7.93755 1.81452 7.06318 2.75615 7.06318 3.83229V29.4579Z" fill="white"/>
<path d="M40.5581 7.53223H5.31445V9.28096H40.5581V7.53223Z" fill="white"/>
<path d="M44.0555 38.7397H42.3068V31.2067H7.06318V38.7397H5.31445V29.458H44.0555V38.7397Z" fill="white"/>
<path d="M44.0555 44.0542H5.31445V36.9248H40.3563V38.7408H7.06318V42.3055H42.3068V36.9248H44.0555V44.0542Z" fill="white"/>
<path d="M14.865 49.4341H12.5109C10.8294 49.4341 9.41699 48.0889 9.41699 46.4747V42.3047H17.8916V44.0534H11.1657V46.4075C11.1657 47.0801 11.7711 47.6181 12.4436 47.6181H14.7977C15.5375 47.6181 16.0756 47.0801 16.0756 46.4075V45.5331H17.8243V46.4075C17.8916 48.0889 16.5464 49.4341 14.865 49.4341Z" fill="white"/>
<path d="M36.8581 49.4341H34.5041C32.8226 49.4341 31.4102 48.0889 31.4102 46.4747V42.3047H39.8848V44.0534H33.1589V46.4075C33.1589 47.0801 33.7642 47.6181 34.4368 47.6181H36.7909C37.5307 47.6181 38.0688 47.0801 38.0688 46.4075V45.5331H39.8175V46.4075C39.8848 48.0889 38.5396 49.4341 36.8581 49.4341Z" fill="white"/>
<path d="M30.3337 3.76611H19.0342V5.51484H30.3337V3.76611Z" fill="white"/>
<path d="M25.5583 11.231H23.8096V30.3997H25.5583V11.231Z" fill="white"/>
<path d="M14.5276 33.2241H10.4248V34.9728H14.5276V33.2241Z" fill="white"/>
<path d="M38.8762 33.2246H34.7734V34.9733H38.8762V33.2246Z" fill="white"/>
<path d="M1.74873 15.2001H0V6.32195C0 4.90951 1.21066 3.76611 2.62309 3.76611H3.49746V5.51484H2.62309C2.15228 5.51484 1.74873 5.85114 1.74873 6.32195V15.2001V15.2001Z" fill="white"/>
<path d="M49.3695 15.2001H47.6208V6.32195C47.6208 5.9184 47.2172 5.51484 46.7464 5.51484H45.8721V3.76611H46.7464C48.2261 3.76611 49.3695 4.90951 49.3695 6.32195V15.2001V15.2001Z" fill="white"/>
</g>
<defs>
<clipPath id="clip0_351_12122">
<rect width="49.368" height="49.4352" fill="white"/>
</clipPath>
</defs>
</svg>
