<svg width="56" height="54" viewBox="0 0 56 54" fill="none" xmlns="http://www.w3.org/2000/svg">
<g clip-path="url(#clip0_353_10986)">
<path d="M35.4268 30.4889H20.4953C20.2617 30.4889 20.0376 30.3961 19.8723 30.2308C19.7071 30.0656 19.6143 29.8415 19.6143 29.6078V9.23509C19.6143 9.00141 19.7071 8.77731 19.8723 8.61207C20.0376 8.44684 20.2617 8.354 20.4953 8.354H35.4268C35.6605 8.354 35.8846 8.44684 36.0498 8.61207C36.2151 8.77731 36.3079 9.00141 36.3079 9.23509V29.6078C36.3079 29.8415 36.2151 30.0656 36.0498 30.2308C35.8846 30.3961 35.6605 30.4889 35.4268 30.4889V30.4889ZM21.3832 28.72H34.539V10.1229H21.3832V28.72Z" fill="white"/>
<path d="M31.0143 22.6466H25.0686C24.8343 22.6448 24.6102 22.5505 24.4452 22.3842C24.2801 22.2179 24.1875 21.9931 24.1875 21.7588V16.3781C24.1893 15.6526 24.4783 14.9573 24.9912 14.4444C25.5042 13.9314 26.1995 13.6424 26.925 13.6406H29.1445C29.8753 13.6424 30.5757 13.9335 31.0925 14.4503C31.6092 14.967 31.9003 15.6674 31.9021 16.3982V21.7453C31.9039 21.863 31.8822 21.9799 31.8384 22.0892C31.7946 22.1985 31.7295 22.2979 31.6469 22.3818C31.5643 22.4657 31.4658 22.5323 31.3572 22.5777C31.2486 22.6232 31.132 22.6466 31.0143 22.6466V22.6466ZM25.9564 20.8777H30.1332V16.4117C30.1332 16.2818 30.1076 16.1533 30.0579 16.0333C30.0082 15.9134 29.9354 15.8044 29.8436 15.7126C29.7518 15.6207 29.6428 15.5479 29.5228 15.4982C29.4029 15.4486 29.2743 15.423 29.1445 15.423H26.925C26.6686 15.4247 26.4233 15.5273 26.242 15.7086C26.0608 15.8898 25.9582 16.1352 25.9564 16.3915V20.8777Z" fill="white"/>
<path d="M25.3046 40.3558H18.7267C18.6104 40.3567 18.4951 40.3345 18.3874 40.2906C18.2798 40.2468 18.1819 40.182 18.0993 40.1001C18.0168 40.0182 17.9513 39.9208 17.9066 39.8134C17.8619 39.7061 17.8389 39.591 17.8389 39.4747V35.6813C17.8389 35.4458 17.9324 35.22 18.0989 35.0535C18.2654 34.887 18.4912 34.7935 18.7267 34.7935H25.3046C25.4209 34.7935 25.536 34.8165 25.6434 34.8612C25.7507 34.9059 25.8481 34.9714 25.93 35.0539C26.0119 35.1364 26.0767 35.2344 26.1206 35.342C26.1645 35.4497 26.1866 35.565 26.1857 35.6813V39.4747C26.1866 39.5906 26.1644 39.7056 26.1205 39.8129C26.0765 39.9202 26.0116 40.0177 25.9296 40.0997C25.8476 40.1817 25.7501 40.2466 25.6428 40.2905C25.5355 40.3345 25.4206 40.3567 25.3046 40.3558V40.3558ZM19.6078 38.5936H24.4168V36.5758H19.5809L19.6078 38.5936Z" fill="white"/>
<path d="M13.1572 40.3558H6.57923C6.46296 40.3567 6.34765 40.3345 6.23998 40.2906C6.1323 40.2468 6.03441 40.182 5.95188 40.1001C5.86935 40.0182 5.80384 39.9208 5.75914 39.8134C5.71444 39.7061 5.6914 39.591 5.69141 39.4747V35.6813C5.69141 35.4458 5.78497 35.22 5.95147 35.0535C6.11797 34.887 6.34376 34.7935 6.57923 34.7935H13.1572C13.3926 34.7935 13.6184 34.887 13.7849 35.0535C13.9514 35.22 14.045 35.4458 14.045 35.6813V39.4747C14.045 39.591 14.0219 39.7061 13.9772 39.8134C13.9325 39.9208 13.867 40.0182 13.7845 40.1001C13.702 40.182 13.6041 40.2468 13.4964 40.2906C13.3887 40.3345 13.2734 40.3567 13.1572 40.3558V40.3558ZM7.46032 38.5936H12.2761V36.5758H7.47378L7.46032 38.5936Z" fill="white"/>
<path d="M37.4511 40.3558H30.8732C30.7569 40.3567 30.6416 40.3345 30.5339 40.2906C30.4262 40.2468 30.3283 40.182 30.2458 40.1001C30.1633 40.0182 30.0978 39.9208 30.0531 39.8134C30.0084 39.7061 29.9853 39.591 29.9854 39.4747V35.6813C29.9854 35.4458 30.0789 35.22 30.2454 35.0535C30.4119 34.887 30.6377 34.7935 30.8732 34.7935H37.4511C37.6854 34.7952 37.9095 34.8896 38.0745 35.0559C38.2396 35.2222 38.3322 35.447 38.3322 35.6813V39.4747C38.3322 39.7084 38.2393 39.9325 38.0741 40.0977C37.9089 40.2629 37.6848 40.3558 37.4511 40.3558V40.3558ZM31.7543 38.5936H36.5633V36.5758H31.7543V38.5936Z" fill="white"/>
<path d="M49.4696 40.3558H42.8917C42.7755 40.3567 42.6602 40.3345 42.5525 40.2906C42.4448 40.2468 42.3469 40.182 42.2644 40.1001C42.1818 40.0182 42.1163 39.9208 42.0716 39.8134C42.0269 39.7061 42.0039 39.591 42.0039 39.4747V35.6813C42.0039 35.4458 42.0974 35.22 42.2639 35.0535C42.4304 34.887 42.6563 34.7935 42.8917 34.7935H49.4696C49.7039 34.7952 49.928 34.8896 50.0931 35.0559C50.2581 35.2222 50.3507 35.447 50.3507 35.6813V39.4747C50.3507 39.7084 50.2579 39.9325 50.0927 40.0977C49.9274 40.2629 49.7033 40.3558 49.4696 40.3558V40.3558ZM43.7728 38.5936H48.5818V36.5758H43.793L43.7728 38.5936Z" fill="white"/>
<path d="M54.912 53.1348H35.7231C35.6074 53.1357 35.4927 53.1138 35.3854 53.0704C35.2782 53.0269 35.1805 52.9627 35.0981 52.8815C35.0157 52.8003 34.95 52.7037 34.9049 52.5972C34.8598 52.4906 34.8362 52.3762 34.8353 52.2605C34.8158 50.4573 34.0873 48.7343 32.8071 47.4643C31.527 46.1942 29.7983 45.4793 27.9951 45.4741C26.1925 45.4793 24.4645 46.1945 23.1854 47.4647C21.9064 48.7349 21.1792 50.4579 21.1616 52.2605C21.158 52.4936 21.0629 52.716 20.8968 52.8796C20.7307 53.0432 20.5069 53.1349 20.2738 53.1348H0.883042C0.649362 53.1348 0.42524 53.042 0.260003 52.8768C0.0947665 52.7115 0.00195313 52.4874 0.00195313 52.2538V18.7252C0.0019464 18.4909 0.0945465 18.2661 0.259593 18.0998C0.424639 17.9335 0.648746 17.8392 0.883042 17.8374H4.18543C4.40223 17.8374 4.61152 17.9168 4.77382 18.0605C4.93613 18.2043 5.04024 18.4024 5.06652 18.6176C5.11056 19.0575 5.31961 19.4644 5.65155 19.7564C5.98349 20.0484 6.4137 20.2039 6.85563 20.1915C7.29714 20.2023 7.72651 20.0463 8.05811 19.7546C8.38971 19.4629 8.59914 19.0569 8.6447 18.6176C8.67083 18.4036 8.77399 18.2063 8.93489 18.0628C9.09579 17.9192 9.30342 17.8391 9.51905 17.8374H12.5255C12.761 17.8374 12.9868 17.9309 13.1533 18.0974C13.3198 18.2639 13.4134 18.4898 13.4134 18.7252V28.7199H42.3885V18.7252C42.3884 18.4909 42.4811 18.2661 42.6461 18.0998C42.8112 17.9335 43.0352 17.8392 43.2695 17.8374H46.572C46.788 17.8376 46.9964 17.9172 47.1576 18.0611C47.3188 18.2049 47.4216 18.403 47.4463 18.6176C47.4919 19.0569 47.7013 19.4629 48.0329 19.7546C48.3645 20.0463 48.7939 20.2023 49.2354 20.1915C49.6773 20.2039 50.1075 20.0484 50.4395 19.7564C50.7714 19.4644 50.9805 19.0575 51.0245 18.6176C51.0521 18.403 51.1567 18.2057 51.3187 18.0622C51.4807 17.9187 51.6892 17.8389 51.9056 17.8374H54.912C55.1463 17.8392 55.3704 17.9335 55.5355 18.0998C55.7005 18.2661 55.7931 18.4909 55.7931 18.7252V52.2538C55.7931 52.3695 55.7704 52.484 55.7261 52.5909C55.6818 52.6978 55.6169 52.795 55.5351 52.8768C55.4532 52.9586 55.3561 53.0235 55.2492 53.0678C55.1423 53.112 55.0278 53.1348 54.912 53.1348V53.1348ZM36.5773 51.3659H54.0242V19.6063H52.6051C52.3615 20.3014 51.9059 20.9024 51.3026 21.3248C50.6992 21.7471 49.9786 21.9694 49.2421 21.9604C48.5055 21.9704 47.7843 21.7485 47.1808 21.326C46.5772 20.9036 46.1219 20.3019 45.8792 19.6063H44.1641V29.6077C44.1623 29.842 44.068 30.0661 43.9017 30.2311C43.7354 30.3962 43.5106 30.4888 43.2763 30.4888H12.5323C12.2986 30.4888 12.0745 30.396 11.9092 30.2307C11.744 30.0655 11.6512 29.8414 11.6512 29.6077V19.6063H10.2253C9.98262 20.3019 9.52723 20.9036 8.92368 21.326C8.32013 21.7485 7.59902 21.9704 6.86236 21.9604C6.1264 21.9674 5.40662 21.7443 4.80367 21.3222C4.20071 20.9002 3.74472 20.3002 3.49942 19.6063H1.78429V51.3659H19.4801C19.7192 49.2623 20.7227 47.3198 22.2999 45.9075C23.8772 44.4951 25.9183 43.7114 28.0354 43.7051C30.1507 43.7132 32.1893 44.4979 33.764 45.9102C35.3388 47.3225 36.3399 49.264 36.5773 51.3659V51.3659Z" fill="white"/>
<path d="M38.0841 9.99514H17.8391C17.7228 9.99514 17.6077 9.97215 17.5004 9.92745C17.3931 9.88275 17.2956 9.81724 17.2137 9.73471C17.1318 9.65218 17.0671 9.55425 17.0232 9.44657C16.9793 9.33889 16.9571 9.22359 16.958 9.10732V0.888289C16.9571 0.772018 16.9793 0.656736 17.0232 0.54906C17.0671 0.441384 17.1318 0.34345 17.2137 0.260919C17.2956 0.178389 17.3931 0.112881 17.5004 0.0681823C17.6077 0.0234833 17.7228 0.000484894 17.8391 0.000488282H21.2021C21.4189 0.000532158 21.6281 0.0799002 21.7905 0.223624C21.9528 0.367348 22.0569 0.565496 22.0832 0.780693C22.1272 1.22059 22.3362 1.62748 22.6682 1.91948C23.0001 2.21149 23.4303 2.36695 23.8723 2.35455C24.304 2.35946 24.7224 2.20508 25.0475 1.92094C25.3726 1.6368 25.5815 1.24282 25.6344 0.814314C25.6606 0.600262 25.7637 0.403034 25.9246 0.259462C26.0855 0.11589 26.2932 0.0357876 26.5088 0.0341095H29.7776C29.9944 0.0341534 30.2037 0.113521 30.366 0.257245C30.5283 0.400969 30.6324 0.599117 30.6587 0.814314C30.7027 1.25422 30.9117 1.66112 31.2437 1.95313C31.5756 2.24513 32.0058 2.40057 32.4478 2.38817C32.8893 2.39899 33.3186 2.24298 33.6502 1.95128C33.9818 1.65957 34.1913 1.2536 34.2368 0.814314C34.263 0.600262 34.3661 0.403034 34.527 0.259462C34.6879 0.11589 34.8956 0.0357876 35.1112 0.0341095H38.0908C38.3251 0.0358845 38.5492 0.130205 38.7142 0.296511C38.8793 0.462817 38.9719 0.687628 38.9719 0.921931V9.14096C38.9632 9.37055 38.8658 9.58782 38.7002 9.74711C38.5347 9.9064 38.3138 9.99531 38.0841 9.99514V9.99514ZM18.7269 8.21279H37.1962V1.75593H35.804C35.5595 2.45041 35.1038 3.05091 34.5006 3.47312C33.8975 3.89532 33.1772 4.11803 32.441 4.10999C31.7053 4.11603 30.986 3.89253 30.3832 3.4706C29.7805 3.04866 29.3242 2.44929 29.0781 1.75593H27.2083C26.9639 2.45041 26.5081 3.05091 25.9049 3.47312C25.3018 3.89532 24.5816 4.11803 23.8454 4.10999C23.1092 4.11803 22.3889 3.89532 21.7858 3.47312C21.1826 3.05091 20.7269 2.45041 20.4824 1.75593H18.7404L18.7269 8.21279Z" fill="white"/>
<path d="M12.525 26.8232H0.882476C0.64818 26.8214 0.424073 26.7271 0.259027 26.5608C0.0939807 26.3945 0.00138054 26.1696 0.00138727 25.9353C-0.00221597 25.8174 0.0179207 25.6999 0.0605836 25.5899C0.103246 25.4799 0.167571 25.3795 0.249749 25.2949C0.331927 25.2102 0.430266 25.1428 0.538957 25.0969C0.647648 25.0509 0.764471 25.0273 0.882476 25.0273H12.525C12.7593 25.0273 12.9841 25.12 13.1504 25.285C13.3167 25.45 13.411 25.6741 13.4128 25.9084C13.4164 26.0273 13.3961 26.1456 13.3531 26.2564C13.3101 26.3673 13.2453 26.4684 13.1625 26.5537C13.0797 26.639 12.9805 26.7068 12.871 26.7531C12.7615 26.7994 12.6439 26.8232 12.525 26.8232Z" fill="white"/>
<path d="M54.6428 26.8231H43.3702C43.1348 26.8231 42.909 26.7296 42.7425 26.5631C42.576 26.3966 42.4824 26.1708 42.4824 25.9353C42.4842 25.701 42.5785 25.4769 42.7448 25.3118C42.9111 25.1468 43.1359 25.0542 43.3702 25.0542H54.6428C54.8765 25.0542 55.1006 25.147 55.2658 25.3122C55.4311 25.4775 55.5239 25.7016 55.5239 25.9353C55.5248 26.0516 55.5027 26.1669 55.4588 26.2745C55.4149 26.3822 55.3502 26.4801 55.2682 26.5627C55.1863 26.6452 55.0889 26.7107 54.9816 26.7554C54.8742 26.8001 54.7591 26.8231 54.6428 26.8231V26.8231Z" fill="white"/>
</g>
<defs>
<clipPath id="clip0_353_10986">
<rect width="55.7912" height="53.1345" fill="white"/>
</clipPath>
</defs>
</svg>
