<svg width="38" height="45" viewBox="0 0 38 45" fill="none" xmlns="http://www.w3.org/2000/svg">
<g clip-path="url(#clip0_353_10905)">
<path d="M21.0861 19.5649C20.9105 19.5642 20.7393 19.5103 20.595 19.4102C20.4731 19.3307 20.373 19.222 20.3037 19.094C20.2344 18.966 20.1981 18.8226 20.1982 18.6771V13.182C20.1982 13.0654 20.2212 12.95 20.2658 12.8423C20.3104 12.7346 20.3758 12.6367 20.4583 12.5542C20.5407 12.4718 20.6386 12.4064 20.7463 12.3618C20.854 12.3172 20.9695 12.2942 21.0861 12.2942C21.2023 12.2942 21.3174 12.3172 21.4248 12.3619C21.5321 12.4066 21.6296 12.4721 21.7115 12.5546C21.7934 12.6372 21.8581 12.7351 21.902 12.8428C21.9459 12.9505 21.968 13.0658 21.9672 13.182V17.4193C26.3181 15.953 30.9451 15.4931 35.4996 16.0742C34.484 14.3591 32.0694 11.7023 26.8502 11.5409C26.7339 11.5383 26.6192 11.5127 26.5129 11.4656C26.4065 11.4184 26.3106 11.3507 26.2305 11.2663C26.1505 11.1819 26.0879 11.0824 26.0465 10.9737C26.0051 10.865 25.9856 10.7492 25.9892 10.6329C25.9927 10.5172 26.019 10.4033 26.0665 10.2977C26.114 10.1921 26.1819 10.097 26.2662 10.0177C26.3505 9.93833 26.4497 9.87639 26.5579 9.83539C26.6662 9.7944 26.7815 9.77516 26.8972 9.77874C35.8225 10.0411 37.8402 16.962 37.8604 17.036C37.9001 17.1838 37.9011 17.3394 37.8634 17.4878C37.8257 17.6361 37.7506 17.7724 37.6452 17.8834C37.5386 17.9941 37.405 18.0753 37.2577 18.1189C37.1103 18.1625 36.9541 18.1671 36.8044 18.1323C29.2244 16.3297 21.4963 19.4438 21.4224 19.4775C21.3164 19.5266 21.2025 19.5563 21.0861 19.5649Z" fill="white"/>
<path d="M10.8693 16.5986C10.6895 16.5981 10.514 16.5443 10.3648 16.4439C10.2471 16.3627 10.1508 16.2542 10.0841 16.1277C10.0173 16.0013 9.98212 15.8605 9.98145 15.7175V6.00536C9.98269 5.85423 10.0222 5.70585 10.0963 5.57412C10.1704 5.44239 10.2767 5.33157 10.4052 5.25203C17.1311 1.11561 24.1596 1.80841 27.0114 4.86869C28.6525 6.63087 27.5898 12.4622 27.2266 14.2109C27.2007 14.3612 27.1363 14.5021 27.0396 14.62C26.943 14.7379 26.8174 14.8287 26.6751 14.8835C26.5376 14.9355 26.3892 14.9524 26.2436 14.9324C26.0979 14.9124 25.9595 14.8563 25.8411 14.7692C25.7537 14.7086 22.1015 12.4286 11.1786 16.5717C11.0782 16.6004 10.9732 16.6096 10.8693 16.5986V16.5986ZM11.7504 6.5098V14.4463C19.6936 11.6349 23.8569 12.1393 25.7066 12.7514C26.1976 9.85255 26.3253 6.69812 25.7066 6.07934C23.4736 3.65129 17.5279 3.16704 11.7504 6.5098V6.5098Z" fill="white"/>
<path d="M21.0863 19.5649C20.9588 19.567 20.8324 19.5409 20.7162 19.4886C20.5999 19.4363 20.4967 19.359 20.4137 19.2623C20.3359 19.1761 20.2762 19.0754 20.2378 18.9659C20.1994 18.8564 20.1831 18.7404 20.19 18.6246C20.1969 18.5088 20.2268 18.3955 20.2779 18.2914C20.329 18.1872 20.4003 18.0943 20.4876 18.018L25.7608 13.3099C25.9375 13.155 26.1684 13.0766 26.4029 13.0917C26.6374 13.1068 26.8564 13.2143 27.0118 13.3906C27.0886 13.4771 27.1477 13.578 27.1856 13.6873C27.2235 13.7967 27.2394 13.9125 27.2326 14.0281C27.2257 14.1436 27.1961 14.2567 27.1455 14.3608C27.095 14.4649 27.0244 14.558 26.9378 14.6349L21.6579 19.343C21.5001 19.483 21.2973 19.5618 21.0863 19.5649V19.5649Z" fill="white"/>
<path d="M7.67408 39.3523C7.43978 39.3506 7.21567 39.2562 7.05063 39.0899C6.88558 38.9236 6.79298 38.6988 6.79299 38.4645V2.47434C6.79172 2.14117 6.85849 1.81122 6.98917 1.50475C7.11986 1.19827 7.31172 0.92171 7.55301 0.691969C7.79545 0.466257 8.08006 0.290633 8.39055 0.175212C8.70103 0.0597909 9.03127 0.00684514 9.36228 0.0193806C10.0093 0.04559 10.6207 0.322985 11.0665 0.792668C11.5123 1.26235 11.7575 1.88732 11.75 2.53485V38.3973C11.75 38.6316 11.6574 38.8564 11.4923 39.0227C11.3273 39.189 11.1032 39.2833 10.8689 39.2851C10.7523 39.2851 10.6368 39.2621 10.5291 39.2175C10.4214 39.1729 10.3235 39.1075 10.2411 39.0251C10.1586 38.9426 10.0932 38.8447 10.0486 38.737C10.004 38.6293 9.98105 38.5139 9.98105 38.3973V2.5147C9.98511 2.328 9.91778 2.14678 9.79279 2.00804C9.66779 1.8693 9.49457 1.78347 9.30846 1.76809C9.21214 1.76103 9.1154 1.77483 9.02488 1.80849C8.93435 1.84215 8.85214 1.8949 8.78382 1.96317C8.71367 2.02817 8.65821 2.10738 8.62109 2.19552C8.58398 2.28367 8.5661 2.37874 8.56863 2.47434V38.4645C8.56863 38.5817 8.54544 38.6977 8.5004 38.8059C8.45536 38.914 8.38934 39.0122 8.30619 39.0947C8.22303 39.1772 8.12436 39.2425 8.01587 39.2867C7.90738 39.3309 7.79123 39.3532 7.67408 39.3523V39.3523Z" fill="white"/>
<path d="M17.9985 44.1476H0.881089C0.64857 44.1476 0.425475 44.0557 0.260431 43.8919C0.0953863 43.7282 0.00177495 43.5058 0 43.2733C0 40.5156 2.43477 37.5495 9.41624 37.5024H9.58438C16.4313 37.5024 18.8863 40.5963 18.9065 43.2598C18.9063 43.497 18.812 43.7244 18.6442 43.892C18.5592 43.9758 18.4583 44.0417 18.3474 44.0856C18.2364 44.1295 18.1177 44.1506 17.9985 44.1476V44.1476ZM1.90344 42.3787H16.9694C16.2968 40.4618 13.5527 39.2714 9.57096 39.2714H9.42297C5.34708 39.2983 2.54912 40.4955 1.90344 42.3787V42.3787Z" fill="white"/>
</g>
<defs>
<clipPath id="clip0_353_10905">
<rect width="37.8936" height="44.1554" fill="white"/>
</clipPath>
</defs>
</svg>
