<svg width="23" height="45" viewBox="0 0 23 45" fill="none" xmlns="http://www.w3.org/2000/svg">
<g clip-path="url(#clip0_353_10894)">
<path d="M5.58142 44.1216C5.38555 44.1184 5.19273 44.0726 5.01645 43.9871C4.73735 43.8524 4.51818 43.619 4.40138 43.3319C4.28457 43.0449 4.27845 42.7247 4.38422 42.4334L10.6998 24.4551H0.880037C0.735513 24.4537 0.593462 24.4174 0.465868 24.3496C0.338275 24.2817 0.228885 24.1841 0.146919 24.065C0.0670083 23.9456 0.0172985 23.8085 0.00206826 23.6655C-0.0131619 23.5226 0.00653967 23.3781 0.0594788 23.2445L9.05871 0.544621C9.12358 0.379908 9.23655 0.238556 9.38292 0.138981C9.52928 0.0394051 9.70225 -0.0137779 9.87927 -0.0136283H17.3854C17.5304 -0.0150818 17.6735 0.0198655 17.8016 0.0880153C17.9297 0.156165 18.0386 0.255343 18.1185 0.376474C18.2012 0.494728 18.2526 0.632006 18.2679 0.775495C18.2832 0.918984 18.2618 1.06401 18.2059 1.19703L11.5473 17.7091H21.9993C22.1579 17.7103 22.3133 17.754 22.4494 17.8356C22.5854 17.9172 22.6971 18.0338 22.7728 18.1732C22.8492 18.3139 22.8858 18.4728 22.8787 18.6328C22.8716 18.7927 22.821 18.9478 22.7324 19.0812L6.63066 43.5365C6.51892 43.7142 6.36424 43.861 6.18088 43.9632C5.99752 44.0655 5.79137 44.12 5.58142 44.1216V44.1216ZM11.9441 22.6862C12.0851 22.6848 12.2243 22.7177 12.3497 22.7822C12.4751 22.8466 12.5829 22.9407 12.6638 23.0562C12.7459 23.1718 12.7992 23.3054 12.8191 23.4458C12.8389 23.5862 12.8249 23.7294 12.7781 23.8633L7.39742 39.1377L20.338 19.4914H10.2156C10.0707 19.4917 9.92804 19.4562 9.80017 19.3882C9.67229 19.3201 9.56317 19.2216 9.48245 19.1013C9.40254 18.9819 9.35283 18.8448 9.3376 18.7018C9.32237 18.5589 9.34207 18.4144 9.39501 18.2808L16.0604 1.76874H10.4644L2.16468 22.6997H11.9239L11.9441 22.6862Z" fill="white"/>
</g>
<defs>
<clipPath id="clip0_353_10894">
<rect width="22.8815" height="44.1218" fill="white"/>
</clipPath>
</defs>
</svg>
