<svg width="62" height="45" viewBox="0 0 62 45" fill="none" xmlns="http://www.w3.org/2000/svg">
<g clip-path="url(#clip0_353_10963)">
<path d="M60.1912 44.8554H0.882401C0.718435 44.8552 0.557706 44.8099 0.417738 44.7245C0.277771 44.6391 0.163954 44.5168 0.0887513 44.3711C0.0154731 44.2252 -0.0157734 44.0617 -0.00152098 43.899C0.0127314 43.7362 0.0719182 43.5807 0.169459 43.4497L31.7139 0.363692C31.8012 0.250644 31.9133 0.15912 32.0416 0.0961589C32.1698 0.0331979 32.3108 0.0004696 32.4537 0.000488289C32.5975 0.00390796 32.7382 0.0424609 32.8637 0.112805C32.9891 0.18315 33.0955 0.283151 33.1734 0.404045L60.9311 43.49C61.0122 43.6264 61.055 43.782 61.055 43.9407C61.055 44.0993 61.0122 44.255 60.9311 44.3913C60.8593 44.5267 60.7531 44.6409 60.6233 44.7223C60.4934 44.8038 60.3444 44.8497 60.1912 44.8554ZM2.63111 43.0865H58.5703L32.3931 2.44197L2.63111 43.0865Z" fill="white"/>
<path d="M40.6582 44.5597C40.4529 44.5575 40.2547 44.4848 40.0967 44.3538C39.9387 44.2228 39.8306 44.0414 39.7905 43.8401L31.7194 1.94455C31.7159 1.88856 31.7159 1.8324 31.7194 1.77641C31.7204 1.57083 31.7927 1.37195 31.9239 1.21371C32.0552 1.05548 32.2372 0.947716 32.4391 0.908782C32.6701 0.865454 32.9088 0.915445 33.1029 1.04782C33.2971 1.1802 33.4309 1.38416 33.4749 1.61499L41.546 43.5105C41.5495 43.5665 41.5495 43.6227 41.546 43.6787C41.545 43.8842 41.4727 44.0831 41.3415 44.2413C41.2102 44.3996 41.0282 44.5074 40.8263 44.5463L40.6582 44.5597Z" fill="white"/>
<path d="M38.0295 11.327H35.2316C35.115 11.327 34.9995 11.3041 34.8918 11.2594C34.7841 11.2148 34.6862 11.1494 34.6038 11.067C34.5213 10.9846 34.4559 10.8867 34.4113 10.7789C34.3667 10.6712 34.3437 10.5558 34.3438 10.4392C34.3455 10.2049 34.4398 9.98079 34.6062 9.81574C34.7725 9.6507 34.9973 9.5581 35.2316 9.55811H38.0295C38.2632 9.55811 38.4873 9.65092 38.6526 9.81616C38.8178 9.98139 38.9106 10.2055 38.9106 10.4392C38.9106 10.6735 38.818 10.8983 38.653 11.0646C38.4879 11.2309 38.2638 11.3252 38.0295 11.327V11.327Z" fill="white"/>
<path d="M41.6155 16.8958H35.9455C35.7112 16.894 35.4871 16.7997 35.3221 16.6334C35.157 16.4671 35.0644 16.2423 35.0645 16.008C35.0645 15.7744 35.1573 15.5502 35.3225 15.385C35.4877 15.2198 35.7119 15.127 35.9455 15.127H41.6155C41.8491 15.127 42.0733 15.2198 42.2385 15.385C42.4037 15.5502 42.4965 15.7744 42.4965 16.008C42.4966 16.2423 42.404 16.4671 42.2389 16.6334C42.0739 16.7997 41.8498 16.894 41.6155 16.8958Z" fill="white"/>
<path d="M45.2732 22.3373H37.6057C37.3714 22.3355 37.1473 22.2412 36.9823 22.0749C36.8172 21.9086 36.7246 21.6838 36.7246 21.4495C36.7246 21.2158 36.8175 20.9917 36.9827 20.8264C37.1479 20.6612 37.372 20.5684 37.6057 20.5684H45.2732C45.3895 20.5675 45.5048 20.5897 45.6125 20.6335C45.7201 20.6774 45.8181 20.7421 45.9006 20.8241C45.9831 20.906 46.0486 21.0034 46.0933 21.1108C46.138 21.2181 46.161 21.3332 46.161 21.4495C46.161 21.5661 46.1381 21.6815 46.0935 21.7892C46.0489 21.8969 45.9835 21.9948 45.901 22.0773C45.8186 22.1597 45.7207 22.2251 45.613 22.2697C45.5052 22.3143 45.3898 22.3373 45.2732 22.3373V22.3373Z" fill="white"/>
<path d="M48.8588 27.7781H37.7745C37.539 27.7781 37.3132 27.6845 37.1467 27.518C36.9802 27.3515 36.8867 27.1257 36.8867 26.8903C36.8867 26.6548 36.9802 26.429 37.1467 26.2625C37.3132 26.096 37.539 26.0024 37.7745 26.0024H48.8588C49.0931 26.0042 49.3171 26.0985 49.4822 26.2648C49.6472 26.4311 49.7399 26.656 49.7399 26.8903C49.7399 27.1246 49.6472 27.3494 49.4822 27.5157C49.3171 27.682 49.0931 27.7763 48.8588 27.7781V27.7781Z" fill="white"/>
<path d="M52.254 33.3407H39.4748C39.2412 33.3407 39.017 33.2479 38.8518 33.0826C38.6866 32.9174 38.5938 32.6933 38.5938 32.4596C38.5937 32.2253 38.6863 32.0005 38.8514 31.8342C39.0164 31.6679 39.2405 31.5736 39.4748 31.5718H52.254C52.4895 31.5718 52.7153 31.6653 52.8818 31.8318C53.0483 31.9983 53.1418 32.2241 53.1418 32.4596C53.1401 32.6939 53.0457 32.918 52.8794 33.083C52.7131 33.2481 52.4883 33.3407 52.254 33.3407V33.3407Z" fill="white"/>
<path d="M55.8253 38.7821H39.9523C39.718 38.7821 39.4932 38.6895 39.3269 38.5245C39.1605 38.3594 39.0662 38.1353 39.0645 37.901C39.0645 37.6655 39.158 37.4397 39.3245 37.2732C39.491 37.1067 39.7168 37.0132 39.9523 37.0132H55.8253C55.9442 37.014 56.0618 37.0387 56.171 37.0858C56.2801 37.1329 56.3788 37.2015 56.4609 37.2874C56.5431 37.3734 56.6072 37.4749 56.6494 37.5861C56.6915 37.6973 56.7109 37.8158 56.7064 37.9346C56.6977 38.1624 56.6011 38.378 56.4368 38.536C56.2725 38.6941 56.0533 38.7823 55.8253 38.7821V38.7821Z" fill="white"/>
<path d="M10.2044 12.5099C8.76894 12.5081 7.39283 11.9371 6.37783 10.9221C5.36283 9.90711 4.79182 8.531 4.79004 7.09557C4.80068 5.66598 5.37561 4.29845 6.38965 3.29071C7.4037 2.28297 8.77474 1.71658 10.2044 1.71484C11.6282 1.7254 12.9906 2.29569 13.9974 3.30249C15.0042 4.30929 15.5745 5.67178 15.5851 7.09557C15.5833 8.5252 15.017 9.89624 14.0092 10.9103C13.0015 11.9243 11.634 12.4993 10.2044 12.5099V12.5099ZM10.2044 3.45011C9.23754 3.45011 8.31031 3.83421 7.62666 4.51786C6.94301 5.20151 6.55895 6.12874 6.55895 7.09557C6.55895 8.0624 6.94301 8.98963 7.62666 9.67328C8.31031 10.3569 9.23754 10.741 10.2044 10.741C11.17 10.7392 12.0955 10.3544 12.7777 9.6709C13.4599 8.98744 13.8431 8.06123 13.8431 7.09557C13.8431 6.12991 13.4599 5.20366 12.7777 4.5202C12.0955 3.83675 11.17 3.45189 10.2044 3.45011V3.45011Z" fill="white"/>
</g>
<defs>
<clipPath id="clip0_353_10963">
<rect width="61.071" height="44.8549" fill="white"/>
</clipPath>
</defs>
</svg>
