<svg width="43" height="52" viewBox="0 0 43 52" fill="none" xmlns="http://www.w3.org/2000/svg">
<g clip-path="url(#clip0_351_11849)">
<path d="M21.3889 51.1159H21.2543C15.4701 51.0486 10.0894 48.8291 6.05385 44.659C2.08558 40.6235 -0.0667054 35.31 0.000553454 29.6603C0.000553454 24.4814 1.8838 19.5042 5.314 15.6032C9.41679 11.0296 15.201 8.33925 21.3889 8.40651H22.2632V10.1552H21.3889H21.3216C15.7391 10.1552 10.4257 12.5766 6.65918 16.7466C3.49801 20.3113 1.81654 24.8849 1.74928 29.593C1.74928 34.772 3.69979 39.6146 7.33177 43.3138C11.031 47.0803 15.9409 49.1654 21.2543 49.1654L21.3889 50.0397V49.1654C21.7252 49.1654 21.9942 49.1654 22.3305 49.1654C22.5323 49.1654 22.8013 49.1654 23.0031 49.0981C23.1376 49.0981 23.2048 49.0981 23.3394 49.0981C23.5411 49.0981 23.6757 49.0981 23.8102 49.0308C24.9536 48.8963 26.097 48.6273 27.1731 48.291C27.3749 48.2237 27.6439 48.1565 27.8457 48.0892C28.5183 47.8202 29.1909 47.5511 29.7962 47.2821C29.9307 47.2149 29.998 47.2149 30.0652 47.1476L30.1998 47.0803C32.0158 46.1387 33.6972 44.9281 35.1097 43.4484C38.8089 39.7491 40.8267 34.9065 40.8267 29.7276C40.8267 26.0956 39.8178 22.5309 37.9345 19.437L37.4637 18.6971L38.9434 17.7555L39.4142 18.4953C41.4992 21.8583 42.5754 25.7593 42.5754 29.7276C42.5754 35.3773 40.3558 40.6907 36.3203 44.7263C34.7061 46.3405 32.8901 47.6184 30.9396 48.6273V48.8291C30.8051 48.8963 30.7378 48.9636 30.6033 48.9636C29.9307 49.2999 29.1909 49.5689 28.451 49.8379C28.182 49.9052 27.913 50.0397 27.7112 50.107C26.5005 50.5105 25.2899 50.7796 24.012 50.9141C23.8774 50.9141 23.6757 50.9813 23.4739 50.9813C23.4066 50.9813 23.2721 50.9813 23.1376 50.9813C22.8686 50.9813 22.6668 51.0486 22.3977 51.0486C22.0614 51.1159 21.7252 51.1159 21.3889 51.1159Z" fill="white"/>
<path d="M14.9326 46.7443L14.4618 46.0044C13.6547 44.7938 12.9148 43.5158 12.2422 42.0362C10.4935 38.2024 9.61914 33.9651 9.61914 29.7278C9.61914 25.9613 10.4262 22.1275 11.8387 18.6301C14.26 12.7113 18.2955 8.40674 21.3894 8.40674H22.2638V10.1555H21.3894C19.3717 10.1555 15.7397 13.6529 13.4529 19.2354C12.1077 22.5311 11.3679 26.1631 11.3679 29.6605C11.3679 34.7049 12.713 38.7405 13.8564 41.229C14.4618 42.5742 15.1344 43.8521 15.9415 44.9283L16.4123 45.6681L14.9326 46.7443Z" fill="white"/>
<path d="M31.276 30.6021V29.7277C31.276 28.9878 31.2087 28.1807 31.1415 27.3736L31.0742 26.4993L32.8229 26.3647L32.8902 27.2391C32.9575 28.0462 33.0247 28.9206 33.0247 29.7277V30.6021H31.276Z" fill="white"/>
<path d="M21.2542 51.1159H20.3799V49.3672H21.2542C22.7339 49.3672 25.2225 47.6857 27.5093 43.852C28.9218 41.4979 31.2758 36.588 31.2758 29.8622V28.9878H33.0245V29.8622C33.0245 35.1083 31.5448 40.4218 28.989 44.7264C26.7022 48.6274 23.6756 51.1159 21.2542 51.1159Z" fill="white"/>
<path d="M21.4573 21.1185H21.39C18.2961 21.1185 15.2695 20.715 12.3773 19.8406C12.1756 19.7734 12.041 19.7734 11.8393 19.7061C9.55247 19.0335 7.46745 18.1592 5.5842 17.0158L4.64258 16.4777L5.38243 15.6706C9.48521 11.097 15.2695 8.40663 21.39 8.47389H22.2644V10.2226H21.39H21.3228C16.0766 10.2226 11.0994 12.3076 7.40019 16.0069C8.87988 16.814 10.5614 17.4866 12.3101 17.9574C12.5119 18.0246 12.6464 18.0246 12.7809 18.0919C15.5385 18.899 18.4306 19.3026 21.3228 19.3026C23.6768 19.3026 25.9636 19.0335 28.1832 18.5627L29.0575 18.3609L29.4611 20.1097L28.5867 20.3114C26.2999 20.8495 23.8786 21.1185 21.4573 21.1185Z" fill="white"/>
<path d="M21.3211 51.1159C21.3211 51.1159 21.2538 51.1159 21.3211 51.1159C15.5368 51.1159 10.0889 48.8291 6.12058 44.7263L5.31348 43.8519L6.38962 43.3139C8.20561 42.3722 10.1561 41.5651 12.3084 41.0271C15.2678 40.22 18.2944 39.8164 21.3211 39.8164C24.3477 39.8164 27.3744 40.2872 30.3338 41.0943C32.4188 41.6997 34.4365 42.5068 36.2525 43.4484L37.3287 43.9865L36.4543 44.8608C32.3515 48.8963 27.0381 51.1159 21.3211 51.1159ZM8.27287 44.3227C11.8376 47.5512 16.4112 49.2999 21.3211 49.3672H21.3883C26.231 49.3672 30.7373 47.6184 34.302 44.4573C32.8896 43.7847 31.4099 43.2466 29.8629 42.7758C27.1053 41.9687 24.2132 41.5651 21.3211 41.5651H21.2538C18.3617 41.5651 15.5368 41.9687 12.7792 42.7085C11.0977 43.1121 9.61804 43.6502 8.27287 44.3227Z" fill="white"/>
<path d="M4.21671 28.8831L4.21191 30.6318L41.8096 30.735L41.8144 28.9863L4.21671 28.8831Z" fill="white"/>
<path d="M22.2634 8.47363H20.5146V51.1157H22.2634V8.47363Z" fill="white"/>
<path d="M32.2162 24.5485L31.4763 23.5396C31.2746 23.2033 25.7593 15.4013 24.4142 12.8455C23.7416 11.6348 23.4053 10.2224 23.4053 8.80993C23.4053 3.96729 27.3735 -0.000976562 32.2162 -0.000976562C37.0588 -0.000976562 41.0271 3.96729 41.0271 8.80993C41.0271 10.1551 40.7581 11.433 40.1527 12.6437C38.8748 15.334 33.2251 23.2033 32.956 23.5396L32.2162 24.5485ZM32.2162 1.74775C28.3824 1.74775 25.2213 4.90892 25.2213 8.74267C25.2213 9.88607 25.4903 10.9622 26.0284 11.9711C27.0373 13.8543 30.6692 19.1678 32.2834 21.4546C33.8977 19.1678 37.5969 13.7871 38.6058 11.8366C39.0766 10.895 39.2784 9.81881 39.2784 8.74267C39.2111 4.90892 36.0499 1.74775 32.2162 1.74775Z" fill="white"/>
<path d="M32.2161 12.9131C29.9293 12.9131 28.1133 11.0971 28.1133 8.81031C28.1133 6.52351 29.9293 4.70752 32.2161 4.70752C34.5029 4.70752 36.3189 6.52351 36.3189 8.81031C36.3189 11.0971 34.4356 12.9131 32.2161 12.9131ZM32.2161 6.45625C30.9382 6.45625 29.862 7.53239 29.862 8.81031C29.862 10.0882 30.9382 11.1644 32.2161 11.1644C33.494 11.1644 34.5701 10.0882 34.5701 8.81031C34.5701 7.53239 33.494 6.45625 32.2161 6.45625Z" fill="white"/>
</g>
<defs>
<clipPath id="clip0_351_11849">
<rect width="42.6421" height="51.1167" fill="white"/>
</clipPath>
</defs>
</svg>
