<svg width="47" height="47" viewBox="0 0 47 47" fill="none" xmlns="http://www.w3.org/2000/svg">
<g clip-path="url(#clip0_353_10874)">
<path d="M37.4417 6.92799L36.7691 6.38319C36.033 5.80467 35.2601 5.27444 34.4553 4.79587L33.6953 4.34525L34.5966 2.8252L35.3566 3.27584C36.2266 3.79315 37.0624 4.36603 37.8587 4.99093L38.5313 5.53573L37.4417 6.92799Z" fill="white"/>
<path d="M23.3982 46.8122C19.9942 46.8109 16.6313 46.0671 13.5442 44.6327C10.4571 43.1983 7.72011 41.1078 5.52392 38.507C3.32772 35.9062 1.7252 32.8576 0.828195 29.5738C-0.0688094 26.2901 -0.238713 22.8502 0.33024 19.494C0.899193 16.1378 2.19336 12.9461 4.1225 10.1415C6.05163 7.33684 8.56928 4.98672 11.5 3.25502C14.4306 1.52331 17.7037 0.451681 21.0911 0.114862C24.4784 -0.221958 27.8985 0.184134 31.1128 1.30482L31.9468 1.59405L31.3549 3.28897L30.5209 2.99303C26.187 1.47786 21.4835 1.38008 17.0904 2.71383C12.6972 4.04759 8.84203 6.74377 6.08197 10.4127C3.32191 14.0815 1.80001 18.533 1.73626 23.1238C1.6725 27.7145 3.07017 32.2065 5.72729 35.9507C8.3844 39.6948 12.1633 42.497 16.5177 43.9522C20.8721 45.4074 25.5765 45.4403 29.9508 44.0461C34.3251 42.6518 38.1428 39.9027 40.852 36.1961C43.5611 32.4895 45.0215 28.0174 45.0219 23.4263C45.0324 20.1948 44.3104 17.003 42.91 14.0907L42.5266 13.2971L44.1274 12.5303L44.5108 13.3307C46.2147 16.8989 46.987 20.8406 46.7559 24.788C46.5248 28.7355 45.2977 32.56 43.189 35.905C41.0804 39.2501 38.1588 42.0065 34.6969 43.9173C31.2351 45.8281 27.3457 46.8309 23.3915 46.8323L23.3982 46.8122Z" fill="white"/>
<path d="M14.6153 35.8687L17.9715 25.5445L9.1875 19.1616H20.0431L23.3993 8.8374L27.2263 20.6144L25.5381 21.1659L23.3993 14.5679L21.3277 20.9373H14.6355L20.0498 24.8719L17.985 31.2346L23.3993 27.3L28.8136 31.2346L26.7421 24.8719L32.1631 20.9373H29.3853V19.1616H37.6111L28.8271 25.5445L32.1833 35.8687L23.3993 29.4859L14.6153 35.8687Z" fill="white"/>
</g>
<defs>
<clipPath id="clip0_353_10874">
<rect width="46.8121" height="46.8121" fill="white"/>
</clipPath>
</defs>
</svg>
