<svg width="56" height="44" viewBox="0 0 56 44" fill="none" xmlns="http://www.w3.org/2000/svg">
<g clip-path="url(#clip0_351_12170)">
<path d="M22.7354 8.47363H4.23926C1.8852 8.47363 0.00195312 6.59039 0.00195312 4.23633C0.00195312 1.88227 1.8852 -0.000976562 4.23926 -0.000976562H22.7354C25.0895 -0.000976562 26.9727 1.88227 26.9727 4.23633C26.9727 6.59039 25.0895 8.47363 22.7354 8.47363ZM4.23926 1.74775C2.89408 1.74775 1.75068 2.89115 1.75068 4.23633C1.75068 5.58151 2.89408 6.72491 4.23926 6.72491H22.7354C24.0806 6.72491 25.224 5.58151 25.224 4.23633C25.224 2.89115 24.0806 1.74775 22.7354 1.74775H4.23926V1.74775Z" fill="white"/>
<path d="M55.8932 37.7317H3.22949V10.6936H4.97822V35.9829H54.0772V32.2837C54.0772 27.5756 50.7142 23.6073 46.0734 22.7329L40.2218 21.6568L23.6089 7.66695L24.7523 6.32178L41.029 20.0426L46.4097 20.9842C51.8576 21.9931 55.8259 26.7012 55.8259 32.2837V37.7317H55.8932Z" fill="white"/>
<path d="M18.8348 33.6963H17.086V32.8219C17.086 24.6163 4.37412 22.5986 4.2396 22.5986L3.36523 22.4641L3.63427 20.7153L4.50863 20.8499C5.11396 20.9171 18.8348 23.0694 18.8348 32.8219V33.6963Z" fill="white"/>
<path d="M28.3338 10.4304L24.8145 13.9497L26.051 15.1862L29.5703 11.6669L28.3338 10.4304Z" fill="white"/>
<path d="M31.2615 13.301L27.7422 16.8203L28.9787 18.0568L32.4981 14.5375L31.2615 13.301Z" fill="white"/>
<path d="M34.1912 16.2668L30.6719 19.7861L31.9084 21.0227L35.4277 17.5033L34.1912 16.2668Z" fill="white"/>
<path d="M35.2448 27.8445C34.6395 23.4054 38.3387 20.7823 40.3565 20.0425L40.9618 21.724L40.6928 20.8496L41.0291 21.6567C40.8273 21.724 36.4555 23.4727 36.9935 27.5755L35.2448 27.8445Z" fill="white"/>
<path d="M17.4891 43.1793L15.0678 41.1616L12.6465 43.1793L10.2252 41.1616L7.80385 43.1793L4.17188 40.1527L5.31528 38.7402L7.80385 40.8925L10.2252 38.8748L12.6465 40.8925L15.0678 38.8748L17.4891 40.8925L19.9104 38.8748L22.3318 40.8925L24.7531 38.8748L27.1744 40.8925L29.5957 38.8748L32.017 40.8925L34.3711 38.8748L36.7924 40.8925L39.2137 38.8748L41.635 40.8925L44.0564 38.8748L46.4777 40.8925L48.899 38.8748L51.3203 40.8925L53.8762 38.7402L55.0196 40.1527L51.3203 43.1793L48.899 41.1616L46.4777 43.1793L44.0564 41.1616L41.635 43.1793L39.2137 41.1616L36.7924 43.1793L34.3711 41.1616L32.017 43.1793L29.5957 41.1616L27.1744 43.1793L24.7531 41.1616L22.3318 43.1793L19.9104 41.1616L17.4891 43.1793Z" fill="white"/>
</g>
<defs>
<clipPath id="clip0_351_12170">
<rect width="55.8921" height="43.1802" fill="white"/>
</clipPath>
</defs>
</svg>
