<svg width="44" height="42" viewBox="0 0 44 42" fill="none" xmlns="http://www.w3.org/2000/svg">
<g clip-path="url(#clip0_351_12318)">
<path d="M7.52444 21.2013L6.28809 22.438L9.95063 26.0995L11.187 24.8628L7.52444 21.2013Z" fill="white"/>
<path d="M9.99796 21.2022L6.33594 24.8643L7.57246 26.1008L11.2345 22.4388L9.99796 21.2022Z" fill="white"/>
<path d="M16.1311 21.1985L14.8945 22.4351L18.5566 26.0971L19.7931 24.8606L16.1311 21.1985Z" fill="white"/>
<path d="M18.6044 21.1988L14.9424 24.8608L16.1789 26.0974L19.8409 22.4353L18.6044 21.1988Z" fill="white"/>
<path d="M24.7383 21.193L23.502 22.4297L27.1645 26.0912L28.4008 24.8545L24.7383 21.193Z" fill="white"/>
<path d="M27.2108 21.1939L23.5488 24.856L24.7854 26.0925L28.4474 22.4305L27.2108 21.1939Z" fill="white"/>
<path d="M43.7192 41.162H0.000976562V3.76611H7.06315V5.51484H1.74971V39.4133H41.9705V5.51484H38.8093V3.76611H43.7192V41.162Z" fill="white"/>
<path d="M13.9233 9.21446H6.72656V0H13.9233V9.21446ZM8.47529 7.46573H12.1073V1.74873H8.47529V7.46573Z" fill="white"/>
<path d="M36.9917 9.21446H29.8623V0H36.9917V9.21446ZM31.611 7.46573H35.243V1.74873H31.611V7.46573Z" fill="white"/>
<path d="M39.6837 12.2407H0.000976562V13.9895H39.6837V12.2407Z" fill="white"/>
<path d="M11.2341 17.3525H6.32422V19.1013H11.2341V17.3525Z" fill="white"/>
<path d="M19.8435 17.3525H14.9336V19.1013H19.8435V17.3525Z" fill="white"/>
<path d="M28.3845 17.3525H23.4746V19.1013H28.3845V17.3525Z" fill="white"/>
<path d="M36.9929 17.3525H32.083V19.1013H36.9929V17.3525Z" fill="white"/>
<path d="M36.9929 23.0029H32.083V24.7517H36.9929V23.0029Z" fill="white"/>
<path d="M11.2341 28.7197H6.32422V30.4685H11.2341V28.7197Z" fill="white"/>
<path d="M19.8435 28.7197H14.9336V30.4685H19.8435V28.7197Z" fill="white"/>
<path d="M28.3845 28.7192H23.4746V30.468H28.3845V28.7192Z" fill="white"/>
<path d="M36.9929 28.7197H32.083V30.4685H36.9929V28.7197Z" fill="white"/>
<path d="M11.2341 34.3691H6.32422V36.1179H11.2341V34.3691Z" fill="white"/>
<path d="M19.8435 34.3691H14.9336V36.1179H19.8435V34.3691Z" fill="white"/>
<path d="M28.3845 34.3691H23.4746V36.1179H28.3845V34.3691Z" fill="white"/>
<path d="M36.9929 34.3691H32.083V36.1179H36.9929V34.3691Z" fill="white"/>
<path d="M31.6122 3.76611H15.6719V5.51484H31.6122V3.76611Z" fill="white"/>
</g>
<defs>
<clipPath id="clip0_351_12318">
<rect width="43.7182" height="41.1624" fill="white"/>
</clipPath>
</defs>
</svg>
