<svg width="50" height="45" viewBox="0 0 50 45" fill="none" xmlns="http://www.w3.org/2000/svg">
<g clip-path="url(#clip0_351_11701)">
<path d="M45.467 42.1043H3.63198C1.61421 42.1043 0 40.4901 0 38.4723V11.9723C0 9.95454 1.61421 8.34033 3.63198 8.34033H45.467C47.4847 8.34033 49.0989 9.95454 49.0989 11.9723V38.4723C49.0989 40.4901 47.4847 42.1043 45.467 42.1043ZM3.63198 10.0891C2.62309 10.0891 1.74873 10.8962 1.74873 11.9723V38.4723C1.74873 39.4812 2.55584 40.3555 3.63198 40.3555H45.467C46.4758 40.3555 47.3502 39.5484 47.3502 38.4723V11.9723C47.3502 10.9634 46.5431 10.0891 45.467 10.0891H3.63198Z" fill="white"/>
<path d="M32.3522 10.0893H16.8154V2.69084C16.8154 1.21115 18.0261 0.000488281 19.5058 0.000488281H29.6619C31.1416 0.000488281 32.3522 1.21115 32.3522 2.69084V10.0893ZM18.5642 8.34058H30.5362V2.69084C30.5362 2.22003 30.1327 1.74922 29.5946 1.74922H19.5058C18.9677 1.74922 18.5642 2.15277 18.5642 2.69084V8.34058Z" fill="white"/>
<path d="M29.0565 3.49805H16.8154V5.24678H29.0565V3.49805Z" fill="white"/>
<path d="M14.6628 42.1042H8.67676V19.438H10.4255V40.3555H12.8468V19.438H14.6628V42.1042Z" fill="white"/>
<path d="M10.4255 16.5459H8.67676V8.34033H14.6628V10.0891H10.4255V16.5459Z" fill="white"/>
<path d="M14.5944 11.9048H12.8457V16.5456H14.5944V11.9048Z" fill="white"/>
<path d="M40.4909 16.5459H38.6749V10.0891H36.2536V16.5459H34.5049V8.34033H40.4909V16.5459Z" fill="white"/>
<path d="M40.4226 19.438H38.6738V38.3377H40.4226V19.438Z" fill="white"/>
<path d="M40.4909 42.1042H34.5049V19.438H36.2536V40.3555H40.4909V42.1042Z" fill="white"/>
<path d="M16.9501 21.187H6.32324V14.7974H16.8829V21.187H16.9501ZM8.13923 19.4382H15.2014V16.5461H8.13923V19.4382Z" fill="white"/>
<path d="M42.7774 21.1865H32.2178V14.7969H42.7774V21.1865V21.1865ZM33.9665 19.4377H41.0287V16.5456H33.9665V19.4377Z" fill="white"/>
<path d="M18.4301 38.2031L16.5469 32.957L24.0126 30.2666L25.8959 35.5128L18.4301 38.2031ZM18.8337 33.9658L19.5063 35.9163L23.6091 34.4366L22.9365 32.4861L18.8337 33.9658Z" fill="white"/>
<path d="M25.019 21.1195L18.8984 18.2274L21.5888 12.5776L27.7093 15.4698L25.019 21.1195ZM21.2525 17.4203L24.1446 18.7654L25.288 16.3441L22.3959 14.999L21.2525 17.4203Z" fill="white"/>
<path d="M28.1138 29.191C26.2305 29.191 24.6836 27.644 24.6836 25.7608C24.6836 23.8775 26.2305 22.3306 28.1138 22.3306C29.997 22.3306 31.544 23.8775 31.544 25.7608C31.544 27.644 30.0643 29.191 28.1138 29.191ZM28.1138 24.012C27.1722 24.012 26.4323 24.7519 26.4323 25.6935C26.4323 26.6351 27.1722 27.375 28.1138 27.375C29.0554 27.375 29.7953 26.6351 29.7953 25.6935C29.7953 24.7519 29.0554 24.012 28.1138 24.012Z" fill="white"/>
<path d="M5.91963 40.3555H4.1709V44.5255H5.91963V40.3555Z" fill="white"/>
<path d="M44.9304 40.3555H43.1816V44.5255H44.9304V40.3555Z" fill="white"/>
</g>
<defs>
<clipPath id="clip0_351_11701">
<rect width="49.0989" height="44.4581" fill="white"/>
</clipPath>
</defs>
</svg>
