<svg width="35" height="45" viewBox="0 0 35 45" fill="none" xmlns="http://www.w3.org/2000/svg">
<g clip-path="url(#clip0_351_11735)">
<path d="M30.8055 41.4992H0.000976562V0.000488281H30.8055V41.4992ZM1.74971 39.6832H28.9895V1.74922H1.74971V39.6832Z" fill="white"/>
<path d="M15.4024 24.6849C10.2235 24.6849 5.91895 20.4476 5.91895 15.2014C5.91895 9.9552 10.2235 5.78516 15.4024 5.78516C20.5814 5.78516 24.8859 10.0225 24.8859 15.2687C24.8859 20.5148 20.5814 24.6849 15.4024 24.6849ZM15.4024 7.33211C11.0306 7.33211 7.4659 10.8968 7.4659 15.2687C7.4659 19.6405 11.0306 23.2052 15.4024 23.2052C19.7743 23.2052 23.339 19.6405 23.339 15.2687C23.339 10.8968 19.7743 7.33211 15.4024 7.33211Z" fill="white"/>
<path d="M15.4033 24.6842C14.9997 24.6842 14.5289 24.5497 14.1926 24.2806C12.982 23.339 10.0898 20.5141 10.0898 15.2679C10.0898 10.2908 12.6457 7.46593 14.1926 6.25527C14.9325 5.64994 15.9414 5.64994 16.6812 6.25527C18.2282 7.46593 20.784 10.2908 20.784 15.2679C20.784 20.4469 17.8919 23.339 16.6812 24.2806C16.2777 24.5497 15.8068 24.6842 15.4033 24.6842ZM15.4033 7.33141C15.336 7.33141 15.2015 7.33141 15.1343 7.39867C13.8563 8.47481 11.6368 10.8289 11.6368 15.2007C11.6368 19.6398 13.8563 21.9938 15.1343 23.0027C15.2688 23.1372 15.4705 23.1372 15.6723 23.0027C17.0175 21.9266 19.1698 19.5725 19.1698 15.2007C19.1698 10.8961 16.9502 8.47481 15.6723 7.39867C15.6051 7.33141 15.4705 7.33141 15.4033 7.33141Z" fill="white"/>
<path d="M16.1417 6.18848H14.5947V24.2138H16.1417V6.18848Z" fill="white"/>
<path d="M24.0802 11.9722H6.66016V13.5191H24.0802V11.9722Z" fill="white"/>
<path d="M24.0802 16.9497H6.66016V18.4967H24.0802V16.9497Z" fill="white"/>
<path d="M24.6174 28.6523H6.18848V30.4011H24.6174V28.6523Z" fill="white"/>
<path d="M20.5155 32.957H10.3594V34.7058H20.5155V32.957Z" fill="white"/>
<path d="M34.166 44.8623H2.89062V43.1136H32.4173V3.02734H34.166V44.8623Z" fill="white"/>
</g>
<defs>
<clipPath id="clip0_351_11735">
<rect width="34.1675" height="44.8616" fill="white"/>
</clipPath>
</defs>
</svg>
