<svg width="47" height="47" viewBox="0 0 47 47" fill="none" xmlns="http://www.w3.org/2000/svg">
<g clip-path="url(#clip0_351_11646)">
<path d="M17.8916 45.6011L14.1924 37.53L15.8066 36.7901L18.4297 42.5744L19.1695 41.7673L19.2368 36.3193H21.0528L20.9855 42.5071L17.8916 45.6011Z" fill="white"/>
<path d="M6.65915 31.477L1.3457 29.123L4.43961 26.029L13.9904 25.8945L14.0576 27.6433L5.17946 27.7778L4.43961 28.5849L7.33174 29.8628L6.65915 31.477Z" fill="white"/>
<path d="M21.8591 19.0339L0 7.19639L3.22842 3.96797L14.9315 5.78396L17.8908 2.82457C18.698 2.01746 19.9759 2.01746 20.783 2.82457L21.5901 3.63167C22.3972 4.43878 22.3972 5.7167 21.5901 6.5238L21.321 6.79284L27.038 7.6672L26.9035 9.41593L17.6891 8.0035L20.3794 5.31314C20.5139 5.17863 20.5139 4.97685 20.3794 4.90959L19.5723 4.03523C19.4378 3.90071 19.236 3.90071 19.1688 4.03523L15.5368 7.6672L3.83375 5.85122L2.89213 6.79284L22.6662 17.487L21.8591 19.0339Z" fill="white"/>
<path d="M39.7496 46.9465L29.459 27.9123L31.0059 27.0379L40.2204 43.9871L41.162 43.0455L39.346 31.3425L42.978 27.7105C43.1125 27.576 43.1125 27.3742 42.978 27.3069L42.1709 26.4998C42.1036 26.4326 42.0364 26.4326 41.9691 26.4326C41.9019 26.4326 41.8346 26.4326 41.7674 26.4998L39.077 29.1902L36.992 16.6128L38.7407 16.3438L40.1531 25.5582L40.4222 25.2892C41.2293 24.4821 42.5745 24.4821 43.3143 25.2892L44.1214 26.0963C44.9285 26.9034 44.9285 28.1813 44.1214 28.9884L41.162 31.9478L43.0453 43.7181L39.7496 46.9465Z" fill="white"/>
<path d="M13.5186 40.2885L6.6582 33.4281L35.6468 2.48906C37.0592 0.942112 39.077 0.0677471 41.162 0.0677471L43.0452 0.000488281C44.1214 0.000488281 45.1303 0.404041 45.8701 1.14389C46.6099 1.88374 47.0135 2.89262 47.0135 3.96876V5.85201C47.0135 7.93703 46.0719 9.95479 44.5922 11.3672L13.5186 40.2885ZM9.14678 33.4281L13.5859 37.8672L43.3143 10.0893C44.5249 9.01317 45.1975 7.39896 45.1975 5.78475V3.9015C45.1975 3.29617 44.9957 2.7581 44.5922 2.35455C44.1886 1.95099 43.6506 1.74922 43.0452 1.74922H41.162C39.5478 1.74922 38.0008 2.48906 36.8574 3.63246L9.14678 33.4281Z" fill="white"/>
<path d="M13.7526 32.0097L7.66504 38.0972L8.90156 39.3337L14.9891 33.2462L13.7526 32.0097Z" fill="white"/>
<path d="M38.7688 4.31132L37.5322 5.54785L41.432 9.44767L42.6686 8.21114L38.7688 4.31132Z" fill="white"/>
<path d="M33.2129 39.5517L28.9326 43.832L30.1691 45.0686L34.4494 40.7883L33.2129 39.5517Z" fill="white"/>
<path d="M31.1336 35.7189L22.8584 43.9941L24.0949 45.2307L32.3701 36.9555L31.1336 35.7189Z" fill="white"/>
<path d="M35.2428 43.3827L32.96 45.6655L34.1965 46.9021L36.4793 44.6192L35.2428 43.3827Z" fill="white"/>
<path d="M6.16407 12.5371L1.88379 16.8174L3.12032 18.0539L7.4006 13.7736L6.16407 12.5371Z" fill="white"/>
<path d="M9.98127 14.6081L1.70605 22.8833L2.94258 24.1198L11.2178 15.8446L9.98127 14.6081Z" fill="white"/>
<path d="M2.34825 10.5062L0.0654297 12.7891L1.30196 14.0256L3.58477 11.7428L2.34825 10.5062Z" fill="white"/>
</g>
<defs>
<clipPath id="clip0_351_11646">
<rect width="46.9467" height="46.9467" fill="white"/>
</clipPath>
</defs>
</svg>
