<svg width="53" height="52" viewBox="0 0 53 52" fill="none" xmlns="http://www.w3.org/2000/svg">
<g clip-path="url(#clip0_351_12371)">
<path d="M14.795 51.3177H-0.00195312V21.0513H11.2303V22.8H1.74678V49.5018H13.0463V21.0513H14.795V51.3177Z" fill="white"/>
<path d="M52.9971 51.3177H38.2002V21.0513H39.9489V49.5018H51.2484V22.8H41.8322V21.0513H52.9971V51.3177Z" fill="white"/>
<path d="M39.9504 51.3175H13.0469V8.47363H18.8311V10.2224H14.7956V49.5015H38.2017V10.2224H34.2334V8.47363H39.9504V51.3175Z" fill="white"/>
<path d="M10.3553 26.499H4.43652V28.2478H10.3553V26.499Z" fill="white"/>
<path d="M10.3553 31.2749H4.43652V33.0236H10.3553V31.2749Z" fill="white"/>
<path d="M10.3553 36.1172H4.43652V37.8659H10.3553V36.1172Z" fill="white"/>
<path d="M10.3553 40.9595H4.43652V42.7082H10.3553V40.9595Z" fill="white"/>
<path d="M48.5604 26.499H42.6416V28.2478H48.5604V26.499Z" fill="white"/>
<path d="M21.7238 17.9575H18.0918V19.7062H21.7238V17.9575Z" fill="white"/>
<path d="M21.7238 22.2617H18.0918V24.0104H21.7238V22.2617Z" fill="white"/>
<path d="M21.7238 26.6338H18.0918V28.3825H21.7238V26.6338Z" fill="white"/>
<path d="M21.7238 30.9385H18.0918V32.6872H21.7238V30.9385Z" fill="white"/>
<path d="M21.7238 35.2437H18.0918V36.9924H21.7238V35.2437Z" fill="white"/>
<path d="M28.3136 17.9575H24.6816V19.7062H28.3136V17.9575Z" fill="white"/>
<path d="M28.3136 22.2622H24.6816V24.0109H28.3136V22.2622Z" fill="white"/>
<path d="M28.3136 26.6338H24.6816V28.3825H28.3136V26.6338Z" fill="white"/>
<path d="M28.3136 30.9385H24.6816V32.6872H28.3136V30.9385Z" fill="white"/>
<path d="M28.3136 35.2437H24.6816V36.9924H28.3136V35.2437Z" fill="white"/>
<path d="M34.9728 17.9575H31.3408V19.7062H34.9728V17.9575Z" fill="white"/>
<path d="M34.9728 22.2622H31.3408V24.0109H34.9728V22.2622Z" fill="white"/>
<path d="M34.9728 26.6338H31.3408V28.3825H34.9728V26.6338Z" fill="white"/>
<path d="M34.9728 30.9385H31.3408V32.6872H34.9728V30.9385Z" fill="white"/>
<path d="M34.9728 35.2432H31.3408V36.9919H34.9728V35.2432Z" fill="white"/>
<path d="M48.5604 31.2749H42.6416V33.0236H48.5604V31.2749Z" fill="white"/>
<path d="M48.5604 36.1172H42.6416V37.8659H48.5604V36.1172Z" fill="white"/>
<path d="M48.5604 40.9595H42.6416V42.7082H48.5604V40.9595Z" fill="white"/>
<path d="M30.8035 48.2239H29.0547V42.5069H23.9431V48.2239H22.1943V40.6909H30.8035V48.2239Z" fill="white"/>
<path d="M32.6192 15.4686H20.4453V3.22754H32.6192V15.4686ZM22.194 13.6527H30.8704V5.04353H22.194V13.6527Z" fill="white"/>
<path d="M25.6931 6.85986H23.9443V11.837H25.6931V6.85986Z" fill="white"/>
<path d="M29.0563 6.85986H27.3076V11.837H29.0563V6.85986Z" fill="white"/>
<path d="M28.8542 8.47363H23.9443V10.2224H28.8542V8.47363Z" fill="white"/>
<path d="M27.3728 -0.000488281H25.624V5.04392H27.3728V-0.000488281Z" fill="white"/>
<path d="M8.27217 18.2271H6.52344V22.8007H8.27217V18.2271Z" fill="white"/>
<path d="M46.4743 18.2266H44.7256V22.8002H46.4743V18.2266Z" fill="white"/>
</g>
<defs>
<clipPath id="clip0_351_12371">
<rect width="53" height="51.3185" fill="white"/>
</clipPath>
</defs>
</svg>
