<svg width="37" height="63" viewBox="0 0 37 63" fill="none" xmlns="http://www.w3.org/2000/svg">
<g clip-path="url(#clip0_353_11010)">
<path d="M19.0335 62.256C18.8512 62.2559 18.6734 62.1997 18.5242 62.095C18.375 61.9903 18.2617 61.8422 18.1995 61.6709L7.51208 31.586C7.43438 31.3648 7.44735 31.1218 7.54816 30.9101C7.64897 30.6984 7.82942 30.5351 8.05014 30.456C8.15956 30.4157 8.27597 30.3976 8.39247 30.403C8.50896 30.4083 8.62318 30.4369 8.72847 30.487C8.83376 30.5371 8.92797 30.6078 9.00553 30.6949C9.08309 30.782 9.14243 30.8837 9.18008 30.9941L19.0335 58.7316L29.3981 29.5144C29.4358 29.404 29.4951 29.3023 29.5727 29.2152C29.6502 29.1281 29.7444 29.0574 29.8497 29.0073C29.955 28.9572 30.0692 28.9286 30.1857 28.9233C30.3022 28.918 30.4186 28.936 30.5281 28.9763C30.6373 29.0154 30.7377 29.0757 30.8236 29.1537C30.9095 29.2317 30.9791 29.3259 31.0284 29.4309C31.0778 29.5359 31.1059 29.6496 31.1112 29.7655C31.1166 29.8814 31.099 29.9972 31.0594 30.1063L19.8675 61.6709C19.8054 61.8422 19.692 61.9903 19.5428 62.095C19.3936 62.1997 19.2158 62.2559 19.0335 62.256V62.256Z" fill="white"/>
<path d="M9.26727 32.1376C6.80972 32.1358 4.45336 31.1587 2.71561 29.421C0.977857 27.6832 0.000804917 25.3268 -0.000976562 22.8693C0.00689481 20.8566 0.666432 18.9006 1.8789 17.2941C3.09136 15.6876 4.79153 14.517 6.72491 13.9575C6.83708 13.9257 6.95443 13.9163 7.07023 13.9298C7.18604 13.9434 7.29803 13.9796 7.39983 14.0365C7.50164 14.0933 7.59125 14.1696 7.66355 14.2611C7.73585 14.3526 7.78943 14.4574 7.82123 14.5695C7.88342 14.7952 7.85399 15.0362 7.73937 15.2403C7.62475 15.4443 7.43419 15.5949 7.20915 15.6591C5.64414 16.1104 4.26776 17.0571 3.28664 18.3572C2.30551 19.6573 1.7726 21.2405 1.76793 22.8693C1.76971 24.8577 2.56039 26.7642 3.96641 28.1702C5.37242 29.5762 7.27886 30.3669 9.26727 30.3686C11.2557 30.3669 13.1622 29.5762 14.5682 28.1702C15.9742 26.7642 16.7649 24.8577 16.7666 22.8693C16.7684 22.635 16.8627 22.4109 17.029 22.2458C17.1954 22.0808 17.4202 21.9882 17.6545 21.9882C17.8881 21.9882 18.1123 22.081 18.2775 22.2463C18.4427 22.4115 18.5356 22.6356 18.5356 22.8693C18.5338 25.3268 17.5567 27.6832 15.819 29.421C14.0812 31.1587 11.7248 32.1358 9.26727 32.1376Z" fill="white"/>
<path d="M4.98951 23.7569C4.87324 23.7569 4.75814 23.7339 4.6508 23.6892C4.54346 23.6445 4.446 23.579 4.36409 23.4965C4.28219 23.4139 4.21745 23.316 4.17357 23.2083C4.12969 23.1006 4.10754 22.9854 4.10842 22.8691C4.10916 21.6179 4.56459 20.4097 5.38989 19.4693C6.21519 18.5289 7.35409 17.9205 8.59458 17.7574C8.70955 17.7414 8.82657 17.7484 8.93879 17.7781C9.05102 17.8077 9.15621 17.8594 9.24824 17.9302C9.34027 18.0009 9.41732 18.0893 9.47484 18.1901C9.53237 18.2909 9.56924 18.4022 9.5833 18.5174C9.59842 18.6323 9.59071 18.749 9.56068 18.8608C9.53065 18.9727 9.47889 19.0775 9.4083 19.1694C9.33771 19.2612 9.24969 19.3382 9.14931 19.396C9.04892 19.4538 8.93814 19.4912 8.82327 19.5061C8.00839 19.6152 7.26071 20.0162 6.71897 20.6346C6.17723 21.253 5.87821 22.0469 5.87733 22.8691C5.87733 23.1045 5.78381 23.3304 5.61731 23.4969C5.45082 23.6634 5.22498 23.7569 4.98951 23.7569V23.7569Z" fill="white"/>
<path d="M17.5468 24.4833H17.4796C14.401 24.2417 11.526 22.8505 9.42621 20.5862C7.32642 18.322 6.1556 15.3504 6.14648 12.2624C6.15005 9.01219 7.44321 5.89625 9.74207 3.59865C12.0409 1.30105 15.1576 0.00959245 18.4078 0.0078125C21.6568 0.0113731 24.7717 1.30362 27.0691 3.60102C29.3665 5.89843 30.6587 9.01335 30.6623 12.2624C30.6623 12.4967 30.5697 12.7215 30.4047 12.8878C30.2396 13.0541 30.0155 13.1484 29.7812 13.1502C29.5457 13.1502 29.3199 13.0567 29.1534 12.8902C28.9869 12.7237 28.8934 12.4978 28.8934 12.2624C28.8916 9.48195 27.7863 6.81593 25.8203 4.84987C23.8542 2.88382 21.1882 1.7785 18.4078 1.77672C15.6267 1.7785 12.96 2.8836 10.9929 4.84946C9.02574 6.81532 7.91896 9.48133 7.9154 12.2624C7.92255 14.9053 8.92429 17.4487 10.7214 19.3866C12.5185 21.3245 14.9792 22.515 17.6141 22.7211C17.8474 22.74 18.0637 22.8503 18.2161 23.0279C18.3685 23.2055 18.4446 23.436 18.4279 23.6695C18.4094 23.8907 18.3087 24.097 18.1456 24.2477C17.9825 24.3983 17.7689 24.4824 17.5468 24.4833V24.4833Z" fill="white"/>
<path d="M11.3458 13.1431C11.1104 13.1431 10.8845 13.0496 10.718 12.8831C10.5515 12.7166 10.458 12.4907 10.458 12.2553C10.4616 10.1485 11.3005 8.12917 12.7908 6.6401C14.2812 5.15102 16.3012 4.31379 18.408 4.31201C18.6417 4.31201 18.8658 4.40484 19.031 4.57007C19.1963 4.73531 19.2891 4.95942 19.2891 5.1931C19.2891 5.4274 19.1965 5.6522 19.0315 5.81851C18.8664 5.98482 18.6423 6.07914 18.408 6.08091C16.7698 6.08091 15.1987 6.73121 14.0397 7.88893C12.8807 9.04666 12.2287 10.6171 12.2269 12.2553C12.2269 12.4896 12.1343 12.7144 11.9693 12.8807C11.8042 13.047 11.5801 13.1413 11.3458 13.1431V13.1431Z" fill="white"/>
<path d="M26.4782 31.1487C23.8624 31.1451 21.3548 30.1044 19.5052 28.2548C17.6555 26.4052 16.6149 23.8976 16.6113 21.2818C16.6131 18.6649 17.653 16.1555 19.5028 14.3045C21.3526 12.4534 23.8613 11.4118 26.4782 11.4082C29.0951 11.4118 31.6037 12.4534 33.4535 14.3045C35.3034 16.1555 36.3433 18.6649 36.345 21.2818C36.3415 23.8976 35.3008 26.4052 33.4512 28.2548C31.6016 30.1044 29.094 31.1451 26.4782 31.1487V31.1487ZM26.4782 13.1771C24.3351 13.1878 22.2833 14.0461 20.771 15.5647C19.2587 17.0833 18.4089 19.1387 18.4071 21.2818C18.416 23.4196 19.2691 25.4674 20.7809 26.9791C22.2926 28.4908 24.3403 29.344 26.4782 29.3529C28.616 29.344 30.6638 28.4908 32.1755 26.9791C33.6872 25.4674 34.5404 23.4196 34.5492 21.2818C34.5386 19.1445 33.6849 17.0977 32.1736 15.5864C30.6622 14.0751 28.6155 13.2213 26.4782 13.2107V13.1771Z" fill="white"/>
<path d="M21.9114 22.1626C21.6777 22.1626 21.4536 22.0698 21.2883 21.9045C21.1231 21.7393 21.0303 21.5152 21.0303 21.2815C21.0303 19.8366 21.6043 18.4509 22.6259 17.4292C23.6476 16.4075 25.0333 15.8335 26.4782 15.8335C26.5942 15.8326 26.7091 15.8548 26.8164 15.8988C26.9237 15.9427 27.0212 16.0076 27.1032 16.0896C27.1852 16.1716 27.2501 16.2691 27.2941 16.3764C27.338 16.4837 27.3602 16.5987 27.3593 16.7146C27.3602 16.8309 27.338 16.9462 27.2942 17.0539C27.2503 17.1615 27.1855 17.2595 27.1036 17.342C27.0217 17.4245 26.9243 17.49 26.817 17.5347C26.7096 17.5794 26.5945 17.6024 26.4782 17.6024C25.506 17.6078 24.5754 17.9977 23.8898 18.6871C23.2042 19.3765 22.8193 20.3092 22.8193 21.2815C22.8185 21.3992 22.7942 21.5156 22.748 21.6239C22.7017 21.7322 22.6343 21.8302 22.5498 21.9121C22.4653 21.9941 22.3654 22.0585 22.2557 22.1015C22.1461 22.1445 22.0291 22.1653 21.9114 22.1626V22.1626Z" fill="white"/>
<path d="M11.0966 35.8571C10.6056 35.8571 10.3097 35.8571 10.2559 35.8571C10.1398 35.8503 10.0262 35.8204 9.92178 35.7692C9.81737 35.718 9.72422 35.6464 9.64781 35.5587C9.57139 35.471 9.51323 35.369 9.47675 35.2585C9.44026 35.1481 9.42618 35.0315 9.43532 34.9155C9.45257 34.6823 9.56116 34.4653 9.73746 34.3117C9.91377 34.158 10.1436 34.0801 10.377 34.095C15.9172 34.1526 21.3508 32.5707 25.9944 29.5483C26.1918 29.4214 26.4313 29.3778 26.6606 29.4269C26.89 29.4761 27.0906 29.614 27.2186 29.8106C27.2826 29.9076 27.3268 30.0163 27.3486 30.1305C27.3704 30.2447 27.3693 30.362 27.3456 30.4758C27.3218 30.5896 27.2758 30.6976 27.2101 30.7935C27.1445 30.8894 27.0605 30.9714 26.963 31.0347C22.2341 34.1048 16.7341 35.7765 11.0966 35.8571Z" fill="white"/>
<path d="M11.8566 41.5938C11.7403 41.5946 11.625 41.5725 11.5173 41.5286C11.4096 41.4847 11.3117 41.42 11.2292 41.3381C11.1467 41.2562 11.0811 41.1587 11.0364 41.0514C10.9917 40.9441 10.9687 40.8289 10.9688 40.7127C10.9687 40.4784 11.0613 40.2536 11.2264 40.0873C11.3914 39.921 11.6155 39.8266 11.8498 39.8249C17.7503 39.6917 23.4304 37.5572 27.9583 33.7716C28.1398 33.6236 28.3723 33.5533 28.6054 33.576C28.8384 33.5986 29.0531 33.7124 29.2026 33.8926C29.3506 34.0741 29.4209 34.3066 29.3982 34.5397C29.3755 34.7727 29.2617 34.9874 29.0815 35.1369C24.2379 39.1788 18.1637 41.4533 11.8566 41.587V41.5938Z" fill="white"/>
<path d="M13.8549 47.1899C13.6345 47.1908 13.4218 47.1091 13.2587 46.9609C13.0956 46.8128 12.994 46.6089 12.9738 46.3895C12.9627 46.2742 12.9744 46.1578 13.0083 46.0471C13.0422 45.9363 13.0975 45.8334 13.1712 45.744C13.2449 45.6547 13.3355 45.5808 13.4378 45.5265C13.5402 45.4722 13.6522 45.4386 13.7674 45.4277C17.9254 45.0186 21.9236 43.6136 25.4234 41.3316C25.5208 41.2679 25.6299 41.2241 25.7444 41.2029C25.8588 41.1816 25.9764 41.1832 26.0902 41.2075C26.204 41.2319 26.3118 41.2786 26.4075 41.345C26.5032 41.4113 26.5848 41.4959 26.6475 41.5939C26.7112 41.6913 26.755 41.8004 26.7763 41.9149C26.7976 42.0293 26.796 42.1468 26.7716 42.2607C26.7472 42.3745 26.7005 42.4823 26.6342 42.578C26.5679 42.6737 26.4832 42.7553 26.3852 42.818C22.6467 45.2541 18.3764 46.7537 13.9356 47.1899H13.8549Z" fill="white"/>
<path d="M15.6838 52.6517C15.4645 52.6528 15.2526 52.572 15.0897 52.4252C14.9268 52.2785 14.8244 52.0762 14.8027 51.858C14.7906 51.7427 14.8013 51.6262 14.8344 51.515C14.8674 51.4039 14.922 51.3004 14.9951 51.2104C15.0682 51.1205 15.1583 51.0458 15.2603 50.9907C15.3624 50.9356 15.4743 50.9012 15.5896 50.8895C18.0445 50.6272 19.9681 49.9949 22.9342 48.4614C23.1423 48.3548 23.384 48.3346 23.6069 48.4051C23.8298 48.4756 24.0159 48.6312 24.1247 48.8381C24.1784 48.9409 24.2112 49.0534 24.2214 49.1689C24.2315 49.2845 24.2187 49.401 24.1837 49.5116C24.1487 49.6222 24.0922 49.7248 24.0175 49.8135C23.9427 49.9022 23.8512 49.9753 23.7481 50.0286C20.56 51.6764 18.475 52.3625 15.7779 52.6449L15.6838 52.6517Z" fill="white"/>
</g>
<defs>
<clipPath id="clip0_353_11010">
<rect width="36.3467" height="62.2548" fill="white"/>
</clipPath>
</defs>
</svg>
