<svg width="56" height="53" viewBox="0 0 56 53" fill="none" xmlns="http://www.w3.org/2000/svg">
<g clip-path="url(#clip0_353_10998)">
<path d="M23.8107 21.4626C23.5792 21.461 23.3573 21.3696 23.1918 21.2078C23.0262 21.046 22.9298 20.8263 22.9229 20.595C22.9229 18.779 23.6963 16.2769 27.6848 14.6089C31.6732 12.9409 34.0273 14.1314 35.2917 15.4295C35.3743 15.5114 35.4398 15.6088 35.4846 15.7162C35.5293 15.8235 35.5523 15.9387 35.5523 16.055C35.5523 16.1713 35.5293 16.2864 35.4846 16.3938C35.4398 16.5011 35.3743 16.5986 35.2917 16.6805C35.2098 16.763 35.1124 16.8286 35.005 16.8733C34.8977 16.918 34.7825 16.941 34.6662 16.941C34.5499 16.941 34.4348 16.918 34.3274 16.8733C34.2201 16.8286 34.1226 16.763 34.0407 16.6805C32.7359 15.3353 30.8863 15.2075 28.3843 16.25C25.8822 17.2925 24.6716 18.7117 24.7052 20.5748C24.7088 20.6913 24.689 20.8073 24.6471 20.9161C24.6052 21.0249 24.542 21.1241 24.4612 21.2081C24.3803 21.2921 24.2835 21.359 24.1764 21.4051C24.0693 21.4511 23.9541 21.4752 23.8376 21.476L23.8107 21.4626Z" fill="white"/>
<path d="M34.6584 16.9558C34.4276 16.9541 34.2065 16.8625 34.042 16.7006C33.8775 16.5386 33.7826 16.3189 33.7773 16.0881C33.7773 14.2721 34.5441 11.7701 38.5393 10.1021C42.5345 8.43406 44.8751 9.62454 46.1463 10.9226C46.3114 11.0889 46.404 11.3138 46.404 11.5481C46.404 11.7825 46.3114 12.0073 46.1463 12.1736C46.0643 12.2562 45.9669 12.3217 45.8595 12.3665C45.7522 12.4112 45.637 12.4342 45.5208 12.4342C45.4045 12.4342 45.2893 12.4112 45.1819 12.3665C45.0746 12.3217 44.9771 12.2562 44.8952 12.1736C43.5971 10.8285 41.7408 10.7007 39.2388 11.7432C36.7367 12.7857 35.5328 14.2049 35.5664 16.0679C35.57 16.3023 35.4809 16.5285 35.3183 16.6974C35.1558 16.8662 34.9331 16.9639 34.6988 16.9692L34.6584 16.9558Z" fill="white"/>
<path d="M12.9534 25.9963C12.7225 25.9946 12.5014 25.903 12.3369 25.7411C12.1725 25.5791 12.0775 25.3594 12.0723 25.1286C12.0387 23.3126 12.839 20.8106 16.8342 19.1426C20.8294 17.4746 23.17 18.6651 24.4412 19.9632C24.6063 20.1295 24.699 20.3543 24.699 20.5887C24.699 20.823 24.6063 21.0479 24.4412 21.2142C24.3593 21.2967 24.2618 21.3623 24.1545 21.407C24.0471 21.4517 23.932 21.4747 23.8157 21.4747C23.6994 21.4747 23.5842 21.4517 23.4769 21.407C23.3695 21.3623 23.2721 21.2967 23.1902 21.2142C21.8921 19.869 20.0425 19.7412 17.5337 20.7837C15.0249 21.8262 13.8277 23.2454 13.8614 25.1085C13.865 25.3428 13.7758 25.569 13.6133 25.7379C13.4507 25.9067 13.228 26.0044 12.9937 26.0097L12.9534 25.9963Z" fill="white"/>
<path d="M2.10559 30.5295C1.8741 30.5278 1.65227 30.4365 1.4867 30.2747C1.32114 30.1129 1.22473 29.8932 1.21777 29.6618C1.21777 27.8458 1.99126 25.3438 5.97971 23.6758C9.96816 22.0078 12.3222 23.1983 13.5867 24.4964C13.6692 24.5783 13.7348 24.6757 13.7795 24.7831C13.8242 24.8904 13.8472 25.0056 13.8472 25.1219C13.8472 25.2382 13.8242 25.3533 13.7795 25.4607C13.7348 25.568 13.6692 25.6655 13.5867 25.7474C13.5048 25.8299 13.4073 25.8955 13.3 25.9402C13.1926 25.9849 13.0775 26.0079 12.9612 26.0079C12.8449 26.0079 12.7297 25.9849 12.6224 25.9402C12.515 25.8955 12.4176 25.8299 12.3357 25.7474C11.0309 24.4022 9.18124 24.2744 6.67921 25.3169C4.17718 26.3594 2.96652 27.7786 3.00015 29.6417C3.00283 29.7579 2.98245 29.8736 2.94021 29.9819C2.89797 30.0903 2.8347 30.1892 2.75404 30.273C2.67339 30.3568 2.57693 30.4238 2.47026 30.4701C2.36358 30.5164 2.24879 30.5412 2.1325 30.5429L2.10559 30.5295Z" fill="white"/>
<path d="M2.07848 30.5024C1.903 30.5036 1.73115 30.4524 1.58496 30.3553C1.43876 30.2583 1.32489 30.1198 1.25792 29.9576C-2.94576 19.8687 3.73975 7.47292 16.1625 2.28054C28.5852 -2.91184 42.1176 1.06316 46.328 11.1318C46.4174 11.3486 46.4173 11.5919 46.3278 11.8087C46.2383 12.0254 46.0667 12.198 45.8505 12.2887C45.7437 12.334 45.6289 12.3578 45.5129 12.3586C45.3968 12.3595 45.2818 12.3374 45.1743 12.2936C45.0668 12.2499 44.969 12.1853 44.8865 12.1037C44.804 12.022 44.7385 11.9249 44.6937 11.8178C40.8599 2.64375 28.3699 -0.900794 16.8418 3.91494C5.31362 8.73067 -0.94145 20.1041 2.8923 29.2782C2.9816 29.4951 2.9815 29.7384 2.89204 29.9551C2.80257 30.1719 2.631 30.3444 2.41477 30.4351C2.30854 30.4806 2.19402 30.5035 2.07848 30.5024V30.5024Z" fill="white"/>
<path d="M34.5095 16.5728C34.334 16.574 34.1622 16.5228 34.016 16.4257C33.8698 16.3287 33.7559 16.1902 33.689 16.028C28.6445 3.92139 16.5178 4.07609 16.39 4.06936C16.274 4.07294 16.1585 4.05342 16.0502 4.01193C15.9419 3.97044 15.8429 3.9078 15.759 3.82768C15.6751 3.74756 15.608 3.65154 15.5616 3.54523C15.5152 3.43891 15.4904 3.32443 15.4887 3.20845C15.4851 3.09251 15.5047 2.97701 15.5461 2.86869C15.5876 2.76036 15.6503 2.66138 15.7304 2.5775C15.8105 2.49362 15.9065 2.42652 16.0128 2.38011C16.1192 2.3337 16.2336 2.30891 16.3496 2.30718C16.4841 2.30718 29.8014 2.17266 35.3233 15.3487C35.4126 15.5655 35.4125 15.8088 35.3231 16.0255C35.2336 16.2423 35.062 16.4148 34.8458 16.5055C34.7396 16.551 34.625 16.5739 34.5095 16.5728Z" fill="white"/>
<path d="M12.7466 25.7001C12.5724 25.6991 12.4025 25.647 12.2577 25.5501C12.113 25.4532 12 25.316 11.9327 25.1553C6.42424 11.9726 15.8876 2.58328 15.9683 2.48912C16.1334 2.32442 16.3572 2.23193 16.5904 2.23193C16.8237 2.23193 17.0474 2.32442 17.2126 2.48912C17.2951 2.57103 17.3606 2.66847 17.4054 2.77583C17.4501 2.88318 17.4731 2.99833 17.4731 3.11462C17.4731 3.23092 17.4501 3.34608 17.4054 3.45343C17.3606 3.56079 17.2951 3.65823 17.2126 3.74014C14.6333 6.44933 12.9104 9.85914 12.2595 13.5427C11.6087 17.2264 12.0589 21.0201 13.5537 24.4491C13.599 24.556 13.6228 24.6707 13.6236 24.7868C13.6245 24.9028 13.6024 25.0179 13.5587 25.1254C13.5149 25.2329 13.4504 25.3307 13.3687 25.4131C13.2871 25.4956 13.1899 25.5612 13.0829 25.606C12.978 25.659 12.8637 25.691 12.7466 25.7001Z" fill="white"/>
<path d="M31.7795 40.1478C31.605 40.1487 31.4341 40.0981 31.2881 40.0024C31.1422 39.9067 31.0277 39.7701 30.9589 39.6097L14.9446 1.2722C14.8643 1.05692 14.8707 0.818915 14.9622 0.608197C15.0538 0.397479 15.2235 0.230465 15.4356 0.142252C15.5425 0.0969234 15.6572 0.0731452 15.7732 0.0722896C15.8893 0.0714339 16.0044 0.0935159 16.1119 0.137264C16.2194 0.181012 16.3172 0.245568 16.3996 0.32722C16.4821 0.408871 16.5476 0.50601 16.5925 0.613061L32.6068 38.9506C32.6961 39.1674 32.696 39.4107 32.6065 39.6275C32.5171 39.8442 32.3455 40.0168 32.1293 40.1074C32.0169 40.1456 31.8976 40.1594 31.7795 40.1478V40.1478Z" fill="white"/>
<path d="M31.6449 48.4398C21.8923 48.4398 12.1398 47.6999 9.44944 46.2202C9.13551 46.0947 8.86215 45.8852 8.6593 45.6148C8.45644 45.3443 8.33191 45.0232 8.29932 44.6867C8.25896 43.0792 9.05261 41.3978 10.5861 39.8239C14.6687 35.6337 23.1568 32.8223 31.6986 32.8223C44.9285 32.8223 54.9635 39.0639 55.1047 44.6396C55.0967 44.9554 55.0013 45.2627 54.8291 45.5274C54.657 45.7922 54.4148 46.0041 54.1295 46.1395C51.614 47.6663 41.6261 48.4398 31.6449 48.4398ZM10.0548 44.532C10.9628 45.4266 17.9846 46.6641 31.2144 46.6978C44.841 46.7381 52.3471 45.4669 53.3156 44.5589C53.0264 40.0122 43.4219 34.5979 31.6852 34.5979C22.3362 34.5979 14.9781 37.8465 11.8371 41.0682C10.687 42.2385 10.0548 43.4357 10.0548 44.532Z" fill="white"/>
<path d="M31.6456 52.2469C21.893 52.2469 12.1405 51.5138 9.45016 50.0274C9.13581 49.9025 8.86205 49.6932 8.6591 49.4226C8.45615 49.152 8.3319 48.8306 8.30004 48.4939C8.29461 48.2596 8.38207 48.0326 8.54336 47.8625C8.70464 47.6924 8.92665 47.5929 9.16096 47.5859C9.37439 47.5799 9.58274 47.6516 9.74727 47.7877C9.91181 47.9238 10.0213 48.115 10.0555 48.3258C10.9164 49.2203 17.945 50.4646 31.2286 50.5049C44.9427 50.5722 52.4353 49.2539 53.3433 48.3527C53.3731 48.145 53.475 47.9544 53.6312 47.8142C53.7873 47.674 53.9878 47.5932 54.1975 47.5859C54.3148 47.5804 54.4319 47.5988 54.5419 47.64C54.6519 47.6811 54.7523 47.7442 54.8372 47.8253C54.9221 47.9064 54.9897 48.0039 55.0358 48.1119C55.0819 48.2199 55.1056 48.3361 55.1055 48.4535C55.0967 48.7691 55.001 49.0761 54.8289 49.3407C54.6568 49.6054 54.415 49.8174 54.1302 49.9534C51.6147 51.4735 41.6268 52.2469 31.6456 52.2469Z" fill="white"/>
</g>
<defs>
<clipPath id="clip0_353_10998">
<rect width="55.0917" height="52.2467" fill="white"/>
</clipPath>
</defs>
</svg>
