<svg width="50" height="69" viewBox="0 0 50 69" fill="none" xmlns="http://www.w3.org/2000/svg">
<g clip-path="url(#clip0_353_10934)">
<path d="M25.594 64.7566C15.8415 64.7566 6.08893 64.0235 3.39858 62.5438C3.08456 62.4165 2.81137 62.2057 2.60863 61.9342C2.40589 61.6627 2.28132 61.3409 2.24844 61.0036C2.11392 55.401 11.9068 49.8925 23.213 49.2131C23.3293 49.2059 23.4459 49.2217 23.556 49.2598C23.6661 49.2979 23.7676 49.3575 23.8546 49.435C23.9415 49.5126 24.0122 49.6066 24.0626 49.7117C24.1129 49.8168 24.1419 49.9308 24.1479 50.0471C24.1608 50.2805 24.0812 50.5095 23.9264 50.6846C23.7715 50.8596 23.5538 50.9665 23.3206 50.9821C14.3618 51.5201 4.05771 55.9323 4.01735 60.8489C4.92534 61.7435 11.9472 62.9743 25.1703 63.0146C38.77 63.0483 46.3097 61.7838 47.2782 60.8758C47.0227 56.9748 39.6242 52.038 29.2058 51.0762C28.9731 51.0523 28.759 50.9383 28.6094 50.7585C28.4598 50.5788 28.3866 50.3475 28.4054 50.1144C28.4155 49.9985 28.4485 49.8858 28.5024 49.7827C28.5563 49.6796 28.6302 49.5883 28.7196 49.5138C28.809 49.4394 28.9122 49.3835 29.0234 49.3492C29.1346 49.3149 29.2514 49.3029 29.3672 49.314C40.0883 50.3027 48.9194 55.5287 49.0539 60.9633C49.0482 61.2795 48.9537 61.5878 48.7813 61.853C48.6088 62.1182 48.3654 62.3296 48.0786 62.4631C45.5564 63.9899 35.5752 64.7566 25.594 64.7566Z" fill="white"/>
<path d="M25.5938 68.5629C15.8413 68.5629 6.08878 67.8298 3.39843 66.3501C3.0845 66.2246 2.81116 66.0151 2.60831 65.7447C2.40545 65.4742 2.28088 65.1531 2.24829 64.8166C2.24285 64.5823 2.33031 64.3553 2.4916 64.1852C2.65288 64.0151 2.87492 63.9157 3.10922 63.9086C3.32063 63.9065 3.52608 63.9788 3.6896 64.1128C3.85313 64.2468 3.9643 64.434 4.00373 64.6417C4.86464 65.543 11.8932 66.7873 25.1836 66.8209C38.8707 66.868 46.3835 65.5766 47.2915 64.6686C47.3216 64.4616 47.4237 64.2719 47.58 64.1328C47.7363 63.9938 47.9366 63.9144 48.1457 63.9086C48.262 63.905 48.3778 63.9245 48.4865 63.9659C48.5952 64.0073 48.6947 64.0699 48.7791 64.1499C48.8635 64.2299 48.9312 64.3259 48.9784 64.4323C49.0255 64.5386 49.0511 64.6532 49.0537 64.7695C49.0488 65.086 48.9546 65.3946 48.7821 65.6599C48.6096 65.9253 48.3657 66.1365 48.0785 66.2694C45.5563 67.7962 35.575 68.5629 25.5938 68.5629Z" fill="white"/>
<path d="M11.8459 31.3018C11.7153 31.2985 11.5871 31.266 11.4707 31.2066C11.3543 31.1473 11.2527 31.0626 11.1733 30.9588C11.0455 30.7974 8.1332 26.9233 8.80578 22.4707C9.1147 20.5111 10.0601 18.7076 11.4961 17.3389C9.19588 17.4061 5.17383 18.5765 1.77054 25.0064C1.6815 25.1719 1.54263 25.3051 1.37361 25.3872C1.20459 25.4693 1.014 25.4961 0.828896 25.4638C0.644866 25.43 0.476191 25.339 0.346951 25.2038C0.21771 25.0685 0.134505 24.8958 0.109221 24.7105C0.109221 24.4414 -0.74495 18.0586 3.23677 13.1957C5.66482 10.2229 9.3304 8.48761 14.1394 8.07061C14.7178 6.3286 17.0181 1.86934 25.6407 -0.000451455C25.8167 -0.0370501 25.9997 -0.0193486 26.1654 0.0503088C26.3311 0.119966 26.4718 0.238308 26.5689 0.389661C26.6663 0.541691 26.7148 0.719992 26.7075 0.900445C26.7003 1.0809 26.6378 1.25479 26.5285 1.39854C25.301 2.95852 24.3126 4.69265 23.596 6.54384C26.6966 5.50805 34.4919 4.03509 41.2514 11.9245C41.3721 12.0666 41.4454 12.2427 41.461 12.4284C41.4767 12.6141 41.434 12.8001 41.3389 12.9603C41.2428 13.1199 41.0986 13.245 40.927 13.3175C40.7554 13.39 40.5652 13.4062 40.3838 13.3639C37.5253 12.6913 30.5371 11.6488 27.0195 13.189C29.9991 13.6195 34.7341 15.3279 35.3932 21.8116C35.4098 21.9679 35.3842 22.1258 35.3191 22.2689C35.2541 22.412 35.152 22.5351 35.0233 22.6254C34.8936 22.7151 34.7423 22.7685 34.5851 22.7804C34.4279 22.7922 34.2704 22.7619 34.1288 22.6927C34.0749 22.6927 28.6942 20.0629 24.921 20.4395C24.8052 20.4516 24.6882 20.4406 24.5766 20.4071C24.4651 20.3737 24.3613 20.3185 24.2712 20.2447C24.1811 20.1709 24.1066 20.08 24.0519 19.9772C23.9972 19.8744 23.9634 19.7618 23.9525 19.6459C23.9414 19.5306 23.9531 19.4142 23.9869 19.3035C24.0208 19.1927 24.0762 19.0897 24.1499 19.0004C24.2236 18.9111 24.3142 18.8372 24.4165 18.7829C24.5188 18.7286 24.6308 18.695 24.7461 18.6841C27.7123 18.3881 31.3375 19.6122 33.362 20.4328C33.1051 19.2983 32.5642 18.2477 31.7901 17.3795C31.016 16.5113 30.034 15.8539 28.9363 15.4691C27.5925 14.9749 26.1626 14.7576 24.7327 14.8301C24.5661 14.8456 24.3987 14.8133 24.2498 14.7371C24.1009 14.6608 23.9768 14.5438 23.8919 14.3997C23.8031 14.2575 23.7559 14.0932 23.7559 13.9255C23.7559 13.7578 23.8031 13.5935 23.8919 13.4513C25.3313 11.3327 28.6539 10.3978 33.7655 10.6735C35.3058 10.761 36.772 10.9358 37.9558 11.1174C35.9755 9.29303 33.5044 8.08837 30.8474 7.65211C28.1904 7.21585 25.4638 7.5671 23.0041 8.66249C22.885 8.7174 22.7553 8.74584 22.6241 8.74584C22.4929 8.74584 22.3633 8.7174 22.2441 8.66249C22.1244 8.60944 22.0177 8.53075 21.9317 8.43196C21.8457 8.33318 21.7824 8.2167 21.7464 8.09079C21.3025 6.56401 22.5804 4.05527 23.7104 2.29981C16.5069 4.55298 15.7066 8.79702 15.6729 8.99207C15.6404 9.18964 15.5425 9.37058 15.395 9.50593C15.2474 9.64129 15.0587 9.72323 14.8591 9.73863C10.2586 10.0346 6.78805 11.5546 4.58868 14.2584C2.97716 16.3334 2.01954 18.8409 1.83778 21.4618C4.37344 17.9106 7.0907 16.4914 9.07484 15.9466C10.6354 15.4782 12.295 15.4503 13.8704 15.8659C14.026 15.9184 14.1642 16.0126 14.2697 16.1384C14.3753 16.2641 14.4443 16.4165 14.469 16.5789C14.4942 16.74 14.4735 16.9049 14.4093 17.0548C14.345 17.2047 14.2398 17.3335 14.1058 17.4263C12.0275 18.906 10.8168 20.6884 10.5075 22.7263C10.3056 24.4644 10.5969 26.2241 11.3482 27.8044C12.5319 23.1366 15.6864 21.4753 17.1459 20.944C17.3671 20.8638 17.611 20.8748 17.8241 20.9744C18.0373 21.0741 18.2022 21.2542 18.2826 21.4753C18.3606 21.6957 18.3486 21.9379 18.2491 22.1495C18.1496 22.361 17.9707 22.5248 17.7512 22.6053C16.406 23.103 13.1372 24.8786 12.7068 30.488C12.6939 30.6661 12.6272 30.8361 12.5154 30.9754C12.4037 31.1147 12.2523 31.2169 12.0813 31.2682C12.0048 31.2906 11.9256 31.3019 11.8459 31.3018V31.3018Z" fill="white"/>
<path d="M25.7011 57.6809C25.0468 57.6784 24.417 57.4313 23.9354 56.9883C23.4539 56.5453 23.1552 55.9383 23.0982 55.2865C22.7081 50.834 21.2889 35.425 19.1366 24.1591C19.0924 23.9329 19.1378 23.6984 19.2634 23.5051C19.3889 23.3118 19.5846 23.1749 19.8092 23.1233C19.9237 23.1009 20.0414 23.1015 20.1557 23.125C20.2699 23.1484 20.3783 23.1944 20.4747 23.26C20.571 23.3257 20.6534 23.4099 20.717 23.5077C20.7805 23.6054 20.8241 23.7148 20.845 23.8295C22.957 34.8667 24.3358 49.3879 24.8335 55.1318C24.8523 55.3556 24.9593 55.5628 25.1308 55.7078C25.3023 55.8529 25.5243 55.9239 25.7482 55.9053L27.2077 55.7842C27.4229 55.7639 27.6227 55.6635 27.7672 55.5027C27.9118 55.342 27.9906 55.1327 27.9879 54.9166C27.8736 47.4172 24.9276 33.4812 23.1789 25.8406C23.1532 25.727 23.1502 25.6095 23.1701 25.4948C23.19 25.3801 23.2325 25.2705 23.295 25.1724C23.3576 25.0742 23.4389 24.9893 23.5344 24.9228C23.63 24.8562 23.7377 24.8093 23.8515 24.7846C23.9651 24.7579 24.0829 24.7542 24.1979 24.7737C24.3129 24.7933 24.4228 24.8356 24.5212 24.8983C24.6197 24.961 24.7046 25.0427 24.7709 25.1387C24.8372 25.2347 24.8836 25.343 24.9075 25.4572C27.0665 34.8734 29.656 47.6526 29.7636 54.9098C29.7713 55.5718 29.529 56.2124 29.0852 56.7036C28.6413 57.1949 28.0286 57.5006 27.3692 57.5598L25.9096 57.6809H25.7011Z" fill="white"/>
<path d="M19.7617 13.6996C19.6164 13.6985 19.4735 13.6618 19.3457 13.5926C19.2179 13.5234 19.109 13.4239 19.0286 13.3028C18.0264 11.8029 16.0222 9.6506 14.9258 9.7784C14.6939 9.8069 14.4602 9.74215 14.2761 9.59836C14.0919 9.45458 13.9724 9.24354 13.9438 9.01166C13.9288 8.89581 13.937 8.77813 13.9679 8.66547C13.9987 8.55281 14.0517 8.44741 14.1236 8.35541C14.1956 8.2634 14.2852 8.18664 14.3871 8.12956C14.489 8.07248 14.6013 8.03625 14.7173 8.02295C16.419 7.80772 18.1744 9.42192 19.3178 10.7604C20.098 8.7426 21.7728 7.0006 23.1583 6.72484C23.3855 6.67864 23.6217 6.72315 23.8165 6.84884C24.0113 6.97452 24.1493 7.1714 24.2008 7.39743C24.2488 7.62477 24.2051 7.8619 24.0791 8.05715C23.9531 8.2524 23.7551 8.38998 23.5282 8.43995C22.627 8.62828 20.7572 10.6595 20.6697 12.8387C20.6609 13.0296 20.5907 13.2126 20.4695 13.3605C20.3483 13.5083 20.1826 13.6131 19.9971 13.6592C19.9206 13.682 19.8415 13.6956 19.7617 13.6996Z" fill="white"/>
<path d="M26.6483 27.1587H26.4869C26.1775 27.0982 18.9001 25.7059 16.9495 22.0336C16.0416 20.332 15.2614 16.8749 16.351 14.5006C16.6467 13.8528 17.0927 13.2849 17.6518 12.844C18.2109 12.403 18.8671 12.1017 19.5659 11.965C20.0465 11.8375 20.5489 11.8154 21.0388 11.9001C21.5287 11.9848 21.9945 12.1745 22.4043 12.456C24.1866 13.6935 24.7785 16.4915 25.0946 18.8321C25.4687 21.2793 26.2459 23.6476 27.3949 25.8405C27.4774 25.9872 27.5162 26.1544 27.5067 26.3225C27.4972 26.4906 27.4397 26.6524 27.341 26.7888C27.262 26.8998 27.1584 26.991 27.0382 27.0552C26.918 27.1194 26.7845 27.1548 26.6483 27.1587V27.1587ZM20.4806 13.6128C20.3041 13.6145 20.1283 13.6348 19.956 13.6733C19.5176 13.7455 19.1038 13.9252 18.7517 14.1963C18.3996 14.4674 18.1201 14.8215 17.9383 15.227C17.0841 17.0968 17.8777 20.0293 18.4898 21.1929C19.4718 23.0492 22.7136 24.3271 25.0206 24.9796C24.1951 23.0879 23.6229 21.0955 23.319 19.0541C23.1643 17.9039 22.7473 14.8504 21.3752 13.8953C21.1128 13.712 20.8007 13.6134 20.4806 13.6128V13.6128Z" fill="white"/>
<path d="M13.6141 17.5941C13.4759 17.5928 13.3399 17.56 13.2164 17.4983C13.0928 17.4365 12.985 17.3473 12.9011 17.2376C12.762 17.0491 12.7029 16.8132 12.7369 16.5814C12.771 16.3496 12.8952 16.1406 13.0827 16C14.7574 14.7558 17.2998 13.1281 17.4075 13.0541C17.505 12.9918 17.6139 12.9493 17.728 12.9291C17.842 12.9088 17.9589 12.9113 18.0719 12.9363C18.185 12.9613 18.292 13.0083 18.3869 13.0747C18.4817 13.1411 18.5626 13.2255 18.6248 13.3231C18.6882 13.421 18.7316 13.5304 18.7524 13.6451C18.7731 13.7598 18.771 13.8775 18.7459 13.9914C18.7209 14.1052 18.6735 14.213 18.6066 14.3084C18.5396 14.4038 18.4544 14.485 18.3558 14.5472C18.3558 14.5472 15.7596 16.2086 14.1387 17.4192C13.9866 17.5315 13.803 17.5927 13.6141 17.5941V17.5941Z" fill="white"/>
<path d="M23.6774 16.5387C23.6082 16.5486 23.538 16.5486 23.4689 16.5387C23.3537 16.5142 23.2446 16.4668 23.1481 16.3993C23.0515 16.3319 22.9694 16.2458 22.9067 16.1461C22.844 16.0464 22.802 15.9351 22.783 15.8189C22.764 15.7026 22.7685 15.5838 22.7963 15.4693C23.0437 14.6227 23.4939 13.8493 24.1078 13.2161C24.1898 13.1336 24.2872 13.068 24.3946 13.0233C24.5019 12.9786 24.6171 12.9556 24.7334 12.9556C24.8496 12.9556 24.9648 12.9786 25.0721 13.0233C25.1795 13.068 25.2769 13.1336 25.3589 13.2161C25.524 13.3825 25.6167 13.6073 25.6167 13.8416C25.6167 14.076 25.524 14.3008 25.3589 14.4671C24.9642 14.8763 24.6696 15.3712 24.498 15.9132C24.4434 16.09 24.335 16.2453 24.1879 16.3574C24.0407 16.4695 23.8623 16.5329 23.6774 16.5387V16.5387Z" fill="white"/>
</g>
<defs>
<clipPath id="clip0_353_10934">
<rect width="49.0384" height="68.5637" fill="white"/>
</clipPath>
</defs>
</svg>
