<svg width="44" height="56" viewBox="0 0 44 56" fill="none" xmlns="http://www.w3.org/2000/svg">
<g clip-path="url(#clip0_353_10944)">
<path d="M11.1842 47.8343C11.0026 47.8343 10.8143 47.8343 10.6327 47.8343C2.77685 47.8343 1.78814 35.4116 1.4653 31.329L1.41821 30.7371C0.859964 24.2736 0.0730354 17.3526 0.0730354 17.2854C-0.0148935 15.8599 0.0075973 14.4297 0.140298 13.0077C0.386611 9.54068 1.91532 6.28967 4.42838 3.88853C6.94143 1.48739 10.2587 0.108248 13.7333 0.0200195C14.1124 0.0328301 14.49 0.073288 14.8632 0.14108C19.0535 1.06925 20.7417 7.19653 19.9547 12.584L18.0446 23.4799C17.9034 24.8722 17.8294 26.3519 17.8294 27.8114L18.4078 38.4584C18.5759 42.494 17.177 44.7539 15.9663 45.9242C15.3337 46.5411 14.5858 47.0273 13.7653 47.355C12.9448 47.6828 12.0677 47.8456 11.1842 47.8343ZM13.7199 1.76875C10.6897 1.85478 7.79973 3.06454 5.61191 5.16285C3.4241 7.26117 2.09475 10.0981 1.8823 13.122C1.76011 14.4412 1.73762 15.7677 1.81504 17.0903C1.81504 17.1374 2.61542 24.0718 3.16021 30.5421L3.2073 31.1474C3.50324 34.8265 4.39104 46.0251 10.6797 46.0251C11.4097 46.1069 12.1488 46.029 12.8456 45.7967C13.5424 45.5644 14.1804 45.1833 14.7153 44.6799C16.0605 43.3347 16.7331 41.2497 16.6187 38.5661L16.047 27.9123C16.0442 27.8967 16.0442 27.8807 16.047 27.8652C16.047 26.3384 16.1277 24.7915 16.2757 23.2714L18.1724 12.288C18.9257 7.1629 17.2509 2.46824 14.4462 1.84946C14.2058 1.80896 13.9633 1.78202 13.7199 1.76875V1.76875Z" fill="white"/>
<path d="M2.04971 28.8606C1.82506 28.861 1.60873 28.7756 1.44496 28.6218C1.28119 28.4681 1.18234 28.2575 1.16862 28.0333C0.778522 22.3768 9.0648 11.7029 9.42127 11.2186C9.50131 11.116 9.60322 11.0326 9.71957 10.9745C9.83593 10.9163 9.9638 10.8848 10.0939 10.8823C10.2191 10.8782 10.3438 10.9007 10.4597 10.9482C10.5756 10.9957 10.6801 11.0673 10.7665 11.1581C11.096 11.5078 18.6963 19.6932 17.9362 24.8318C17.9198 24.9468 17.8808 25.0573 17.8214 25.1572C17.7621 25.257 17.6836 25.3441 17.5904 25.4135C17.4973 25.4829 17.3914 25.5332 17.2787 25.5615C17.1661 25.5898 17.049 25.5955 16.9341 25.5784C16.8187 25.5628 16.7077 25.5243 16.6074 25.4652C16.5071 25.4061 16.4197 25.3276 16.3501 25.2343C16.2806 25.1409 16.2304 25.0346 16.2025 24.9216C16.1745 24.8086 16.1694 24.6912 16.1875 24.5762C16.6583 21.3612 12.5085 15.8326 10.1813 13.1422C7.59856 16.6128 2.68195 24.0785 2.93753 27.8719C2.94576 27.9877 2.93103 28.1039 2.8942 28.214C2.85737 28.324 2.79916 28.4257 2.72292 28.5132C2.64667 28.6007 2.55389 28.6723 2.4499 28.7238C2.34592 28.7754 2.23278 28.8058 2.11697 28.8135L2.04971 28.8606Z" fill="white"/>
<path d="M32.5586 55.4282C30.792 55.4476 29.0887 54.7711 27.8168 53.545C26.6129 52.3747 25.2072 50.1282 25.3753 46.086L25.9538 35.4322C25.954 33.9631 25.8799 32.495 25.7318 31.0335L23.8553 20.1779C23.0617 14.7972 24.7498 8.63626 28.9401 7.71481C29.3106 7.644 29.6862 7.60352 30.0633 7.59375C33.5391 7.68033 36.858 9.05872 39.3725 11.46C41.8869 13.8613 43.4166 17.1133 43.663 20.5814C43.7991 21.9965 43.8216 23.4202 43.7303 24.8389C43.7303 24.9263 42.9299 31.8405 42.3851 38.2907L42.338 38.8758C42.0152 42.9585 41.0265 55.3879 33.1034 55.3879C32.9151 55.4215 32.7335 55.4282 32.5586 55.4282ZM30.0229 9.35593C29.7977 9.36963 29.5732 9.39431 29.3503 9.4299C26.5456 10.0554 24.8776 14.7434 25.6309 19.8954L27.5142 30.7913C27.6717 32.3377 27.7503 33.8912 27.7496 35.4456V35.4994L27.1712 46.1667C27.0568 48.857 27.7159 50.9488 29.0746 52.2671C29.603 52.7636 30.2321 53.1407 30.9191 53.3728C31.6061 53.6049 32.335 53.6865 33.0563 53.6122C39.4055 53.6122 40.3001 42.4137 40.5893 38.7279L40.6364 38.1293C41.2013 31.6388 41.9815 24.6775 41.9815 24.6304C42.0558 23.3166 42.0311 21.9991 41.9076 20.689C41.688 17.6613 40.3494 14.8237 38.1525 12.7288C35.9556 10.6338 33.0576 9.43151 30.0229 9.35593Z" fill="white"/>
<path d="M41.7397 36.461H41.6724C41.4392 36.4438 41.2222 36.3352 41.0686 36.1589C40.9149 35.9826 40.8371 35.7528 40.8519 35.5194C41.1142 31.726 36.1908 24.2603 33.6081 20.7897C31.2809 23.4801 27.1311 29.002 27.6086 32.2237C27.6414 32.4555 27.5813 32.6907 27.4415 32.8784C27.3017 33.0661 27.0934 33.191 26.862 33.2259C26.6295 33.2588 26.3934 33.1989 26.2047 33.0592C26.0159 32.9196 25.8897 32.7113 25.8532 32.4793C25.0931 27.334 32.7001 19.1486 33.0229 18.8056C33.1092 18.7142 33.2135 18.6419 33.3294 18.5933C33.4452 18.5446 33.5699 18.5207 33.6955 18.5231C33.8259 18.5273 33.9538 18.5603 34.0701 18.6196C34.1863 18.6789 34.2881 18.763 34.3681 18.8661C34.7246 19.3168 43.0109 29.984 42.6275 35.6472C42.6089 35.8696 42.5072 36.0769 42.3427 36.2277C42.1782 36.3785 41.9629 36.4618 41.7397 36.461V36.461Z" fill="white"/>
<path d="M33.6677 20.2849C33.4495 20.2862 33.2385 20.2064 33.0757 20.061C32.913 19.9156 32.8099 19.715 32.7866 19.498L32.457 16.4377C32.457 16.4377 32.457 16.3705 32.457 16.3368C32.4576 16.1187 32.5391 15.9085 32.6857 15.747C32.8323 15.5855 33.0336 15.4841 33.2507 15.4624C33.4832 15.4378 33.7161 15.506 33.8987 15.6521C34.0813 15.7982 34.1989 16.0104 34.2259 16.2427L34.5555 19.3097V19.4038C34.5538 19.6212 34.473 19.8306 34.3282 19.9928C34.1834 20.1549 33.9844 20.2588 33.7686 20.2849H33.6677Z" fill="white"/>
<path d="M10.1344 12.7184H10.0402C9.82324 12.6951 9.62262 12.592 9.47724 12.4293C9.33186 12.2665 9.25205 12.0556 9.2533 11.8373C9.2502 11.806 9.2502 11.7744 9.2533 11.7431L9.58289 8.68286C9.59464 8.56753 9.62902 8.45566 9.6841 8.35365C9.73917 8.25164 9.81385 8.16148 9.90383 8.08838C9.9938 8.01527 10.0973 7.96064 10.2084 7.92762C10.3196 7.89459 10.4361 7.88383 10.5514 7.89593C10.7696 7.91769 10.9719 8.02004 11.1186 8.18298C11.2654 8.34592 11.3461 8.55775 11.3451 8.77704C11.3482 8.80835 11.3482 8.83988 11.3451 8.87119L11.0155 11.9315C10.9922 12.1485 10.8891 12.3491 10.7264 12.4945C10.5636 12.6398 10.3526 12.7196 10.1344 12.7184V12.7184Z" fill="white"/>
</g>
<defs>
<clipPath id="clip0_353_10944">
<rect width="43.7922" height="55.428" fill="white"/>
</clipPath>
</defs>
</svg>
