<svg width="52" height="58" viewBox="0 0 52 58" fill="none" xmlns="http://www.w3.org/2000/svg">
<g clip-path="url(#clip0_351_12613)">
<path d="M15.1995 33.0236L13.249 31.0731L22.5307 23.6747L20.1094 21.2533L30.7363 14.0566L37.933 21.2533L29.5257 25.2889L32.0815 27.8447L15.1995 33.0236ZM22.867 21.5224L25.1538 23.8092L16.4102 30.8041L28.6513 26.9703L26.3645 24.6835L34.7719 20.648L30.4 16.2762L22.867 21.5224Z" fill="white"/>
<path d="M21.2545 49.0312C20.1784 49.0312 19.1695 48.6276 18.4297 47.8878L2.48932 31.8802C0.942363 30.3332 0.942363 27.7774 2.48932 26.2305L27.5096 1.14291C28.2494 0.403065 29.2583 -0.000488281 30.3345 -0.000488281C31.4106 -0.000488281 32.4195 0.403065 33.1593 1.14291L49.0997 17.1505C49.8395 17.8904 50.2431 18.8992 50.2431 19.9754C50.2431 21.0515 49.8395 22.0604 49.0997 22.8003L24.0794 47.8205C23.3396 48.5604 22.3307 49.0312 21.2545 49.0312ZM30.3345 1.74824C29.7291 1.74824 29.1911 1.95002 28.7203 2.42083L3.69998 27.4411C2.82561 28.3155 2.82561 29.7279 3.69998 30.6023L19.6403 46.5426C20.5147 47.417 21.9271 47.417 22.8015 46.5426L47.8218 21.5223C48.2253 21.1188 48.4944 20.5135 48.4944 19.9081C48.4944 19.3028 48.2926 18.7647 47.8218 18.2939L31.8814 2.42083C31.4779 2.01728 30.8725 1.74824 30.3345 1.74824Z" fill="white"/>
<path d="M21.2528 57.1033C20.2439 57.1033 19.1678 56.6997 18.4279 55.9599L1.14242 38.6744C0.402576 37.8673 -0.000976562 36.8584 -0.000976562 35.7822V32.6211H1.74775V35.7822C1.74775 36.3876 1.94953 36.9256 2.42034 37.3965L19.7059 54.682C20.5802 55.5563 21.9927 55.5563 22.867 54.682L49.1652 28.3838C49.5688 27.9802 49.8378 27.3749 49.8378 26.7696V23.6084H51.5865V26.7696C51.5865 27.8457 51.183 28.8546 50.4431 29.5944L24.0777 55.8926C23.3378 56.6997 22.2617 57.1033 21.2528 57.1033Z" fill="white"/>
<path d="M22.1276 47.2822H20.3789V56.9675H22.1276V47.2822Z" fill="white"/>
<path d="M15.0188 46.0452L13.7822 47.2817L16.9211 50.4206L18.1576 49.1841L15.0188 46.0452Z" fill="white"/>
<path d="M7.11446 38.0735L5.87793 39.3101L7.68516 41.1173L8.92169 39.8808L7.11446 38.0735Z" fill="white"/>
<path d="M4.14375 35.1424L2.90723 36.3789L4.71446 38.1861L5.95099 36.9496L4.14375 35.1424Z" fill="white"/>
</g>
<defs>
<clipPath id="clip0_351_12613">
<rect width="51.5875" height="57.1027" fill="white"/>
</clipPath>
</defs>
</svg>
