<svg width="60" height="38" viewBox="0 0 60 38" fill="none" xmlns="http://www.w3.org/2000/svg">
<g clip-path="url(#clip0_351_11794)">
<path d="M27.8432 36.9259H19.3013L10.6249 21.7926L3.02469 35.1099H16.2074V36.9259H-0.00195312L10.6249 18.1606L20.3102 35.1099H27.8432V36.9259Z" fill="white"/>
<path d="M54.8819 36.9253H29.9961L38.3362 23.4062L39.8159 24.3479L33.2245 35.1093H54.8819V36.9253Z" fill="white"/>
<path d="M58.1772 37.1936L45.0617 15.8053L41.3625 21.7914L39.8828 20.917L45.0617 12.4424L59.6569 36.3193L58.1772 37.1936Z" fill="white"/>
<path d="M43.9272 14.2595L40.6445 19.5049L42.1269 20.4326L45.4096 15.1872L43.9272 14.2595Z" fill="white"/>
<path d="M40.6891 22.0614C40.6219 22.0614 40.6219 22.0614 40.6891 22.0614C40.3529 22.0614 40.0838 21.8596 39.9493 21.5906L38.4023 18.9002L39.9493 18.0259L40.7564 19.4383L41.6308 18.0259L43.1105 18.9675L41.429 21.5906C41.2272 21.8596 40.9582 22.0614 40.6891 22.0614Z" fill="white"/>
<path d="M16.6798 23.9441L15.1328 23.0025L29.3917 0L40.7584 19.5723L39.2115 20.4467L29.3244 3.4302L16.6798 23.9441Z" fill="white"/>
<path d="M10.8959 11.7029C8.40729 11.7029 6.32227 9.6851 6.32227 7.12926C6.32227 4.57343 8.34003 2.55566 10.8959 2.55566C13.4517 2.55566 15.4695 4.57343 15.4695 7.12926C15.4695 9.6851 13.3844 11.7029 10.8959 11.7029ZM10.8959 4.37165C9.34891 4.37165 8.13825 5.58231 8.13825 7.12926C8.13825 8.67622 9.34891 9.88688 10.8959 9.88688C12.4428 9.88688 13.6535 8.67622 13.6535 7.12926C13.6535 5.58231 12.3756 4.37165 10.8959 4.37165Z" fill="white"/>
<path d="M31.947 13.5858L30.4001 12.0389L28.7858 13.5858L27.2389 12.0389L25.6247 13.5858L22.7998 10.8282L24.0777 9.55029L25.6247 11.0972L27.2389 9.61755L28.7858 11.0972L30.4001 9.61755L33.2249 12.3752L31.947 13.5858Z" fill="white"/>
<path d="M11.5667 29.3922L10.087 27.9798L8.60735 29.3922L5.91699 26.7691L7.12765 25.4912L8.60735 26.9036L10.087 25.4912L12.7774 28.1143L11.5667 29.3922Z" fill="white"/>
<path d="M42.6404 24.1461L39.8828 21.5903L41.0935 20.3124L42.6404 21.6576L44.0529 20.2451L45.5326 21.6576L46.4069 20.7832L47.6176 21.9938L45.5326 24.0789L44.0529 22.7337L42.6404 24.1461Z" fill="white"/>
<path d="M42.7741 10.6951H41.0254V9.82072C41.0254 7.93747 43.0432 6.86133 45.0609 6.86133H45.9353V8.61006H45.0609C43.9848 8.61006 42.7741 9.14813 42.7741 9.82072V10.6951Z" fill="white"/>
<path d="M42.7751 10.6951H41.0264V9.82072C41.0264 9.14813 39.8157 8.61006 38.7396 8.61006H37.8652V6.86133H38.7396C40.6901 6.86133 42.7751 7.93747 42.7751 9.82072V10.6951Z" fill="white"/>
</g>
<defs>
<clipPath id="clip0_351_11794">
<rect width="59.6586" height="37.1941" fill="white"/>
</clipPath>
</defs>
</svg>
