<svg width="53" height="57" viewBox="0 0 53 57" fill="none" xmlns="http://www.w3.org/2000/svg">
<g clip-path="url(#clip0_351_11675)">
<path d="M32.2186 44.8618H17.8252L17.5562 44.391C17.1527 43.7184 16.6818 42.9786 16.1438 42.1715C16.0093 41.9697 15.8747 41.7679 15.7402 41.6334L15.2021 40.8935L16.6146 39.8847L17.1527 40.6245C17.2872 40.8263 17.4217 41.0281 17.5562 41.2298C18.027 41.9024 18.3633 42.5078 18.7669 43.1131H31.0752C31.9496 41.7007 33.0257 40.1537 34.1019 38.6067C36.994 34.504 40.2897 29.8631 41.6349 24.2806L41.8366 23.4062L43.5854 23.8098L43.3836 24.6842C41.9712 30.6029 38.6082 35.3783 35.5816 39.6156C34.3709 41.2971 33.2275 42.9113 32.3532 44.4583L32.2186 44.8618Z" fill="white"/>
<path d="M7.80415 28.451L7.46785 27.6439C6.39171 24.7517 5.9209 21.9941 5.9209 19.102C5.9209 13.9903 7.93866 9.21495 11.5034 5.58297C15.1354 2.01825 19.9107 0.000488281 25.0224 0.000488281C25.2242 0.000488281 25.3587 0.000488281 25.5605 0.000488281H25.6277C33.0935 0.202265 39.7521 4.77586 42.6442 11.6363L42.9805 12.4434L41.3663 13.116L41.03 12.3761C38.4069 6.12104 32.3536 2.01825 25.5605 1.81648H25.426C25.2914 1.81648 25.1569 1.81648 25.0224 1.81648C20.3815 1.81648 16.0097 3.63246 12.714 6.86089C9.41836 10.1566 7.66963 14.4611 7.66963 19.102C7.66963 21.7923 8.14044 24.3482 9.14932 27.0385L9.48562 27.8456L7.80415 28.451Z" fill="white"/>
<path d="M19.1037 41.4994L17.0859 37.1275L18.7001 36.3877L20.7179 40.7595L19.1037 41.4994Z" fill="white"/>
<path d="M29.7304 44.3915L28.1162 43.7189L28.4525 42.9118C28.9906 41.5666 29.6632 40.2214 30.3358 38.7417C32.3535 34.4372 34.7076 29.5273 35.5147 23.474L35.6492 22.5996L37.3979 22.8014L37.2634 23.6758C36.4563 29.9981 34.035 35.0425 31.95 39.4816C31.2774 40.894 30.6048 42.3064 30.0667 43.5844L29.7304 44.3915Z" fill="white"/>
<path d="M13.7898 28.3837L13.588 27.5094C12.9154 24.6845 12.5791 21.9269 12.5791 19.102C12.5791 14.0576 13.857 9.34947 16.0766 5.71749C18.4306 2.01825 21.5918 0.000488281 25.022 0.000488281C30.2009 0.000488281 34.7073 4.70861 36.5905 12.0398L36.7923 12.9142L35.1108 13.385L34.909 12.5106C33.2276 5.98652 29.3266 1.74922 25.022 1.74922C22.2644 1.74922 19.574 3.49795 17.5563 6.65911C15.4712 9.95479 14.3278 14.3939 14.3278 19.0347C14.3278 21.7251 14.6641 24.3482 15.3367 27.0385L15.5385 27.9129L13.7898 28.3837Z" fill="white"/>
<path d="M17.8244 38.7408L17.4881 37.9337C17.2191 37.3284 16.9501 36.7231 16.681 36.1178L16.3447 35.3106L17.9589 34.5708L18.2952 35.3779C18.5643 35.9832 18.8333 36.5886 19.1023 37.1939L19.5059 38.001L17.8244 38.7408Z" fill="white"/>
<path d="M22.9365 44.1223L22.7348 43.2479C22.4657 41.97 22.1967 40.6248 21.8604 39.1451C20.717 33.8989 19.2373 27.3748 19.2373 19.102C19.3046 9.6185 21.2551 0.000488281 25.0216 0.000488281C28.7881 0.000488281 30.8058 9.6185 30.8058 19.102C30.8058 27.3748 29.3261 33.8989 28.1827 39.1451L27.7119 41.2974L25.9632 40.8939L26.434 38.7416C27.5774 33.6299 28.9898 27.1731 28.9898 19.102C28.9898 8.54236 26.6358 1.74922 25.0216 1.74922C23.6091 1.74922 21.0533 7.66799 21.0533 19.102C21.0533 27.2403 22.4657 33.6299 23.6091 38.8088C23.9454 40.2885 24.2145 41.6337 24.4835 42.9116L24.6853 43.786L22.9365 44.1223Z" fill="white"/>
<path d="M27.78 56.8339H22.1303C20.1798 56.8339 18.6328 55.2869 18.6328 53.3364V48.0229H31.3447V53.3364C31.2775 55.2196 29.7305 56.8339 27.78 56.8339ZM20.3815 49.7717V53.3364C20.3815 54.278 21.1886 55.0851 22.1303 55.0851H27.78C28.7216 55.0851 29.5287 54.278 29.5287 53.3364V49.7717H20.3815Z" fill="white"/>
<path d="M20.3796 46.3413H18.6309V48.8971H20.3796V46.3413Z" fill="white"/>
<path d="M31.277 46.3413H29.5283V48.8971H31.277V46.3413Z" fill="white"/>
<path d="M13.6555 39.616H3.49941C1.54891 39.616 0.00195312 38.069 0.00195312 36.1185C0.00195312 34.5716 1.01084 33.2264 2.49053 32.7556C2.89408 29.6617 5.44992 27.3076 8.61108 27.3076C11.0997 27.3076 13.3192 28.7873 14.2608 31.0069C16.3458 31.2759 18.0273 33.0919 18.0273 35.2442C17.9601 37.7327 16.0096 39.616 13.6555 39.616ZM8.54382 29.1236C6.12251 29.1236 4.172 31.0741 4.172 33.4954V34.3025L3.36489 34.3698C2.49053 34.4371 1.75068 35.1769 1.75068 36.1185C1.75068 37.0601 2.55779 37.8673 3.49941 37.8673H13.6555C15.0679 37.8673 16.2113 36.7239 16.2113 35.3114C16.2113 33.899 15.0679 32.7556 13.6555 32.7556H12.9156L12.7139 32.1503C12.1758 30.3343 10.4943 29.1236 8.54382 29.1236Z" fill="white"/>
<path d="M48.7633 24.5497H37.3966C34.7735 24.5497 32.6885 22.4646 32.6885 19.8415C32.6885 17.4202 34.5045 15.4025 36.8585 15.1334C37.9347 12.6449 40.356 10.9634 43.1136 10.9634C46.6111 10.9634 49.5032 13.5865 49.8395 17.0167C51.4537 17.4875 52.5971 18.9672 52.5971 20.7159C52.5298 22.8682 50.8484 24.5497 48.7633 24.5497ZM37.3293 16.8822C35.7151 16.8822 34.3699 18.2273 34.3699 19.8415C34.3699 21.4558 35.7151 22.8009 37.3293 22.8009H48.6961C49.8395 22.8009 50.7811 21.8593 50.7811 20.7159C50.7811 19.6398 49.974 18.7654 48.8979 18.6981L48.0908 18.6309V17.8238C48.0908 15.0662 45.8712 12.8466 43.1136 12.8466C40.8941 12.8466 39.0108 14.2591 38.3382 16.3441L38.1364 16.9494L37.3293 16.8822Z" fill="white"/>
</g>
<defs>
<clipPath id="clip0_351_11675">
<rect width="52.5291" height="56.8337" fill="white"/>
</clipPath>
</defs>
</svg>
