<svg width="45" height="57" viewBox="0 0 45 57" fill="none" xmlns="http://www.w3.org/2000/svg">
<g clip-path="url(#clip0_353_11041)">
<path d="M10.6817 32.6403C9.23741 32.5953 7.8183 32.2504 6.5145 31.6274C5.21071 31.0045 4.05073 30.1171 3.10833 29.0218C1.19145 26.9502 0.000976562 24.3137 0.000976562 22.1008C0.000976562 17.6483 4.79653 14.0298 10.6817 14.0298C16.5668 14.0298 21.3624 17.655 21.3624 22.1008C21.3624 24.3002 20.1719 26.9502 18.255 29.0218C17.3126 30.1171 16.1527 31.0045 14.8489 31.6274C13.5451 32.2504 12.126 32.5953 10.6817 32.6403V32.6403ZM10.6817 15.8256C5.77179 15.8256 1.76989 18.6572 1.76989 22.1345C1.76989 25.6118 5.76506 30.8781 10.6817 30.8781C15.5983 30.8781 19.5935 25.5714 19.5935 22.1345C19.5935 18.6975 15.5916 15.792 10.6817 15.792V15.8256Z" fill="white"/>
<path d="M33.92 32.6403C32.4757 32.5953 31.0566 32.2504 29.7528 31.6274C28.449 31.0045 27.289 30.1171 26.3466 29.0218C24.4297 26.9502 23.2393 24.3137 23.2393 22.1008C23.2393 17.6483 28.0281 14.0298 33.92 14.0298C39.8118 14.0298 44.6007 17.655 44.6007 22.1008C44.6007 24.3002 43.4102 26.9502 41.4933 29.0218C40.5509 30.1171 39.3909 31.0045 38.0871 31.6274C36.7834 32.2504 35.3642 32.5953 33.92 32.6403V32.6403ZM33.92 15.8256C29.0033 15.8256 25.0082 18.6572 25.0082 22.1345C25.0082 25.6118 29.0033 30.8781 33.92 30.8781C38.8366 30.8781 42.8318 25.5714 42.8318 22.1345C42.8318 18.6975 38.8366 15.792 33.92 15.792V15.8256Z" fill="white"/>
<path d="M24.5642 25.2009H19.9435C19.8272 25.2018 19.7119 25.1797 19.6043 25.1358C19.4966 25.0919 19.3987 25.0272 19.3161 24.9453C19.2336 24.8633 19.1681 24.7659 19.1234 24.6586C19.0787 24.5512 19.0557 24.4361 19.0557 24.3198C19.0548 24.2027 19.0771 24.0865 19.1213 23.978C19.1656 23.8695 19.2308 23.7709 19.3133 23.6877C19.3959 23.6045 19.494 23.5385 19.6022 23.4935C19.7103 23.4485 19.8263 23.4253 19.9435 23.4253H24.5642C24.7985 23.4271 25.0226 23.5214 25.1876 23.6877C25.3526 23.854 25.4453 24.0788 25.4453 24.3131C25.4462 24.4294 25.424 24.5447 25.3801 24.6524C25.3362 24.76 25.2715 24.858 25.1896 24.9405C25.1077 25.023 25.0102 25.0885 24.9029 25.1332C24.7956 25.1779 24.6805 25.2009 24.5642 25.2009V25.2009Z" fill="white"/>
<path d="M8.40181 15.3546C8.2385 15.3554 8.07824 15.3105 7.93915 15.2249C7.80007 15.1393 7.68775 15.0165 7.61489 14.8704L6.69345 13.0746C6.66817 13.022 6.6457 12.9681 6.62616 12.9131C6.3927 12.0871 6.33195 11.2219 6.44767 10.3713C6.56339 9.52079 6.85309 8.70322 7.29875 7.96961C7.7335 7.22813 8.31608 6.58398 9.01031 6.07719C9.70454 5.5704 10.4956 5.2118 11.3343 5.02367C13.6345 4.50578 15.1681 3.7323 15.7667 2.77722C15.9184 2.52651 16.017 2.24728 16.0563 1.95688C16.0957 1.66647 16.0749 1.37108 15.9953 1.08903C15.9686 0.975452 15.9649 0.857681 15.9845 0.742655C16.004 0.627629 16.0463 0.517674 16.109 0.419269C16.1717 0.320863 16.2534 0.235996 16.3494 0.169669C16.4454 0.103342 16.5537 0.0568949 16.6679 0.0330648C16.7819 0.0063151 16.9001 0.00255645 17.0156 0.0220079C17.131 0.0414593 17.2415 0.0837317 17.3404 0.146353C17.4393 0.208974 17.5248 0.290689 17.5918 0.386721C17.6588 0.482753 17.706 0.591176 17.7306 0.705653C17.8655 1.21459 17.8946 1.74581 17.8159 2.26642C17.7372 2.78703 17.5525 3.28596 17.2732 3.7323C16.3989 5.13128 14.5829 6.11999 11.7379 6.76567C11.1315 6.89838 10.5591 7.15511 10.0568 7.51972C9.5544 7.88433 9.13291 8.34894 8.81881 8.88433C8.51065 9.40252 8.30961 9.97727 8.22758 10.5746C8.14556 11.1719 8.1842 11.7795 8.34125 12.3616L9.22238 14.0767C9.32848 14.2856 9.34769 14.5279 9.27587 14.7509C9.20406 14.9739 9.04705 15.1595 8.839 15.2672C8.70328 15.3336 8.55264 15.3637 8.40181 15.3546V15.3546Z" fill="white"/>
<path d="M35.7623 15.3547C35.6365 15.3584 35.5114 15.3351 35.3954 15.2864C35.2794 15.2376 35.1751 15.1646 35.0897 15.0722C34.9302 14.9018 34.8449 14.675 34.8525 14.4418C34.86 14.2085 34.9599 13.9877 35.13 13.828L37.6657 11.4403C37.9116 11.2013 38.0962 10.9066 38.2039 10.5811C38.3116 10.2556 38.3393 9.90893 38.2845 9.57047C38.2128 9.14022 38.0449 8.7317 37.7933 8.37535C37.5418 8.019 37.2131 7.72401 36.8317 7.51235C36.6232 7.39801 36.3407 7.27022 36.0111 7.12225C33.9395 6.1739 30.0789 4.4319 30.7515 0.98152C30.7999 0.755121 30.9362 0.557171 31.1303 0.431084C31.3245 0.304997 31.5608 0.261068 31.7873 0.308931C32.0119 0.360513 32.2077 0.497424 32.3332 0.690717C32.4587 0.884011 32.5041 1.11854 32.4599 1.34472C32.0832 3.24814 34.4776 4.50588 36.7173 5.54167C37.0873 5.70982 37.39 5.85106 37.6388 5.97885C38.265 6.32017 38.8042 6.80103 39.2148 7.38419C39.6253 7.96735 39.8961 8.63717 40.0063 9.34179C40.1025 9.95759 40.0494 10.5875 39.8516 11.1785C39.6538 11.7696 39.3171 12.3045 38.8696 12.7384L36.3138 15.1395C36.1609 15.2737 35.9657 15.3499 35.7623 15.3547V15.3547Z" fill="white"/>
<path d="M25.2707 56.2481H21.0469C20.8097 56.2479 20.5823 56.1536 20.4146 55.9858C20.3286 55.8971 20.2621 55.7915 20.2193 55.6757C20.1764 55.5599 20.1582 55.4364 20.1658 55.3132C20.1658 54.95 20.1658 46.3207 4.1649 43.4622C3.96064 43.4271 3.77548 43.3206 3.64244 43.1617C3.5094 43.0028 3.4371 42.8018 3.4385 42.5945V39.5208C3.44111 39.3914 3.47196 39.2642 3.52889 39.148C3.58582 39.0319 3.66744 38.9295 3.76806 38.8482C3.8731 38.7657 3.99531 38.7078 4.12566 38.6787C4.25601 38.6496 4.3912 38.6501 4.52135 38.6801C4.70295 38.7204 22.8225 42.8568 40.1214 38.6801C40.251 38.6471 40.3864 38.6446 40.517 38.6726C40.6477 38.7006 40.7701 38.7584 40.8748 38.8415C40.9773 38.9215 41.0607 39.0234 41.1189 39.1398C41.1771 39.2561 41.2086 39.384 41.2111 39.5141V42.3928C41.2105 42.5831 41.1487 42.7683 41.0348 42.9209C40.921 43.0734 40.7612 43.1854 40.5788 43.2402C40.4376 43.2806 26.5957 47.4775 26.1518 55.4006C26.1431 55.6284 26.0465 55.844 25.8821 56.002C25.7178 56.16 25.4987 56.2482 25.2707 56.2481V56.2481ZM21.8674 54.4792H24.504C25.6743 46.8251 36.6644 42.6954 39.4758 41.7538V40.644C24.5578 43.9397 9.36399 41.4175 5.24103 40.6104V41.8883C19.2443 44.6257 21.511 51.9031 21.8674 54.4792V54.4792Z" fill="white"/>
</g>
<defs>
<clipPath id="clip0_353_11041">
<rect width="44.5993" height="56.2486" fill="white"/>
</clipPath>
</defs>
</svg>
