<svg width="41" height="49" viewBox="0 0 41 49" fill="none" xmlns="http://www.w3.org/2000/svg">
<g clip-path="url(#clip0_351_12529)">
<path d="M27.7782 48.4261H7.93688C5.44831 48.4261 3.36328 46.3411 3.36328 43.8525V13.3843H5.11201V43.7853C5.11201 45.3322 6.38993 46.6101 7.93688 46.6101H27.7782C29.3252 46.6101 30.6031 45.3322 30.6031 43.7853V17.0835H32.3518V43.7853C32.3518 46.3411 30.3341 48.4261 27.7782 48.4261Z" fill="white"/>
<path d="M22.5983 23.0693C22.3966 23.0693 22.1948 23.0693 22.0603 23.002C19.9752 22.733 19.8407 21.0515 19.7735 20.1772C19.7735 19.8409 19.7062 19.5046 19.639 19.3028C19.2354 18.3612 18.6973 17.4195 18.6301 17.3523L20.177 16.4107C20.177 16.4779 20.8496 17.4868 21.2532 18.5629C21.4549 19.0338 21.5222 19.5718 21.5222 20.0426C21.5895 20.9843 21.6567 21.1188 22.262 21.186C22.8001 21.2533 23.3382 21.1188 23.7417 20.8497C23.809 20.8497 23.809 20.7825 23.809 20.7825C23.809 20.648 23.6745 20.4462 23.6072 20.3117C23.4054 19.9754 23.2037 19.5046 23.0692 18.9665C23.0019 18.3612 22.8674 17.7558 23.1364 16.8815L23.3382 16.2089H24.0108C25.6922 16.2089 27.6428 15.7381 28.0463 14.3256L28.3153 13.4513L29.1897 13.7203C29.9296 13.9893 30.7367 13.9221 31.4765 13.6531C32.4181 13.3168 33.0907 12.5769 33.2252 11.7025C33.2925 11.1645 33.158 10.6937 32.1491 10.0211L31.342 9.48301L31.8801 8.74316C32.0146 8.54138 32.0146 7.66702 31.8128 7.46524C30.8712 6.65814 29.3915 6.72539 28.2481 6.99443L26.9702 7.39798L27.1719 6.12007C27.2392 5.85103 27.0374 5.04392 26.4994 4.43859C25.9613 3.83326 25.2214 3.49697 24.2126 3.49697C23.6072 3.49697 23.0019 3.63149 22.4638 3.96778L21.5222 4.50585L21.1859 3.49697C20.8496 2.48809 19.639 1.8155 18.361 1.8155C16.9486 1.8155 15.7379 2.62261 15.4689 3.69875L15.1326 5.11118L14.0565 4.1023C13.5857 3.63149 12.9131 3.42971 12.1732 3.42971C11.0298 3.42971 10.0209 4.1023 9.75191 4.97667L9.55013 5.85103L8.67576 5.58199C8.27221 5.44748 7.86866 5.44748 7.39785 5.44748C6.52348 5.51474 5.85089 5.85103 5.44734 6.32184C5.11105 6.72539 4.90927 7.26347 4.97653 7.86879L5.04379 8.81042L4.10216 8.87768C3.29506 8.87768 2.55521 9.28123 2.15166 9.8193C1.94988 10.0883 1.68085 10.5591 1.81536 11.1645C1.94988 11.7025 2.42069 12.2406 3.09328 12.5769C3.76587 12.9132 4.43846 12.9132 5.17831 12.7114L6.18719 12.3751L6.32171 13.4513C6.45622 14.6619 7.73414 15.6036 9.28109 15.6036C9.88642 15.6036 10.4918 15.469 10.9626 15.2L11.8369 14.7292L12.2405 15.6036C12.375 16.0071 13.3166 16.9487 13.8547 17.1505C14.5945 17.4195 15.6707 17.4195 16.8813 17.1505L17.2849 18.8992C15.6707 19.3028 14.2582 19.2355 13.1821 18.832C12.5095 18.5629 11.6352 17.8231 11.0971 17.1505C10.559 17.3523 9.95368 17.4868 9.28109 17.4868C7.19607 17.4868 5.44734 16.3434 4.84201 14.6619C4.03491 14.7292 3.2278 14.6619 2.42069 14.2584C1.21003 13.7203 0.33567 12.7114 0.133894 11.568C-0.0678829 10.5591 0.201152 9.61752 0.873741 8.81042C1.34455 7.86879 2.21892 7.39798 3.2278 7.19621C3.29506 6.45636 3.63135 5.78377 4.10216 5.2457C4.84201 4.37134 5.98541 3.83326 7.26333 3.76601C7.59962 3.76601 8.00318 3.76601 8.33947 3.76601C9.01206 2.48809 10.4918 1.68098 12.1732 1.68098C12.9131 1.68098 13.6529 1.88276 14.2582 2.15179C14.9981 0.806618 16.6123 -0.000488281 18.361 -0.000488281C20.0425 -0.000488281 21.5895 0.806618 22.3966 2.01728C23.0019 1.8155 23.6072 1.68098 24.2126 1.68098C26.0958 1.68098 27.2392 2.55535 27.8445 3.22794C28.3826 3.83327 28.7189 4.57311 28.8534 5.17844C30.5349 5.04392 31.9473 5.38022 32.9562 6.25458C33.696 6.92717 33.8978 8.13783 33.6288 9.07945C34.3686 9.68478 35.0412 10.6264 34.9067 11.9716C34.7049 13.5185 33.6288 14.8637 32.0146 15.4018C31.1402 15.6708 30.2658 15.8053 29.3915 15.6708C28.6516 17.0833 26.9702 17.8904 24.7506 18.0249C24.7506 18.2267 24.7506 18.4957 24.8179 18.7647C24.8851 19.0338 25.0197 19.3028 25.1542 19.6391C25.4905 20.2444 26.0958 21.4551 24.7506 22.3967C24.1453 22.8675 23.4054 23.0693 22.5983 23.0693Z" fill="white"/>
<path d="M25.4899 25.9614H23.7412V38.0008H25.4899V25.9614Z" fill="white"/>
<path d="M18.7644 23.1367H17.0156V37.9337H18.7644V23.1367Z" fill="white"/>
<path d="M11.9704 23.1367H10.2217V37.9337H11.9704V23.1367Z" fill="white"/>
<path d="M27.4416 41.7676H4.2373V43.5163H27.4416V41.7676Z" fill="white"/>
<path d="M36.8584 36.8577H34.4371V35.109H36.8584C37.9345 35.109 38.8089 34.2346 38.8089 33.1584V24.0112C38.8089 22.9351 37.9345 22.0607 36.8584 22.0607H31.5449V20.312H36.8584C38.9434 20.312 40.6249 21.9935 40.6249 24.0785V33.2257C40.5576 35.2435 38.8761 36.8577 36.8584 36.8577Z" fill="white"/>
<path d="M34.9068 33.4271H31.4766V31.6784H34.9068C35.1085 31.6784 35.2431 31.5438 35.2431 31.3421V25.8941C35.2431 25.6923 35.1085 25.5578 34.9068 25.5578H34.0997V23.8091H34.9068C36.0502 23.8091 36.9918 24.7507 36.9918 25.8941V31.3421C36.9918 32.4855 36.0502 33.4271 34.9068 33.4271Z" fill="white"/>
</g>
<defs>
<clipPath id="clip0_351_12529">
<rect width="40.5571" height="48.4264" fill="white"/>
</clipPath>
</defs>
</svg>
