<svg width="49" height="49" viewBox="0 0 49 49" fill="none" xmlns="http://www.w3.org/2000/svg">
<g clip-path="url(#clip0_351_12288)">
<path d="M20.3812 44.6598L3.63379 27.8451L21.7264 9.75243C26.7036 4.70802 33.0932 1.41234 40.0208 0.134421C42.2404 -0.269132 44.5944 0.403457 46.2086 2.01767C47.8228 3.63188 48.5627 5.91868 48.0919 8.20548C46.814 15.2004 43.5183 21.5227 38.4739 26.4999L20.3812 44.6598ZM6.12237 27.8451L20.3812 42.1039L37.2632 25.2892C42.0386 20.5138 45.1997 14.5278 46.4104 7.86919C46.7467 6.18772 46.2086 4.50625 44.998 3.29559C43.72 2.08493 42.0386 1.54686 40.3571 1.88315C33.7657 3.09381 27.7124 6.25498 22.9371 11.0304L6.12237 27.8451Z" fill="white"/>
<path d="M32.7561 5.93779L31.5195 7.17432L43.219 18.8738L44.4555 17.6372L32.7561 5.93779Z" fill="white"/>
<path d="M27.846 25.4237C26.568 25.4237 25.2901 24.9529 24.2812 23.944C22.3307 21.9935 22.3307 18.8323 24.2812 16.8818C26.2317 14.9313 29.3929 14.9313 31.3434 16.8818C32.285 17.8234 32.8231 19.1014 32.8231 20.4465C32.8231 21.7917 32.285 23.0696 31.3434 24.0113C30.4018 24.8856 29.1239 25.4237 27.846 25.4237ZM27.846 17.1509C27.0389 17.1509 26.1645 17.4872 25.5592 18.0925C24.2812 19.3704 24.2812 21.3882 25.5592 22.6661C26.8371 23.944 28.8548 23.944 30.1328 22.6661C30.7381 22.0608 31.0744 21.2536 31.0744 20.3793C31.0744 19.5049 30.7381 18.6978 30.1328 18.0925C29.5274 17.4872 28.6531 17.1509 27.846 17.1509Z" fill="white"/>
<path d="M8.39766 23.0696L7.16113 24.3062L21.0958 38.2409L22.3324 37.0043L8.39766 23.0696Z" fill="white"/>
<path d="M6.32526 27.6432L0.00292969 21.2536L0.608259 20.6483C3.56765 17.6889 8.47754 17.6889 11.4369 20.6483L12.3786 21.5899L6.32526 27.6432ZM2.55876 21.3208L6.32526 25.1546L9.88998 21.6571C7.80495 19.7739 4.71105 19.7066 2.55876 21.3208Z" fill="white"/>
<path d="M26.9727 48.2238L20.6504 41.9014L26.7037 35.8481L27.6453 36.7898C29.125 38.2695 29.8649 40.1527 29.8649 42.2377C29.8649 44.3228 29.0577 46.206 27.6453 47.6857L26.9727 48.2238ZM23.139 41.9014L26.9727 45.7352C27.7126 44.7263 28.1161 43.5157 28.1161 42.2377C28.1161 40.8253 27.6453 39.4801 26.7037 38.404L23.139 41.9014Z" fill="white"/>
<path d="M2.35677 48.7626L0.944336 47.6865C2.28951 45.6015 1.95322 44.189 1.61692 42.4403C1.41515 41.4987 1.14611 40.4898 1.28063 39.3464C1.68418 35.8489 3.90372 34.0329 7.33392 34.3692L8.27555 34.4365V36.118H7.40118C7.33392 36.118 7.26667 36.118 7.19941 36.118C4.71083 35.9162 3.36565 37.0596 3.02936 39.6154C2.9621 40.4225 3.09662 41.2296 3.29839 42.104C3.56743 43.2474 3.83647 44.4581 3.56743 45.9377C4.84535 45.3997 6.66134 45.0634 9.0154 45.5342C9.95702 45.736 10.8314 45.4669 11.4367 44.7943C12.3111 43.8527 12.6474 42.4403 12.3783 41.5659L12.1766 40.6916L13.9253 40.288L14.1271 41.1624C14.5306 42.7093 13.9253 44.7943 12.7146 46.0723C11.6385 47.2157 10.2261 47.6865 8.6791 47.3502C4.44179 46.4086 2.49129 48.6954 2.35677 48.7626Z" fill="white"/>
<path d="M4.97972 42.7773L4.91246 41.903C4.91246 41.4321 4.77794 40.8941 4.77794 40.8941V40.7596C4.71068 38.8763 5.9886 38.0692 6.72845 37.9347L7.60281 37.7329L7.93911 39.4816L7.06474 39.6834C6.86297 39.7507 6.52667 39.9525 6.52667 40.625C6.59393 40.8268 6.66119 41.3649 6.66119 41.8357L6.72845 42.7101L4.97972 42.7773Z" fill="white"/>
</g>
<defs>
<clipPath id="clip0_351_12288">
<rect width="48.2246" height="48.7627" fill="white"/>
</clipPath>
</defs>
</svg>
