<svg width="36" height="48" viewBox="0 0 36 48" fill="none" xmlns="http://www.w3.org/2000/svg">
<g clip-path="url(#clip0_353_10624)">
<path d="M17.7297 29.7004C15.5143 29.7017 13.3483 29.0459 11.5057 27.8159C9.66304 26.5859 8.22661 24.837 7.37818 22.7904C6.52975 20.7439 6.30737 18.4917 6.73926 16.3187C7.17114 14.1458 8.23794 12.1498 9.80449 10.5832C11.371 9.01664 13.3671 7.94997 15.54 7.51809C17.713 7.0862 19.9652 7.3085 22.0117 8.15693C24.0583 9.00536 25.8071 10.4418 27.0371 12.2844C28.2671 14.127 28.923 16.2931 28.9217 18.5085C28.9181 21.4757 27.7378 24.3203 25.6397 26.4185C23.5416 28.5166 20.6969 29.6968 17.7297 29.7004ZM17.7297 9.08556C15.8674 9.08556 14.047 9.63782 12.4985 10.6725C10.95 11.7072 9.74295 13.1778 9.03026 14.8984C8.31757 16.619 8.13113 18.5122 8.49446 20.3388C8.85778 22.1654 9.75462 23.8432 11.0715 25.1601C12.3884 26.477 14.0662 27.3738 15.8928 27.7371C17.7193 28.1004 19.6126 27.914 21.3332 27.2013C23.0538 26.4886 24.5244 25.2817 25.5591 23.7332C26.5938 22.1847 27.146 20.3641 27.146 18.5018C27.146 16.0045 26.154 13.6094 24.3881 11.8435C22.6222 10.0776 20.2271 9.08556 17.7297 9.08556V9.08556Z" fill="white"/>
<path d="M17.7289 37.0183C16.3838 37.0183 15.348 35.9152 14.4535 34.9467C14.0168 34.3766 13.4672 33.9027 12.8392 33.5544C12.0936 33.4524 11.3349 33.5097 10.6131 33.7226C9.34859 33.9714 7.92263 34.2539 6.84649 33.4804C5.77035 32.707 5.60215 31.234 5.44746 29.9426C5.50687 29.572 5.49267 29.1933 5.40542 28.8283C5.31817 28.4632 5.15965 28.119 4.93908 27.8153C4.7185 27.5117 4.44019 27.2545 4.12002 27.0586C3.79984 26.8627 3.44418 26.732 3.07337 26.6739C1.88288 26.1223 0.537616 25.5035 0.120611 24.2256C-0.296394 22.9477 0.396464 21.7841 1.0556 20.6138C1.60369 20.0501 1.91029 19.2949 1.91029 18.5086C1.91029 17.7224 1.60369 16.9671 1.0556 16.4034C0.383012 15.2264 -0.289668 14.0157 0.120611 12.7849C0.53089 11.5541 1.88288 10.8882 3.07337 10.3434C3.822 10.2228 4.49223 9.81022 4.93727 9.19625C5.3823 8.58228 5.5657 7.81692 5.44746 7.06789C5.60215 5.77652 5.77708 4.31701 6.84649 3.5368C7.91591 2.7566 9.34859 3.04582 10.6131 3.29468C11.3353 3.50571 12.0941 3.56073 12.8392 3.4561C13.4672 3.11077 14.017 2.639 14.4535 2.07057C15.348 1.10204 16.3636 -0.000976562 17.7289 -0.000976562C19.0943 -0.000976562 20.11 1.10204 21.0045 2.07057C21.438 2.6419 21.9882 3.11425 22.6187 3.4561C23.3616 3.5608 24.1183 3.50577 24.8382 3.29468C26.1094 3.04582 27.5287 2.76333 28.6115 3.5368C29.6944 4.31028 29.8557 5.77652 30.0104 7.06789C29.8902 7.81618 30.072 8.58161 30.516 9.19584C30.9599 9.81007 31.6297 10.2229 32.3779 10.3434C33.5684 10.8882 34.9204 11.507 35.3307 12.7849C35.741 14.0628 35.0548 15.2264 34.4024 16.4034C33.8543 16.9671 33.5477 17.7224 33.5477 18.5086C33.5477 19.2949 33.8543 20.0501 34.4024 20.6138C35.075 21.7841 35.7477 23.0015 35.3307 24.2256C34.9137 25.4497 33.5684 26.1291 32.3779 26.6739C31.6311 26.7945 30.9626 27.2063 30.5188 27.819C30.075 28.4317 29.8921 29.1954 30.0104 29.9426C29.8557 31.234 29.6809 32.7002 28.6048 33.4804C27.5286 34.2606 26.1094 33.9714 24.8382 33.7226C24.1187 33.5098 23.3621 33.4525 22.6187 33.5544C21.9897 33.8984 21.4399 34.3704 21.0045 34.94C20.11 35.9152 19.0943 37.0183 17.7289 37.0183ZM12.2945 31.7183C12.6636 31.7116 13.0314 31.7638 13.384 31.873C14.3169 32.2889 15.1308 32.9317 15.7516 33.7428C16.4241 34.4826 17.137 35.2494 17.7289 35.2494C18.3208 35.2494 19.0204 34.4826 19.6997 33.7428C20.3219 32.9331 21.1355 32.2906 22.0673 31.873C23.0988 31.6535 24.1686 31.6928 25.1813 31.9873C26.096 32.1689 27.1318 32.3707 27.569 32.0478C28.0062 31.725 28.1407 30.7027 28.2416 29.7341C28.2743 28.6905 28.5655 27.6714 29.089 26.768C29.7815 25.9978 30.6554 25.4129 31.6314 25.0664C32.4924 24.6695 33.4676 24.2256 33.6492 23.6808C33.8308 23.136 33.3061 22.2751 32.8554 21.4748C32.1555 20.6449 31.7717 19.5942 31.7717 18.5086C31.7717 17.423 32.1555 16.3724 32.8554 15.5425C33.3061 14.7354 33.8106 13.8274 33.6492 13.3364C33.4878 12.8454 32.4991 12.3477 31.6314 11.9509C30.6554 11.6044 29.7815 11.0195 29.089 10.2493C28.5646 9.34382 28.2734 8.32224 28.2416 7.27639C28.134 6.34822 28.0062 5.25867 27.569 4.96273C27.1318 4.66679 26.096 4.84837 25.1813 5.02997C24.1709 5.32449 23.1033 5.36376 22.074 5.1443C21.1389 4.72592 20.3228 4.08097 19.6997 3.26779C19.0271 2.53467 18.3208 1.76793 17.7289 1.76793C17.137 1.76793 16.4309 2.53467 15.7516 3.26779C15.131 4.08069 14.3172 4.7257 13.384 5.1443C12.3548 5.36404 11.2871 5.32477 10.2768 5.02997C9.36204 4.84837 8.32622 4.64661 7.88904 4.96273C7.45186 5.27884 7.31734 6.34822 7.21645 7.27639C7.18771 8.32272 6.89627 9.34505 6.36898 10.2493C5.67788 11.021 4.8035 11.6062 3.82658 11.9509C2.96567 12.3477 1.99041 12.7916 1.80881 13.3364C1.62722 13.8812 2.15851 14.7354 2.60242 15.5425C3.30236 16.3724 3.68635 17.423 3.68635 18.5086C3.68635 19.5942 3.30236 20.6449 2.60242 21.4748C2.15851 22.2751 1.64739 23.1831 1.80881 23.6808C1.97024 24.1785 2.95894 24.6695 3.82658 25.0664C4.8035 25.4111 5.67788 25.9963 6.36898 26.768C6.89546 27.6701 7.18687 28.69 7.21645 29.7341C7.32406 30.669 7.45186 31.7519 7.88904 32.0478C8.32622 32.3438 9.36203 32.1622 10.27 31.9873C10.9347 31.8331 11.6126 31.743 12.2945 31.7183V31.7183Z" fill="white"/>
<path d="M22.2281 24.8175L17.7284 22.4567L13.2288 24.8175L14.0897 19.8134L10.4443 16.2622L15.4753 15.529L17.7284 10.9756L19.9749 15.529L25.0058 16.2622L21.3672 19.8134L22.2281 24.8175ZM17.7284 20.4591L19.874 21.589L19.4637 19.1946L21.2057 17.4997L18.8046 17.15L17.7284 14.9708L16.6523 17.15L14.2444 17.4997L15.9865 19.1946L15.5761 21.589L17.7284 20.4591Z" fill="white"/>
<path d="M29.1562 47.1947H6.29492L9.1736 35.041L10.8954 35.4446L8.53464 45.4258H26.9165L24.5557 35.4446L26.2708 35.041L29.1562 47.1947Z" fill="white"/>
<path d="M12.9548 37.4832L12.207 42.9067L13.9594 43.1483L14.7071 37.7248L12.9548 37.4832Z" fill="white"/>
<path d="M22.4417 37.4028L20.6895 37.644L21.4363 43.0677L23.1886 42.8264L22.4417 37.4028Z" fill="white"/>
</g>
<defs>
<clipPath id="clip0_353_10624">
<rect width="35.4521" height="47.1955" fill="white"/>
</clipPath>
</defs>
</svg>
