<svg width="39" height="49" viewBox="0 0 39 49" fill="none" xmlns="http://www.w3.org/2000/svg">
<g clip-path="url(#clip0_353_10816)">
<path d="M11.8252 40.4361C11.7262 40.4379 11.6278 40.4196 11.536 40.3823L2.11979 37.0664C1.75126 36.9368 1.41188 36.7359 1.12105 36.4751C0.830224 36.2142 0.593646 35.8987 0.424857 35.5464C0.254328 35.1934 0.155799 34.81 0.135013 34.4185C0.114227 34.027 0.171605 33.6354 0.303796 33.2663L0.539206 32.5937C0.668905 32.2242 0.870649 31.8842 1.13273 31.5932C1.39481 31.3023 1.71201 31.0663 2.06597 30.8988C2.4177 30.7281 2.80003 30.6294 3.19044 30.6086C3.58085 30.5879 3.97146 30.6454 4.33933 30.7777L19.5936 36.1584C19.8156 36.2362 19.9976 36.3989 20.0997 36.6107C20.2019 36.8226 20.2158 37.0663 20.1384 37.2884C20.0593 37.5091 19.8961 37.6896 19.6844 37.7904C19.4727 37.8912 19.2297 37.9041 19.0085 37.8264L3.75418 32.4457C3.60406 32.3917 3.44471 32.368 3.28537 32.3761C3.12603 32.3842 2.96988 32.4239 2.826 32.4928C2.53979 32.6276 2.3177 32.869 2.20723 33.1654L1.97182 33.838C1.91778 33.9881 1.8941 34.1475 1.90218 34.3068C1.91026 34.4661 1.94995 34.6223 2.01891 34.7662C2.15365 35.0524 2.39507 35.2745 2.6915 35.3849L12.1077 38.7008C12.3274 38.7814 12.5067 38.9448 12.6073 39.156C12.7079 39.3672 12.7217 39.6095 12.6458 39.8308C12.5887 40.0043 12.479 40.1557 12.332 40.2642C12.185 40.3726 12.0079 40.4327 11.8252 40.4361V40.4361Z" fill="white"/>
<path d="M35.4474 48.6017C35.1084 48.6028 34.7717 48.5459 34.452 48.4335L19.3187 43.1066C19.098 43.0275 18.9175 42.8643 18.8167 42.6526C18.7159 42.4409 18.7029 42.1979 18.7806 41.9767C18.8598 41.7559 19.023 41.5755 19.2347 41.4747C19.4464 41.3739 19.6893 41.3609 19.9106 41.4386L35.0371 46.7655C35.3408 46.8717 35.6739 46.8548 35.9653 46.7184C36.2502 46.5819 36.4717 46.3411 36.584 46.0458L36.8262 45.3732C36.8794 45.2239 36.902 45.0653 36.8928 44.907C36.8836 44.7488 36.8426 44.5939 36.7724 44.4518C36.7072 44.309 36.6141 44.1807 36.4986 44.0744C36.3831 43.9682 36.2475 43.8861 36.0998 43.833L26.6835 40.5306C26.4628 40.4515 26.2824 40.2882 26.1815 40.0765C26.0807 39.8648 26.0678 39.6219 26.1455 39.4006C26.1839 39.2908 26.2437 39.1897 26.3214 39.1031C26.3992 39.0165 26.4933 38.9462 26.5983 38.8961C26.7034 38.8461 26.8173 38.8174 26.9335 38.8116C27.0497 38.8059 27.1659 38.8232 27.2754 38.8626L36.6513 42.165C37.0214 42.2931 37.3624 42.4935 37.6545 42.7544C37.9466 43.0154 38.184 43.3317 38.353 43.685C38.5221 44.0384 38.6198 44.4218 38.6406 44.813C38.6613 45.2043 38.6047 45.5958 38.474 45.9651L38.2319 46.6377C38.1037 47.0078 37.9034 47.3488 37.6425 47.6409C37.3815 47.933 37.0652 48.1704 36.7118 48.3393C36.3146 48.5182 35.883 48.6077 35.4474 48.6017V48.6017Z" fill="white"/>
<path d="M3.08894 48.7154C2.55835 48.7155 2.04072 48.5513 1.60717 48.2454C1.17362 47.9395 0.845413 47.5069 0.667621 47.007L0.149736 45.534C0.0368913 45.217 -0.0117227 44.8806 0.00675327 44.5446C0.0252292 44.2086 0.110407 43.8796 0.257332 43.5768C0.401903 43.2726 0.605329 43.0001 0.855843 42.775C1.10636 42.5499 1.399 42.3766 1.71686 42.2653L34.8418 30.6026C35.1601 30.4899 35.4975 30.4414 35.8346 30.4599C36.1717 30.4784 36.5018 30.5634 36.8058 30.7102C37.11 30.8548 37.3825 31.0582 37.6076 31.3087C37.8327 31.5592 38.006 31.8518 38.1173 32.1697L38.6285 33.636C38.8546 34.2782 38.8165 34.9838 38.5227 35.598C38.2288 36.2121 37.7033 36.6845 37.0614 36.9115L3.93639 48.5741C3.66329 48.6663 3.37717 48.714 3.08894 48.7154V48.7154ZM35.6826 32.2235C35.5933 32.2261 35.5049 32.242 35.4202 32.2706L2.28856 43.9333C2.09088 44.0065 1.92932 44.1536 1.83792 44.3436C1.79108 44.4367 1.76392 44.5386 1.75813 44.6427C1.75235 44.7469 1.76807 44.8511 1.8043 44.9489L2.32218 46.4151C2.39236 46.6145 2.53853 46.778 2.7288 46.8699C2.91906 46.9619 3.13798 46.9749 3.3378 46.9061L36.4628 35.2434C36.5618 35.2091 36.6527 35.1551 36.7302 35.0845C36.8077 35.014 36.87 34.9285 36.9134 34.8332C36.9549 34.7376 36.9763 34.6346 36.9763 34.5305C36.9763 34.4264 36.9549 34.3233 36.9134 34.2278L36.4022 32.7548C36.329 32.5572 36.1819 32.3956 35.992 32.3042C35.8957 32.2557 35.7903 32.2282 35.6826 32.2235V32.2235Z" fill="white"/>
<path d="M15.8886 32.1025C15.8172 32.1129 15.7448 32.1129 15.6734 32.1025C9.87567 30.6498 7.66958 27.0851 7.60233 26.9304C2.71933 19.7673 9.41158 12.0998 9.48556 12.0258C9.59829 11.897 9.74632 11.8042 9.91131 11.7588C10.0763 11.7133 10.251 11.7173 10.4137 11.7702C10.5761 11.8238 10.7198 11.9225 10.8282 12.0546C10.9365 12.1868 11.0051 12.3471 11.0258 12.5168C11.1088 13.4351 11.3974 14.323 11.87 15.1147C12.3427 15.9064 12.9875 16.5816 13.7565 17.0904C12.8418 13.4988 13.7094 9.64484 16.3124 5.82454C17.7703 3.70487 19.5336 1.81237 21.5451 0.208423C21.6795 0.106642 21.8403 0.0455693 22.0084 0.0324551C22.1765 0.019341 22.3449 0.0547257 22.4934 0.134427C22.6439 0.212855 22.768 0.333657 22.8504 0.481887C22.9329 0.630118 22.9702 0.799288 22.9575 0.968451C22.0092 16.0008 26.4482 17.7832 27.1881 17.9311C27.5513 17.5276 27.437 15.1332 26.7173 12.5504C26.6716 12.3902 26.6726 12.2202 26.7203 12.0605C26.768 11.9009 26.8603 11.7581 26.9863 11.6492C27.1106 11.5383 27.2637 11.4649 27.428 11.4375C27.5923 11.4101 27.761 11.4299 27.9145 11.4945C28.1365 11.5886 33.497 13.9292 33.6517 21.3479C33.7055 23.675 32.4074 30.5623 26.0245 31.6116C25.9101 31.6308 25.793 31.6273 25.68 31.6011C25.5669 31.575 25.4602 31.5268 25.3658 31.4593C25.2715 31.3918 25.1914 31.3064 25.1301 31.2079C25.0689 31.1093 25.0277 30.9997 25.0089 30.8852C24.9897 30.7708 24.9932 30.6537 25.0193 30.5406C25.0455 30.4276 25.0937 30.3209 25.1612 30.2265C25.2286 30.1321 25.3141 30.052 25.4126 29.9908C25.5112 29.9295 25.6208 29.8883 25.7353 29.8696C31.7886 28.8741 31.8895 21.4622 31.8895 21.3882C31.8088 17.689 30.2282 15.4896 28.9234 14.3059C29.2059 15.9335 29.3471 17.9177 28.6274 18.9467C28.4764 19.1685 28.2767 19.3529 28.0436 19.4858C27.8104 19.6186 27.5501 19.6965 27.2823 19.7135H27.1814C26.0428 19.5622 25.008 18.9736 24.296 18.0724C22.6212 16.2227 20.7716 12.1065 21.0743 2.94586C18.3099 5.59586 13.0032 11.8308 16.0904 18.4154C16.1605 18.5683 16.1857 18.738 16.1631 18.9047C16.1404 19.0714 16.0709 19.2283 15.9626 19.357C15.856 19.4866 15.7143 19.5828 15.5545 19.6341C15.3947 19.6854 15.2235 19.6896 15.0613 19.6462C13.8421 19.2883 12.7221 18.6535 11.7888 17.7913C10.8554 16.9291 10.1339 15.8629 9.68062 14.6758C9.14427 15.5258 8.69366 16.4271 8.33544 17.3662C7.11806 20.5408 7.36691 23.4194 9.08874 25.9484C9.1291 26.0156 11.0729 29.0961 16.124 30.3605C16.3511 30.4192 16.5457 30.5653 16.6654 30.7669C16.7851 30.9685 16.8202 31.2093 16.763 31.4367C16.7154 31.6309 16.6026 31.803 16.4435 31.9242C16.2844 32.0454 16.0885 32.1083 15.8886 32.1025V32.1025Z" fill="white"/>
<path d="M15.8886 32.1032C15.6856 32.1044 15.4884 32.0355 15.3303 31.9081C9.2165 26.9915 11.0325 21.1467 11.1132 20.9247C11.1648 20.7674 11.2597 20.6278 11.387 20.522C11.5143 20.4161 11.6688 20.3482 11.8329 20.3262C11.9962 20.3034 12.1626 20.3266 12.3135 20.3932C12.4643 20.4597 12.5937 20.5669 12.6871 20.7028C14.6645 23.6218 16.3863 23.0232 16.958 22.8215C18.1821 22.3977 18.4579 19.0146 18.2494 16.8623C18.234 16.6916 18.2684 16.5202 18.3484 16.3686C18.4283 16.217 18.5505 16.0918 18.7 16.0081C18.8505 15.9241 19.0223 15.8857 19.1943 15.8976C19.3663 15.9096 19.5311 15.9714 19.6685 16.0754C26.5962 21.3216 28.883 26.2315 26.6567 31.0876C26.6088 31.1933 26.5405 31.2886 26.4557 31.3678C26.3709 31.4471 26.2712 31.5088 26.1624 31.5494C26.0537 31.59 25.938 31.6088 25.822 31.6046C25.706 31.6003 25.5919 31.5732 25.4864 31.5247C25.3807 31.4768 25.2854 31.4085 25.2062 31.3237C25.1269 31.2389 25.0652 31.1392 25.0245 31.0305C24.9839 30.9217 24.9652 30.806 24.9694 30.69C24.9737 30.574 25.0008 30.46 25.0492 30.3544C26.7442 26.6485 25.177 22.9156 20.1057 18.6783C20.0653 23.3864 18.0005 24.3348 17.5364 24.4962C16.6822 24.8003 15.7578 24.8491 14.8764 24.6365C13.9949 24.4239 13.1944 23.9591 12.5727 23.299C12.5727 25.0948 13.2117 27.9331 16.4401 30.5293C16.5311 30.6019 16.6068 30.6917 16.6628 30.7937C16.7189 30.8957 16.7542 31.0077 16.7667 31.1234C16.7792 31.2391 16.7686 31.3561 16.7357 31.4677C16.7027 31.5793 16.648 31.6833 16.5746 31.7736C16.4928 31.8771 16.3885 31.9605 16.2697 32.0176C16.1508 32.0747 16.0205 32.104 15.8886 32.1032V32.1032Z" fill="white"/>
<path d="M17.2736 13.7538C17.0381 13.7538 16.8123 13.6603 16.6458 13.4938C16.4793 13.3273 16.3857 13.1015 16.3857 12.866C16.3965 10.8152 17.1436 8.83646 18.4909 7.29028C18.5724 7.2069 18.6697 7.14065 18.7771 7.09541C18.8845 7.05017 18.9999 7.02686 19.1164 7.02686C19.233 7.02686 19.3484 7.05017 19.4558 7.09541C19.5632 7.14065 19.6605 7.2069 19.742 7.29028C19.8265 7.36936 19.8946 7.46446 19.9421 7.57005C19.9897 7.67564 20.0158 7.78964 20.0189 7.9054C20.022 8.02116 20.0021 8.1364 19.9604 8.2444C19.9186 8.35241 19.8558 8.45104 19.7756 8.53458C18.7464 9.75552 18.1734 11.2962 18.1547 12.8929C18.1477 13.1225 18.052 13.3405 17.8877 13.5011C17.7234 13.6616 17.5033 13.7522 17.2736 13.7538V13.7538Z" fill="white"/>
</g>
<defs>
<clipPath id="clip0_353_10816">
<rect width="38.7747" height="48.7156" fill="white"/>
</clipPath>
</defs>
</svg>
