<svg width="60" height="49" viewBox="0 0 60 49" fill="none" xmlns="http://www.w3.org/2000/svg">
<g clip-path="url(#clip0_351_12693)">
<path d="M30.2899 20.5856H0V19.6433C0 11.235 6.81159 4.42139 15.1449 4.42139C23.4783 4.42139 30.2899 11.235 30.2899 19.5708V20.5856ZM1.95652 18.6285H28.4058C27.8986 11.7424 22.1739 6.306 15.2174 6.306C8.26087 6.306 2.46377 11.8149 1.95652 18.6285Z" fill="white"/>
<path d="M19.8551 17.4687L19.7826 16.5264C19.2029 10.1477 16.9565 6.37849 15.2174 6.37849H14.2754V4.42139H15.2174C18.4783 4.42139 21.0145 9.20541 21.7392 16.309L21.8116 17.2513L19.8551 17.4687Z" fill="white"/>
<path d="M10.5071 17.469L8.62305 17.324L8.69551 16.3817C9.34768 9.27817 11.9564 4.49414 15.2172 4.49414H16.1593V6.37876H15.2172C13.4057 6.37876 11.2317 10.148 10.652 16.5267L10.5071 17.469Z" fill="white"/>
<path d="M16.0872 2.39209H14.2031V5.58144H16.0872V2.39209Z" fill="white"/>
<path d="M16.0872 22.1079H14.2031V37.8372H16.0872V22.1079Z" fill="white"/>
<path d="M48.4778 0H46.5938V2.89941H48.4778V0Z" fill="white"/>
<path d="M48.4778 22.1079H46.5938V25.0073H48.4778V22.1079Z" fill="white"/>
<path d="M39.3666 3.00352L38.0342 4.33594L40.0835 6.3864L41.4159 5.05398L39.3666 3.00352Z" fill="white"/>
<path d="M55.0225 18.6584L53.6904 19.9912L55.7403 22.0411L57.0723 20.7083L55.0225 18.6584Z" fill="white"/>
<path d="M37.8985 11.5254H35V13.41H37.8985V11.5254Z" fill="white"/>
<path d="M60.0724 11.5254H57.1738V13.41H60.0724V11.5254Z" fill="white"/>
<path d="M40.0372 18.6088L37.9873 20.6587L39.3193 21.9915L41.3692 19.9416L40.0372 18.6088Z" fill="white"/>
<path d="M55.684 2.94954L53.6348 5L54.9672 6.33242L57.0164 4.28196L55.684 2.94954Z" fill="white"/>
<path d="M47.5358 19.1361C43.8402 19.1361 40.8691 16.1642 40.8691 12.4675C40.8691 8.77072 43.8402 5.79883 47.5358 5.79883C51.2315 5.79883 54.2025 8.77072 54.2025 12.4675C54.2025 16.1642 51.159 19.1361 47.5358 19.1361ZM47.5358 7.75593C44.9271 7.75593 42.8257 9.858 42.8257 12.4675C42.8257 15.0769 44.9271 17.179 47.5358 17.179C50.1445 17.179 52.246 15.0769 52.246 12.4675C52.246 9.858 50.1445 7.75593 47.5358 7.75593Z" fill="white"/>
<path d="M8.11593 41.0267L5.3623 36.2427H41.9565L43.913 39.6495L42.2464 40.5918L40.8695 38.1273H8.62317L9.71013 40.0844L8.11593 41.0267Z" fill="white"/>
<path d="M3.01724 28.6408L1.39355 29.5967L9.33234 43.0897L10.956 42.1338L3.01724 28.6408Z" fill="white"/>
<path d="M47.1743 49.0002L43.9859 43.5638H10.6525L7.60905 49.0002L5.94238 48.1304L9.49311 41.6792H45.0728L48.8409 48.0579L47.1743 49.0002Z" fill="white"/>
</g>
<defs>
<clipPath id="clip0_351_12693">
<rect width="60" height="49" fill="white"/>
</clipPath>
</defs>
</svg>
