<svg width="56" height="42" viewBox="0 0 56 42" fill="none" xmlns="http://www.w3.org/2000/svg">
<g clip-path="url(#clip0_351_12442)">
<path d="M1.68147 41.2303L0 40.8268V36.0514H1.74873V37.5311L7.12944 28.1821L8.67639 29.0565L1.68147 41.2303Z" fill="white"/>
<path d="M53.74 41.2303L46.7451 29.0565L48.2921 28.1821L53.6728 37.5311V36.0514H55.4215V40.8268L53.74 41.2303Z" fill="white"/>
<path d="M48.4266 41.7007H32.6207V31.6118C32.6207 30.3339 32.0827 29.056 31.2083 28.1816C30.3339 27.3073 29.1233 26.7692 27.8454 26.7692C26.6347 26.7692 25.3568 27.24 24.4152 28.1816C23.4063 29.1905 22.8682 30.5357 22.8682 31.8809V41.7007H6.99512V28.3162L7.19689 28.0471L27.7108 2.21973L48.4266 28.3162V41.7007ZM34.3695 39.9519H46.6106V28.9215L27.7108 5.11186L8.81111 28.9215V39.8847H21.0522V31.8136C21.0522 29.9976 21.7921 28.1816 23.1372 26.8365C24.4152 25.5585 26.0966 24.886 27.8454 24.9532C29.5941 24.9532 31.2083 25.6931 32.419 26.9037C33.6969 28.1816 34.3695 29.8631 34.3695 31.6118V39.9519V39.9519Z" fill="white"/>
<path d="M18.4951 35.5801H7.86816V37.3288H18.4951V35.5801Z" fill="white"/>
<path d="M44.5918 35.5801H33.4941V37.3288H44.5918V35.5801Z" fill="white"/>
<path d="M25.9402 0.00356998L24.5693 1.08936L29.6224 7.46898L30.9932 6.3832L25.9402 0.00356998Z" fill="white"/>
<path d="M29.5319 0.0111773L25.8086 4.69824L27.1778 5.78595L30.9012 1.09889L29.5319 0.0111773Z" fill="white"/>
</g>
<defs>
<clipPath id="clip0_351_12442">
<rect width="55.4213" height="41.7005" fill="white"/>
</clipPath>
</defs>
</svg>
