<svg width="24" height="24" viewBox="0 0 24 24" fill="none" xmlns="http://www.w3.org/2000/svg">
<path d="M24 0H21H15H12.75H11.25H9H3H0V15H3V21C3 22.6575 4.3425 24 6 24C7.6575 24 9 22.6575 9 21V15H15V21C15 22.6575 16.3425 24 18 24C19.6575 24 21 22.6575 21 21V15H24V0ZM19.5 1.5V13.5H16.5V1.5H19.5ZM7.5 1.5V13.5H4.5V1.5H7.5ZM1.5 13.5V1.5H3V13.5H1.5ZM7.5 21C7.5 21.8288 6.82875 22.5 6 22.5C5.17125 22.5 4.5 21.8288 4.5 21V15H7.5V21ZM9 1.5H11.25V13.5H9V1.5ZM12.75 13.5V1.5H15V13.5H12.75ZM19.5 21C19.5 21.8288 18.8288 22.5 18 22.5C17.1712 22.5 16.5 21.8288 16.5 21V15H19.5V21ZM22.5 13.5H21V1.5H22.5V13.5Z" fill="white"/>
</svg>
