<svg width="22" height="22" viewBox="0 0 22 22" fill="none" xmlns="http://www.w3.org/2000/svg">
<path d="M4.22275 0C2.74018 0 1.39727 0.755608 0.623753 2.01973C-0.14976 3.28385 -0.207055 4.82372 0.469769 6.14156L3.50653 12.0611V14.7433L0.852948 17.3969L1.86639 18.4103L4.22632 16.0504L6.58625 18.4103L7.5997 17.3969L4.94612 14.7433V12.0611L7.98288 6.14156C8.65971 4.82372 8.6024 3.28385 7.82889 2.01973C7.05179 0.755608 5.70531 0 4.22275 0ZM6.70085 5.4898L4.22275 10.3207L1.74463 5.4898C1.297 4.6196 1.33639 3.60257 1.8449 2.76817C2.35342 1.93378 3.24153 1.43601 4.21916 1.43601C5.1968 1.43601 6.0849 1.93378 6.597 2.76817C7.10909 3.60257 7.14848 4.6196 6.70085 5.4898Z" fill="white"/>
<path d="M16.3981 13.3216L21.4116 3.29459H9.95215L14.9657 13.3216V19.7676H12.817V21.2H18.5467V19.7676H16.3981V13.3216ZM19.0946 4.72702L15.6819 11.5526L12.2691 4.72702H19.0946Z" fill="white"/>
</svg>
