<svg width="21" height="27" viewBox="0 0 21 27" fill="none" xmlns="http://www.w3.org/2000/svg">
<path d="M20.5312 1.6425V0H14.7825H12.5528H9.855V3.285H8.79559C3.94611 3.285 0 7.23111 0 12.0806C0 13.4398 0.320292 14.7989 0.928017 16.0144L3.285 20.7284V26.28H4.9275V22.995H6.57V26.28H18.0675V15.6037C18.0675 13.3166 16.7206 11.3415 14.7825 10.4176V4.9275H20.5312V3.285H14.7825V1.6425H20.5312ZM4.9275 21.3525V20.3383L2.39805 15.2794C1.9053 14.2897 1.6425 13.1852 1.6425 12.0806C1.6425 8.13859 4.84949 4.9275 8.79559 4.9275H9.855V10.4176C7.91685 11.3415 6.57 13.3166 6.57 15.6037V21.3525H4.9275ZM8.2125 24.6375V22.995H16.425V24.6375H8.2125ZM16.425 15.6037V21.3525H8.2125V15.6037C8.2125 13.3412 10.0562 11.4975 12.3188 11.4975C14.5813 11.4975 16.425 13.3412 16.425 15.6037ZM12.3188 9.855C12.0395 9.855 11.7685 9.88375 11.4975 9.9207V8.2125H13.14V9.9207C12.869 9.88375 12.598 9.855 12.3188 9.855ZM13.14 6.57H11.4975V1.6425H12.5528H13.14V6.57Z" fill="white"/>
</svg>
