<svg width="32" height="21" viewBox="0 0 32 21" fill="none" xmlns="http://www.w3.org/2000/svg">
<path d="M6 9C2.685 9 0 11.685 0 15C0 18.315 2.685 21 6 21C9.315 21 12 18.315 12 15C12 11.685 9.315 9 6 9ZM6 19C3.795 19 2 17.205 2 15C2 12.795 3.795 11 6 11C8.205 11 10 12.795 10 15C10 17.205 8.205 19 6 19Z" fill="white"/>
<path d="M26 9C22.685 9 20 11.685 20 15C20 18.315 22.685 21 26 21C29.315 21 32 18.315 32 15C32 11.685 29.315 9 26 9ZM26 19C23.795 19 22 17.205 22 15C22 12.795 23.795 11 26 11C28.205 11 30 12.795 30 15C30 17.205 28.205 19 26 19Z" fill="white"/>
<path d="M28 6V4H24H23.585H9V2H12V0H7V5.41499L16 14.415L24.415 6H28ZM10.415 6H21.585L16 11.585L10.415 6Z" fill="white"/>
</svg>
