<svg width="24" height="25" viewBox="0 0 24 25" fill="none" xmlns="http://www.w3.org/2000/svg">
<path d="M18 6.16124V9.67499C18 11.265 18.6338 12.7912 19.7588 13.9162L21 15.1575V24.0525H24V0.161255C20.625 0.161255 18 2.84624 18 6.16124ZM22.5 14.5388L21.9788 14.1L20.775 12.8588C19.9237 12.0075 19.4963 10.8787 19.4963 9.67499V6.16124C19.4963 4.20374 20.6213 2.53876 22.4963 1.92001V14.5388H22.5Z" fill="white"/>
<path d="M12 7.56001C11.3813 7.56001 10.875 7.05376 10.875 6.43501V2.86876C10.875 1.40251 9.7725 0.150011 8.3475 0.011261C8.2575 0.00376099 8.16 0 8.07 0C6.5175 0 5.25 1.26 5.25 2.8125V6.43501C5.25 7.05376 4.74375 7.56001 4.125 7.56001C1.84875 7.56001 0 9.40876 0 11.685V19.875C0 22.1513 1.87875 24.0525 4.15125 24.0525H12.0263C14.3025 24.0525 16.125 22.1475 16.125 19.875V11.685C16.125 9.40876 14.2762 7.56001 12 7.56001ZM14.625 19.875C14.625 21.3263 13.4775 22.5525 12.0263 22.5525H4.15125C2.7 22.5525 1.5 21.3225 1.5 19.875V11.685C1.5 10.2338 2.67375 9.06001 4.125 9.06001C5.57625 9.06001 6.75 7.88626 6.75 6.43501V2.8125C6.75 2.08875 7.35 1.5 8.0775 1.5C8.11875 1.5 8.15625 1.50376 8.20125 1.50751C8.88375 1.57126 9.37875 2.18626 9.37875 2.86876V6.43501C9.37875 7.88626 10.5525 9.06001 12.0037 9.06001C13.455 9.06001 14.6287 10.2338 14.6287 11.685V19.875H14.625Z" fill="white"/>
</svg>
