<svg width="24" height="27" viewBox="0 0 24 27" fill="none" xmlns="http://www.w3.org/2000/svg">
<path d="M20.9652 9.81438C19.9082 9.81438 18.9429 9.27714 18.3838 8.37738C17.8291 7.47762 17.7767 6.37258 18.2528 5.42477L20.9652 0L23.6776 5.42477C24.1493 6.37258 24.1012 7.47325 23.5465 8.37738C22.9918 9.27714 22.0266 9.81438 20.9652 9.81438ZM20.9652 3.90479L19.8165 6.2066C19.6112 6.61281 19.633 7.07142 19.8732 7.45578C20.1135 7.84451 20.5109 8.06727 20.9652 8.06727C21.4194 8.06727 21.8213 7.84451 22.0571 7.45578C22.2974 7.06705 22.3192 6.61281 22.1139 6.2066L20.9652 3.90479Z" fill="white"/>
<path d="M12.2298 7.1937V24.6648H1.74711V7.1937H12.2298ZM13.9769 5.44659H0V26.4119H13.9769V5.44659Z" fill="white"/>
<path d="M21.8389 12.435H20.0918V26.4119H21.8389V12.435Z" fill="white"/>
</svg>
