<svg width="29" height="29" viewBox="0 0 29 29" fill="none" xmlns="http://www.w3.org/2000/svg">
<path d="M20.8438 3.625C18.347 3.625 16.3125 5.65953 16.3125 8.15625C16.3125 10.653 18.347 12.6875 20.8438 12.6875C23.3405 12.6875 25.375 10.653 25.375 8.15625C25.375 5.65953 23.3405 3.625 20.8438 3.625ZM20.8438 10.875C19.3439 10.875 18.125 9.65609 18.125 8.15625C18.125 6.65641 19.3439 5.4375 20.8438 5.4375C22.3436 5.4375 23.5625 6.65641 23.5625 8.15625C23.5625 9.65609 22.3436 10.875 20.8438 10.875Z" fill="white"/>
<path d="M21.75 0.0543728V0H8.15625C3.66125 0 0 3.65672 0 8.15625C0 12.1755 2.92264 15.515 6.75608 16.1811L5.49641 18.7005C4.25938 21.1745 4.25938 24.1334 5.49641 26.612L6.69267 29H6.8739H8.71812H19.3802H20.0916H21.4056L19.8061 25.8009C18.8228 23.8344 18.8228 21.4827 19.8061 19.5116L21.4056 16.3125H21.75V16.2581C25.8236 15.805 29 12.3477 29 8.15625C29 3.96484 25.8236 0.507498 21.75 0.0543728ZM1.8125 8.15625C1.8125 4.65812 4.65812 1.8125 8.15625 1.8125H15.728C13.8747 3.30781 12.6875 5.59609 12.6875 8.15625C12.6875 10.7164 13.8747 13.0047 15.728 14.5H8.15625C4.65812 14.5 1.8125 11.6544 1.8125 8.15625ZM18.1839 18.7005C16.9469 21.1745 16.9469 24.1334 18.1839 26.612L18.4739 27.1875H7.81187L7.1186 25.8009C6.13532 23.8344 6.13532 21.4827 7.1186 19.5116L8.71812 16.3125H19.3802L18.1839 18.7005ZM20.8438 14.5C17.3456 14.5 14.5 11.6544 14.5 8.15625C14.5 4.65812 17.3456 1.8125 20.8438 1.8125C24.3419 1.8125 27.1875 4.65812 27.1875 8.15625C27.1875 11.6544 24.3419 14.5 20.8438 14.5Z" fill="white"/>
</svg>
