<svg width="25" height="21" viewBox="0 0 25 21" fill="none" xmlns="http://www.w3.org/2000/svg">
<path d="M25 0H0V17.1875H3.125V20.3125H10.9375V17.1875H14.0625V20.3125H21.875V17.1875H25V0ZM9.375 18.75H4.6875V17.1875H9.375V18.75ZM20.3125 18.75H15.625V17.1875H20.3125V18.75ZM23.4375 15.625H21.875H14.0625H10.9375H3.125H1.5625V1.5625H23.4375V15.625Z" fill="white"/>
<path d="M8.20312 14.0625C11.2188 14.0625 13.6719 11.6094 13.6719 8.59375C13.6719 5.57812 11.2188 3.125 8.20312 3.125C5.1875 3.125 2.73438 5.57812 2.73438 8.59375C2.73438 11.6094 5.1875 14.0625 8.20312 14.0625ZM8.20312 4.6875C10.3555 4.6875 12.1094 6.44141 12.1094 8.59375C12.1094 10.7461 10.3555 12.5 8.20312 12.5C6.05078 12.5 4.29688 10.7461 4.29688 8.59375C4.29688 6.44141 6.05078 4.6875 8.20312 4.6875Z" fill="white"/>
<path d="M18.3594 14.0625C20.5117 14.0625 22.2656 12.3086 22.2656 10.1562C22.2656 8.00391 20.5117 6.25 18.3594 6.25C16.207 6.25 14.4531 8.00391 14.4531 10.1562C14.4531 12.3086 16.207 14.0625 18.3594 14.0625ZM18.3594 7.8125C19.6523 7.8125 20.7031 8.86328 20.7031 10.1562C20.7031 11.4492 19.6523 12.5 18.3594 12.5C17.0664 12.5 16.0156 11.4492 16.0156 10.1562C16.0156 8.86328 17.0664 7.8125 18.3594 7.8125Z" fill="white"/>
</svg>
