<svg width="20" height="24" viewBox="0 0 20 24" fill="none" xmlns="http://www.w3.org/2000/svg">
<path d="M9.7275 7.875C6.01875 7.875 3 10.8938 3 14.6025C3 18.3113 6.01875 21.33 9.7275 21.33C13.4363 21.33 16.455 18.3113 16.455 14.6025C16.4513 10.8938 13.4363 7.875 9.7275 7.875ZM9.7275 19.8262C6.8475 19.8262 4.5 17.4825 4.5 14.5987C4.5 11.715 6.84375 9.375 9.7275 9.375C12.6113 9.375 14.955 11.7188 14.955 14.6025C14.955 17.4863 12.6075 19.8262 9.7275 19.8262Z" fill="white"/>
<path d="M0 0V24H19.5V0H0ZM18 1.5V5.25H1.5V1.5H18ZM1.5 22.5V6.75H18V22.5H1.5Z" fill="white"/>
</svg>
