<svg width="22" height="25" viewBox="0 0 22 25" fill="none" xmlns="http://www.w3.org/2000/svg">
<path d="M6.25 0C2.79688 0 0 2.79688 0 6.25V25H12.5V6.25C12.5 2.79688 9.70312 0 6.25 0ZM1.5625 10.1562H10.9375V21.0938H1.5625V10.1562ZM1.5625 23.4375V22.6562H10.9375V23.4375H1.5625ZM10.9375 8.59375H1.5625V6.25C1.5625 3.66406 3.66406 1.5625 6.25 1.5625C8.83594 1.5625 10.9375 3.66406 10.9375 6.25V8.59375Z" fill="white"/>
<path d="M15.625 18.75V21.875C15.625 23.6016 17.0234 25 18.75 25C20.4766 25 21.875 23.6016 21.875 21.875V18.75H15.625ZM20.3125 21.875C20.3125 22.7383 19.6133 23.4375 18.75 23.4375C17.8867 23.4375 17.1875 22.7383 17.1875 21.875V20.3125H20.3125V21.875Z" fill="white"/>
<path d="M18.9648 13.4805C19.3398 13.668 19.5898 14.0078 19.6563 14.4219C19.7227 14.8359 19.5937 15.2383 19.2969 15.5352L18.1953 16.6367L19.3008 17.7422L20.4023 16.6406C21.0586 15.9883 21.3477 15.0859 21.1992 14.1758C21.0508 13.2617 20.4922 12.5 19.6641 12.0859C19.2187 11.8633 18.957 11.4336 18.957 10.9375C18.957 10.4414 19.2227 10.0117 19.6641 9.79297L18.9648 8.39453C17.9961 8.87891 17.3945 9.85547 17.3945 10.9375C17.3945 12.0234 17.9961 12.9961 18.9648 13.4805Z" fill="white"/>
</svg>
