<svg width="29" height="29" viewBox="0 0 29 29" fill="none" xmlns="http://www.w3.org/2000/svg">
<path d="M24.4362 9.90536H20.0635V0H10.9375V19.0314H24.4362C26.951 19.0314 28.9992 16.9832 28.9992 14.4684C28.9992 11.9535 26.951 9.90536 24.4362 9.90536ZM18.251 7.25004H12.75V5.43753H18.251V7.25004ZM18.251 1.81251V3.62502H12.75V1.81251H18.251ZM12.75 13.0637L16.9052 17.2188H12.75V13.0637ZM24.4362 17.2188H19.3385L19.4065 17.1509L12.7545 10.499V9.06255H18.2555V11.7179H24.4407C25.9587 11.7179 27.1912 12.9504 27.1912 14.4684C27.1867 15.9863 25.9541 17.2188 24.4362 17.2188Z" fill="white"/>
<path d="M13.5938 19.8742H9.126V9.96881H0V29.0002H13.5938C16.1087 29.0002 18.1568 26.952 18.1568 24.4372C18.1568 21.9223 16.1087 19.8742 13.5938 19.8742ZM7.31349 17.2189H1.81251V15.4063H7.31349V17.2189ZM7.31349 11.7813V13.5938H1.81251V11.7813H7.31349ZM1.81251 22.969L6.03113 27.1877H1.81251V22.969ZM13.5938 27.1877H8.59582L1.81251 20.4044V19.0314H7.31349V21.6867H13.5938C15.1118 21.6867 16.3443 22.9192 16.3443 24.4372C16.3443 25.9551 15.1118 27.1877 13.5938 27.1877Z" fill="white"/>
</svg>
