<svg width="24" height="24" viewBox="0 0 24 24" fill="none" xmlns="http://www.w3.org/2000/svg">
<path d="M20.25 0H3.75C1.68375 0 0 1.68375 0 3.75V24H18V21H24V3.75C24 1.68375 22.3162 0 20.25 0ZM16.5 3.75V22.5H1.5V3.75C1.5 2.50875 2.50875 1.5 3.75 1.5H17.25C16.7812 2.12625 16.5 2.90625 16.5 3.75ZM22.5 19.5H18V3.75C18 2.50875 19.0088 1.5 20.25 1.5C21.4912 1.5 22.5 2.50875 22.5 3.75V19.5Z" fill="white"/>
<path d="M3.75 5.625V7.125C5.59125 7.125 7.2075 8.0775 8.145 9.51375C7.73625 10.3837 7.5 11.3513 7.5 12.375C7.5 13.3987 7.73625 14.3663 8.145 15.2363C7.2075 16.6725 5.59125 17.625 3.75 17.625V19.125C5.86875 19.125 7.75875 18.1388 8.99625 16.605C10.2337 18.1388 12.1275 19.125 14.25 19.125V17.625C11.355 17.625 9 15.27 9 12.375C9 9.48 11.355 7.125 14.25 7.125V5.625C12.1275 5.625 10.2337 6.61125 8.99625 8.145C7.75875 6.61125 5.86875 5.625 3.75 5.625Z" fill="white"/>
</svg>
