<svg width="30" height="25" viewBox="0 0 30 25" fill="none" xmlns="http://www.w3.org/2000/svg">
<path d="M30 3.75H26.25V0H18.2812V3.75H0V20.625H8.45625C9.97032 22.8844 12.5484 24.375 15.4688 24.375C18.3891 24.375 20.9625 22.8844 22.4812 20.625H30V3.75ZM20.1562 1.875H24.375V3.75H20.1562V1.875ZM15.4688 22.5C11.85 22.5 8.90625 19.5562 8.90625 15.9375C8.90625 12.3187 11.85 9.375 15.4688 9.375C19.0875 9.375 22.0312 12.3187 22.0312 15.9375C22.0312 19.5562 19.0875 22.5 15.4688 22.5ZM28.125 18.75H23.4141C23.7281 17.8687 23.9062 16.9266 23.9062 15.9375C23.9062 11.2875 20.1187 7.5 15.4688 7.5C10.8188 7.5 7.03125 11.2875 7.03125 15.9375C7.03125 16.9266 7.20937 17.8687 7.52343 18.75H1.875V5.625H28.125V18.75Z" fill="white"/>
</svg>
