<svg width="26" height="26" viewBox="0 0 26 26" fill="none" xmlns="http://www.w3.org/2000/svg">
<path d="M26 13.8125V13C26 5.83375 20.1703 0 13 0C5.82969 0 0 5.83375 0 13V13.8125H12.1875V22.1406C12.1875 24.2694 13.9181 26 16.0469 26C18.1756 26 19.9062 24.2694 19.9062 22.1406V19.0938H18.2812V22.1406C18.2812 23.3716 17.2778 24.375 16.0469 24.375C14.8159 24.375 13.8125 23.3716 13.8125 22.1406V13.8125H26ZM12.9431 1.625C18.9434 1.625 23.8713 6.09375 24.2897 12.1875H1.59656C2.015 6.09375 6.94281 1.625 12.9431 1.625Z" fill="white"/>
</svg>
