<svg width="28" height="28" viewBox="0 0 28 28" fill="none" xmlns="http://www.w3.org/2000/svg">
<path d="M8.63157 5.63426C9.04298 5.84213 9.32448 6.2189 9.3981 6.67796C9.47172 7.13701 9.32881 7.58307 8.99968 7.9122L7.77842 9.13346L9.00401 10.3591L10.2253 9.1378C10.9528 8.41457 11.2733 7.41417 11.1087 6.40079C10.9442 5.3874 10.3249 4.54291 9.40677 4.08819C8.91306 3.84134 8.62291 3.36496 8.62291 2.8193C8.62291 2.27363 8.9174 1.79291 9.40677 1.55039L8.63157 0C7.55755 0.537008 6.89062 1.61969 6.89062 2.8193C6.89062 4.0189 7.55755 5.09725 8.63157 5.63426Z" fill="white"/>
<path d="M27.7165 15.374H14.5772L18.0417 11.9095H0L4.56456 16.474L0.887797 27.5H17.1496L13.685 17.1063H27.7165V15.374ZM3.29134 25.7677L6.5437 16.0063L4.17913 13.6417H13.8583L11.4937 16.0063L14.7461 25.7677H3.29134Z" fill="white"/>
</svg>
