<svg width="26" height="26" viewBox="0 0 26 26" fill="none" xmlns="http://www.w3.org/2000/svg">
<path d="M25.797 6.78382L18.9447 0L12.0924 6.78382V10.8307L6.85234 5.6431L0 12.4269V18.8077L6.85234 25.66L13.7047 18.8077V14.7769L18.9447 20.0169L25.797 13.1646V6.78382ZM18.9447 2.28143L23.5156 6.78382L18.9447 11.2862L14.3738 6.78382L18.9447 2.28143ZM6.85234 7.92453L11.4233 12.4269L6.85234 16.9293L2.28143 12.4269L6.85234 7.92453ZM1.61232 14.0231L6.04618 18.4126V22.5724L1.61232 18.1385V14.0231ZM7.6585 22.5724V18.4126L12.0924 14.0231V18.1385L7.6585 22.5724ZM13.7047 12.4269V8.38001L18.1385 12.7695V16.9293L13.7047 12.4954V12.4269ZM24.1847 12.4954L19.7509 16.9293V12.7695L24.1847 8.38001V12.4954Z" fill="white"/>
</svg>
