<svg width="23" height="22" viewBox="0 0 23 22" fill="none" xmlns="http://www.w3.org/2000/svg">
<path d="M16.5344 6.42812L13.7466 5.5L16.4966 0H5.49656L8.24656 5.5L5.46219 6.42812C2.20001 7.51437 0 10.5703 0 14.0078C0 18.4216 3.57844 22 7.99219 22H14.0113C18.425 22 22.0034 18.4216 22.0034 14.0078C21.9966 10.5703 19.7966 7.51781 16.5344 6.42812ZM14.0044 20.625H7.98531C4.33812 20.625 1.36812 17.6584 1.36812 14.0078C1.36812 11.1547 3.18657 8.635 5.89188 7.73094L8.67625 6.80281L10.1784 6.30094L9.47031 4.88469L7.71719 1.375H14.2691L12.5125 4.88469L11.8044 6.30437L13.31 6.80625L16.0978 7.73438C18.8031 8.635 20.6216 11.1581 20.6216 14.0112C20.6216 17.6584 17.655 20.625 14.0044 20.625Z" fill="white"/>
</svg>
