<svg width="14" height="28" viewBox="0 0 14 28" fill="none" xmlns="http://www.w3.org/2000/svg">
<path d="M7.875 16.0168V13.3306H10.5V11.5806H3.5V13.3306H6.125V16.0168C2.67313 16.45 0 19.3856 0 22.9556V28H14V22.9556C14 19.3856 11.3269 16.45 7.875 16.0168ZM12.25 26.25H1.75V22.9556C1.75 20.0593 4.10375 17.7056 7 17.7056C9.89625 17.7056 12.25 20.0593 12.25 22.9556V26.25Z" fill="white"/>
<path d="M6.99969 9.83062C8.05844 9.83062 9.02532 9.2925 9.58532 8.39125C10.1453 7.49 10.1934 6.38313 9.71656 5.43375L6.99969 0L4.28282 5.43375C3.81032 6.38313 3.85844 7.48563 4.41406 8.39125C4.97406 9.2925 5.94094 9.83062 6.99969 9.83062ZM5.84906 6.21688L6.99969 3.91125L8.15032 6.21688C8.35594 6.62375 8.33406 7.08312 8.09344 7.46812C7.85281 7.8575 7.45469 8.08062 6.99969 8.08062C6.54469 8.08062 6.14219 7.8575 5.90594 7.46812C5.66531 7.08312 5.64344 6.62375 5.84906 6.21688Z" fill="white"/>
</svg>
