<svg width="30" height="21" viewBox="0 0 30 21" fill="none" xmlns="http://www.w3.org/2000/svg">
<path d="M26.25 3.75V0H11.25V3.75H8.4375C3.78281 3.75 0 7.5375 0 12.1875C0 16.8375 3.78281 20.625 8.4375 20.625H30V3.75H26.25ZM13.125 1.875H24.375V3.75H13.125V1.875ZM8.4375 18.75C4.81875 18.75 1.875 15.8062 1.875 12.1875C1.875 8.56875 4.81875 5.625 8.4375 5.625C12.0562 5.625 15 8.56875 15 12.1875C15 15.8062 12.0562 18.75 8.4375 18.75ZM28.125 18.75H13.7297C15.6469 17.2031 16.875 14.8359 16.875 12.1875C16.875 9.53906 15.6469 7.17188 13.7297 5.625H28.125V18.75Z" fill="white"/>
<path d="M26.25 11.25H18.75V16.875H26.25V11.25ZM24.375 15H20.625V13.125H24.375V15Z" fill="white"/>
<path d="M26.25 7.5H18.75V9.375H26.25V7.5Z" fill="white"/>
</svg>
