<svg width="31" height="31" viewBox="0 0 31 31" fill="none" xmlns="http://www.w3.org/2000/svg">
<path d="M30.0583 16.3583C30.0583 13.7705 27.9495 11.6617 25.3617 11.6617H14.4797L16.6354 9.50594C17.8143 8.32709 18.4671 6.75372 18.4671 5.08643C18.4671 3.41443 17.8143 1.84577 16.6354 0.666918L15.9685 0L4.28801 11.6805C1.88804 11.8918 0 13.9067 0 16.3583C0 18.9461 2.10878 21.0549 4.69661 21.0549H23.0933L19.7352 24.413C17.2882 22.6142 13.8221 22.8115 11.61 25.0236L7.85274 28.7808L9.18188 30.11L12.9392 26.3527C14.4186 24.8733 16.6965 24.676 18.3872 25.7609L15.3673 28.7808L16.6965 30.11L21.116 25.6905L25.7703 21.0361C28.1703 20.8248 30.0583 18.8099 30.0583 16.3583ZM15.898 2.72873C16.3442 3.42383 16.5884 4.23634 16.5884 5.08643C16.5884 6.25588 16.1329 7.3549 15.3063 8.18151L11.8261 11.6617H6.96508L15.898 2.72873ZM1.87865 16.3583C1.87865 14.8037 3.14203 13.5403 4.69661 13.5403H12.601H25.3617C26.9163 13.5403 28.1797 14.8037 28.1797 16.3583C28.1797 17.9129 26.9163 19.1763 25.3617 19.1763H4.69661C3.14203 19.1763 1.87865 17.9129 1.87865 16.3583Z" fill="white"/>
</svg>
