<svg width="30" height="30" viewBox="0 0 30 30" fill="none" xmlns="http://www.w3.org/2000/svg">
<path d="M26.25 13.125V0H20.625V3.75H18.75V0H11.25V3.75H9.375V0H3.75V13.125H0V21.5625C0 24.1453 2.10469 26.25 4.6875 26.25H7.59376C8.02969 28.3875 9.92344 30 12.1875 30H17.8125C20.0766 30 21.9703 28.3875 22.4062 26.25H25.3125C27.8953 26.25 30 24.1453 30 21.5625V13.125H26.25ZM22.5 1.875H24.375V13.125H22.5V8.4375V4.6875V3.75V1.875ZM20.625 8.4375V14.0625C20.625 15.6141 19.3641 16.875 17.8125 16.875H12.1875C10.6359 16.875 9.375 15.6141 9.375 14.0625V8.4375V5.625H20.625V8.4375ZM13.125 1.875H16.875V3.75H13.125V1.875ZM5.625 1.875H7.5V3.75V4.6875V8.4375V13.125H5.625V1.875ZM1.875 21.5625V15H7.5V24.375H4.6875C3.13594 24.375 1.875 23.1141 1.875 21.5625ZM17.8125 28.125H12.1875C10.6359 28.125 9.375 26.8641 9.375 25.3125V17.8031C10.1578 18.3937 11.1328 18.75 12.1875 18.75H17.8125C18.8672 18.75 19.8422 18.3937 20.625 17.8031V25.3125C20.625 26.8641 19.3641 28.125 17.8125 28.125ZM28.125 21.5625C28.125 23.1141 26.8641 24.375 25.3125 24.375H22.5V15H28.125V21.5625Z" fill="white"/>
<path d="M17.8125 20.625H12.1875V22.5H17.8125V20.625Z" fill="white"/>
<path d="M18.75 9.375H11.25V15H18.75V9.375ZM16.875 13.125H13.125V11.25H16.875V13.125Z" fill="white"/>
</svg>
