<svg width="29" height="28" viewBox="0 0 29 28" fill="none" xmlns="http://www.w3.org/2000/svg">
<path d="M13.7679 7.6206L6.33313 0.18587L0 6.519V27.2184L6.33313 20.8853L13.4052 27.9573L29 20.1599V0L13.7679 7.6206ZM7.2398 3.65844L12.6799 9.09849V24.6661L7.2398 19.226V3.65844ZM1.81335 7.27154L5.42645 3.65844V19.226L1.81335 22.8391V7.27154ZM27.1866 19.0447L14.4932 25.3914V9.28436L27.1866 2.93763V19.0447Z" fill="white"/>
<path d="M16.4609 19.0992L17.966 20.1056L21.1484 15.3319L24.0634 16.7871L24.8703 15.1642L22.1639 13.8132L25.2194 9.22546L23.7143 8.21906L20.5319 12.9927L17.6169 11.5375L16.81 13.1604L19.5164 14.5159L16.4609 19.0992Z" fill="white"/>
</svg>
