<svg width="23" height="19" viewBox="0 0 23 19" fill="none" xmlns="http://www.w3.org/2000/svg">
<path d="M16.7002 0H6.29984L0 3.14813V10.5045L5.75 7.62954V18.6875H17.25V7.63312L23 10.5081V3.15171L16.7002 0ZM9.34375 1.4375H13.6562V3.59375C13.6562 4.78328 12.6895 5.75 11.5 5.75C10.3105 5.75 9.34375 4.78328 9.34375 3.59375V1.4375ZM21.5625 8.17938L15.8125 5.30438V17.25H7.1875V5.30438L1.4375 8.17938V4.03579L6.63766 1.4339H7.90625V3.59015C7.90625 5.57031 9.51984 7.1839 11.5 7.1839C13.4802 7.1839 15.0938 5.57031 15.0938 3.59015V1.4339H16.3623L21.5625 4.03579V8.17938Z" fill="white"/>
</svg>
