<svg width="116" height="82" viewBox="0 0 116 82" fill="none" xmlns="http://www.w3.org/2000/svg">
<g clip-path="url(#clip0_215_7173)">
<path d="M22.5625 2.79735C22.5625 2.79735 37.398 -0.647151 41.6023 0.104377C45.8065 0.855905 35.689 17.2956 32.0824 20.1242C28.4757 22.9529 22.5625 2.79735 22.5625 2.79735Z" fill="#7D2F65"/>
<path d="M21.4404 15.0306C21.4404 15.0306 36.2759 11.586 40.4802 12.3376C44.6845 13.0891 34.567 29.5288 30.9603 32.3574C27.3537 35.1861 21.4404 15.0306 21.4404 15.0306Z" fill="#7D2F65"/>
<path d="M114.753 76.6349L36.5177 19.9781C36.0669 19.6545 35.5531 16.0013 35.0184 13.2561C34.9974 13.1309 34.9765 13.0056 34.945 12.8803C34.641 11.346 33.9909 9.54022 33.6869 9.55066C32.24 6.5028 29.9439 4.78055 26.7147 3.66369C25.9808 3.34012 25.0687 3.11049 23.9049 3.02698C23.8734 3.02698 23.8525 3.01655 23.821 3.01655C23.8105 3.01655 23.7896 3.01655 23.7791 3.01655C23.7267 3.01655 23.6637 3.01655 23.6113 3.00611C23.2653 2.97479 22.9193 2.95392 22.5629 2.95392C22.3742 2.95392 22.1854 2.97479 21.9967 2.98523C12.2986 3.21487 6.84668 10.1874 6.84668 10.1874C6.84668 10.1874 8.29353 12.348 9.92911 14.78C9.90814 15.0514 9.88717 15.3124 9.88717 15.5838C9.88717 18.3707 10.7993 20.9384 12.3405 23.026C6.85716 99.0138 81.2444 71.082 82.2928 71.082C82.8799 71.082 98.3445 76.7497 111.995 81.7913C115.235 82.9812 117.552 78.639 114.753 76.6349Z" fill="url(#paint0_linear_215_7173)"/>
<path d="M18.2217 13.1622C19.5593 13.1622 20.6436 12.0827 20.6436 10.751C20.6436 9.41938 19.5593 8.33987 18.2217 8.33987C16.8841 8.33987 15.7998 9.41938 15.7998 10.751C15.7998 12.0827 16.8841 13.1622 18.2217 13.1622Z" fill="white"/>
<path d="M12.2354 10.9389C12.2354 10.9389 0.178236 6.90988 0 17.5983V22.0657C2.13883 22.0657 4.28814 20.8131 6.42697 20.8131C8.36659 20.8131 10.2957 22.0657 12.2354 22.0657V10.9389Z" fill="url(#paint1_linear_215_7173)"/>
<path d="M36.3804 19.9259C36.3804 19.9259 23.4321 33.9753 35.7199 54.8824C48.0077 75.7895 84.3678 54.6736 84.3678 54.6736L36.3804 19.9259Z" fill="url(#paint2_linear_215_7173)"/>
<rect x="86.6553" y="13" width="6.46795" height="6.46795" rx="2" transform="rotate(24.2402 86.6553 13)" fill="#F6A71D"/>
</g>
<defs>
<linearGradient id="paint0_linear_215_7173" x1="13.4516" y1="25.3664" x2="99.513" y2="92.2203" gradientUnits="userSpaceOnUse">
<stop stop-color="#E9457E"/>
<stop offset="0.4218" stop-color="#E71D73"/>
<stop offset="0.8525" stop-color="#7D2F65"/>
</linearGradient>
<linearGradient id="paint1_linear_215_7173" x1="5.59733" y1="9.94239" x2="6.5532" y2="22.0883" gradientUnits="userSpaceOnUse">
<stop stop-color="#FDC800"/>
<stop offset="0.6685" stop-color="#F18F34"/>
</linearGradient>
<linearGradient id="paint2_linear_215_7173" x1="30.4239" y1="42.0183" x2="84.3591" y2="42.0183" gradientUnits="userSpaceOnUse">
<stop stop-color="#EC608A"/>
<stop offset="0.4218" stop-color="#EC638B"/>
<stop offset="0.8525" stop-color="#E8407B"/>
</linearGradient>
<clipPath id="clip0_215_7173">
<rect width="116" height="82" fill="white"/>
</clipPath>
</defs>
</svg>
