<svg width="91" height="90" viewBox="0 0 91 90" fill="none" xmlns="http://www.w3.org/2000/svg">
<g filter="url(#filter0_d_221_25147)">
<g clip-path="url(#clip0_221_25147)">
<rect x="4" width="83" height="81.6929" rx="40.8465" fill="#2C2A71"/>
<g clip-path="url(#clip1_221_25147)">
<path d="M42.6826 21.3744C42.6826 21.3744 59.7617 17.409 64.6017 18.2741C69.4418 19.1393 57.7943 38.0651 53.6422 41.3216C49.4901 44.578 42.6826 21.3744 42.6826 21.3744Z" fill="#7D2F65"/>
<path d="M41.3906 35.4576C41.3906 35.4576 58.4697 31.4922 63.3097 32.3574C68.1498 33.2225 56.5023 52.1483 52.3502 55.4048C48.1981 58.6612 41.3906 35.4576 41.3906 35.4576Z" fill="#7D2F65"/>
<path d="M148.814 106.378L58.7479 41.1533C58.2289 40.7808 57.6375 36.5751 57.0219 33.4148C56.9978 33.2706 56.9737 33.1264 56.9374 32.9822C56.5874 31.2158 55.8391 29.1369 55.489 29.149C53.8234 25.6402 51.1801 23.6575 47.4625 22.3717C46.6176 21.9992 45.5675 21.7349 44.2277 21.6387C44.1915 21.6387 44.1674 21.6267 44.1312 21.6267C44.1191 21.6267 44.095 21.6267 44.0829 21.6267C44.0225 21.6267 43.9501 21.6267 43.8898 21.6147C43.4915 21.5786 43.0932 21.5546 42.6828 21.5546C42.4655 21.5546 42.2483 21.5786 42.031 21.5907C30.8662 21.855 24.5898 29.882 24.5898 29.882C24.5898 29.882 26.2555 32.3694 28.1384 35.1692C28.1143 35.4816 28.0901 35.782 28.0901 36.0944C28.0901 39.3028 29.1402 42.2588 30.9145 44.6621C24.6019 132.141 110.239 99.9855 111.446 99.9855C112.121 99.9855 129.925 106.51 145.64 112.314C149.369 113.684 152.037 108.685 148.814 106.378Z" fill="url(#paint0_linear_221_25147)"/>
<path d="M37.6856 33.3066C39.2255 33.3066 40.4738 32.0638 40.4738 30.5308C40.4738 28.9978 39.2255 27.755 37.6856 27.755C36.1458 27.755 34.8975 28.9978 34.8975 30.5308C34.8975 32.0638 36.1458 33.3066 37.6856 33.3066Z" fill="white"/>
<path d="M29.9002 37.3485C29.9002 37.3485 22.7051 40.1805 18.457 45.2229C20.5408 44.5552 22.4173 42.9089 24.5355 42.4139C26.6192 41.9304 28.9793 42.7823 31.063 42.2988L29.9002 37.3485Z" fill="url(#paint1_linear_221_25147)"/>
<path d="M30.1428 37.4753V30.4873C30.1428 30.4873 16.9037 26.0436 16.708 37.8321V42.7594C16.731 42.7594 16.7656 42.7594 16.7886 42.7594C18.3082 41.4585 21.9346 39.2712 30.1428 37.4753Z" fill="url(#paint2_linear_221_25147)"/>
<path d="M58.5897 41.0932C58.5897 41.0932 43.6832 57.2673 57.8293 81.3361C71.9753 105.405 113.834 81.0958 113.834 81.0958L58.5897 41.0932Z" fill="url(#paint3_linear_221_25147)"/>
</g>
</g>
</g>
<defs>
<filter id="filter0_d_221_25147" x="0" y="0" width="91" height="89.6929" filterUnits="userSpaceOnUse" color-interpolation-filters="sRGB">
<feFlood flood-opacity="0" result="BackgroundImageFix"/>
<feColorMatrix in="SourceAlpha" type="matrix" values="0 0 0 0 0 0 0 0 0 0 0 0 0 0 0 0 0 0 127 0" result="hardAlpha"/>
<feOffset dy="4"/>
<feGaussianBlur stdDeviation="2"/>
<feComposite in2="hardAlpha" operator="out"/>
<feColorMatrix type="matrix" values="0 0 0 0 0 0 0 0 0 0 0 0 0 0 0 0 0 0 0.25 0"/>
<feBlend mode="normal" in2="BackgroundImageFix" result="effect1_dropShadow_221_25147"/>
<feBlend mode="normal" in="SourceGraphic" in2="effect1_dropShadow_221_25147" result="shape"/>
</filter>
<linearGradient id="paint0_linear_221_25147" x1="32.1936" y1="47.3564" x2="131.27" y2="124.321" gradientUnits="userSpaceOnUse">
<stop stop-color="#E9457E"/>
<stop offset="0.4218" stop-color="#E71D73"/>
<stop offset="0.8525" stop-color="#7D2F65"/>
</linearGradient>
<linearGradient id="paint1_linear_221_25147" x1="23.5227" y1="39.2365" x2="25.0595" y2="44.0352" gradientUnits="userSpaceOnUse">
<stop stop-color="#FDC800"/>
<stop offset="0.6685" stop-color="#F18F34"/>
</linearGradient>
<linearGradient id="paint2_linear_221_25147" x1="22.8566" y1="29.4119" x2="23.8325" y2="41.7588" gradientUnits="userSpaceOnUse">
<stop stop-color="#FDC800"/>
<stop offset="0.6685" stop-color="#F18F34"/>
</linearGradient>
<linearGradient id="paint3_linear_221_25147" x1="51.7323" y1="66.5266" x2="113.824" y2="66.5266" gradientUnits="userSpaceOnUse">
<stop stop-color="#EC608A"/>
<stop offset="0.4218" stop-color="#EC638B"/>
<stop offset="0.8525" stop-color="#E8407B"/>
</linearGradient>
<clipPath id="clip0_221_25147">
<rect x="4" width="83" height="81.6929" rx="40.8465" fill="white"/>
</clipPath>
<clipPath id="clip1_221_25147">
<rect width="133.542" height="94.4007" fill="white" transform="translate(16.708 18.154)"/>
</clipPath>
</defs>
</svg>
