<svg width="185" height="47" viewBox="0 0 185 47" fill="none" xmlns="http://www.w3.org/2000/svg">
<path d="M99.2233 21.0497C98.9465 19.916 98.5115 18.8284 97.9117 17.7804C96.7912 15.8294 95.2291 14.2871 93.2319 13.1534C91.2348 12.0197 89.0926 11.4463 86.8253 11.4463C83.6812 11.4463 80.8998 12.5404 78.4808 14.7221C76.5298 16.4951 75.284 18.5911 74.7106 20.9903C74.4997 20.7531 74.2756 20.5092 74.0317 20.2653C73.5308 19.7512 72.0939 18.4989 69.7276 16.5215C67.1966 14.3793 65.6872 12.9886 65.1797 12.3361C64.8106 11.8483 64.626 11.3342 64.626 10.7871C64.626 10.2401 64.8831 9.75231 65.4038 9.31729C65.9113 8.88886 66.577 8.67135 67.3878 8.67135C69.0553 8.67135 70.6965 9.79186 72.3114 12.0395L76.9055 7.98587C75.1918 5.99532 73.5967 4.61775 72.1268 3.86636C70.657 3.11496 69.1081 2.73926 67.48 2.73926C64.9556 2.73926 62.8266 3.54998 61.1063 5.16483C59.386 6.77967 58.5292 8.71749 58.5292 10.9783C58.5292 12.5404 59.0433 14.1091 60.0781 15.6844C61.1129 17.2531 63.4067 19.4875 66.9527 22.3811C68.8181 23.9037 70.0177 25.0308 70.5647 25.769C71.1118 26.5072 71.382 27.2454 71.382 27.9836C71.382 28.7943 71.0195 29.5128 70.2945 30.1324C69.5695 30.7519 68.673 31.0617 67.6119 31.0617C65.5686 31.0617 63.7692 29.6248 62.2005 26.7445L57 29.8819C58.226 32.3141 59.7024 34.1003 61.4227 35.2406C63.143 36.3742 65.1665 36.9477 67.4866 36.9477C70.4593 36.9477 72.8651 36.0776 74.7106 34.3376C75.5806 33.5202 76.2398 32.5909 76.6946 31.5692C77.0834 32.0965 77.5053 32.6107 77.993 33.0984C80.4384 35.5569 83.3846 36.7829 86.8384 36.7829C89.1849 36.7829 91.3337 36.2226 93.2781 35.1087C95.2291 33.9948 96.7648 32.4459 97.8919 30.4685C98.4983 29.4073 98.9399 28.3 99.2168 27.1531V36.7499H105.261V3.35883H99.2168V21.0497H99.2233ZM91.6171 29.1832C90.3582 30.4949 88.7829 31.154 86.8912 31.154C84.9995 31.154 83.4374 30.5081 82.1982 29.203C80.9657 27.9045 80.3461 26.204 80.3461 24.108C80.3461 22.0713 80.9723 20.3971 82.218 19.0921C83.4703 17.787 85.0324 17.1345 86.9109 17.1345C88.8356 17.1345 90.4109 17.7804 91.6434 19.0723C92.876 20.3642 93.4956 22.0449 93.4956 24.108C93.5022 26.1842 92.8694 27.8716 91.6171 29.1832Z" fill="#2C2A71"/>
<path d="M111.351 12.7583H111.298H111.246H111.193H111.14H111.088H111.035H110.982H110.929H110.877H110.824H110.765H110.712H110.659H110.606H110.554H110.501H110.448H110.395H110.343H110.29H110.237H110.185H110.132H110.079H110.026H109.967H109.914H109.862H109.809H109.756H109.703H109.651H109.598H109.545H109.492H109.44H109.387H109.334H109.282H109.229H109.17H109.117H109.064H109.011H108.959H108.906H108.853H108.8H108.748H108.695H108.642H108.589H108.537H108.484H108.431H108.372H108.319H108.267H108.214H108.161H108.108H108.056H108.003H107.95H107.897H107.845H107.792H107.739H107.686H107.634H107.574H107.522H107.469H107.416H107.364V36.8426H107.416H107.469H107.522H107.574H107.634H107.686H107.739H107.792H107.845H107.897H107.95H108.003H108.056H108.108H108.161H108.214H108.267H108.319H108.372H108.431H108.484H108.537H108.589H108.642H108.695H108.748H108.8H108.853H108.906H108.959H109.011H109.064H109.117H109.17H109.229H109.282H109.334H109.387H109.44H109.492H109.545H109.598H109.651H109.703H109.756H109.809H109.862H109.914H109.967H110.026H110.079H110.132H110.185H110.237H110.29H110.343H110.395H110.448H110.501H110.554H110.606H110.659H110.712H110.765H110.824H110.877H110.929H110.982H111.035H111.088H111.14H111.193H111.246H111.298H111.351H111.404H113.408V12.7583H111.404H111.351Z" fill="#2C2A71"/>
<path d="M110.389 2.83789C109.327 2.83789 108.424 3.21359 107.673 3.96499C106.922 4.72298 106.546 5.62598 106.546 6.69375C106.546 7.80108 106.922 8.74362 107.68 9.51479C108.438 10.2926 109.354 10.6748 110.428 10.6748C111.47 10.6748 112.373 10.2926 113.124 9.53457C113.875 8.77658 114.251 7.85381 114.251 6.77944C114.251 5.6853 113.869 4.75593 113.117 3.99135C112.353 3.22018 111.443 2.83789 110.389 2.83789Z" fill="#2C2A71"/>
<path d="M182.84 18.4728C181.719 16.5218 180.157 14.9795 178.16 13.8458C176.163 12.7121 174.02 12.1387 171.753 12.1387C168.609 12.1387 165.828 13.2328 163.409 15.4145C162.492 16.245 161.741 17.1546 161.135 18.1235V13.3778H155.11V16.0341C153.871 14.8674 152.632 14.0304 151.399 13.5228C150.167 13.0153 148.855 12.7582 147.471 12.7582C144.505 12.7582 141.948 13.8062 139.812 15.9023C138.098 17.583 137.011 19.6724 136.543 22.1507V20.9182C136.543 18.1433 135.844 16.0473 134.44 14.6302C132.773 12.9626 130.749 12.1255 128.363 12.1255C127.196 12.1255 126.063 12.3496 124.949 12.8044C123.835 13.2592 122.596 14.0567 121.225 15.2168V12.7451H115.181V36.836H121.225V27.1732C121.225 24.6686 121.31 23.0405 121.488 22.2891C121.825 20.8457 122.438 19.712 123.308 18.8947C124.184 18.0774 125.232 17.6687 126.458 17.6687C127.401 17.6687 128.192 17.9126 128.831 18.4069C129.47 18.9013 129.919 19.6197 130.176 20.5622C130.433 21.5048 130.565 23.4162 130.565 26.29V36.836H136.543V27.9708C136.991 30.2909 138.013 32.2946 139.614 33.9688C141.842 36.3021 144.571 37.4687 147.807 37.4687C149.284 37.4687 150.602 37.238 151.769 36.77C152.935 36.3021 154.049 35.5441 155.11 34.4763C155.11 36.4273 154.906 37.7983 154.504 38.5958C154.095 39.3934 153.403 40.0393 152.414 40.5468C151.426 41.0478 150.121 41.2982 148.493 41.2982C147.221 41.2982 146.126 41.1268 145.197 40.7775C144.268 40.4282 143.51 39.9207 142.917 39.2418H136.253C136.787 40.883 137.604 42.2737 138.711 43.414C139.819 44.5609 141.176 45.4243 142.785 46.0175C144.393 46.6107 146.377 46.9007 148.743 46.9007C153.172 46.9007 156.481 45.6023 158.683 43.0053C160.324 41.0873 161.141 38.0883 161.141 34.0149V31.5103C161.642 32.3078 162.235 33.0724 162.941 33.7776C165.386 36.2362 168.332 37.4621 171.786 37.4621C174.133 37.4621 176.281 36.9019 178.226 35.788C180.177 34.674 181.712 33.1251 182.84 31.1477C183.967 29.1704 184.533 27.048 184.533 24.774C184.52 22.5198 183.96 20.4172 182.84 18.4728ZM153.581 30.1129C152.362 31.3652 150.819 31.998 148.941 31.998C147.023 31.998 145.428 31.3587 144.156 30.0734C142.884 28.7881 142.251 27.1469 142.251 25.1365C142.251 23.2053 142.87 21.5971 144.11 20.3184C145.349 19.0397 146.924 18.4003 148.822 18.4003C150.753 18.4003 152.335 19.0265 153.561 20.2854C154.787 21.5377 155.4 23.1724 155.4 25.1761C155.413 27.2128 154.8 28.8606 153.581 30.1129ZM176.545 29.869C175.286 31.1807 173.711 31.8398 171.819 31.8398C169.927 31.8398 168.365 31.1939 167.126 29.8888C165.893 28.5903 165.274 26.8898 165.274 24.7938C165.274 22.7571 165.9 21.083 167.146 19.7779C168.398 18.4728 169.96 17.8203 171.839 17.8203C173.763 17.8203 175.339 18.4662 176.571 19.7581C177.804 21.05 178.423 22.7308 178.423 24.7938C178.43 26.87 177.804 28.5574 176.545 29.869Z" fill="#2C2A71"/>
<mask id="mask0_411_10582" style="mask-type:alpha" maskUnits="userSpaceOnUse" x="0" y="0" width="41" height="41">
<path d="M20.1466 40.2933C31.2733 40.2933 40.2933 31.2733 40.2933 20.1466C40.2933 9.01996 31.2733 0 20.1466 0C9.01996 0 0 9.01996 0 20.1466C0 31.2733 9.01996 40.2933 20.1466 40.2933Z" fill="white"/>
</mask>
<g mask="url(#mask0_411_10582)">
<path d="M20.1466 40.2933C31.2733 40.2933 40.2933 31.2733 40.2933 20.1466C40.2933 9.01996 31.2733 0 20.1466 0C9.01996 0 0 9.01996 0 20.1466C0 31.2733 9.01996 40.2933 20.1466 40.2933Z" fill="white"/>
<path d="M18.2654 7.29025C18.2654 7.29025 25.0135 5.7148 26.9303 6.06092C28.8448 6.40466 24.2378 13.9167 22.5979 15.2105C20.9604 16.5018 18.2654 7.29025 18.2654 7.29025Z" fill="#7D2F65"/>
<path d="M17.7568 12.8806C17.7568 12.8806 24.505 11.3051 26.4218 11.6513C28.3362 11.995 23.7292 19.507 22.0893 20.8008C20.4494 22.0922 17.7568 12.8806 17.7568 12.8806Z" fill="#7D2F65"/>
<path d="M60.2151 41.0383L24.6172 15.1437C24.4143 14.9981 24.178 13.3271 23.9345 12.0716C23.9249 12.0143 23.913 11.957 23.9011 11.9021C23.7602 11.2027 23.4666 10.3768 23.3282 10.3791C22.6694 8.9875 21.6238 8.19978 20.1534 7.68895C19.8216 7.53857 19.4015 7.43831 18.8763 7.40012C18.8644 7.39773 18.8525 7.39773 18.8405 7.39534C18.8334 7.39534 18.8286 7.39296 18.8214 7.39296C18.7952 7.39057 18.7713 7.39057 18.7451 7.39057C18.5875 7.37863 18.43 7.3667 18.27 7.3667C18.1841 7.3667 18.1006 7.37625 18.0146 7.37864C13.6034 7.48128 11.1208 10.6704 11.1208 10.6704C11.1208 10.6704 11.7797 11.6586 12.522 12.7686C12.5149 12.8903 12.5029 13.0121 12.5029 13.1338C12.5029 14.4061 12.9207 15.5781 13.6177 16.5329C11.1256 51.2644 44.9763 38.4961 45.4513 38.4961C45.7186 38.4961 52.7532 41.0861 58.9667 43.3919C60.4347 43.9386 61.4898 41.9525 60.2151 41.0383Z" fill="url(#paint0_linear_411_10582)"/>
<path d="M16.2937 12.024C16.9028 12.024 17.3965 11.5302 17.3965 10.9212C17.3965 10.3121 16.9028 9.81836 16.2937 9.81836C15.6847 9.81836 15.1909 10.3121 15.1909 10.9212C15.1909 11.5302 15.6847 12.024 16.2937 12.024Z" fill="white"/>
<path d="M13.5699 11.0121C13.5699 11.0121 8.08214 9.16927 8.00098 14.0555V16.0988C8.9725 16.0988 9.95358 15.5283 10.9251 15.5283C11.8107 15.5283 12.6844 16.0988 13.5699 16.0988V11.0121Z" fill="url(#paint1_linear_411_10582)"/>
<path d="M24.555 15.1172C24.555 15.1172 18.6638 21.5383 24.2518 31.0913C29.8399 40.6442 46.3845 30.9982 46.3845 30.9982L24.555 15.1172Z" fill="url(#paint2_linear_411_10582)"/>
</g>
<defs>
<linearGradient id="paint0_linear_411_10582" x1="14.1217" y1="17.6042" x2="53.4122" y2="47.9901" gradientUnits="userSpaceOnUse">
<stop stop-color="#E9457E"/>
<stop offset="0.4218" stop-color="#E71D73"/>
<stop offset="0.8525" stop-color="#7D2F65"/>
</linearGradient>
<linearGradient id="paint1_linear_411_10582" x1="10.5481" y1="10.5551" x2="10.9869" y2="16.1061" gradientUnits="userSpaceOnUse">
<stop stop-color="#FDC800"/>
<stop offset="0.6685" stop-color="#F18F34"/>
</linearGradient>
<linearGradient id="paint2_linear_411_10582" x1="21.8447" y1="25.2148" x2="46.3861" y2="25.2148" gradientUnits="userSpaceOnUse">
<stop stop-color="#EC608A"/>
<stop offset="0.4218" stop-color="#EC638B"/>
<stop offset="0.8525" stop-color="#E8407B"/>
</linearGradient>
</defs>
</svg>
