<svg width="99" height="25" viewBox="0 0 99 25" fill="none" xmlns="http://www.w3.org/2000/svg">
<path d="M52.0102 9.97849C51.8593 9.36067 51.6222 8.768 51.2953 8.19687C50.6847 7.13365 49.8334 6.29313 48.7451 5.67531C47.6567 5.05749 46.4893 4.74499 45.2537 4.74499C43.5403 4.74499 42.0245 5.34126 40.7062 6.5302C39.643 7.49644 38.9641 8.63869 38.6516 9.94616C38.5367 9.81685 38.4145 9.68395 38.2816 9.55104C38.0087 9.27087 37.2256 8.5884 35.9361 7.51081C34.5568 6.34342 33.7342 5.58551 33.4576 5.22991C33.2565 4.9641 33.1559 4.68393 33.1559 4.38579C33.1559 4.08766 33.296 3.82185 33.5798 3.58478C33.8563 3.35131 34.2191 3.23277 34.6609 3.23277C35.5697 3.23277 36.4641 3.84341 37.3441 5.06827L39.8477 2.85921C38.9138 1.77443 38.0446 1.02371 37.2436 0.614227C36.4426 0.204742 35.5984 0 34.7112 0C33.3355 0 32.1753 0.441812 31.2378 1.32184C30.3003 2.20188 29.8333 3.25792 29.8333 4.48996C29.8333 5.34126 30.1135 6.19615 30.6774 7.05463C31.2414 7.90951 32.4914 9.12719 34.4239 10.7041C35.4404 11.5338 36.0941 12.148 36.3923 12.5503C36.6904 12.9526 36.8377 13.3549 36.8377 13.7572C36.8377 14.1991 36.6401 14.5906 36.245 14.9282C35.8499 15.2659 35.3614 15.4347 34.7831 15.4347C33.6696 15.4347 32.689 14.6516 31.8341 13.0819L29 14.7917C29.6681 16.1172 30.4727 17.0906 31.4102 17.712C32.3477 18.3298 33.4504 18.6423 34.7148 18.6423C36.3348 18.6423 37.6459 18.1682 38.6516 17.2199C39.1258 16.7745 39.485 16.268 39.7328 15.7113C39.9447 15.9986 40.1746 16.2788 40.4404 16.5446C41.773 17.8844 43.3787 18.5525 45.2608 18.5525C46.5396 18.5525 47.7106 18.2472 48.7702 17.6402C49.8334 17.0331 50.6703 16.189 51.2846 15.1114C51.615 14.5331 51.8557 13.9297 52.0066 13.3047V18.5346H55.3004V0.337645H52.0066V9.97849H52.0102ZM47.865 14.411C47.179 15.1258 46.3205 15.485 45.2896 15.485C44.2587 15.485 43.4074 15.133 42.7321 14.4218C42.0604 13.7141 41.7228 12.7874 41.7228 11.6452C41.7228 10.5352 42.064 9.62288 42.7429 8.91167C43.4253 8.20046 44.2766 7.84486 45.3004 7.84486C46.3492 7.84486 47.2077 8.19687 47.8794 8.9009C48.5511 9.60492 48.8887 10.5209 48.8887 11.6452C48.8923 12.7766 48.5475 13.6962 47.865 14.411Z" fill="#2C2A71"/>
<path d="M58.6194 5.45984H58.5907H58.562H58.5332H58.5045H58.4757H58.447H58.4183H58.3895H58.3608H58.3321H58.2997H58.271H58.2423H58.2135H58.1848H58.1561H58.1273H58.0986H58.0699H58.0411H58.0124H57.9837H57.9549H57.9262H57.8974H57.8651H57.8364H57.8076H57.7789H57.7502H57.7214H57.6927H57.664H57.6352H57.6065H57.5778H57.549H57.5203H57.4916H57.4628H57.4305H57.4018H57.373H57.3443H57.3155H57.2868H57.2581H57.2293H57.2006H57.1719H57.1431H57.1144H57.0857H57.0569H57.0282H56.9959H56.9671H56.9384H56.9097H56.8809H56.8522H56.8234H56.7947H56.766H56.7372H56.7085H56.6798H56.651H56.6223H56.5936H56.5612H56.5325H56.5038H56.475H56.4463V18.5849H56.475H56.5038H56.5325H56.5612H56.5936H56.6223H56.651H56.6798H56.7085H56.7372H56.766H56.7947H56.8234H56.8522H56.8809H56.9097H56.9384H56.9671H56.9959H57.0282H57.0569H57.0857H57.1144H57.1431H57.1719H57.2006H57.2293H57.2581H57.2868H57.3155H57.3443H57.373H57.4018H57.4305H57.4628H57.4916H57.5203H57.549H57.5778H57.6065H57.6352H57.664H57.6927H57.7214H57.7502H57.7789H57.8076H57.8364H57.8651H57.8974H57.9262H57.9549H57.9837H58.0124H58.0411H58.0699H58.0986H58.1273H58.1561H58.1848H58.2135H58.2423H58.271H58.2997H58.3321H58.3608H58.3895H58.4183H58.447H58.4757H58.5045H58.5332H58.562H58.5907H58.6194H58.6482H59.7401V5.45984H58.6482H58.6194Z" fill="#2C2A71"/>
<path d="M58.0949 0.053833C57.5165 0.053833 57.0244 0.258575 56.615 0.66806C56.2055 1.08114 56.0007 1.57324 56.0007 2.15513C56.0007 2.75859 56.2055 3.27224 56.6186 3.6925C57.0316 4.11635 57.5309 4.32468 58.1164 4.32468C58.6839 4.32468 59.176 4.11635 59.5855 3.70327C59.995 3.2902 60.1997 2.78732 60.1997 2.20183C60.1997 1.60556 59.9914 1.0991 59.5819 0.682428C59.1653 0.262167 58.6696 0.053833 58.0949 0.053833Z" fill="#2C2A71"/>
<path d="M97.5779 8.57406C96.9672 7.51083 96.1159 6.67031 95.0276 6.05249C93.9392 5.43468 92.7718 5.12217 91.5362 5.12217C89.8228 5.12217 88.307 5.71844 86.9887 6.90738C86.4895 7.35997 86.08 7.85566 85.7495 8.38368V5.79746H82.4664V7.24503C81.7912 6.60925 81.1159 6.15307 80.4442 5.87649C79.7725 5.59991 79.0577 5.45982 78.3034 5.45982C76.687 5.45982 75.2933 6.03094 74.1295 7.17319C73.1956 8.08914 72.6029 9.22779 72.3479 10.5784V9.90668C72.3479 8.39446 71.9671 7.25221 71.202 6.47994C70.2933 5.57117 69.1905 5.11499 67.8902 5.11499C67.2545 5.11499 66.6366 5.23712 66.0296 5.48496C65.4226 5.73281 64.7473 6.16744 64.0001 6.79962V5.45264H60.7063V18.5813H64.0001V13.3155C64.0001 11.9505 64.0468 11.0633 64.1438 10.6538C64.327 9.86717 64.6611 9.24935 65.1352 8.80394C65.6129 8.35854 66.1841 8.13584 66.8522 8.13584C67.3658 8.13584 67.7968 8.26874 68.1453 8.53814C68.4937 8.80753 68.7379 9.19906 68.878 9.71271C69.0181 10.2264 69.09 11.268 69.09 12.8341V18.5813H72.3479V13.7501C72.5921 15.0145 73.1489 16.1064 74.0217 17.0188C75.2358 18.2903 76.7229 18.9261 78.4865 18.9261C79.2911 18.9261 80.0095 18.8004 80.6453 18.5454C81.2811 18.2903 81.8881 17.8773 82.4664 17.2954C82.4664 18.3586 82.3551 19.1057 82.136 19.5403C81.9133 19.975 81.5361 20.327 80.9973 20.6036C80.4585 20.8765 79.7473 21.013 78.8601 21.013C78.1669 21.013 77.5706 20.9197 77.0641 20.7293C76.5577 20.5389 76.1446 20.2623 75.8213 19.8923H72.1898C72.4808 20.7867 72.9262 21.5447 73.5296 22.1661C74.1331 22.7911 74.873 23.2616 75.7495 23.5849C76.6259 23.9082 77.7071 24.0662 78.9966 24.0662C81.4104 24.0662 83.2136 23.3586 84.4133 21.9434C85.3077 20.8981 85.7531 19.2638 85.7531 17.0439V15.679C86.0261 16.1136 86.3494 16.5303 86.7337 16.9146C88.0663 18.2544 89.6719 18.9225 91.5541 18.9225C92.8329 18.9225 94.0039 18.6172 95.0635 18.0102C96.1267 17.4031 96.9636 16.559 97.5779 15.4814C98.1921 14.4038 98.501 13.2472 98.501 12.008C98.4938 10.7795 98.1885 9.63369 97.5779 8.57406ZM81.6331 14.9175C80.9686 15.5999 80.1281 15.9448 79.1044 15.9448C78.0591 15.9448 77.1898 15.5964 76.4966 14.8959C75.8033 14.1955 75.4585 13.3011 75.4585 12.2055C75.4585 11.1531 75.7962 10.2766 76.4715 9.57981C77.1467 8.88297 78.0052 8.53454 79.0397 8.53454C80.0922 8.53454 80.9542 8.87578 81.6223 9.56185C82.2904 10.2443 82.6245 11.1351 82.6245 12.2271C82.6317 13.337 82.2976 14.235 81.6331 14.9175ZM94.1475 14.7846C93.4615 15.4994 92.603 15.8586 91.5721 15.8586C90.5412 15.8586 89.6899 15.5066 89.0146 14.7953C88.3429 14.0877 88.0053 13.161 88.0053 12.0188C88.0053 10.9088 88.3465 9.99648 89.0254 9.28527C89.7079 8.57406 90.5592 8.21845 91.5829 8.21845C92.6317 8.21845 93.4902 8.57046 94.1619 9.27449C94.8336 9.97852 95.1712 10.8945 95.1712 12.0188C95.1748 13.1502 94.8336 14.0698 94.1475 14.7846Z" fill="#2C2A71"/>
<mask id="mask0_206_3743" style="mask-type:alpha" maskUnits="userSpaceOnUse" x="0" y="0" width="22" height="22">
<path d="M10.9792 21.9583C17.0428 21.9583 21.9583 17.0428 21.9583 10.9792C21.9583 4.91554 17.0428 0 10.9792 0C4.91554 0 0 4.91554 0 10.9792C0 17.0428 4.91554 21.9583 10.9792 21.9583Z" fill="white"/>
</mask>
<g mask="url(#mask0_206_3743)">
<path d="M10.9792 21.9583C17.0428 21.9583 21.9583 17.0428 21.9583 10.9792C21.9583 4.91554 17.0428 0 10.9792 0C4.91554 0 0 4.91554 0 10.9792C0 17.0428 4.91554 21.9583 10.9792 21.9583Z" fill="white"/>
<path d="M9.9541 3.97277C9.9541 3.97277 13.6316 3.11421 14.6762 3.30284C15.7195 3.49016 13.2088 7.58393 12.3151 8.28899C11.4228 8.99275 9.9541 3.97277 9.9541 3.97277Z" fill="#7D2F65"/>
<path d="M9.677 7.0194C9.677 7.0194 13.3545 6.16084 14.3991 6.34947C15.4424 6.53679 12.9317 10.6306 12.038 11.3356C11.1444 12.0394 9.677 7.0194 9.677 7.0194Z" fill="#7D2F65"/>
<path d="M32.8151 22.3642L13.4155 8.25257C13.305 8.17322 13.1762 7.26262 13.0435 6.57838C13.0383 6.54716 13.0318 6.51594 13.0253 6.48602C12.9485 6.10487 12.7885 5.65478 12.7131 5.65608C12.3541 4.89768 11.7843 4.4684 10.983 4.19002C10.8021 4.10807 10.5732 4.05343 10.287 4.03262C10.2805 4.03132 10.274 4.03132 10.2675 4.03001C10.2636 4.03001 10.261 4.02871 10.2571 4.02871C10.2428 4.02741 10.2298 4.02741 10.2155 4.02741C10.1296 4.02091 10.0437 4.0144 9.95659 4.0144C9.90976 4.0144 9.86423 4.01961 9.8174 4.02091C7.41343 4.07685 6.06055 5.81478 6.06055 5.81478C6.06055 5.81478 6.41958 6.35333 6.82415 6.95823C6.82024 7.02457 6.81374 7.09091 6.81374 7.15726C6.81374 7.85061 7.04139 8.48933 7.42123 9.00966C6.06315 27.937 24.5105 20.9788 24.7694 20.9788C24.9151 20.9788 28.7487 22.3902 32.1348 23.6468C32.9348 23.9447 33.5098 22.8624 32.8151 22.3642Z" fill="url(#paint0_linear_206_3743)"/>
<path d="M8.87956 6.55233C9.21148 6.55233 9.48055 6.28325 9.48055 5.95133C9.48055 5.61942 9.21148 5.35034 8.87956 5.35034C8.54764 5.35034 8.27856 5.61942 8.27856 5.95133C8.27856 6.28325 8.54764 6.55233 8.87956 6.55233Z" fill="white"/>
<path d="M7.39523 6.00084C7.39523 6.00084 4.40458 4.99659 4.36035 7.65942V8.77295C4.8898 8.77295 5.42445 8.46205 5.95389 8.46205C6.43651 8.46205 6.91262 8.77295 7.39523 8.77295V6.00084Z" fill="url(#paint1_linear_206_3743)"/>
<path d="M13.3817 8.23828C13.3817 8.23828 10.1712 11.7376 13.2165 16.9436C16.2617 22.1496 25.2779 16.8928 25.2779 16.8928L13.3817 8.23828Z" fill="url(#paint2_linear_206_3743)"/>
</g>
<defs>
<linearGradient id="paint0_linear_206_3743" x1="7.6959" y1="9.59347" x2="29.1077" y2="26.1527" gradientUnits="userSpaceOnUse">
<stop stop-color="#E9457E"/>
<stop offset="0.4218" stop-color="#E71D73"/>
<stop offset="0.8525" stop-color="#7D2F65"/>
</linearGradient>
<linearGradient id="paint1_linear_206_3743" x1="5.74842" y1="5.75182" x2="5.98754" y2="8.77689" gradientUnits="userSpaceOnUse">
<stop stop-color="#FDC800"/>
<stop offset="0.6685" stop-color="#F18F34"/>
</linearGradient>
<linearGradient id="paint2_linear_206_3743" x1="11.9047" y1="13.7411" x2="25.2788" y2="13.7411" gradientUnits="userSpaceOnUse">
<stop stop-color="#EC608A"/>
<stop offset="0.4218" stop-color="#EC638B"/>
<stop offset="0.8525" stop-color="#E8407B"/>
</linearGradient>
</defs>
</svg>
