<svg width="372" height="651" viewBox="0 0 372 651" fill="none" xmlns="http://www.w3.org/2000/svg">
<g clip-path="url(#clip0_215_7096)">
<rect width="375" height="667" fill="white"/>
<g filter="url(#filter0_d_215_7096)">
<rect x="41" y="99" width="293" height="394" rx="5" fill="url(#paint0_linear_215_7096)"/>
</g>
<g filter="url(#filter1_d_215_7096)">
<rect x="-6" y="40" width="385" height="570" rx="5" fill="url(#paint1_linear_215_7096)"/>
</g>
<rect x="48.8008" y="89" width="1.74505" height="11.052" rx="0.872525" fill="#F74582"/>
<rect x="65.5479" y="95.9802" width="1.74505" height="11.052" rx="0.872525" transform="rotate(51.1155 65.5479 95.9802)" fill="#F74582"/>
<rect x="71" y="113.766" width="1.74505" height="11.052" rx="0.872525" transform="rotate(103.94 71 113.766)" fill="#F74582"/>
<rect x="59.2598" y="128.89" width="1.74505" height="11.052" rx="0.872525" transform="rotate(151.595 59.2598 128.89)" fill="#F74582"/>
<rect x="41.0352" y="129.242" width="1.74505" height="11.052" rx="0.872525" transform="rotate(-151.976 41.0352 129.242)" fill="#F74582"/>
<rect x="29.3555" y="115.358" width="1.74505" height="11.052" rx="0.872525" transform="rotate(-101.76 29.3555 115.358)" fill="#F74582"/>
<rect x="33.0957" y="97.3286" width="1.74505" height="11.052" rx="0.872525" transform="rotate(-50.5968 33.0957 97.3286)" fill="#F74582"/>
<rect x="326.801" y="279" width="1.74505" height="11.052" rx="0.872525" fill="#F74582"/>
<rect x="343.548" y="285.98" width="1.74505" height="11.052" rx="0.872525" transform="rotate(51.1155 343.548 285.98)" fill="#F74582"/>
<rect x="349" y="303.766" width="1.74505" height="11.052" rx="0.872525" transform="rotate(103.94 349 303.766)" fill="#F74582"/>
<rect x="337.26" y="318.89" width="1.74505" height="11.052" rx="0.872525" transform="rotate(151.595 337.26 318.89)" fill="#F74582"/>
<rect x="319.035" y="319.242" width="1.74505" height="11.052" rx="0.872525" transform="rotate(-151.976 319.035 319.242)" fill="#F74582"/>
<rect x="307.355" y="305.358" width="1.74505" height="11.052" rx="0.872525" transform="rotate(-101.76 307.355 305.358)" fill="#F74582"/>
<rect x="311.096" y="287.329" width="1.74505" height="11.052" rx="0.872525" transform="rotate(-50.5968 311.096 287.329)" fill="#F74582"/>
<rect x="81.6494" y="276.876" width="0.955623" height="6.05228" rx="0.477811" transform="rotate(46.5835 81.6494 276.876)" fill="#FCA83A"/>
<rect x="85.1768" y="286.165" width="0.955623" height="6.05228" rx="0.477811" transform="rotate(97.699 85.1768 286.165)" fill="#FCA83A"/>
<rect x="80.1533" y="295.028" width="0.955623" height="6.05228" rx="0.477811" transform="rotate(150.524 80.1533 295.028)" fill="#FCA83A"/>
<rect x="69.7188" y="296.05" width="0.955623" height="6.05228" rx="0.477811" transform="rotate(-161.821 69.7188 296.05)" fill="#FCA83A"/>
<rect x="62.7197" y="288.934" width="0.955623" height="6.05228" rx="0.477811" transform="rotate(-105.392 62.7197 288.934)" fill="#FCA83A"/>
<rect x="63.8467" y="279.062" width="0.955623" height="6.05228" rx="0.477811" transform="rotate(-55.1765 63.8467 279.062)" fill="#FCA83A"/>
<rect x="72.4258" y="273.764" width="0.955623" height="6.05228" rx="0.477811" transform="rotate(-4.01332 72.4258 273.764)" fill="#FCA83A"/>
<rect x="312.672" y="85" width="1.20492" height="7.63113" rx="0.602458" fill="#3144C4"/>
<rect x="324.235" y="89.8197" width="1.20492" height="7.63113" rx="0.602458" transform="rotate(51.1155 324.235 89.8197)" fill="#3144C4"/>
<rect x="328" y="102.101" width="1.20492" height="7.63113" rx="0.602458" transform="rotate(103.94 328 102.101)" fill="#3144C4"/>
<rect x="319.894" y="112.543" width="1.20492" height="7.63113" rx="0.602458" transform="rotate(151.595 319.894 112.543)" fill="#3144C4"/>
<rect x="307.311" y="112.786" width="1.20492" height="7.63113" rx="0.602458" transform="rotate(-151.976 307.311 112.786)" fill="#3144C4"/>
<rect x="299.245" y="103.2" width="1.20492" height="7.63113" rx="0.602458" transform="rotate(-101.76 299.245 103.2)" fill="#3144C4"/>
<rect x="301.828" y="90.7507" width="1.20492" height="7.63113" rx="0.602458" transform="rotate(-50.5968 301.828 90.7507)" fill="#3144C4"/>
<rect x="191.672" y="478" width="1.20492" height="7.63113" rx="0.602458" fill="#3144C4"/>
<rect x="203.235" y="482.82" width="1.20492" height="7.63113" rx="0.602458" transform="rotate(51.1155 203.235 482.82)" fill="#3144C4"/>
<rect x="207" y="495.101" width="1.20492" height="7.63113" rx="0.602458" transform="rotate(103.94 207 495.101)" fill="#3144C4"/>
<rect x="198.894" y="505.543" width="1.20492" height="7.63113" rx="0.602458" transform="rotate(151.595 198.894 505.543)" fill="#3144C4"/>
<rect x="186.311" y="505.786" width="1.20492" height="7.63113" rx="0.602458" transform="rotate(-151.976 186.311 505.786)" fill="#3144C4"/>
<rect x="178.245" y="496.2" width="1.20492" height="7.63113" rx="0.602458" transform="rotate(-101.76 178.245 496.2)" fill="#3144C4"/>
<rect x="180.828" y="483.751" width="1.20492" height="7.63113" rx="0.602458" transform="rotate(-50.5968 180.828 483.751)" fill="#3144C4"/>
<rect x="94.332" y="62" width="12.9871" height="12.9871" rx="2" transform="rotate(24.2402 94.332 62)" fill="#EB5B87"/>
<rect x="83.332" y="470" width="12.9871" height="12.9871" rx="2" transform="rotate(24.2402 83.332 470)" fill="#EB5B87"/>
<rect x="301" y="238.816" width="10.0986" height="10.0986" rx="2" transform="rotate(-35.1654 301 238.816)" fill="#7A97FF"/>
<path d="M31.5557 353.563C32.1562 351.249 35.0895 350.533 36.689 352.309L45.914 362.555C47.4324 364.242 46.6008 366.939 44.3962 367.477L31.7075 370.576C29.5029 371.114 27.5218 369.104 28.092 366.908L31.5557 353.563Z" fill="#607BFF"/>
<path d="M313.599 462.024C315.548 460.639 318.254 461.978 318.336 464.367L318.789 477.646C318.866 479.915 316.494 481.444 314.46 480.438L303.177 474.856C301.143 473.85 300.92 471.037 302.769 469.722L313.599 462.024Z" fill="#EB5B87"/>
<rect x="99.6553" y="414" width="6.46795" height="6.46795" rx="2" transform="rotate(24.2402 99.6553 414)" fill="#F6A71D"/>
<circle cx="313.5" cy="387.5" r="7" stroke="#F6A71D" stroke-width="3"/>
<rect x="212.655" y="426" width="6.46795" height="6.46795" rx="2" transform="rotate(24.2402 212.655 426)" fill="#EB5B87"/>
</g>
<defs>
<filter id="filter0_d_215_7096" x="37" y="99" width="301" height="402" filterUnits="userSpaceOnUse" color-interpolation-filters="sRGB">
<feFlood flood-opacity="0" result="BackgroundImageFix"/>
<feColorMatrix in="SourceAlpha" type="matrix" values="0 0 0 0 0 0 0 0 0 0 0 0 0 0 0 0 0 0 127 0" result="hardAlpha"/>
<feOffset dy="4"/>
<feGaussianBlur stdDeviation="2"/>
<feComposite in2="hardAlpha" operator="out"/>
<feColorMatrix type="matrix" values="0 0 0 0 0.192157 0 0 0 0 0.176471 0 0 0 0 0.392157 0 0 0 0.1 0"/>
<feBlend mode="normal" in2="BackgroundImageFix" result="effect1_dropShadow_215_7096"/>
<feBlend mode="normal" in="SourceGraphic" in2="effect1_dropShadow_215_7096" result="shape"/>
</filter>
<filter id="filter1_d_215_7096" x="-10" y="40" width="393" height="578" filterUnits="userSpaceOnUse" color-interpolation-filters="sRGB">
<feFlood flood-opacity="0" result="BackgroundImageFix"/>
<feColorMatrix in="SourceAlpha" type="matrix" values="0 0 0 0 0 0 0 0 0 0 0 0 0 0 0 0 0 0 127 0" result="hardAlpha"/>
<feOffset dy="4"/>
<feGaussianBlur stdDeviation="2"/>
<feComposite in2="hardAlpha" operator="out"/>
<feColorMatrix type="matrix" values="0 0 0 0 0.192157 0 0 0 0 0.176471 0 0 0 0 0.392157 0 0 0 0.2 0"/>
<feBlend mode="normal" in2="BackgroundImageFix" result="effect1_dropShadow_215_7096"/>
<feBlend mode="normal" in="SourceGraphic" in2="effect1_dropShadow_215_7096" result="shape"/>
</filter>
<linearGradient id="paint0_linear_215_7096" x1="187.5" y1="99" x2="187.5" y2="493" gradientUnits="userSpaceOnUse">
<stop stop-color="white"/>
<stop offset="1" stop-color="#EEF2FF"/>
</linearGradient>
<linearGradient id="paint1_linear_215_7096" x1="186.5" y1="40" x2="186.5" y2="610" gradientUnits="userSpaceOnUse">
<stop stop-color="white"/>
<stop offset="1" stop-color="#F2F2FF"/>
</linearGradient>
<clipPath id="clip0_215_7096">
<rect width="375" height="667" fill="white"/>
</clipPath>
</defs>
</svg>
