<svg width="1200" height="694" viewBox="0 0 1200 694" fill="none" xmlns="http://www.w3.org/2000/svg">
<rect x="180.238" y="17" width="34.8347" height="34.8347" rx="5.36451" transform="rotate(24.2402 180.238 17)" fill="#EB5B87"/>
<rect x="53.1113" y="119" width="4.68067" height="29.6443" rx="2.34034" fill="#F74582"/>
<rect x="98.0312" y="137.724" width="4.68067" height="29.6443" rx="2.34034" transform="rotate(51.1155 98.0312 137.724)" fill="#F74582"/>
<rect x="112.655" y="185.431" width="4.68067" height="29.6443" rx="2.34034" transform="rotate(103.94 112.655 185.431)" fill="#F74582"/>
<rect x="81.165" y="225.994" width="4.68067" height="29.6443" rx="2.34034" transform="rotate(151.595 81.165 225.994)" fill="#F74582"/>
<rect x="32.2817" y="226.939" width="4.68067" height="29.6443" rx="2.34034" transform="rotate(-151.976 32.2817 226.939)" fill="#F74582"/>
<rect x="0.954102" y="189.7" width="4.68067" height="29.6443" rx="2.34034" transform="rotate(-101.76 0.954102 189.7)" fill="#F74582"/>
<rect x="10.9863" y="141.341" width="4.68067" height="29.6443" rx="2.34034" transform="rotate(-50.5968 10.9863 141.341)" fill="#F74582"/>
<rect x="1146.74" y="9" width="4.11903" height="26.0872" rx="2.05952" fill="#3144C4"/>
<rect x="1186.27" y="25.4746" width="4.11903" height="26.0872" rx="2.05952" transform="rotate(51.1155 1186.27 25.4746)" fill="#3144C4"/>
<rect x="1199.14" y="67.459" width="4.11903" height="26.0872" rx="2.05952" transform="rotate(103.94 1199.14 67.459)" fill="#3144C4"/>
<rect x="1171.43" y="103.156" width="4.11903" height="26.0872" rx="2.05952" transform="rotate(151.595 1171.43 103.156)" fill="#3144C4"/>
<rect x="1128.41" y="103.987" width="4.11903" height="26.0872" rx="2.05952" transform="rotate(-151.976 1128.41 103.987)" fill="#3144C4"/>
<rect x="1100.84" y="71.2178" width="4.11903" height="26.0872" rx="2.05952" transform="rotate(-101.76 1100.84 71.2178)" fill="#3144C4"/>
<rect x="1109.67" y="28.6602" width="4.11903" height="26.0872" rx="2.05952" transform="rotate(-50.5968 1109.67 28.6602)" fill="#3144C4"/>
<path d="M47.7899 598.003C49.7538 590.437 59.3463 588.094 64.5769 593.904L94.7449 627.411C99.7108 632.926 96.9911 641.745 89.7815 643.506L48.2864 653.639C41.0768 655.4 34.5983 648.828 36.4628 641.644L47.7899 598.003Z" fill="#607BFF"/>
<rect x="1065.42" y="558" width="2.94498" height="18.6516" rx="1.47249" fill="#F74582"/>
<rect x="1093.68" y="569.78" width="2.94498" height="18.6516" rx="1.47249" transform="rotate(51.1155 1093.68 569.78)" fill="#F74582"/>
<rect x="1102.88" y="599.797" width="2.94498" height="18.6516" rx="1.47249" transform="rotate(103.94 1102.88 599.797)" fill="#F74582"/>
<rect x="1083.07" y="625.318" width="2.94498" height="18.6516" rx="1.47249" transform="rotate(151.595 1083.07 625.318)" fill="#F74582"/>
<rect x="1052.31" y="625.913" width="2.94498" height="18.6516" rx="1.47249" transform="rotate(-151.976 1052.31 625.913)" fill="#F74582"/>
<rect x="1032.6" y="602.483" width="2.94498" height="18.6516" rx="1.47249" transform="rotate(-101.76 1032.6 602.483)" fill="#F74582"/>
<rect x="1038.91" y="572.057" width="2.94498" height="18.6516" rx="1.47249" transform="rotate(-50.5968 1038.91 572.057)" fill="#F74582"/>
<rect x="270.467" y="397.464" width="3.08982" height="19.5689" rx="1.54491" transform="rotate(46.5835 270.467 397.464)" fill="#FCA83A"/>
<rect x="281.872" y="427.499" width="3.08982" height="19.5689" rx="1.54491" transform="rotate(97.699 281.872 427.499)" fill="#FCA83A"/>
<rect x="265.63" y="456.156" width="3.08982" height="19.5689" rx="1.54491" transform="rotate(150.524 265.63 456.156)" fill="#FCA83A"/>
<rect x="231.892" y="459.462" width="3.08982" height="19.5689" rx="1.54491" transform="rotate(-161.821 231.892 459.462)" fill="#FCA83A"/>
<rect x="209.262" y="436.449" width="3.08982" height="19.5689" rx="1.54491" transform="rotate(-105.392 209.262 436.449)" fill="#FCA83A"/>
<rect x="212.906" y="404.533" width="3.08982" height="19.5689" rx="1.54491" transform="rotate(-55.1765 212.906 404.533)" fill="#FCA83A"/>
<rect x="240.645" y="387.402" width="3.08982" height="19.5689" rx="1.54491" transform="rotate(-4.01332 240.645 387.402)" fill="#FCA83A"/>
<path d="M1154.41 241.212C1159.43 237.65 1166.39 241.093 1166.6 247.238L1167.76 281.396C1167.96 287.23 1161.86 291.164 1156.63 288.576L1127.61 274.219C1122.37 271.631 1121.8 264.395 1126.56 261.013L1154.41 241.212Z" fill="#EB5B87"/>
<rect x="317.793" y="599" width="28.7243" height="28.7243" rx="8.88206" transform="rotate(24.2402 317.793 599)" fill="#F6A71D"/>
<rect x="863.98" y="658" width="26.7449" height="26.7449" rx="4.1187" transform="rotate(24.2402 863.98 658)" fill="#EB5B87"/>
<circle cx="1119.51" cy="413.507" r="8.65278" stroke="#F6A71D" stroke-width="3.70833"/>
<rect x="881" y="7.18945" width="12.483" height="12.483" rx="2.47222" transform="rotate(-35.1654 881 7.18945)" fill="#7A97FF"/>
<rect x="56.2822" y="405" width="7.9951" height="7.9951" rx="2.47222" transform="rotate(24.2402 56.2822 405)" fill="#EB5B87"/>
<rect x="929.9" y="355" width="1.48941" height="9.43293" rx="0.744705" fill="#3144C4"/>
<rect x="944.194" y="360.957" width="1.48941" height="9.43293" rx="0.744705" transform="rotate(51.1155 944.194 360.957)" fill="#3144C4"/>
<rect x="948.848" y="376.139" width="1.48941" height="9.43293" rx="0.744705" transform="rotate(103.94 948.848 376.139)" fill="#3144C4"/>
<rect x="938.827" y="389.046" width="1.48941" height="9.43293" rx="0.744705" transform="rotate(151.595 938.827 389.046)" fill="#3144C4"/>
<rect x="923.273" y="389.347" width="1.48941" height="9.43293" rx="0.744705" transform="rotate(-151.976 923.273 389.347)" fill="#3144C4"/>
<rect x="913.304" y="377.497" width="1.48941" height="9.43293" rx="0.744705" transform="rotate(-101.76 913.304 377.497)" fill="#3144C4"/>
<rect x="916.496" y="362.108" width="1.48941" height="9.43293" rx="0.744705" transform="rotate(-50.5968 916.496 362.108)" fill="#3144C4"/>
</svg>
