<svg width="162" height="138" viewBox="0 0 162 138" fill="none" xmlns="http://www.w3.org/2000/svg">
<path d="M53.6344 104.259C53.2827 102.819 52.7302 101.437 51.9683 100.106C50.5449 97.6278 48.5606 95.6687 46.0238 94.2286C43.4869 92.7885 40.7658 92.0601 37.8857 92.0601C33.892 92.0601 30.3588 93.4499 27.2861 96.2213C24.8078 98.4735 23.2254 101.136 22.497 104.184C22.2291 103.882 21.9444 103.572 21.6346 103.263C20.9983 102.609 19.1731 101.019 16.1673 98.507C12.9523 95.7859 11.035 94.0193 10.3903 93.1904C9.92144 92.5708 9.68701 91.9178 9.68701 91.2229C9.68701 90.5279 10.0135 89.9084 10.675 89.3558C11.3197 88.8116 12.1653 88.5353 13.1951 88.5353C15.3133 88.5353 17.3981 89.9586 19.4494 92.8136L25.285 87.6645C23.1082 85.136 21.082 83.3862 19.2149 82.4317C17.3479 81.4772 15.3803 81 13.3123 81C10.1056 81 7.40131 82.0298 5.21608 84.0811C3.03085 86.1324 1.94243 88.5939 1.94243 91.4657C1.94243 93.4499 2.59548 95.4426 3.90997 97.4436C5.22446 99.4363 8.13809 102.275 12.6425 105.95C15.0119 107.884 16.5357 109.316 17.2307 110.254C17.9256 111.191 18.2689 112.129 18.2689 113.067C18.2689 114.097 17.8084 115.009 16.8874 115.796C15.9664 116.583 14.8277 116.977 13.4798 116.977C10.8843 116.977 8.59858 115.152 6.60592 111.493L0 115.478C1.55729 118.568 3.43274 120.836 5.61796 122.285C7.80319 123.725 10.3736 124.453 13.3207 124.453C17.0967 124.453 20.1527 123.348 22.497 121.138C23.6021 120.1 24.4394 118.919 25.0171 117.621C25.5111 118.291 26.0469 118.944 26.6665 119.564C29.7727 122.687 33.5152 124.244 37.9024 124.244C40.883 124.244 43.6125 123.532 46.0824 122.117C48.5606 120.703 50.5114 118.735 51.9431 116.223C52.7134 114.875 53.2744 113.469 53.626 112.012V124.202H61.3036V81.787H53.626V104.259H53.6344ZM43.9725 114.591C42.3734 116.257 40.3723 117.094 37.9694 117.094C35.5665 117.094 33.5822 116.273 32.0082 114.616C30.4425 112.966 29.6555 110.806 29.6555 108.144C29.6555 105.557 30.4509 103.43 32.0333 101.772C33.6241 100.114 35.6084 99.2856 37.9945 99.2856C40.4393 99.2856 42.4403 100.106 44.006 101.747C45.5717 103.388 46.3587 105.523 46.3587 108.144C46.367 110.781 45.5633 112.924 43.9725 114.591Z" fill="white"/>
<path d="M69.0399 93.7262H68.9729H68.9059H68.8389H68.7719H68.705H68.638H68.571H68.504H68.437H68.3701H68.2947H68.2277H68.1607H68.0938H68.0268H67.9598H67.8928H67.8258H67.7589H67.6919H67.6249H67.5579H67.4909H67.424H67.357H67.2816H67.2147H67.1477H67.0807H67.0137H66.9467H66.8797H66.8128H66.7458H66.6788H66.6118H66.5449H66.4779H66.4109H66.3439H66.2686H66.2016H66.1346H66.0676H66.0006H65.9337H65.8667H65.7997H65.7327H65.6657H65.5988H65.5318H65.4648H65.3978H65.3308H65.2555H65.1885H65.1215H65.0545H64.9876H64.9206H64.8536H64.7866H64.7196H64.6527H64.5857H64.5187H64.4517H64.3847H64.3178H64.2424H64.1754H64.1084H64.0415H63.9745V124.319H64.0415H64.1084H64.1754H64.2424H64.3178H64.3847H64.4517H64.5187H64.5857H64.6527H64.7196H64.7866H64.8536H64.9206H64.9876H65.0545H65.1215H65.1885H65.2555H65.3308H65.3978H65.4648H65.5318H65.5988H65.6657H65.7327H65.7997H65.8667H65.9337H66.0006H66.0676H66.1346H66.2016H66.2686H66.3439H66.4109H66.4779H66.5449H66.6118H66.6788H66.7458H66.8128H66.8797H66.9467H67.0137H67.0807H67.1477H67.2147H67.2816H67.357H67.424H67.4909H67.5579H67.6249H67.6919H67.7589H67.8258H67.8928H67.9598H68.0268H68.0938H68.1607H68.2277H68.2947H68.3701H68.437H68.504H68.571H68.638H68.705H68.7719H68.8389H68.9059H68.9729H69.0399H69.1068H71.6521V93.7262H69.1068H69.0399Z" fill="white"/>
<path d="M67.8175 81.1256C66.4695 81.1256 65.3224 81.6028 64.368 82.5573C63.4135 83.5201 62.9363 84.6672 62.9363 86.0235C62.9363 87.4301 63.4135 88.6274 64.3764 89.6069C65.3392 90.5949 66.503 91.0805 67.8677 91.0805C69.1906 91.0805 70.3376 90.5949 71.2921 89.6321C72.2465 88.6692 72.7238 87.4971 72.7238 86.1323C72.7238 84.7425 72.2382 83.562 71.2837 82.5908C70.3125 81.6112 69.1571 81.1256 67.8175 81.1256Z" fill="white"/>
<path d="M159.848 100.985C158.425 98.5069 156.441 96.5478 153.904 95.1077C151.367 93.6676 148.646 92.9392 145.766 92.9392C141.772 92.9392 138.239 94.3291 135.166 97.1004C134.002 98.1553 133.048 99.3107 132.278 100.541V94.5132H124.625V97.8874C123.051 96.4054 121.477 95.3421 119.911 94.6974C118.346 94.0528 116.68 93.7262 114.921 93.7262C111.154 93.7262 107.905 95.0575 105.192 97.7199C103.016 99.8549 101.634 102.509 101.04 105.657V104.091C101.04 100.567 100.152 97.9041 98.3688 96.104C96.2506 93.9858 93.6802 92.9225 90.6493 92.9225C89.1674 92.9225 87.7273 93.2071 86.3124 93.7848C84.8974 94.3625 83.3234 95.3756 81.5819 96.8492V93.7095H73.9043V124.311H81.5819V112.037C81.5819 108.855 81.6907 106.787 81.9168 105.833C82.3438 103.999 83.1224 102.559 84.2276 101.521C85.3412 100.483 86.6724 99.9638 88.2297 99.9638C89.427 99.9638 90.4317 100.274 91.2438 100.901C92.0559 101.529 92.6253 102.442 92.9518 103.639C93.2783 104.837 93.4458 107.265 93.4458 110.915V124.311H101.04V113.05C101.609 115.997 102.907 118.542 104.941 120.669C107.771 123.633 111.237 125.115 115.348 125.115C117.224 125.115 118.898 124.822 120.38 124.227C121.862 123.633 123.277 122.67 124.625 121.314C124.625 123.792 124.366 125.533 123.855 126.547C123.336 127.56 122.457 128.38 121.201 129.025C119.945 129.661 118.287 129.979 116.219 129.979C114.603 129.979 113.213 129.762 112.033 129.318C110.852 128.874 109.889 128.229 109.136 127.367H100.671C101.349 129.452 102.388 131.218 103.794 132.667C105.201 134.124 106.926 135.22 108.968 135.974C111.011 136.728 113.531 137.096 116.537 137.096C122.164 137.096 126.367 135.447 129.163 132.148C131.248 129.711 132.286 125.902 132.286 120.728V117.546C132.922 118.559 133.676 119.53 134.572 120.426C137.678 123.549 141.42 125.106 145.808 125.106C148.788 125.106 151.518 124.395 153.988 122.98C156.466 121.565 158.417 119.597 159.848 117.086C161.28 114.574 162 111.878 162 108.989C161.983 106.126 161.272 103.455 159.848 100.985ZM122.683 115.771C121.134 117.362 119.175 118.166 116.788 118.166C114.352 118.166 112.326 117.354 110.71 115.721C109.094 114.088 108.29 112.003 108.29 109.45C108.29 106.997 109.077 104.954 110.651 103.33C112.225 101.705 114.226 100.893 116.638 100.893C119.091 100.893 121.1 101.689 122.658 103.288C124.215 104.878 124.993 106.955 124.993 109.5C125.01 112.087 124.232 114.18 122.683 115.771ZM151.853 115.461C150.253 117.127 148.252 117.965 145.849 117.965C143.447 117.965 141.462 117.144 139.888 115.486C138.323 113.837 137.536 111.677 137.536 109.014C137.536 106.427 138.331 104.301 139.913 102.643C141.504 100.985 143.488 100.156 145.875 100.156C148.319 100.156 150.32 100.977 151.886 102.618C153.452 104.259 154.239 106.394 154.239 109.014C154.247 111.652 153.452 113.795 151.853 115.461Z" fill="white"/>
<g clip-path="url(#clip0_409_10791)">
<path d="M50.812 2.59267C50.812 2.59267 64.4965 -0.599794 68.3746 0.0967434C72.2526 0.793281 62.9201 16.03 59.5933 18.6517C56.2665 21.2734 50.812 2.59267 50.812 2.59267Z" fill="#7D2F65"/>
<path d="M49.7772 13.9307C49.7772 13.9307 63.4617 10.7383 67.3398 11.4348C71.2178 12.1314 61.8853 27.3681 58.5585 29.9898C55.2317 32.6115 49.7772 13.9307 49.7772 13.9307Z" fill="#7D2F65"/>
<path d="M135.849 71.0275L63.6841 18.5163C63.2683 18.2164 62.7944 14.8305 62.3012 12.2862C62.2818 12.1701 62.2625 12.054 62.2335 11.9379C61.953 10.5158 61.3534 8.84217 61.073 8.85185C59.7384 6.027 57.6204 4.43077 54.6417 3.39563C53.9648 3.09574 53.1234 2.88291 52.0499 2.80551C52.0209 2.80551 52.0016 2.79584 51.9725 2.79584C51.9629 2.79584 51.9435 2.79584 51.9339 2.79584C51.8855 2.79584 51.8275 2.79584 51.7791 2.78616C51.46 2.75714 51.1408 2.73779 50.812 2.73779C50.6379 2.73779 50.4639 2.75714 50.2898 2.76682C41.3441 2.97965 36.3152 9.44197 36.3152 9.44197C36.3152 9.44197 37.6498 11.4445 39.1585 13.6986C39.1391 13.9501 39.1198 14.192 39.1198 14.4435C39.1198 17.0265 39.9612 19.4063 41.3828 21.3412C36.3249 91.7689 104.941 65.8809 105.908 65.8809C106.449 65.8809 120.714 71.1339 133.306 75.8065C136.294 76.9094 138.431 72.8849 135.849 71.0275Z" fill="url(#paint0_linear_409_10791)"/>
<path d="M46.8082 12.1991C48.042 12.1991 49.0422 11.1986 49.0422 9.96437C49.0422 8.73017 48.042 7.72964 46.8082 7.72964C45.5744 7.72964 44.5742 8.73017 44.5742 9.96437C44.5742 11.1986 45.5744 12.1991 46.8082 12.1991Z" fill="white"/>
<path d="M41.2861 10.1385C41.2861 10.1385 30.1644 6.40429 30 16.3106V20.4511C31.9729 20.4511 33.9554 19.2902 35.9283 19.2902C37.7175 19.2902 39.4969 20.4511 41.2861 20.4511V10.1385Z" fill="url(#paint1_linear_409_10791)"/>
<path d="M63.5584 18.4679C63.5584 18.4679 51.6147 31.4893 62.9491 50.8666C74.2835 70.2439 107.823 50.6731 107.823 50.6731L63.5584 18.4679Z" fill="url(#paint2_linear_409_10791)"/>
</g>
<defs>
<linearGradient id="paint0_linear_409_10791" x1="42.4076" y1="23.5103" x2="122.077" y2="85.1039" gradientUnits="userSpaceOnUse">
<stop stop-color="#E9457E"/>
<stop offset="0.4218" stop-color="#E71D73"/>
<stop offset="0.8525" stop-color="#7D2F65"/>
</linearGradient>
<linearGradient id="paint1_linear_409_10791" x1="35.1631" y1="9.21491" x2="36.0532" y2="20.4714" gradientUnits="userSpaceOnUse">
<stop stop-color="#FDC800"/>
<stop offset="0.6685" stop-color="#F18F34"/>
</linearGradient>
<linearGradient id="paint2_linear_409_10791" x1="58.064" y1="38.9438" x2="107.815" y2="38.9438" gradientUnits="userSpaceOnUse">
<stop stop-color="#EC608A"/>
<stop offset="0.4218" stop-color="#EC638B"/>
<stop offset="0.8525" stop-color="#E8407B"/>
</linearGradient>
<clipPath id="clip0_409_10791">
<rect width="107" height="76" fill="white" transform="translate(30)"/>
</clipPath>
</defs>
</svg>
