<svg width="375" height="667" viewBox="0 0 375 667" fill="none" xmlns="http://www.w3.org/2000/svg">
<g clip-path="url(#clip0_97_18557)" filter="url(#filter0_d_97_18557)">
<rect width="375" height="667" fill="white"/>
<g clip-path="url(#clip1_97_18557)">
<rect width="375" height="667" fill="white"/>
</g>
<g opacity="0.8">
<path d="M214.243 293.947C214.147 293.947 214.057 293.94 213.961 293.934L205.244 293.257C195.784 292.525 186.215 291.465 176.811 290.111L171.498 289.345C167.887 288.826 164.435 287.595 161.531 285.783C160.879 285.379 160.549 284.764 160.639 284.142C160.728 283.52 161.222 283.02 161.963 282.815C165.265 281.892 168.924 281.68 172.542 282.2L177.855 282.966C183.504 283.779 189.215 284.709 194.823 285.742L194.707 286.378C189.105 285.345 183.401 284.415 177.765 283.602L172.452 282.836C168.931 282.33 165.368 282.535 162.149 283.431C161.668 283.567 161.346 283.861 161.291 284.224C161.236 284.586 161.462 284.962 161.888 285.222C164.723 286.986 168.08 288.19 171.608 288.696L176.921 289.462C186.318 290.809 195.867 291.869 205.312 292.6L214.03 293.277C215.094 293.359 216.021 292.84 216.131 292.101C216.24 291.356 215.499 290.604 214.449 290.378L205.896 288.573C205.216 288.429 202.731 287.909 202.045 287.773L202.175 287.137C202.862 287.28 205.34 287.793 206.026 287.937L214.579 289.742C215.986 290.036 216.927 291.089 216.769 292.19C216.611 293.229 215.554 293.947 214.243 293.947Z" fill="#2C2A71"/>
<path d="M190.547 316.458C190.444 316.458 190.348 316.451 190.245 316.437L188.632 316.205C187.925 316.102 187.314 315.637 187.032 314.981L180.003 298.707L180.6 298.454L187.63 314.728C187.822 315.172 188.24 315.494 188.728 315.562L190.341 315.794C190.787 315.856 191.233 315.712 191.549 315.384C191.858 315.07 192.002 314.639 191.94 314.201C191.7 313.545 188.055 303.363 188.35 291.39L189.002 291.404C188.7 303.582 192.524 313.9 192.565 314.003C192.572 314.023 192.579 314.044 192.579 314.064C192.689 314.714 192.483 315.364 192.016 315.835C191.618 316.239 191.096 316.458 190.547 316.458Z" fill="#2C2A71"/>
<path d="M190.265 282.514L189.648 282.323C191.371 276.812 197.954 265.365 198.228 264.88C198.414 264.49 198.407 264.032 198.194 263.628C197.981 263.232 197.597 262.965 197.15 262.897L195.537 262.664C195.057 262.596 194.563 262.78 194.247 263.156L186.991 271.868L186.49 271.451L193.746 262.739C194.199 262.192 194.92 261.919 195.627 262.021L197.24 262.254C197.899 262.35 198.455 262.739 198.764 263.321C199.079 263.902 199.093 264.579 198.805 265.18C198.729 265.317 191.975 277.071 190.265 282.514Z" fill="#2C2A71"/>
<path d="M180.29 278.905L176.972 282.888L177.473 283.303L180.792 279.319L180.29 278.905Z" fill="#2C2A71"/>
<path d="M192.833 304.594C192.771 304.594 192.702 304.587 192.64 304.58L190.54 304.279L190.636 303.637L192.737 303.937C192.922 303.965 193.1 303.917 193.251 303.808C193.402 303.698 193.498 303.534 193.526 303.349L193.759 301.715C193.787 301.531 193.739 301.353 193.629 301.202C193.519 301.052 193.354 300.956 193.169 300.929L189.915 300.464L190.011 299.821L193.265 300.286C193.622 300.334 193.938 300.525 194.151 300.813C194.363 301.1 194.459 301.455 194.405 301.811L194.171 303.445C194.068 304.115 193.492 304.594 192.833 304.594Z" fill="#2C2A71"/>
<path d="M194.061 311.569C194.007 311.569 193.952 311.562 193.89 311.555L191.837 311.432L191.879 310.782L193.952 310.912C194.103 310.933 194.233 310.905 194.329 310.837C194.425 310.769 194.487 310.673 194.501 310.57L194.672 309.374C194.707 309.141 194.528 308.929 194.267 308.888L191.309 308.635L191.364 307.992L194.336 308.252C194.968 308.341 195.393 308.888 195.311 309.469L195.139 310.666C195.098 310.953 194.94 311.206 194.7 311.37C194.521 311.5 194.295 311.569 194.061 311.569Z" fill="#2C2A71"/>
<path d="M195.75 278.603C195.688 278.603 195.62 278.596 195.558 278.589L192.304 278.124L192.4 277.482L195.654 277.947C196.038 278.001 196.389 277.735 196.443 277.359L196.677 275.724C196.704 275.54 196.656 275.362 196.546 275.212C196.437 275.061 196.272 274.965 196.086 274.938L193.986 274.637L194.082 273.994L196.183 274.295C196.917 274.398 197.432 275.082 197.322 275.813L197.089 277.448C196.986 278.118 196.409 278.603 195.75 278.603Z" fill="#2C2A71"/>
<path d="M199.093 270.952C199.038 270.952 198.983 270.945 198.928 270.938L195.97 270.685L196.025 270.042L198.997 270.302C199.141 270.323 199.265 270.295 199.368 270.22C199.464 270.152 199.525 270.056 199.539 269.953L199.711 268.757C199.725 268.647 199.697 268.538 199.622 268.449C199.546 268.353 199.436 268.292 199.306 268.271L197.253 268.148L197.295 267.498L199.368 267.628C199.683 267.676 199.944 267.82 200.123 268.046C200.308 268.278 200.384 268.565 200.342 268.846L200.171 270.042C200.13 270.329 199.972 270.582 199.731 270.746C199.553 270.876 199.326 270.952 199.093 270.952Z" fill="#2C2A71"/>
<path d="M215.478 289.667L214.881 289.407L216.659 285.325C216.776 285.065 216.755 284.771 216.618 284.518C216.481 284.265 216.233 284.101 215.952 284.06L214.668 283.882C214.346 283.834 214.037 283.957 213.831 284.21L209.849 288.99L209.348 288.573L213.323 283.793C213.666 283.376 214.215 283.157 214.758 283.239L216.041 283.424C216.529 283.492 216.94 283.779 217.181 284.203C217.421 284.634 217.448 285.133 217.249 285.585L215.478 289.667Z" fill="#2C2A71"/>
<path d="M213.851 300.156C213.776 300.156 213.7 300.149 213.625 300.142L212.341 299.958C211.799 299.883 211.339 299.52 211.126 299.021L208.998 293.961L209.595 293.708L211.723 298.768C211.847 299.062 212.122 299.267 212.43 299.315L213.714 299.5C213.996 299.541 214.277 299.452 214.483 299.247C214.689 299.048 214.785 298.768 214.751 298.488L214.236 294.235L214.881 294.159L215.396 298.412C215.458 298.898 215.293 299.37 214.936 299.712C214.641 299.999 214.256 300.156 213.851 300.156Z" fill="#2C2A71"/>
</g>
<g opacity="0.8">
<path d="M388.325 392.329L388.126 392.131L388.801 391.478L389 391.676L388.325 392.329ZM385.476 389.471C384.592 388.591 383.698 387.71 382.805 386.84L383.46 386.168C384.354 387.038 385.247 387.918 386.141 388.808L385.476 389.471ZM380.104 384.239C379.201 383.379 378.288 382.518 377.374 381.658L378.02 380.976C378.933 381.836 379.846 382.696 380.75 383.557L380.104 384.239ZM374.624 379.106C373.701 378.256 372.778 377.415 371.844 376.585L372.48 375.892C373.413 376.733 374.336 377.573 375.26 378.424L374.624 379.106ZM369.045 374.092C368.102 373.262 367.168 372.441 366.215 371.62L366.831 370.908C367.784 371.729 368.727 372.55 369.67 373.38L369.045 374.092ZM363.366 369.177C362.413 368.366 361.45 367.565 360.487 366.764L361.092 366.042C362.055 366.843 363.018 367.654 363.971 368.465L363.366 369.177ZM357.588 364.381C356.615 363.59 355.642 362.808 354.669 362.027L355.255 361.295C356.238 362.076 357.211 362.868 358.184 363.659L357.588 364.381ZM351.72 359.703C350.738 358.932 349.745 358.17 348.752 357.409L349.328 356.667C350.32 357.428 351.313 358.2 352.306 358.971L351.72 359.703ZM345.754 355.134C344.751 354.382 343.748 353.641 342.736 352.899L343.292 352.147C344.304 352.889 345.307 353.641 346.31 354.392L345.754 355.134ZM339.707 350.693C338.695 349.962 337.672 349.24 336.65 348.518L337.196 347.756C338.218 348.478 339.241 349.21 340.263 349.942L339.707 350.693ZM333.562 346.362C332.53 345.65 331.497 344.948 330.455 344.245L330.981 343.474C332.023 344.176 333.056 344.888 334.088 345.6L333.562 346.362ZM327.337 342.159C326.295 341.466 325.242 340.784 324.19 340.102L324.706 339.32C325.759 340.003 326.811 340.685 327.853 341.377L327.337 342.159ZM321.033 338.084C319.971 337.412 318.918 336.749 317.846 336.096L318.342 335.295C319.415 335.958 320.477 336.621 321.539 337.293L321.033 338.084ZM314.639 334.128C313.567 333.476 312.495 332.833 311.413 332.2L311.889 331.389C312.971 332.032 314.044 332.675 315.126 333.327L314.639 334.128ZM308.176 330.311C307.094 329.688 306.002 329.065 304.91 328.442L305.376 327.631C306.469 328.244 307.561 328.867 308.643 329.5L308.176 330.311ZM301.634 326.612C300.542 326.009 299.44 325.406 298.338 324.812L298.784 323.991C299.886 324.585 300.988 325.188 302.09 325.791L301.634 326.612ZM295.012 323.042C293.9 322.459 292.788 321.885 291.676 321.311L292.103 320.481C293.225 321.054 294.337 321.638 295.448 322.221L295.012 323.042ZM288.33 319.61C287.208 319.047 286.086 318.493 284.964 317.949L285.381 317.108C286.513 317.662 287.635 318.216 288.757 318.78L288.33 319.61ZM281.569 316.317C280.437 315.783 279.306 315.249 278.164 314.715L278.561 313.864C279.703 314.389 280.834 314.923 281.976 315.467L281.569 316.317ZM274.749 313.152C273.607 312.638 272.465 312.124 271.313 311.62L271.691 310.759C272.842 311.263 273.994 311.778 275.136 312.292L274.749 313.152ZM267.868 310.126C266.717 309.632 265.565 309.147 264.404 308.663L264.771 307.802C265.933 308.287 267.084 308.771 268.246 309.266L267.868 310.126ZM260.929 307.238C259.767 306.774 258.606 306.309 257.434 305.844L257.782 304.974C258.953 305.438 260.115 305.903 261.286 306.368L260.929 307.238ZM253.93 304.489C252.758 304.044 251.587 303.599 250.405 303.164L250.733 302.284C251.914 302.719 253.086 303.164 254.267 303.609L253.93 304.489ZM246.871 301.878C245.689 301.453 244.508 301.038 243.326 300.622L243.634 299.742C244.826 300.157 246.007 300.573 247.188 300.998L246.871 301.878ZM239.762 299.406C238.571 299.01 237.38 298.615 236.188 298.229L236.476 297.339C237.668 297.725 238.869 298.12 240.06 298.526L239.762 299.406Z" fill="#2C2A71"/>
</g>
<g opacity="0.8">
<path d="M-51.4852 386.621L-52 386.224C-51.4714 385.541 -50.936 384.857 -50.4006 384.173L-49.8858 384.577C-50.4212 385.254 -50.9566 385.93 -51.4852 386.621ZM-48.2726 382.546L-48.7806 382.142C-48.2383 381.465 -47.6892 380.795 -47.14 380.125L-46.6389 380.535C-47.1812 381.199 -47.7303 381.869 -48.2726 382.546ZM-44.9777 378.539L-45.4788 378.122C-44.9228 377.458 -44.3599 376.795 -43.797 376.139L-43.3028 376.556C-43.8657 377.212 -44.4217 377.875 -44.9777 378.539ZM-41.6073 374.593L-42.1015 374.169C-41.5318 373.513 -40.9552 372.863 -40.3786 372.221L-39.8912 372.651C-40.4609 373.294 -41.0375 373.944 -41.6073 374.593ZM-38.1545 370.723L-38.635 370.285C-38.0515 369.643 -37.4681 369.007 -36.8777 368.371L-36.3972 368.808C-36.9876 369.444 -37.571 370.08 -38.1545 370.723ZM-34.6262 366.914L-35.0998 366.47C-34.5026 365.841 -33.9054 365.212 -33.3014 364.589L-32.8346 365.041C-33.4387 365.663 -34.0359 366.285 -34.6262 366.914ZM-31.0292 363.181L-31.496 362.73C-30.8851 362.114 -30.2742 361.499 -29.6632 360.883L-29.2033 361.341C-29.8143 361.95 -30.4183 362.565 -31.0292 363.181ZM-27.3568 359.523L-27.8098 359.058C-27.192 358.449 -26.5674 357.847 -25.9427 357.252L-25.4897 357.717C-26.1143 358.312 -26.7321 358.914 -27.3568 359.523ZM-23.6088 355.933L-24.055 355.461C-23.4235 354.866 -22.7851 354.278 -22.1536 353.69L-21.7143 354.169C-22.3458 354.75 -22.9773 355.338 -23.6088 355.933ZM-19.7922 352.418L-20.2315 351.939C-19.5863 351.358 -18.941 350.784 -18.2958 350.209L-17.8633 350.695C-18.5017 351.262 -19.147 351.837 -19.7922 352.418ZM-15.907 348.979L-16.3326 348.486C-15.6804 347.919 -15.0215 347.351 -14.3625 346.79L-13.9369 347.283C-14.5959 347.85 -15.2548 348.411 -15.907 348.979ZM-11.9531 345.621L-12.3718 345.122C-11.706 344.568 -11.0401 344.014 -10.3674 343.467L-9.95553 343.966C-10.6214 344.52 -11.2872 345.067 -11.9531 345.621ZM-7.9374 342.339L-8.3424 341.833C-7.66282 341.293 -6.98325 340.753 -6.30367 340.219L-5.89867 340.725C-6.58511 341.265 -7.25782 341.799 -7.9374 342.339ZM-3.85308 339.139L-4.25122 338.626C-3.56477 338.1 -2.87147 337.573 -2.18503 337.053L-1.79376 337.573C-2.4802 338.086 -3.16664 338.612 -3.85308 339.139ZM0.293022 336.021L-0.0913849 335.501C0.608784 334.988 1.30895 334.475 2.00912 333.969L2.39353 334.496C1.68649 334.995 0.986324 335.508 0.293022 336.021ZM4.49404 332.985L4.11649 332.458C4.82353 331.959 5.53742 331.46 6.24446 330.968L6.61514 331.501C5.9081 331.986 5.20107 332.486 4.49404 332.985ZM8.76369 330.031L8.39988 329.497C9.11378 329.012 9.83454 328.526 10.5622 328.048L10.926 328.588C10.1915 329.067 9.47759 329.545 8.76369 330.031ZM13.0814 327.166L12.7313 326.619C13.4589 326.147 14.1866 325.682 14.9211 325.217L15.2711 325.764C14.5367 326.229 13.809 326.694 13.0814 327.166ZM17.4609 324.383L17.1177 323.836C17.8522 323.378 18.5935 322.926 19.3349 322.475L19.6712 323.029C18.9299 323.473 18.1954 323.931 17.4609 324.383ZM21.8953 321.689L21.5589 321.135C22.3003 320.69 23.0485 320.253 23.8036 319.815L24.1331 320.376C23.3849 320.813 22.6367 321.251 21.8953 321.689ZM26.3778 319.09L26.0551 318.53C26.8102 318.099 27.5653 317.675 28.3204 317.258L28.6361 317.825C27.8879 318.235 27.1328 318.659 26.3778 319.09ZM30.9151 316.574L30.6062 316.006C31.3682 315.596 32.1301 315.186 32.8989 314.782L33.201 315.357C32.439 315.753 31.6771 316.164 30.9151 316.574ZM35.5005 314.153L35.1985 313.579C35.9673 313.182 36.743 312.786 37.5118 312.396L37.807 312.977C37.0382 313.36 36.2694 313.757 35.5005 314.153ZM40.134 311.822L39.8457 311.24C40.6214 310.857 41.4039 310.481 42.1865 310.105L42.4679 310.686C41.6854 311.063 40.9097 311.439 40.134 311.822ZM44.8087 309.579L44.5341 308.991C45.3166 308.621 46.106 308.259 46.8955 307.903L47.1632 308.492C46.3738 308.854 45.5912 309.216 44.8087 309.579ZM49.5314 307.438L49.2637 306.844C50.0531 306.495 50.8493 306.146 51.6456 305.804L51.9065 306.399C51.1102 306.741 50.3208 307.09 49.5314 307.438ZM54.2884 305.387L54.0344 304.792C54.8307 304.457 55.6338 304.129 56.437 303.801L56.6841 304.402C55.8878 304.724 55.0847 305.052 54.2884 305.387ZM59.0935 303.431L58.8532 302.83C59.6564 302.508 60.4664 302.194 61.2764 301.886L61.5098 302.488C60.6998 302.802 59.8966 303.117 59.0935 303.431ZM63.926 301.572L63.6995 300.963C64.5095 300.662 65.3264 300.361 66.1364 300.067L66.356 300.676C65.546 300.977 64.736 301.271 63.926 301.572ZM68.8066 299.814L68.5938 299.206C69.4107 298.918 70.2276 298.638 71.0513 298.358L71.2572 298.973C70.4335 299.247 69.6166 299.527 68.8066 299.814ZM73.7147 298.153L73.5087 297.537C74.3325 297.271 75.1562 297.004 75.9799 296.744L76.179 297.359C75.3553 297.619 74.5315 297.886 73.7147 298.153ZM78.6502 296.587L78.458 295.965C79.2886 295.712 80.1123 295.465 80.9429 295.219L81.1282 295.841C80.3045 296.088 79.4739 296.334 78.6502 296.587ZM83.62 295.123L83.4415 294.501C84.2721 294.262 85.1096 294.029 85.9402 293.804L86.1118 294.426C85.2812 294.658 84.4506 294.884 83.62 295.123ZM88.6173 293.756L88.4525 293.127C89.29 292.908 90.1275 292.689 90.9649 292.477L91.1228 293.106C90.2922 293.325 89.4548 293.537 88.6173 293.756ZM93.642 292.491L93.491 291.862C94.3285 291.657 95.1728 291.458 96.0171 291.267L96.1613 291.896C95.3169 292.094 94.4795 292.293 93.642 292.491ZM98.6874 291.328L98.5501 290.693C99.3944 290.508 100.239 290.323 101.09 290.145L101.22 290.781C100.369 290.959 99.5317 291.144 98.6874 291.328ZM103.753 290.262L103.623 289.626C104.474 289.455 105.318 289.291 106.17 289.133L106.293 289.769C105.449 289.934 104.598 290.098 103.753 290.262ZM108.84 289.304L108.723 288.668C109.574 288.518 110.426 288.368 111.277 288.224L111.387 288.86C110.542 289.004 109.691 289.147 108.84 289.304ZM113.954 288.436L113.851 287.793C114.709 287.656 115.567 287.527 116.425 287.397L116.521 288.039C115.663 288.169 114.812 288.306 113.954 288.436ZM119.095 287.677L119.006 287.034C119.864 286.918 120.729 286.802 121.587 286.692L121.669 287.335C120.811 287.445 119.953 287.561 119.095 287.677ZM124.25 287.014L124.175 286.371C125.04 286.268 125.898 286.173 126.763 286.077L126.831 286.72C125.973 286.815 125.108 286.918 124.25 287.014ZM129.419 286.46L129.358 285.817C130.222 285.735 131.087 285.653 131.952 285.578L132.007 286.221C131.142 286.296 130.277 286.371 129.419 286.46ZM134.595 286.002L134.547 285.359C135.412 285.291 136.277 285.229 137.149 285.168L137.19 285.817C136.325 285.872 135.46 285.933 134.595 286.002ZM139.785 285.646L139.743 284.997C140.608 284.949 141.473 284.901 142.338 284.86L142.372 285.509C141.508 285.55 140.643 285.598 139.785 285.646ZM144.96 285.4L144.933 284.75C145.798 284.716 146.663 284.689 147.534 284.661L147.555 285.311C146.69 285.338 145.825 285.366 144.96 285.4Z" fill="#2C2A71"/>
</g>
<path d="M93.4541 380.343C30.4599 285.64 -104.96 315.922 -132.801 334.707L-16.8484 862.991L507.117 747.986C509.693 739.355 509.275 708.937 486.995 656.311C459.145 590.528 386.695 506.376 312.295 506.279C139.036 506.055 176.413 505.06 93.4541 380.343Z" fill="#EEF7FE"/>
<path d="M93.4541 380.343C30.4599 285.64 -104.96 315.922 -132.801 334.707L-16.8484 862.991L507.117 747.986C509.693 739.355 509.275 708.937 486.995 656.311C459.145 590.528 386.695 506.376 312.295 506.279C139.036 506.055 176.413 505.06 93.4541 380.343Z" fill="#EEF7FE"/>
<g opacity="0.8">
<path d="M4.52972 424.359L3.88477 425.004L24.1944 445.314L24.8394 444.669L4.52972 424.359Z" fill="#2C2A71"/>
<path d="M27.3972 449.796C26.2966 449.796 25.2598 449.313 24.5544 448.471L20.9668 443.776L23.2167 441.526L30.0271 446.227C30.6109 446.628 30.8906 447.312 30.7629 448.005C30.6352 448.702 30.1275 449.237 29.4403 449.407L28.2759 449.693C27.9901 449.76 27.6921 449.796 27.3972 449.796ZM22.1769 443.855L25.2659 447.899C25.7858 448.519 26.5672 448.884 27.3972 448.884C27.6222 448.884 27.8441 448.857 28.063 448.805L29.2275 448.519C29.565 448.437 29.8052 448.182 29.869 447.838C29.9329 447.495 29.7991 447.172 29.5133 446.975L23.3261 442.706L22.1769 443.855Z" fill="#2C2A71"/>
<path d="M5.22364 428.033L0.5445 424.461C-0.562199 423.533 -1.03042 422.104 -0.689895 420.721L-0.404099 419.557C-0.209515 418.76 0.501934 418.204 1.32284 418.204C1.90963 418.204 2.43866 418.483 2.77614 418.97L7.47657 425.78L5.22364 428.033ZM1.3198 419.119C0.979274 419.119 0.587065 419.322 0.477611 419.775L0.194856 420.937C-0.0605361 421.98 0.292148 423.056 1.11609 423.746L5.14459 426.82L6.29386 425.671L2.02212 419.49C1.80018 419.167 1.48702 419.119 1.3198 419.119Z" fill="#2C2A71"/>
<path d="M25.8132 424.969C25.3358 424.969 24.8889 424.783 24.5544 424.446C24.217 424.108 24.0315 423.661 24.0315 423.187C24.0315 422.71 24.217 422.263 24.5544 421.928C24.8919 421.591 25.3389 421.405 25.8132 421.405C26.2875 421.405 26.7374 421.591 27.0749 421.928C27.4124 422.266 27.5979 422.713 27.5979 423.187C27.5979 423.664 27.4124 424.111 27.0749 424.446C26.7374 424.783 26.2905 424.969 25.8132 424.969ZM25.8132 422.314C25.5821 422.314 25.3632 422.405 25.199 422.57C25.0348 422.734 24.9436 422.953 24.9436 423.184C24.9436 423.415 25.0348 423.634 25.199 423.798C25.5274 424.126 26.102 424.126 26.4304 423.798C26.5945 423.634 26.6857 423.415 26.6857 423.184C26.6857 422.953 26.5945 422.734 26.4304 422.57C26.2662 422.405 26.0473 422.314 25.8132 422.314Z" fill="#2C2A71"/>
<path d="M28.0693 420.285L26.429 421.925L27.0739 422.57L28.7142 420.93L28.0693 420.285Z" fill="#2C2A71"/>
<path d="M22.7667 429.408L22.0796 423.704L22.3988 423.214L24.3629 422.615L24.6274 423.488L23.0312 423.974L23.6697 429.298L22.7667 429.408Z" fill="#2C2A71"/>
<path d="M25.2932 426.92L19.5925 426.233L19.702 425.33L25.0257 425.969L25.5121 424.373L26.3847 424.637L25.7858 426.601L25.2932 426.92Z" fill="#2C2A71"/>
<path d="M0.75734 450L0.295202 449.888L-0.887506 448.705L-1 448.243L-0.124371 445.503C0.000285029 444.731 0.194869 443.971 0.453302 443.238C0.711734 442.506 1.03705 441.791 1.42014 441.119C1.97957 440.14 2.6667 439.24 3.46328 438.444L9.66565 432.247L10.3102 432.892L4.10784 439.091C3.36903 439.83 2.73359 440.663 2.21368 441.572C1.85492 442.195 1.55088 442.858 1.31069 443.539C1.06746 444.232 0.885036 444.95 0.766461 445.68L0.751259 445.747L-0.0483611 448.255L0.742138 449.045L3.31734 448.231C4.8953 447.978 6.37292 447.437 7.71373 446.619C8.51031 446.133 9.25216 445.552 9.91192 444.892L16.1143 438.696L16.7589 439.341L10.5534 445.54C9.84199 446.251 9.04541 446.875 8.18499 447.401C6.75297 448.273 5.17501 448.854 3.49368 449.128L0.75734 450Z" fill="#2C2A71"/>
<path d="M18.8568 437.182L18.2152 436.534L25.3206 429.487C26.7618 428.045 27.8259 426.236 28.4036 424.251L29.8964 419.11L24.7521 420.6C22.7667 421.174 20.9546 422.241 19.5165 423.682L12.4081 430.733L11.7666 430.086L18.872 423.038C20.4195 421.49 22.3654 420.344 24.4997 419.724L30.4345 418L31 418.566L29.2762 424.503C28.6559 426.635 27.5127 428.581 25.9621 430.131L18.8568 437.182Z" fill="#2C2A71"/>
<path d="M17.3061 435.713L16.6676 435.063L19.2975 432.487C20.0515 431.733 20.0515 430.499 19.2945 429.742L19.261 429.708C18.8931 429.341 18.4036 429.137 17.8837 429.137C17.3638 429.137 16.8774 429.341 16.5095 429.705L13.8765 432.284L13.238 431.633L15.868 429.058C16.4031 428.523 17.1206 428.225 17.8837 428.225C18.6469 428.225 19.3644 428.523 19.9025 429.061L19.936 429.094C21.0518 430.21 21.0518 432.022 19.936 433.135L17.3061 435.713Z" fill="#2C2A71"/>
<path d="M6.58264 445.306C5.84991 445.306 5.12022 445.026 4.56383 444.47L4.53039 444.436C3.41761 443.323 3.41761 441.511 4.53039 440.395L11.1341 433.795L11.7787 434.439L5.17495 441.043C4.41789 441.8 4.41789 443.035 5.17495 443.792L5.20839 443.825C5.96848 444.582 7.19984 444.582 7.95689 443.825L14.5606 437.224L15.2052 437.869L8.60145 444.47C8.04506 445.029 7.31537 445.306 6.58264 445.306Z" fill="#2C2A71"/>
</g>
<g clip-path="url(#clip2_97_18557)">
<path d="M128.066 584.86C128.142 584.794 128.217 584.737 128.298 584.676L135.654 579.164C143.633 573.182 151.927 567.382 160.295 561.93L165.023 558.85C168.235 556.756 171.816 555.333 175.367 554.751C176.162 554.617 176.849 554.875 177.21 555.428C177.571 555.982 177.527 556.719 177.083 557.395C175.115 560.414 172.372 563.119 169.154 565.218L164.426 568.298C159.399 571.573 154.243 574.8 149.097 577.874L148.748 577.29C153.889 574.221 159.04 570.999 164.056 567.733L168.784 564.654C171.916 562.611 174.588 559.978 176.51 557.038C176.795 556.596 176.846 556.14 176.638 555.816C176.43 555.491 175.99 555.352 175.474 555.441C172.011 556.014 168.524 557.392 165.386 559.439L160.658 562.519C152.301 567.972 144.023 573.758 136.055 579.731L128.699 585.242C127.801 585.915 127.43 586.968 127.855 587.628C128.285 588.293 129.393 588.373 130.379 587.823L138.387 583.317C139.023 582.959 141.347 581.646 141.984 581.278L142.322 581.871C141.68 582.233 139.367 583.547 138.725 583.909L130.717 588.416C129.401 589.159 127.928 588.98 127.289 588.001C126.693 587.07 127.03 585.77 128.066 584.86Z" fill="#2C2A71"/>
<path d="M131.172 550.644C131.253 550.573 131.334 550.512 131.425 550.451L132.86 549.516C133.49 549.107 134.295 549.05 134.972 549.374L151.812 557.354L151.516 557.968L134.676 549.988C134.216 549.77 133.662 549.806 133.23 550.09L131.795 551.026C131.399 551.286 131.147 551.709 131.125 552.187C131.099 552.65 131.284 553.09 131.636 553.393C132.281 553.745 142.222 559.26 150.293 568.923L149.768 569.364C141.561 559.535 131.384 554.036 131.28 553.983C131.261 553.972 131.241 553.96 131.227 553.944C130.689 553.507 130.402 552.851 130.443 552.155C130.478 551.56 130.738 551.025 131.172 550.644Z" fill="#2C2A71"/>
<path d="M154.936 577.262L155.556 576.985C158.018 582.533 160.757 596.141 160.876 596.715C161 597.151 161.323 597.508 161.771 597.679C162.215 597.845 162.703 597.789 163.103 597.534L164.539 596.599C164.966 596.319 165.228 595.831 165.216 595.315L164.906 583.401L165.591 583.383L165.902 595.297C165.923 596.043 165.543 596.759 164.914 597.168L163.478 598.103C162.891 598.485 162.182 598.562 161.535 598.318C160.882 598.077 160.402 597.552 160.212 596.877C160.177 596.717 157.36 582.747 154.936 577.262Z" fill="#2C2A71"/>
<path d="M165.319 573.195L165.178 567.747L164.494 567.767L164.635 573.215L165.319 573.195Z" fill="#2C2A71"/>
<path d="M137.594 561.601C137.643 561.558 137.702 561.516 137.756 561.479L139.623 560.26L139.993 560.834L138.125 562.053C137.96 562.16 137.852 562.322 137.809 562.513C137.765 562.704 137.803 562.9 137.91 563.065L138.859 564.518C138.965 564.683 139.126 564.79 139.318 564.833C139.509 564.875 139.705 564.837 139.871 564.73L142.763 562.84L143.133 563.415L140.24 565.304C139.925 565.514 139.543 565.582 139.176 565.502C138.808 565.423 138.486 565.209 138.283 564.89L137.334 563.437C136.95 562.836 137.074 562.058 137.594 561.601Z" fill="#2C2A71"/>
<path d="M131.786 556.944C131.83 556.906 131.878 556.873 131.931 556.836L133.638 555.509L134.056 556.051L132.328 557.386C132.195 557.475 132.111 557.587 132.082 557.708C132.054 557.828 132.071 557.947 132.132 558.037L132.826 559.102C132.96 559.309 133.248 559.353 133.483 559.204L135.995 557.352L136.398 557.898L133.869 559.754C133.309 560.122 132.593 559.985 132.255 559.469L131.561 558.404C131.394 558.149 131.344 557.84 131.419 557.543C131.47 557.317 131.602 557.106 131.786 556.944Z" fill="#2C2A71"/>
<path d="M153.316 584.155C153.365 584.113 153.424 584.07 153.477 584.033L156.37 582.143L156.74 582.718L153.847 584.607C153.506 584.831 153.414 585.284 153.631 585.619L154.58 587.072C154.687 587.237 154.848 587.344 155.039 587.387C155.23 587.429 155.427 587.391 155.592 587.284L157.46 586.065L157.83 586.639L155.962 587.858C155.311 588.287 154.43 588.103 154.009 587.449L153.06 585.997C152.677 585.396 152.795 584.612 153.316 584.155Z" fill="#2C2A71"/>
<path d="M155.982 592.518C156.025 592.48 156.073 592.447 156.121 592.415L158.634 590.563L159.036 591.108L156.508 592.965C156.38 593.048 156.302 593.156 156.272 593.286C156.244 593.407 156.262 593.526 156.322 593.616L157.016 594.68C157.081 594.776 157.179 594.844 157.3 594.862C157.426 594.885 157.556 594.857 157.673 594.783L159.379 593.457L159.797 593.998L158.07 595.334C157.787 595.515 157.482 595.582 157.184 595.528C156.876 595.473 156.618 595.298 156.456 595.048L155.761 593.984C155.595 593.729 155.544 593.419 155.62 593.123C155.671 592.896 155.797 592.68 155.982 592.518Z" fill="#2C2A71"/>
<path d="M130.059 589.099L130.711 588.89L132.137 593.347C132.226 593.634 132.446 593.852 132.73 593.956C133.014 594.061 133.323 594.019 133.573 593.856L134.711 593.106C134.999 592.92 135.157 592.609 135.145 592.266L134.975 585.729L135.66 585.711L135.835 592.244C135.853 592.811 135.571 593.365 135.086 593.676L133.944 594.421C133.511 594.705 132.987 594.763 132.503 594.595C132.015 594.421 131.647 594.046 131.491 593.552L130.059 589.099Z" fill="#2C2A71"/>
<path d="M124.069 579.685C124.128 579.632 124.193 579.585 124.257 579.538L125.399 578.794C125.88 578.477 126.494 578.444 127.009 578.691L132.199 581.212L131.903 581.826L126.712 579.305C126.411 579.159 126.052 579.187 125.774 579.363L124.632 580.108C124.382 580.271 124.221 580.536 124.201 580.841C124.175 581.14 124.294 581.429 124.516 581.626L127.872 584.629L127.415 585.136L124.058 582.133C123.673 581.792 123.475 581.305 123.52 580.788C123.554 580.356 123.749 579.965 124.069 579.685Z" fill="#2C2A71"/>
<path d="M-77.6796 627.882L-77.3856 627.901L-77.4662 628.885L-77.7602 628.866L-77.6796 627.882ZM-73.4466 628.164C-72.1382 628.246 -70.8219 628.322 -69.5125 628.39L-69.5637 629.375C-70.8731 629.308 -72.1894 629.232 -73.5125 629.149L-73.4466 628.164ZM-65.5754 628.571C-64.2651 628.624 -62.9468 628.671 -61.6286 628.717L-61.6651 629.703C-62.9833 629.657 -64.3015 629.611 -65.6119 629.558L-65.5754 628.571ZM-57.6866 628.825C-56.3674 628.856 -55.055 628.88 -53.7417 628.889L-53.7635 629.877C-55.0837 629.86 -56.396 629.836 -57.7152 629.805L-57.6866 628.825ZM-49.8017 628.916C-48.4805 628.918 -47.174 628.919 -45.8518 628.907L-45.8442 629.896C-47.1664 629.909 -48.4807 629.914 -49.8019 629.912L-49.8017 628.916ZM-41.9069 628.86C-40.5916 628.84 -39.2753 628.804 -37.959 628.769L-37.9367 629.76C-39.253 629.795 -40.5761 629.822 -41.8914 629.842L-41.9069 628.86ZM-34.016 628.641C-32.6987 628.592 -31.3883 628.534 -30.0778 628.476L-30.033 629.461C-31.3513 629.525 -32.6685 629.575 -33.9858 629.625L-34.016 628.641ZM-26.1368 628.267C-24.8254 628.195 -23.513 628.108 -22.2006 628.021L-22.141 629.006C-23.4534 629.093 -24.7727 629.172 -26.0919 629.251L-26.1368 628.267ZM-18.2546 627.738C-16.9413 627.636 -15.6348 627.527 -14.3204 627.41L-14.2383 628.39C-15.5527 628.506 -16.866 628.608 -18.1794 628.71L-18.2546 627.738ZM-10.3989 627.052C-9.0914 626.928 -7.78296 626.789 -6.47449 626.65L-6.37766 627.63C-7.68614 627.769 -9.00145 627.9 -10.3168 628.032L-10.3989 627.052ZM-2.5402 626.212C-1.23074 626.058 0.0718193 625.897 1.38226 625.728L1.50164 626.703C0.191198 626.871 -1.11827 627.025 -2.42772 627.178L-2.5402 626.212ZM5.29204 625.215C6.59562 625.038 7.9002 624.848 9.20477 624.657L9.33884 625.632C8.03427 625.823 6.72972 626.014 5.42613 626.19L5.29204 625.215ZM13.0979 624.061C14.4034 623.855 15.6943 623.649 16.994 623.421L17.1574 624.398C15.8509 624.618 14.5522 624.831 13.2467 625.037L13.0979 624.061ZM20.892 622.751C22.1917 622.523 23.4845 622.287 24.7783 622.037L24.9643 623.008C23.6636 623.251 22.3708 623.486 21.0633 623.721L20.892 622.751ZM28.645 621.284C29.9319 621.026 31.2267 620.761 32.5215 620.495L32.7153 621.459C31.4274 621.733 30.1326 621.998 28.8388 622.248L28.645 621.284ZM36.3784 619.668C37.6595 619.387 38.9484 619.1 40.2304 618.804L40.4468 619.762C39.1648 620.058 37.8759 620.346 36.587 620.633L36.3784 619.668ZM44.0854 617.896C45.3684 617.585 46.6446 617.267 47.9208 616.949L48.1597 617.901C46.8757 618.226 45.5927 618.537 44.3096 618.847L44.0854 617.896ZM51.7434 615.972C53.0205 615.64 54.2909 615.299 55.5543 614.951L55.8079 615.904C54.5298 616.251 53.2595 616.592 51.9823 616.925L51.7434 615.972ZM59.3681 613.885C60.6325 613.522 61.897 613.158 63.1692 612.788L63.4454 613.736C62.18 614.114 60.9156 614.477 59.6365 614.839L59.3681 613.885ZM66.9507 611.654C68.2093 611.269 69.4678 610.883 70.7274 610.483L71.0261 611.424C69.7666 611.824 68.5002 612.217 67.2416 612.602L66.9507 611.654ZM74.4844 609.273C75.737 608.865 76.9829 608.449 78.2365 608.026L78.5431 608.96C77.2894 609.383 76.0436 609.799 74.7831 610.214L74.4844 609.273ZM81.969 606.741C83.209 606.302 84.4489 605.864 85.6967 605.419L86.0258 606.347C84.778 606.792 83.5381 607.231 82.2903 607.676L81.969 606.741ZM89.4047 604.058C90.6388 603.597 91.8729 603.136 93.1079 602.661L93.4595 603.583C92.2245 604.059 90.9904 604.52 89.7485 604.988L89.4047 604.058ZM96.7915 601.225C98.0196 600.742 99.241 600.25 100.462 599.759L100.83 600.668C99.6005 601.166 98.3791 601.657 97.151 602.141L96.7915 601.225ZM104.121 598.248C105.337 597.734 106.552 597.22 107.761 596.699L108.151 597.601C106.942 598.123 105.719 598.644 104.497 599.15L104.121 598.248Z" fill="#2C2A71"/>
<path d="M273.696 327.357L274.378 327.313C274.435 328.22 274.486 329.132 274.538 330.043L273.851 330.081C273.804 329.175 273.758 328.269 273.696 327.357ZM273.985 332.804L274.666 332.771C274.708 333.682 274.738 334.592 274.769 335.502L274.089 335.526C274.057 334.625 274.026 333.715 273.985 332.804ZM274.162 338.255L274.847 338.237C274.868 339.146 274.883 340.061 274.894 340.97L274.214 340.983C274.203 340.074 274.182 339.164 274.162 338.255ZM274.236 343.709L274.92 343.701C274.925 344.615 274.92 345.528 274.911 346.436L274.227 346.433C274.231 345.53 274.236 344.617 274.236 343.709ZM274.192 349.161L274.876 349.173C274.86 350.086 274.841 350.993 274.815 351.905L274.132 351.892C274.158 350.98 274.177 350.073 274.192 349.161ZM274.047 354.617L274.729 354.639C274.694 355.55 274.658 356.461 274.613 357.372L273.931 357.339C273.977 356.429 274.017 355.523 274.047 354.617ZM273.795 360.061L274.477 360.093C274.421 361.003 274.365 361.913 274.309 362.823L273.628 362.78C273.689 361.875 273.739 360.97 273.795 360.061ZM273.431 365.497L274.112 365.55C274.046 366.46 273.97 367.368 273.889 368.271L273.208 368.218C273.289 367.315 273.36 366.411 273.431 365.497ZM272.96 370.933L273.64 370.996C273.554 371.904 273.457 372.811 273.366 373.713L272.687 373.64C272.783 372.743 272.874 371.84 272.96 370.933ZM272.383 376.356L273.062 376.429C272.956 377.336 272.844 378.237 272.733 379.138L272.055 379.055C272.165 378.164 272.277 377.263 272.383 376.356ZM271.7 381.767L272.377 381.861C272.256 382.762 272.129 383.667 271.997 384.567L271.32 384.473C271.446 383.568 271.578 382.668 271.7 381.767ZM270.905 387.162L271.582 387.266C271.44 388.165 271.298 389.064 271.146 389.963L270.475 389.854C270.616 388.955 270.763 388.061 270.905 387.162ZM270.009 392.54L270.68 392.658C270.518 393.556 270.356 394.454 270.189 395.347L269.518 395.228C269.686 394.326 269.847 393.438 270.009 392.54ZM269.002 397.9L269.673 398.029C269.495 398.921 269.313 399.818 269.131 400.704L268.462 400.565C268.648 399.684 268.825 398.792 269.002 397.9ZM267.89 403.239L268.554 403.383C268.356 404.273 268.159 405.164 267.957 406.049L267.288 405.9C267.5 405.015 267.698 404.125 267.89 403.239ZM266.677 408.551L267.34 408.705C267.128 409.589 266.91 410.479 266.693 411.358L266.031 411.194C266.252 410.32 266.465 409.435 266.677 408.551ZM265.353 413.845L266.01 414.014C265.783 414.893 265.55 415.776 265.308 416.659L264.646 416.485C264.894 415.597 265.126 414.724 265.353 413.845ZM263.929 419.103L264.585 419.292C264.338 420.17 264.086 421.042 263.828 421.918L263.172 421.729C263.43 420.852 263.682 419.98 263.929 419.103ZM262.4 424.339L263.051 424.533C262.788 425.404 262.516 426.275 262.243 427.146L261.593 426.941C261.871 426.076 262.133 425.205 262.4 424.339ZM260.766 429.543L261.416 429.747C261.138 430.612 260.851 431.477 260.558 432.346L259.909 432.132C260.196 431.267 260.484 430.402 260.766 429.543ZM259.027 434.704L259.671 434.923C259.373 435.787 259.071 436.646 258.764 437.499L258.121 437.27C258.427 436.427 258.729 435.568 259.027 434.704ZM257.188 439.839L257.826 440.073C257.509 440.925 257.191 441.778 256.864 442.63L256.227 442.385C256.554 441.544 256.871 440.691 257.188 439.839ZM255.245 444.931L255.882 445.175C255.55 446.022 255.212 446.873 254.875 447.714L254.239 447.46C254.58 446.624 254.913 445.777 255.245 444.931ZM253.202 449.986L253.833 450.246C253.486 451.086 253.128 451.926 252.771 452.766L252.146 452.502C252.503 451.662 252.855 450.827 253.202 449.986ZM251.065 455L251.69 455.274C251.328 456.109 250.955 456.943 250.578 457.771L249.959 457.492C250.331 456.658 250.698 455.829 251.065 455ZM248.819 459.966L249.443 460.251C249.061 461.074 248.674 461.901 248.282 462.724L247.663 462.435C248.055 461.612 248.437 460.789 248.819 459.966ZM246.484 464.886L247.097 465.18C246.7 465.997 246.294 466.813 245.887 467.629L245.274 467.325C245.68 466.519 246.087 465.703 246.484 464.886ZM244.044 469.764L244.652 470.072C244.24 470.883 243.818 471.693 243.392 472.498L242.79 472.185C243.212 471.374 243.628 470.569 244.044 469.764ZM241.517 474.584L242.118 474.908C241.687 475.707 241.25 476.512 240.814 477.306L240.219 476.977C240.65 476.178 241.086 475.384 241.517 474.584ZM238.881 479.357L239.471 479.691C239.025 480.484 238.574 481.272 238.118 482.065L237.528 481.721C237.989 480.934 238.44 480.146 238.881 479.357ZM236.156 484.074L236.745 484.417C236.28 485.199 235.814 485.981 235.344 486.758L234.759 486.41C235.23 485.633 235.696 484.851 236.156 484.074ZM233.343 488.734L233.927 489.092C233.446 489.868 232.966 490.634 232.481 491.404L231.903 491.041C232.383 490.276 232.868 489.505 233.343 488.734ZM230.432 493.337L231.005 493.705C230.515 494.47 230.015 495.234 229.515 495.988L228.948 495.616C229.443 494.856 229.942 494.102 230.432 493.337ZM227.433 497.883L228 498.266C227.49 499.019 226.98 499.773 226.466 500.521L225.905 500.134C226.409 499.385 226.924 498.637 227.433 497.883ZM224.342 502.367L224.897 502.759C224.378 503.502 223.848 504.245 223.314 504.981L222.764 504.584C223.294 503.842 223.818 503.105 224.342 502.367ZM221.162 506.785L221.712 507.192C221.173 507.923 220.634 508.655 220.085 509.385L219.541 508.974C220.09 508.243 220.623 507.516 221.162 506.785ZM217.9 511.141L218.445 511.553C217.891 512.278 217.338 512.993 216.774 513.708L216.236 513.291C216.789 512.576 217.347 511.856 217.9 511.141ZM214.546 515.425L215.08 515.846C214.512 516.555 213.944 517.265 213.371 517.968L212.843 517.542C213.41 516.843 213.983 516.139 214.546 515.425ZM211.109 519.658L211.636 520.094C211.053 520.797 210.466 521.495 209.878 522.193L209.356 521.752C209.944 521.054 210.521 520.355 211.109 519.658ZM207.574 523.823L208.09 524.269C207.493 524.956 206.891 525.648 206.289 526.329L205.778 525.879C206.38 525.197 206.977 524.51 207.574 523.823ZM203.962 527.922L204.467 528.378C203.855 529.059 203.244 529.729 202.627 530.405L202.127 529.945C202.738 529.274 203.351 528.593 203.962 527.922ZM200.263 531.945L200.758 532.41C200.131 533.074 199.505 533.739 198.874 534.398L198.385 533.929C199.016 533.27 199.647 532.61 200.263 531.945ZM196.492 535.896L196.976 536.371C196.34 537.025 195.7 537.673 195.054 538.327L194.571 537.842C195.216 537.199 195.857 536.55 196.492 535.896ZM192.64 539.777L193.123 540.261C192.473 540.899 191.823 541.537 191.168 542.169L190.69 541.679C191.345 541.047 191.995 540.41 192.64 539.777ZM188.722 543.561L189.194 544.055C188.535 544.682 187.87 545.303 187.201 545.929L186.734 545.431C187.398 544.809 188.062 544.188 188.722 543.561Z" fill="#2C2A71"/>
</g>
<path d="M86.4112 349.358L87.0014 349.691C86.5553 350.484 86.1045 351.272 85.6482 352.065L85.0587 351.722C85.5197 350.934 85.9705 350.146 86.4112 349.358ZM83.6866 354.074L84.2761 354.417C83.8104 355.199 83.3446 355.981 82.8742 356.758L82.2901 356.41C82.7606 355.633 83.2263 354.851 83.6866 354.074ZM80.8739 358.734L81.4573 359.092C80.9767 359.868 80.4967 360.634 80.0114 361.404L79.4334 361.042C79.9133 360.276 80.3987 359.505 80.8739 358.734ZM77.963 363.337L78.5356 363.705C78.0455 364.47 77.5452 365.234 77.0456 365.988L76.4784 365.616C76.9733 364.856 77.4729 364.102 77.963 363.337ZM74.964 367.883L75.5305 368.266C75.0207 369.019 74.5109 369.773 73.9964 370.521L73.4354 370.134C73.9398 369.385 74.4543 368.637 74.964 367.883ZM71.8722 372.367L72.4278 372.759C71.9086 373.502 71.3792 374.245 70.845 374.981L70.2948 374.584C70.8242 373.842 71.3482 373.105 71.8722 372.367ZM68.693 376.785L69.2425 377.192C68.7036 377.923 68.1647 378.655 67.6156 379.385L67.0715 378.974C67.6206 378.243 68.1541 377.516 68.693 376.785ZM65.4311 381.141L65.9752 381.553C65.4214 382.278 64.8683 382.993 64.305 383.708L63.7663 383.291C64.3194 382.576 64.878 381.856 65.4311 381.141ZM62.0771 385.425L62.6103 385.846C62.0423 386.555 61.4742 387.265 60.9015 387.968L60.3737 387.542C60.941 386.843 61.5138 386.139 62.0771 385.425ZM58.6397 389.658L59.1669 390.094C58.5839 390.797 57.9962 391.495 57.4085 392.193L56.8868 391.752C57.4745 391.054 58.052 390.355 58.6397 389.658ZM55.1048 393.823L55.6211 394.269C55.0239 394.956 54.4213 395.648 53.8194 396.329L53.3085 395.879C53.9104 395.197 54.5076 394.51 55.1048 393.823ZM51.4926 397.923L51.998 398.378C51.386 399.059 50.7746 399.729 50.1577 400.405L49.6577 399.945C50.2691 399.274 50.8812 398.593 51.4926 397.923ZM47.7937 401.945L48.2883 402.41C47.662 403.075 47.0357 403.739 46.4046 404.399L45.9155 403.929C46.5465 403.27 47.1775 402.61 47.7937 401.945ZM44.023 405.897L44.5067 406.371C43.8709 407.025 43.2304 407.673 42.5844 408.327L42.1014 407.842C42.7467 407.199 43.3872 406.55 44.023 405.897ZM40.1703 409.777L40.6534 410.261C40.0033 410.899 39.3533 411.537 38.6985 412.169L38.2209 411.68C38.8757 411.047 39.5257 410.41 40.1703 409.777ZM36.2525 413.561L36.7247 414.055C36.0652 414.682 35.401 415.303 34.7313 415.929L34.2645 415.431C34.9288 414.809 35.593 414.188 36.2525 413.561Z" fill="#2C2A71"/>
<path d="M346.828 441.543L346.445 441.282C349.549 436.804 352.797 430.194 352.608 425.061L353.074 425.044C353.268 430.287 349.975 437.003 346.828 441.543Z" fill="#2C2A71"/>
<path d="M324.616 428.59C324.503 428.605 324.393 428.536 324.359 428.426C324.294 428.203 323.966 427.053 323.861 426.407C323.3 422.946 324.069 419.561 326.025 416.874C328.246 413.825 331.837 411.829 336.408 411.095C341.943 410.208 345.777 411.975 348.009 413.612C350.772 415.64 352.646 418.593 353.152 421.711C353.225 422.159 353.363 423.195 353.38 423.661C353.383 423.79 353.286 423.896 353.157 423.903C353.027 423.906 352.92 423.807 352.914 423.682C352.897 423.242 352.761 422.212 352.69 421.787C351.85 416.593 346.253 409.982 336.483 411.55C332.036 412.263 328.551 414.2 326.405 417.146C324.524 419.73 323.782 422.993 324.323 426.335C324.401 426.815 324.632 427.694 324.809 428.297C324.845 428.421 324.774 428.549 324.648 428.581C324.638 428.586 324.627 428.588 324.616 428.59Z" fill="#2C2A71"/>
<path d="M336.322 443.227C331.37 439.497 326.563 435.29 324.979 429.805L325.426 429.676C326.973 435.033 331.712 439.177 336.605 442.856L336.322 443.227Z" fill="#2C2A71"/>
<path d="M338.793 442.661C335.629 437.729 333.906 432.26 333.672 426.406L334.138 426.385C334.367 432.155 336.068 437.549 339.19 442.41L338.793 442.661Z" fill="#2C2A71"/>
<path d="M344.11 441.808L343.659 441.697C345.558 434.157 344.382 427.889 343.511 424.822L343.958 424.696C344.842 427.806 346.035 434.165 344.11 441.808Z" fill="#2C2A71"/>
<path d="M337.367 449.326C337.243 449.343 337.127 449.26 337.106 449.134L336.111 442.995C336.103 442.933 336.116 442.872 336.154 442.823C336.192 442.773 336.247 442.74 336.305 442.731L346.788 441.05C346.913 441.036 347.035 441.115 347.053 441.242L348.048 447.381C348.056 447.442 348.043 447.503 348.005 447.553C347.967 447.602 347.913 447.636 347.854 447.644L337.371 449.326C337.371 449.326 337.371 449.326 337.367 449.326ZM336.609 443.154L337.529 448.835L347.554 447.228L346.635 441.547L336.609 443.154Z" fill="#2C2A71"/>
<path d="M324.763 428.551C324.734 428.555 324.703 428.552 324.673 428.545C324.549 428.514 324.472 428.388 324.507 428.265C325.116 425.914 326.491 424.552 328.6 424.213C328.64 424.208 328.676 424.203 328.717 424.197C330.708 423.919 332.7 424.689 333.939 426.188C334.655 424.339 336.356 422.972 338.385 422.644C340.418 422.32 342.459 423.09 343.724 424.619C344.441 422.773 346.142 421.402 348.17 421.075C350.287 420.739 352.017 421.6 353.336 423.645C353.407 423.754 353.375 423.895 353.266 423.965C353.157 424.036 353.015 424.004 352.944 423.896C351.734 422.02 350.153 421.219 348.241 421.53C346.238 421.85 344.582 423.281 344.024 425.167C343.999 425.252 343.926 425.317 343.839 425.33C343.743 425.339 343.661 425.307 343.609 425.233C342.483 423.611 340.451 422.769 338.456 423.096C336.452 423.416 334.796 424.847 334.238 426.733C334.213 426.818 334.14 426.883 334.053 426.895C333.965 426.908 333.875 426.872 333.824 426.798C332.697 425.177 330.677 424.34 328.673 424.661C326.765 424.968 325.515 426.216 324.957 428.372C324.93 428.472 324.854 428.538 324.763 428.551Z" fill="#2C2A71"/>
<path d="M334.175 425.801L333.709 425.821C333.386 417.758 336.072 411.751 336.097 411.692L336.521 411.88C336.496 411.939 333.857 417.855 334.175 425.801Z" fill="#2C2A71"/>
<path d="M343.512 424.696C341.253 416.741 336.496 411.935 336.448 411.887L336.778 411.56C336.826 411.609 341.669 416.502 343.959 424.567L343.512 424.696Z" fill="#2C2A71"/>
<g clip-path="url(#clip3_97_18557)">
<path d="M450.616 547.635L450.844 546.823C450.098 546.515 449.359 546.201 448.618 545.874L448.377 546.685C449.123 547.006 449.863 547.32 450.616 547.635ZM444.97 545.18L445.226 544.384C444.101 543.873 442.976 543.361 441.856 542.83L441.587 543.626C442.713 544.15 443.839 544.675 444.97 545.18ZM438.226 542.007L438.515 541.22C437.4 540.67 436.292 540.115 435.189 539.553L434.88 540.331C435.996 540.894 437.111 541.457 438.226 542.007ZM431.564 538.599L431.88 537.827C430.783 537.246 429.691 536.646 428.6 536.046L428.269 536.803C429.362 537.416 430.46 538.01 431.564 538.599ZM424.998 534.956L425.341 534.201C424.261 533.575 423.181 532.95 422.106 532.305L421.742 533.053C422.83 533.698 423.912 534.337 424.998 534.956ZM418.529 531.093L418.906 530.36C417.844 529.704 416.786 529.028 415.729 528.352L415.331 529.077C416.403 529.767 417.466 530.437 418.529 531.093ZM412.183 527.012L412.587 526.294C411.548 525.6 410.509 524.893 409.469 524.186L409.05 524.89C410.091 525.61 411.131 526.317 412.183 527.012ZM405.947 522.711L406.386 522.016C405.364 521.291 404.348 520.547 403.332 519.802L402.886 520.49C403.896 521.241 404.926 521.986 405.947 522.711ZM399.842 518.212L400.301 517.538C399.304 516.776 398.305 516.001 397.313 515.219L396.833 515.884C397.839 516.667 398.844 517.45 399.842 518.212ZM393.874 513.509L394.368 512.858C393.388 512.064 392.42 511.259 391.451 510.44L390.951 511.084C391.919 511.903 392.9 512.709 393.874 513.509ZM388.057 508.616L388.572 507.986C387.623 507.163 386.673 506.326 385.729 505.483L385.193 506.104C386.144 506.941 387.101 507.785 388.057 508.616ZM382.384 503.526L382.927 502.925C382.002 502.064 381.076 501.204 380.163 500.331L379.607 500.93C380.526 501.797 381.453 502.671 382.384 503.526ZM376.871 498.267L377.441 497.681C376.54 496.797 375.645 495.906 374.755 494.996L374.171 495.567C375.074 496.478 375.97 497.382 376.871 498.267ZM372.12 492.275C371.25 491.36 370.386 490.44 369.528 489.513L368.923 490.062C369.781 490.989 370.652 491.917 371.529 492.839L372.12 492.275ZM366.973 486.714C366.127 485.775 365.294 484.824 364.467 483.881L363.841 484.408C364.669 485.365 365.515 486.317 366.354 487.262L366.973 486.714ZM362.004 480.992C361.189 480.023 360.388 479.055 359.592 478.081L358.944 478.575C359.747 479.556 360.556 480.53 361.37 481.499L362.004 480.992ZM357.223 475.129C356.446 474.137 355.669 473.145 354.904 472.141L354.235 472.613C355 473.617 355.778 474.622 356.568 475.615L357.223 475.129ZM352.642 469.126C351.889 468.11 351.15 467.096 350.423 466.069L349.732 466.506C350.465 467.527 351.205 468.554 351.958 469.57L352.642 469.126ZM348.248 462.983C347.533 461.944 346.831 460.906 346.129 459.869L345.424 460.278C346.126 461.329 346.828 462.367 347.55 463.413L348.248 462.983Z" fill="#2C2A71"/>
</g>
</g>
<defs>
<filter id="filter0_d_97_18557" x="-4" y="0" width="383" height="675" filterUnits="userSpaceOnUse" color-interpolation-filters="sRGB">
<feFlood flood-opacity="0" result="BackgroundImageFix"/>
<feColorMatrix in="SourceAlpha" type="matrix" values="0 0 0 0 0 0 0 0 0 0 0 0 0 0 0 0 0 0 127 0" result="hardAlpha"/>
<feOffset dy="4"/>
<feGaussianBlur stdDeviation="2"/>
<feComposite in2="hardAlpha" operator="out"/>
<feColorMatrix type="matrix" values="0 0 0 0 0 0 0 0 0 0 0 0 0 0 0 0 0 0 0.25 0"/>
<feBlend mode="normal" in2="BackgroundImageFix" result="effect1_dropShadow_97_18557"/>
<feBlend mode="normal" in="SourceGraphic" in2="effect1_dropShadow_97_18557" result="shape"/>
</filter>
<clipPath id="clip0_97_18557">
<rect width="375" height="667" fill="white"/>
</clipPath>
<clipPath id="clip1_97_18557">
<rect width="375" height="667" fill="white"/>
</clipPath>
<clipPath id="clip2_97_18557">
<rect width="414" height="131" fill="white" transform="translate(360.535 425.441) rotate(138.717)"/>
</clipPath>
<clipPath id="clip3_97_18557">
<rect width="19" height="136" fill="white" transform="matrix(-0.715106 0.699017 0.699017 0.715106 356.072 449.87)"/>
</clipPath>
</defs>
</svg>
