<svg width="1440" height="1024" viewBox="0 0 1440 1024" fill="none" xmlns="http://www.w3.org/2000/svg">
<g clip-path="url(#clip0_148_3586)">
<rect width="1440" height="1024" fill="white"/>
<path d="M430.133 485.741C221.037 249.667 -139.325 384.445 -208.626 446.645L311.164 1853.28L1706.3 1337.74C1710.08 1313.05 1697.34 1229.67 1616.1 1093.64C1514.54 923.595 1283.5 720.099 1079.14 748.191C603.229 813.611 705.497 796.632 430.133 485.741Z" fill="#EEF7FE"/>
<path d="M312.166 873.898C378.284 798.217 515.566 412.708 283.697 34.5671" stroke="#2C2A71" stroke-opacity="0.7" stroke-width="2.2" stroke-dasharray="8 8 8 8 8 8 8 8"/>
<g clip-path="url(#clip1_148_3586)">
<g opacity="0.8">
<path d="M219.417 922.623L217.646 924.636L281.042 980.412L282.813 978.398L219.417 922.623Z" fill="#2C2A71"/>
<path d="M291.28 992.962C288.051 993.169 284.918 991.945 282.691 989.606L271.284 976.507L277.463 969.484L298.326 981.997C300.114 983.065 301.063 985.019 300.818 987.077C300.574 989.144 299.185 990.809 297.201 991.437L293.838 992.494C293.012 992.744 292.145 992.907 291.28 992.962ZM274.849 976.512L284.671 987.796C286.313 989.518 288.674 990.442 291.109 990.286C291.769 990.244 292.415 990.122 293.047 989.929L296.41 988.872C297.385 988.568 298.042 987.774 298.165 986.754C298.287 985.734 297.835 984.814 296.959 984.287L278.006 972.924L274.849 976.512Z" fill="#2C2A71"/>
<path d="M222.142 933.272L207.744 923.669C204.323 921.156 202.681 917.051 203.421 912.929L204.041 909.459C204.462 907.085 206.445 905.319 208.853 905.165C210.575 905.055 212.18 905.776 213.261 907.14L228.329 926.24L222.142 933.272ZM209.016 907.851C208.017 907.915 206.905 908.586 206.668 909.935L206.057 913.396C205.503 916.503 206.74 919.595 209.287 921.465L221.683 929.728L224.839 926.14L211.146 908.807C210.435 907.903 209.507 907.819 209.016 907.851Z" fill="#2C2A71"/>
<path d="M281.974 920.418C280.574 920.508 279.228 920.047 278.183 919.12C277.13 918.193 276.502 916.917 276.413 915.525C276.323 914.125 276.784 912.779 277.711 911.734C278.638 910.681 279.914 910.053 281.306 909.964C282.697 909.875 284.052 910.334 285.106 911.261C286.159 912.188 286.787 913.464 286.876 914.856C286.966 916.256 286.505 917.602 285.578 918.647C284.651 919.7 283.375 920.328 281.974 920.418ZM281.476 912.631C280.798 912.674 280.173 912.983 279.722 913.495C279.272 914.008 279.045 914.667 279.088 915.345C279.132 916.023 279.44 916.648 279.953 917.099C280.978 918.001 282.664 917.893 283.566 916.868C284.016 916.355 284.243 915.696 284.2 915.018C284.156 914.34 283.848 913.715 283.335 913.264C282.823 912.813 282.163 912.587 281.476 912.631Z" fill="#2C2A71"/>
<path d="M287.714 906.253L283.209 911.373L285.223 913.144L289.727 908.024L287.714 906.253Z" fill="#2C2A71"/>
<path d="M273.869 934.013L270.783 917.408L271.628 915.912L277.278 913.786L278.217 916.297L273.626 918.023L276.498 933.523L273.869 934.013Z" fill="#2C2A71"/>
<path d="M280.815 926.242L263.96 925.296L264.112 922.626L279.851 923.5L280.979 918.726L283.588 919.338L282.2 925.213L280.815 926.242Z" fill="#2C2A71"/>
<path d="M213.159 998.558L211.782 998.315L208.091 995.067L207.674 993.732L209.729 985.531C209.95 983.242 210.378 980.975 210.999 978.777C211.619 976.579 212.44 974.422 213.438 972.378C214.895 969.401 216.742 966.632 218.93 964.145L235.965 944.802L237.977 946.573L220.943 965.924C218.914 968.231 217.206 970.794 215.851 973.559C214.915 975.454 214.148 977.456 213.571 979.499C212.987 981.579 212.587 983.718 212.376 985.881L212.344 986.08L210.468 993.589L212.936 995.76L220.338 992.886C224.92 991.85 229.154 989.985 232.934 987.334C235.18 985.757 237.248 983.914 239.06 981.855L256.094 962.512L258.106 964.282L241.063 983.635C239.109 985.855 236.889 987.833 234.463 989.538C230.426 992.367 225.905 994.367 221.024 995.485L213.159 998.558Z" fill="#2C2A71"/>
<path d="M263.856 957.555L261.852 955.776L281.376 933.766C285.334 929.267 288.117 923.76 289.439 917.827L292.854 902.463L278.041 907.799C272.324 909.857 267.208 913.328 263.259 917.826L243.727 939.845L241.723 938.066L261.247 916.056C265.497 911.225 270.991 907.497 277.136 905.277L294.225 899.106L295.99 900.659L292.047 918.403C290.627 924.773 287.638 930.696 283.38 935.536L263.856 957.555Z" fill="#2C2A71"/>
<path d="M259.031 953.538L257.036 951.748L264.268 943.7C266.339 941.346 266.108 937.724 263.744 935.645L263.64 935.554C262.492 934.543 261.017 934.037 259.492 934.135C257.967 934.233 256.578 934.921 255.567 936.061L248.326 944.119L246.33 942.33L253.563 934.281C255.033 932.611 257.082 931.602 259.321 931.459C261.56 931.316 263.721 932.055 265.401 933.533L265.505 933.625C268.988 936.689 269.328 942.006 266.263 945.48L259.031 953.538Z" fill="#2C2A71"/>
<path d="M229.37 983.693C227.22 983.83 225.026 983.146 223.29 981.618L223.185 981.526C219.712 978.47 219.372 973.154 222.427 969.672L240.563 949.067L242.575 950.837L224.44 971.451C222.361 973.814 222.592 977.435 224.955 979.514L225.06 979.606C227.432 981.685 231.045 981.454 233.124 979.091L251.26 958.486L253.272 960.256L235.136 980.861C233.608 982.606 231.519 983.555 229.37 983.693Z" fill="#2C2A71"/>
</g>
</g>
<g clip-path="url(#clip2_148_3586)">
<g opacity="0.8">
<path d="M29.2679 116.829L27.7725 115.345L-18.9477 162.435L-17.4523 163.919L29.2679 116.829Z" fill="#2C2A71"/>
<path d="M20.7891 118.465L28.997 107.626C31.1286 105.061 34.4245 103.967 37.6225 104.741L40.3145 105.39C42.1559 105.832 43.4474 107.47 43.4549 109.366C43.4602 110.722 42.819 111.946 41.6986 112.73L26.0127 123.647L20.7891 118.465ZM41.3413 109.368C41.3382 108.581 40.8642 107.677 39.8169 107.429L37.132 106.786C34.7213 106.206 32.2388 107.03 30.6523 108.939L23.59 118.271L26.2547 120.915L40.491 110.993C41.2333 110.478 41.3428 109.754 41.3413 109.368Z" fill="#2C2A71"/>
<path d="M28.0543 165.989C28.05 164.886 28.4742 163.852 29.2506 163.077C30.0269 162.294 31.0574 161.862 32.1528 161.858C33.2552 161.853 34.2891 162.277 35.0646 163.054C35.8471 163.83 36.2795 164.861 36.2838 165.956C36.2881 167.051 35.8639 168.092 35.0876 168.875C34.3112 169.657 33.2807 170.09 32.1853 170.094C31.0829 170.098 30.049 169.674 29.2735 168.898C28.4911 168.121 28.0587 167.091 28.0543 165.989ZM34.1843 165.964C34.1822 165.431 33.9696 164.926 33.5889 164.548C33.2082 164.171 32.7018 163.962 32.1682 163.964C31.6345 163.966 31.1298 164.179 30.7521 164.559C29.9967 165.321 30.002 166.648 30.7633 167.403C31.144 167.781 31.6504 167.99 32.184 167.987C32.7177 167.985 33.2224 167.773 33.6001 167.392C33.9778 167.011 34.1864 166.505 34.1843 165.964Z" fill="#2C2A71"/>
<path d="M38.8922 171.156L35.0889 167.383L33.6052 168.878L37.4085 172.652L38.8922 171.156Z" fill="#2C2A71"/>
<path d="M17.7743 158.993L30.9408 157.354L32.0742 158.086L33.4754 162.617L31.4626 163.236L30.3245 159.554L18.0353 161.077L17.7743 158.993Z" fill="#2C2A71"/>
<path d="M23.5417 164.805L25.0767 151.633L27.1632 151.878L25.7371 164.179L29.4279 165.288L28.825 167.305L24.2835 165.94L23.5417 164.805Z" fill="#2C2A71"/>
<path d="M-29.9845 108.35L-29.7289 107.282L-27.0082 104.54L-25.9419 104.276L-19.6073 106.273C-17.8227 106.554 -16.0655 106.996 -14.3709 107.586C-12.6763 108.177 -11.0232 108.921 -9.46791 109.8C-7.20182 111.083 -5.11712 112.662 -3.27016 114.494L11.0966 128.762L9.6139 130.257L-4.75993 115.989C-6.47294 114.289 -8.40269 112.829 -10.5069 111.637C-11.9497 110.814 -13.4832 110.118 -15.0582 109.569C-16.6614 109.014 -18.3202 108.599 -20.0065 108.332L-20.1611 108.297L-25.9613 106.473L-27.7798 108.306L-25.8745 114.246C-25.2773 117.888 -24.014 121.296 -22.1129 124.385C-20.9822 126.22 -19.6343 127.928 -18.1046 129.446L-3.73776 143.714L-5.2205 145.209L-19.5944 130.934C-21.2439 129.297 -22.6906 127.463 -23.9132 125.481C-25.9415 122.181 -27.297 118.542 -27.9443 114.662L-29.9845 108.35Z" fill="#2C2A71"/>
<path d="M-0.215622 150.034L1.27417 148.546L17.6153 164.892C20.9567 168.207 25.1444 170.648 29.7348 171.964L41.6222 175.365L38.1347 163.498C36.7895 158.918 34.3084 154.743 30.967 151.435L14.6188 135.082L16.1086 133.594L32.4497 149.94C36.0379 153.5 38.7028 157.984 40.1546 162.907L44.19 176.598L42.8891 177.909L29.16 173.982C24.2321 172.569 19.7277 169.946 16.1325 166.379L-0.215622 150.034Z" fill="#2C2A71"/>
<path d="M3.16191 146.439L4.65875 144.958L10.6301 151.009C12.3784 152.743 15.2292 152.732 16.9707 150.977L17.0477 150.899C17.894 150.046 18.36 148.914 18.3552 147.713C18.3505 146.512 17.8756 145.391 17.0296 144.544L11.0512 138.487L12.5481 137.007L18.5194 143.057C19.7601 144.288 20.4548 145.942 20.4617 147.705C20.4687 149.467 19.7871 151.127 18.5491 152.375L18.4722 152.452C15.9054 155.04 11.7204 155.056 9.14031 152.489L3.16191 146.439Z" fill="#2C2A71"/>
<path d="M-19.0893 121.761C-19.096 120.069 -18.4566 118.381 -17.1767 117.091L-17.0998 117.013C-14.5399 114.433 -10.355 114.417 -7.76787 116.976L7.53649 132.167L6.05375 133.662L-9.25763 118.471C-11.0129 116.729 -13.8638 116.741 -15.6053 118.496L-15.6822 118.573C-17.4237 120.336 -17.4125 123.18 -15.6572 124.921L-0.352835 140.112L-1.83557 141.607L-17.1399 126.416C-18.437 125.136 -19.0826 123.453 -19.0893 121.761Z" fill="#2C2A71"/>
</g>
</g>
<g opacity="0.8">
<path d="M731.767 452.931C731.626 452.931 731.495 452.921 731.354 452.911L718.547 451.917C704.651 450.842 690.594 449.285 676.779 447.296L668.974 446.171C663.67 445.408 658.598 443.599 654.332 440.938C653.374 440.345 652.89 439.441 653.021 438.527C653.152 437.613 653.878 436.879 654.967 436.578C659.818 435.222 665.193 434.91 670.507 435.674L678.312 436.799C686.611 437.994 695.001 439.36 703.24 440.877L703.068 441.811C694.84 440.295 686.46 438.929 678.181 437.733L670.376 436.608C665.203 435.865 659.969 436.166 655.24 437.482C654.534 437.683 654.06 438.115 653.979 438.647C653.898 439.18 654.231 439.732 654.856 440.114C659.021 442.705 663.952 444.473 669.135 445.217L676.94 446.342C690.746 448.321 704.772 449.878 718.648 450.952L731.455 451.947C733.018 452.067 734.379 451.304 734.54 450.219C734.702 449.124 733.613 448.019 732.07 447.688L719.505 445.036C718.507 444.825 714.856 444.062 713.848 443.861L714.04 442.926C715.048 443.137 718.688 443.891 719.697 444.102L732.262 446.754C734.329 447.186 735.71 448.732 735.478 450.35C735.246 451.877 733.693 452.931 731.767 452.931Z" fill="#2C2A71"/>
<path d="M696.958 486C696.807 486 696.665 485.99 696.514 485.97L694.144 485.628C693.106 485.478 692.208 484.795 691.795 483.83L681.469 459.923L682.346 459.551L692.672 483.459C692.954 484.112 693.57 484.584 694.286 484.684L696.655 485.026C697.311 485.116 697.966 484.905 698.43 484.423C698.884 483.961 699.096 483.328 699.005 482.685C698.652 481.721 693.297 466.764 693.731 449.175L694.689 449.195C694.245 467.085 699.862 482.243 699.923 482.394C699.933 482.424 699.943 482.454 699.943 482.484C700.104 483.439 699.802 484.393 699.116 485.086C698.531 485.679 697.765 486 696.958 486Z" fill="#2C2A71"/>
<path d="M696.543 436.136L695.636 435.855C698.167 427.759 707.837 410.943 708.241 410.23C708.513 409.657 708.503 408.984 708.19 408.392C707.878 407.809 707.313 407.417 706.658 407.317L704.288 406.975C703.582 406.875 702.856 407.146 702.392 407.699L691.733 420.496L690.997 419.883L701.656 407.086C702.321 406.282 703.38 405.881 704.419 406.031L706.789 406.373C707.757 406.513 708.574 407.086 709.027 407.94C709.491 408.794 709.511 409.788 709.088 410.672C708.977 410.873 699.054 428.14 696.543 436.136Z" fill="#2C2A71"/>
<path d="M681.889 430.833L677.015 436.685L677.752 437.294L682.627 431.443L681.889 430.833Z" fill="#2C2A71"/>
<path d="M700.315 468.572C700.224 468.572 700.123 468.562 700.033 468.552L696.947 468.11L697.088 467.165L700.174 467.607C700.446 467.648 700.708 467.577 700.93 467.417C701.152 467.256 701.293 467.015 701.333 466.744L701.676 464.343C701.717 464.072 701.646 463.81 701.485 463.589C701.323 463.368 701.081 463.228 700.809 463.188L696.029 462.505L696.17 461.56L700.95 462.243C701.475 462.314 701.938 462.595 702.251 463.017C702.564 463.439 702.705 463.961 702.624 464.483L702.281 466.884C702.13 467.869 701.283 468.572 700.315 468.572Z" fill="#2C2A71"/>
<path d="M702.121 478.818C702.04 478.818 701.959 478.808 701.869 478.798L698.854 478.617L698.914 477.663L701.959 477.853C702.181 477.884 702.373 477.843 702.514 477.743C702.655 477.643 702.746 477.502 702.766 477.351L703.018 475.593C703.069 475.252 702.807 474.94 702.423 474.88L698.077 474.508L698.158 473.564L702.524 473.946C703.452 474.077 704.077 474.88 703.956 475.734L703.704 477.492C703.644 477.914 703.412 478.285 703.059 478.526C702.796 478.717 702.464 478.818 702.121 478.818Z" fill="#2C2A71"/>
<path d="M704.601 430.39C704.511 430.39 704.41 430.38 704.319 430.37L699.539 429.687L699.68 428.743L704.46 429.426C705.025 429.506 705.539 429.115 705.62 428.562L705.963 426.161C706.003 425.89 705.932 425.629 705.771 425.408C705.61 425.187 705.368 425.046 705.095 425.006L702.01 424.564L702.151 423.62L705.237 424.062C706.316 424.213 707.072 425.217 706.91 426.292L706.568 428.693C706.416 429.677 705.569 430.39 704.601 430.39Z" fill="#2C2A71"/>
<path d="M709.512 419.15C709.431 419.15 709.351 419.14 709.27 419.13L704.924 418.758L705.005 417.814L709.371 418.196C709.583 418.226 709.764 418.186 709.915 418.075C710.057 417.975 710.147 417.834 710.168 417.684L710.42 415.926C710.44 415.765 710.399 415.604 710.289 415.474C710.178 415.333 710.016 415.243 709.825 415.212L706.81 415.032L706.87 414.077L709.915 414.268C710.379 414.339 710.763 414.55 711.025 414.881C711.297 415.223 711.408 415.644 711.347 416.056L711.095 417.814C711.035 418.236 710.803 418.608 710.45 418.849C710.188 419.04 709.855 419.15 709.512 419.15Z" fill="#2C2A71"/>
<path d="M733.582 446.643L732.705 446.262L735.317 440.265C735.488 439.883 735.458 439.451 735.256 439.08C735.054 438.708 734.691 438.467 734.278 438.406L732.392 438.145C731.918 438.075 731.465 438.256 731.162 438.627L725.313 445.649L724.577 445.036L730.416 438.015C730.92 437.402 731.727 437.081 732.523 437.201L734.409 437.472C735.125 437.573 735.73 437.995 736.083 438.617C736.436 439.25 736.476 439.984 736.184 440.647L733.582 446.643Z" fill="#2C2A71"/>
<path d="M731.192 462.053C731.081 462.053 730.97 462.043 730.859 462.032L728.973 461.761C728.177 461.651 727.501 461.118 727.189 460.385L724.062 452.952L724.94 452.58L728.066 460.013C728.247 460.445 728.651 460.747 729.105 460.817L730.99 461.088C731.404 461.149 731.817 461.018 732.12 460.717C732.422 460.425 732.563 460.013 732.513 459.602L731.757 453.354L732.705 453.243L733.461 459.491C733.552 460.204 733.31 460.897 732.785 461.4C732.352 461.822 731.787 462.053 731.192 462.053Z" fill="#2C2A71"/>
</g>
<path d="M6 750C26 736 331 474 616 454" stroke="#2C2A71" stroke-opacity="0.7" stroke-width="2.2" stroke-dasharray="8 8 8 8 8 8 8 8"/>
<path d="M777 457C901.5 462 1238.4 529.3 1436 716.5" stroke="#2C2A71" stroke-opacity="0.7" stroke-width="2.2" stroke-dasharray="8 8 8 8 8 8 8 8"/>
<path d="M55 187C112.891 247.532 250.139 366.6 336 358.618" stroke="#2C2A71" stroke-opacity="0.7" stroke-width="2.2" stroke-dasharray="8 8 8 8 8 8 8 8"/>
<g opacity="0.8">
<path d="M1415.09 463.675L1416.84 464.867L1454.38 409.596L1452.62 408.404L1415.09 463.675Z" fill="#2C2A71"/>
<path d="M1423.18 460.485L1417.06 472.736C1415.42 475.669 1412.36 477.363 1409.05 477.189L1406.27 477.044C1404.36 476.948 1402.78 475.565 1402.42 473.69C1402.17 472.349 1402.57 471.018 1403.54 470.035L1417.05 456.321L1423.18 460.485ZM1404.52 473.297C1404.66 474.075 1405.3 474.882 1406.38 474.934L1409.16 475.073C1411.65 475.201 1413.96 473.926 1415.18 471.742L1420.44 461.195L1417.31 459.071L1405.06 471.53C1404.42 472.178 1404.44 472.915 1404.52 473.297Z" fill="#2C2A71"/>
<path d="M1407.19 414.781C1407.39 415.871 1407.17 416.974 1406.54 417.885C1405.92 418.803 1404.98 419.422 1403.89 419.63C1402.8 419.838 1401.7 419.609 1400.79 418.984C1399.87 418.361 1399.25 417.42 1399.04 416.337C1398.84 415.253 1399.06 414.144 1399.69 413.226C1400.31 412.307 1401.25 411.688 1402.34 411.481C1403.43 411.273 1404.53 411.501 1405.44 412.126C1406.36 412.75 1406.98 413.69 1407.19 414.781ZM1401.12 415.94C1401.22 416.468 1401.53 416.928 1401.97 417.232C1402.42 417.535 1402.96 417.648 1403.49 417.547C1404.02 417.446 1404.48 417.142 1404.78 416.695C1405.39 415.802 1405.14 414.489 1404.24 413.882C1403.79 413.578 1403.25 413.466 1402.73 413.566C1402.2 413.667 1401.74 413.971 1401.44 414.418C1401.13 414.865 1401.02 415.405 1401.12 415.94Z" fill="#2C2A71"/>
<path d="M1395.5 411.671L1399.96 414.703L1401.16 412.948L1396.69 409.916L1395.5 411.671Z" fill="#2C2A71"/>
<path d="M1418.66 419.803L1405.93 423.864L1404.67 423.348L1402.44 419.122L1404.32 418.137L1406.13 421.571L1418.01 417.788L1418.66 419.803Z" fill="#2C2A71"/>
<path d="M1411.87 415.116L1412.79 428.441L1410.68 428.585L1409.82 416.143L1405.96 415.729L1406.18 413.62L1410.93 414.13L1411.87 415.116Z" fill="#2C2A71"/>
<path d="M1475.32 461.097L1475.26 462.202L1473.08 465.421L1472.07 465.88L1465.43 465.075C1463.61 465.128 1461.79 465.015 1460 464.745C1458.21 464.474 1456.44 464.043 1454.74 463.461C1452.26 462.61 1449.9 461.433 1447.73 459.961L1430.87 448.496L1432.06 446.742L1448.93 458.206C1450.94 459.571 1453.12 460.659 1455.43 461.45C1457.01 461.998 1458.65 462.403 1460.31 462.654C1462 462.907 1463.72 463.011 1465.44 462.963L1465.6 462.969L1471.68 463.7L1473.14 461.549L1470.16 456.021C1468.89 452.526 1467.01 449.386 1464.56 446.68C1463.1 445.072 1461.45 443.631 1459.65 442.412L1442.79 430.946L1443.98 429.192L1460.85 440.663C1462.79 441.978 1464.56 443.526 1466.14 445.262C1468.75 448.153 1470.77 451.504 1472.13 455.226L1475.32 461.097Z" fill="#2C2A71"/>
<path d="M1438.13 425.342L1436.93 427.09L1417.72 413.933C1413.8 411.27 1409.2 409.629 1404.42 409.176L1392.02 408.01L1397.67 419.113C1399.85 423.398 1403.08 427.072 1407 429.729L1426.21 442.891L1425.01 444.64L1405.81 431.483C1401.59 428.623 1398.13 424.677 1395.78 420.072L1389.25 407.265L1390.29 405.726L1404.61 407.072C1409.75 407.558 1414.7 409.321 1418.92 412.186L1438.13 425.342Z" fill="#2C2A71"/>
<path d="M1435.45 429.526L1434.24 431.269L1427.21 426.384C1425.16 424.991 1422.34 425.53 1420.94 427.59L1420.88 427.681C1420.2 428.682 1419.94 429.89 1420.17 431.077C1420.4 432.265 1421.08 433.288 1422.07 433.969L1429.11 438.859L1427.9 440.602L1420.87 435.718C1419.41 434.729 1418.42 433.219 1418.09 431.476C1417.75 429.732 1418.12 427.963 1419.12 426.498L1419.18 426.407C1421.24 423.371 1425.38 422.579 1428.41 424.643L1435.45 429.526Z" fill="#2C2A71"/>
<path d="M1462.05 449.838C1462.37 451.512 1462.05 453.301 1461.02 454.816L1460.96 454.907C1458.9 457.935 1454.76 458.726 1451.73 456.671L1433.76 444.465L1434.95 442.711L1452.92 454.915C1454.98 456.315 1457.81 455.776 1459.2 453.715L1459.27 453.624C1460.66 451.557 1460.13 448.744 1458.07 447.345L1440.1 435.139L1441.29 433.385L1459.26 445.591C1460.78 446.617 1461.73 448.164 1462.05 449.838Z" fill="#2C2A71"/>
</g>
<path d="M1059 358C1115 338.667 1257.2 319.4 1378 397" stroke="#2C2A71" stroke-width="2.2" stroke-dasharray="8 8 8 8 8 8 8 8"/>
<g clip-path="url(#clip3_148_3586)">
<path d="M1358.95 159.513C1358.79 159.503 1358.64 159.483 1358.48 159.461L1343.81 157.421C1327.89 155.212 1311.83 152.437 1296.07 149.183L1287.17 147.342C1281.12 146.093 1275.41 143.657 1270.68 140.296C1269.62 139.547 1269.13 138.473 1269.35 137.43C1269.56 136.387 1270.45 135.594 1271.72 135.324C1277.4 134.103 1283.6 134.12 1289.67 135.37L1298.57 137.211C1308.03 139.167 1317.59 141.326 1326.97 143.647L1326.7 144.71C1317.34 142.389 1307.79 140.231 1298.35 138.277L1289.45 136.436C1283.55 135.219 1277.51 135.2 1271.97 136.383C1271.14 136.565 1270.57 137.029 1270.44 137.636C1270.31 138.243 1270.65 138.902 1271.35 139.385C1275.96 142.658 1281.51 145.037 1287.42 146.255L1296.32 148.096C1312.07 151.338 1328.1 154.111 1343.99 156.319L1358.66 158.359C1360.45 158.607 1362.07 157.823 1362.33 156.586C1362.59 155.338 1361.42 153.99 1359.66 153.501L1345.39 149.57C1344.26 149.258 1340.11 148.124 1338.96 147.822L1339.25 146.761C1340.4 147.074 1344.53 148.196 1345.68 148.509L1359.95 152.439C1362.3 153.081 1363.78 154.957 1363.4 156.802C1363.03 158.543 1361.17 159.648 1358.95 159.513Z" fill="#2C2A71"/>
<path d="M1316.58 195.13C1316.41 195.119 1316.25 195.098 1316.07 195.064L1313.37 194.505C1312.19 194.259 1311.2 193.41 1310.79 192.272L1300.58 164.04L1301.62 163.673L1311.83 191.906C1312.11 192.677 1312.78 193.263 1313.6 193.429L1316.3 193.987C1317.05 194.137 1317.82 193.94 1318.39 193.418C1318.94 192.918 1319.23 192.205 1319.17 191.458C1318.83 190.324 1313.71 172.739 1315.44 152.53L1316.54 152.62C1314.78 173.175 1320.19 191.01 1320.24 191.187C1320.25 191.223 1320.26 191.258 1320.26 191.293C1320.38 192.402 1319.97 193.479 1319.13 194.229C1318.41 194.87 1317.51 195.186 1316.58 195.13Z" fill="#2C2A71"/>
<path d="M1319.59 137.723L1318.57 137.336C1322.05 128.197 1334.35 109.524 1334.87 108.731C1335.22 108.092 1335.25 107.316 1334.94 106.613C1334.62 105.92 1333.99 105.43 1333.25 105.269L1330.54 104.71C1329.74 104.545 1328.89 104.806 1328.31 105.409L1315.15 119.39L1314.35 118.633L1327.51 104.653C1328.33 103.775 1329.58 103.386 1330.76 103.632L1333.46 104.191C1334.57 104.421 1335.47 105.137 1335.93 106.151C1336.41 107.166 1336.36 108.312 1335.81 109.299C1335.67 109.523 1323.04 128.698 1319.59 137.723Z" fill="#2C2A71"/>
<path d="M1303.1 130.596L1297.08 136.988L1297.89 137.741L1303.91 131.348L1303.1 130.596Z" fill="#2C2A71"/>
<path d="M1321.66 175.31C1321.56 175.304 1321.44 175.285 1321.34 175.267L1317.82 174.543L1318.05 173.466L1321.57 174.191C1321.88 174.256 1322.19 174.193 1322.45 174.024C1322.72 173.855 1322.9 173.587 1322.96 173.278L1323.53 170.539C1323.59 170.23 1323.53 169.924 1323.36 169.659C1323.19 169.393 1322.92 169.215 1322.61 169.149L1317.16 168.029L1317.39 166.952L1322.84 168.073C1323.44 168.19 1323.95 168.546 1324.28 169.054C1324.61 169.561 1324.74 170.172 1324.61 170.767L1324.04 173.506C1323.8 174.628 1322.78 175.378 1321.66 175.31Z" fill="#2C2A71"/>
<path d="M1323.02 187.227C1322.93 187.221 1322.84 187.204 1322.74 187.186L1319.28 186.767L1319.42 185.673L1322.91 186.106C1323.16 186.156 1323.38 186.123 1323.55 186.017C1323.72 185.912 1323.84 185.756 1323.87 185.584L1324.28 183.579C1324.37 183.189 1324.09 182.813 1323.65 182.717L1318.67 181.985L1318.83 180.904L1323.83 181.649C1324.89 181.864 1325.55 182.832 1325.35 183.806L1324.94 185.811C1324.84 186.293 1324.55 186.704 1324.12 186.957C1323.81 187.158 1323.42 187.25 1323.02 187.227Z" fill="#2C2A71"/>
<path d="M1329.27 131.675C1329.16 131.669 1329.05 131.65 1328.94 131.632L1323.49 130.512L1323.72 129.435L1329.17 130.555C1329.82 130.687 1330.43 130.273 1330.57 129.643L1331.13 126.904C1331.19 126.595 1331.13 126.289 1330.96 126.024C1330.79 125.758 1330.52 125.579 1330.21 125.514L1326.69 124.79L1326.92 123.713L1330.44 124.437C1331.67 124.686 1332.47 125.895 1332.21 127.121L1331.65 129.859C1331.41 130.981 1330.38 131.743 1329.27 131.675Z" fill="#2C2A71"/>
<path d="M1335.7 119.084C1335.61 119.079 1335.52 119.062 1335.43 119.044L1330.45 118.313L1330.61 117.232L1335.61 117.976C1335.85 118.026 1336.06 117.992 1336.24 117.876C1336.41 117.77 1336.53 117.615 1336.56 117.443L1336.97 115.437C1337.01 115.254 1336.97 115.066 1336.85 114.908C1336.74 114.739 1336.56 114.623 1336.34 114.575L1332.88 114.156L1333.02 113.062L1336.51 113.495C1337.04 113.608 1337.46 113.878 1337.74 114.278C1338.03 114.69 1338.13 115.183 1338.03 115.653L1337.62 117.658C1337.52 118.139 1337.23 118.55 1336.8 118.803C1336.49 119.004 1336.1 119.108 1335.7 119.084Z" fill="#2C2A71"/>
<path d="M1361.48 152.404L1360.5 151.904L1363.92 145.186C1364.14 144.759 1364.14 144.259 1363.93 143.818C1363.73 143.376 1363.33 143.073 1362.85 142.975L1360.7 142.542C1360.16 142.428 1359.63 142.605 1359.25 143.011L1352.03 150.682L1351.23 149.925L1358.44 142.254C1359.06 141.584 1360.01 141.271 1360.92 141.465L1363.07 141.909C1363.89 142.075 1364.55 142.602 1364.92 143.344C1365.28 144.097 1365.27 144.943 1364.89 145.686L1361.48 152.404Z" fill="#2C2A71"/>
<path d="M1357.65 169.968C1357.52 169.961 1357.4 169.941 1357.27 169.922L1355.12 169.478C1354.21 169.295 1353.47 168.635 1353.16 167.77L1350.08 158.998L1351.12 158.631L1354.2 167.403C1354.37 167.913 1354.82 168.288 1355.34 168.401L1357.49 168.845C1357.96 168.943 1358.44 168.822 1358.81 168.496C1359.18 168.182 1359.37 167.718 1359.34 167.24L1358.91 159.998L1360.01 159.937L1360.44 167.18C1360.5 168.007 1360.17 168.787 1359.53 169.329C1359 169.784 1358.34 170.01 1357.65 169.968Z" fill="#2C2A71"/>
<path d="M1705.98 384.869L1705.59 384.431L1707.09 383.152L1707.48 383.591L1705.98 384.869ZM1700.39 378.534C1698.66 376.582 1696.9 374.628 1695.14 372.696L1696.6 371.374C1698.36 373.306 1700.11 375.259 1701.87 377.233L1700.39 378.534ZM1689.83 366.917C1688.05 365.003 1686.25 363.089 1684.45 361.175L1685.89 359.83C1687.69 361.745 1689.49 363.659 1691.27 365.572L1689.83 366.917ZM1679.03 355.492C1677.21 353.597 1675.38 351.723 1673.54 349.868L1674.95 348.502C1676.8 350.377 1678.62 352.252 1680.44 354.147L1679.03 355.492ZM1668 344.303C1666.14 342.447 1664.29 340.613 1662.4 338.776L1663.78 337.366C1665.67 339.203 1667.53 341.038 1669.4 342.895L1668 344.303ZM1656.76 333.309C1654.87 331.493 1652.96 329.696 1651.05 327.899L1652.4 326.467C1654.32 328.264 1656.22 330.081 1658.11 331.897L1656.76 333.309ZM1645.29 322.549C1643.36 320.772 1641.42 319.016 1639.49 317.259L1640.81 315.804C1642.76 317.562 1644.69 319.339 1646.63 321.116L1645.29 322.549ZM1633.62 312.027C1631.66 310.29 1629.69 308.572 1627.71 306.854L1629.01 305.377C1630.98 307.095 1632.96 308.833 1634.94 310.572L1633.62 312.027ZM1621.73 301.719C1619.73 300.021 1617.73 298.343 1615.71 296.664L1616.96 295.164C1618.99 296.843 1620.99 298.541 1622.99 300.239L1621.73 301.719ZM1609.66 291.67C1607.63 290.011 1605.59 288.373 1603.54 286.734L1604.78 285.211C1606.83 286.85 1608.87 288.51 1610.91 290.169L1609.66 291.67ZM1597.36 281.835C1595.3 280.216 1593.23 278.617 1591.14 277.017L1592.33 275.471C1594.42 277.072 1596.49 278.691 1598.56 280.31L1597.36 281.835ZM1584.89 272.259C1582.8 270.68 1580.68 269.12 1578.57 267.56L1579.75 265.993C1581.86 267.553 1583.97 269.113 1586.06 270.692L1584.89 272.259ZM1572.23 262.942C1570.09 261.402 1567.98 259.883 1565.82 258.382L1566.96 256.771C1569.11 258.292 1571.25 259.812 1573.39 261.353L1572.23 262.942ZM1559.37 253.862C1557.21 252.361 1555.05 250.881 1552.87 249.421L1553.97 247.786C1556.15 249.268 1558.31 250.747 1560.48 252.249L1559.37 253.862ZM1546.34 245.062C1544.16 243.622 1541.96 242.181 1539.75 240.74L1540.83 239.104C1543.04 240.525 1545.24 241.966 1547.42 243.426L1546.34 245.062ZM1533.14 236.5C1530.93 235.1 1528.71 233.699 1526.48 232.319L1527.52 230.66C1529.74 232.04 1531.97 233.441 1534.2 234.842L1533.14 236.5ZM1519.75 228.196C1517.5 226.835 1515.25 225.495 1513 224.155L1514 222.473C1516.27 223.814 1518.52 225.175 1520.77 226.536L1519.75 228.196ZM1506.22 220.175C1503.95 218.854 1501.67 217.554 1499.4 216.274L1500.38 214.57C1502.67 215.872 1504.95 217.172 1507.22 218.493L1506.22 220.175ZM1492.51 212.432C1490.21 211.172 1487.91 209.912 1485.59 208.651L1486.53 206.924C1488.85 208.165 1491.15 209.425 1493.47 210.706L1492.51 212.432ZM1478.65 204.951C1476.33 203.731 1474.01 202.511 1471.67 201.311L1472.57 199.561C1474.91 200.761 1477.25 201.982 1479.57 203.202L1478.65 204.951ZM1464.66 197.752C1462.31 196.572 1459.97 195.413 1457.6 194.253L1458.48 192.501C1460.85 193.661 1463.19 194.82 1465.56 196.002L1464.66 197.752ZM1450.52 190.835C1448.15 189.715 1445.78 188.596 1443.39 187.476L1444.23 185.701C1446.62 186.821 1448.99 187.941 1451.38 189.061L1450.52 190.835ZM1436.24 184.199C1433.85 183.12 1431.46 182.041 1429.04 180.981L1429.84 179.183C1432.25 180.243 1434.65 181.322 1437.06 182.402L1436.24 184.199ZM1421.82 177.845C1419.4 176.806 1416.99 175.788 1414.57 174.77L1415.33 172.969C1417.76 173.988 1420.18 175.007 1422.6 176.046L1421.82 177.845ZM1407.28 171.774C1404.84 170.796 1402.4 169.818 1399.96 168.86L1400.67 167.037C1403.11 167.994 1405.57 168.974 1408.01 169.972L1407.28 171.774Z" fill="#2C2A71" fill-opacity="0.7"/>
<path d="M802.076 325.524L801.05 324.629C802.242 323.267 803.448 321.906 804.654 320.545L805.679 321.454C804.474 322.8 803.269 324.147 802.076 325.524ZM809.308 317.414L808.298 316.506C809.517 315.16 810.75 313.829 811.983 312.498L812.979 313.42C811.761 314.737 810.528 316.068 809.308 317.414ZM816.704 309.457L815.71 308.522C816.956 307.206 818.217 305.891 819.477 304.591L820.457 305.525C819.197 306.826 817.951 308.142 816.704 309.457ZM824.25 301.639L823.271 300.69C824.545 299.39 825.833 298.106 827.12 296.836L828.084 297.798C826.811 299.069 825.524 300.354 824.25 301.639ZM831.959 293.988L831.01 293.013C832.311 291.743 833.611 290.488 834.926 289.234L835.875 290.21C834.56 291.464 833.26 292.719 831.959 293.988ZM839.817 286.476L838.884 285.487C840.212 284.248 841.54 283.009 842.882 281.785L843.8 282.788C842.458 284.012 841.131 285.236 839.817 286.476ZM847.809 279.13L846.891 278.127C848.246 276.918 849.601 275.71 850.957 274.501L851.86 275.517C850.505 276.712 849.165 277.921 847.809 279.13ZM855.95 271.95L855.062 270.921C856.431 269.727 857.813 268.549 859.194 267.385L860.082 268.414C858.701 269.578 857.333 270.757 855.95 271.95ZM864.24 264.923L863.367 263.88C864.763 262.717 866.172 261.569 867.567 260.42L868.424 261.476C867.03 262.611 865.635 263.76 864.24 264.923ZM872.664 258.062L871.806 257.006C873.229 255.873 874.65 254.754 876.072 253.636L876.914 254.705C875.508 255.81 874.086 256.929 872.664 258.062ZM881.221 251.367L880.394 250.283C881.829 249.18 883.279 248.078 884.727 246.989L885.554 248.072C884.105 249.175 882.656 250.263 881.221 251.367ZM889.912 244.852L889.1 243.755C890.562 242.682 892.024 241.609 893.5 240.551L894.297 241.647C892.835 242.72 891.374 243.778 889.912 244.852ZM898.722 238.502L897.94 237.393C899.429 236.35 900.918 235.307 902.406 234.279L903.188 235.388C901.685 236.43 900.211 237.459 898.722 238.502ZM907.665 232.332L906.898 231.209C908.4 230.196 909.916 229.184 911.417 228.185L912.169 229.321C910.669 230.305 909.167 231.319 907.665 232.332ZM916.727 226.341L915.99 225.206C917.519 224.224 919.047 223.241 920.575 222.272L921.311 223.421C919.77 224.375 918.242 225.358 916.727 226.341ZM925.894 220.53L925.172 219.381C926.713 218.428 928.268 217.475 929.809 216.536L930.516 217.698C928.976 218.623 927.435 219.576 925.894 220.53ZM935.193 214.898L934.501 213.737C936.054 212.813 937.623 211.89 939.204 210.982L939.896 212.157C938.3 213.064 936.747 213.974 935.193 214.898ZM944.582 209.458L943.92 208.27C945.5 207.377 947.08 206.497 948.674 205.619L949.337 206.807C947.742 207.685 946.163 208.564 944.582 209.458ZM954.089 204.198L953.441 203.011C955.034 202.147 956.641 201.297 958.248 200.448L958.881 201.649C957.275 202.484 955.681 203.348 954.089 204.198ZM963.7 199.13L963.067 197.93C964.673 197.095 966.293 196.275 967.926 195.457L968.544 196.67C966.924 197.49 965.305 198.31 963.7 199.13ZM973.399 194.269L972.796 193.056C974.429 192.251 976.061 191.461 977.692 190.685L978.28 191.912C976.664 192.674 975.032 193.464 973.399 194.269ZM983.202 189.586L982.629 188.36C984.273 187.6 985.918 186.839 987.576 186.093L988.134 187.332C986.491 188.064 984.847 188.825 983.202 189.586ZM993.094 185.109L992.535 183.87C994.193 183.139 995.864 182.408 997.521 181.691L998.064 182.944C996.408 183.646 994.751 184.378 993.094 185.109ZM1003.07 180.824L1002.55 179.573C1004.22 178.871 1005.9 178.184 1007.58 177.498L1008.1 178.748C1006.41 179.435 1004.74 180.122 1003.07 180.824ZM1013.13 176.73L1012.63 175.466C1014.31 174.794 1016.01 174.137 1017.7 173.494L1018.19 174.757C1016.49 175.414 1014.81 176.072 1013.13 176.73ZM1023.27 172.857L1022.79 171.579C1024.48 170.951 1026.19 170.323 1027.9 169.71L1028.37 170.986C1026.66 171.6 1024.97 172.228 1023.27 172.857ZM1033.48 169.174L1033.02 167.898C1034.73 167.299 1036.45 166.715 1038.17 166.131L1038.61 167.42C1036.9 167.991 1035.18 168.574 1033.48 169.174ZM1043.77 165.697L1043.34 164.408C1045.06 163.839 1046.79 163.284 1048.53 162.744L1048.94 164.031C1047.21 164.586 1045.49 165.141 1043.77 165.697ZM1054.1 162.423L1053.71 161.122C1055.44 160.596 1057.19 160.071 1058.92 159.56L1059.3 160.86C1057.57 161.386 1055.84 161.897 1054.1 162.423ZM1064.53 159.37L1064.16 158.071C1065.91 157.575 1067.65 157.093 1069.41 156.611L1069.76 157.924C1068 158.391 1066.26 158.873 1064.53 159.37ZM1075 156.521L1074.65 155.208C1076.4 154.756 1078.16 154.303 1079.91 153.865L1080.25 155.176C1078.5 155.615 1076.74 156.067 1075 156.521ZM1085.51 153.875L1085.19 152.55C1086.96 152.127 1088.71 151.717 1090.48 151.308L1090.79 152.632C1089.03 153.042 1087.27 153.451 1085.51 153.875ZM1096.09 151.448L1095.79 150.125C1097.56 149.73 1099.34 149.351 1101.1 148.984L1101.38 150.307C1099.62 150.687 1097.85 151.053 1096.09 151.448ZM1106.71 149.224L1106.44 147.889C1108.22 147.538 1110 147.187 1111.77 146.85L1112.02 148.185C1110.26 148.537 1108.48 148.874 1106.71 149.224ZM1117.37 147.219L1117.13 145.885C1118.91 145.562 1120.7 145.255 1122.49 144.962L1122.71 146.296C1120.92 146.603 1119.14 146.911 1117.37 147.219ZM1128.06 145.43L1127.86 144.084C1129.64 143.805 1131.43 143.526 1133.23 143.263L1133.43 144.609C1131.62 144.872 1129.85 145.152 1128.06 145.43ZM1138.79 143.844L1138.59 142.499C1140.39 142.249 1142.18 142.014 1143.98 141.793L1144.16 143.138C1142.37 143.374 1140.57 143.609 1138.79 143.844ZM1149.54 142.49L1149.38 141.146C1151.17 140.939 1152.97 140.733 1154.77 140.541L1154.92 141.884C1153.13 142.077 1151.34 142.269 1149.54 142.49ZM1160.34 141.324L1160.2 139.968C1162.01 139.791 1163.82 139.628 1165.63 139.466L1165.75 140.822C1163.94 140.984 1162.15 141.162 1160.34 141.324ZM1171.18 140.391L1171.08 139.036C1172.88 138.902 1174.71 138.769 1176.51 138.65L1176.6 140.004C1174.8 140.123 1172.99 140.257 1171.18 140.391ZM1182.04 139.66L1181.96 138.307C1183.78 138.202 1185.59 138.111 1187.41 138.021L1187.47 139.373C1185.67 139.464 1183.85 139.569 1182.04 139.66ZM1192.91 139.159L1192.87 137.808C1194.68 137.746 1196.5 137.684 1198.32 137.637L1198.35 138.987C1196.54 139.035 1194.72 139.082 1192.91 139.159ZM1203.79 138.859L1203.77 137.509C1205.59 137.476 1207.4 137.458 1209.23 137.44L1209.24 138.803C1207.42 138.807 1205.61 138.826 1203.79 138.859ZM1214.68 138.775L1214.68 137.412C1216.49 137.422 1218.31 137.432 1220.12 137.456L1220.11 138.818C1218.29 138.794 1216.48 138.784 1214.68 138.775ZM1225.53 138.918L1225.56 137.557C1227.37 137.595 1229.18 137.648 1231 137.702L1230.97 139.062C1229.15 139.009 1227.34 138.957 1225.53 138.918Z" fill="#2C2A71" fill-opacity="0.7"/>
</g>
</g>
<defs>
<clipPath id="clip0_148_3586">
<rect width="1440" height="1024" fill="white"/>
</clipPath>
<clipPath id="clip1_148_3586">
<rect width="94.0759" height="94.0759" fill="white" transform="translate(202 905.004) rotate(-3.65897)"/>
</clipPath>
<clipPath id="clip2_148_3586">
<rect width="73.9045" height="73.9045" fill="white" transform="translate(43.9038 104) rotate(89.7741)"/>
</clipPath>
<clipPath id="clip3_148_3586">
<rect width="824.688" height="260.952" fill="white" transform="translate(837.833 61) rotate(3.47853)"/>
</clipPath>
</defs>
</svg>
