<svg width="76" height="81" viewBox="0 0 76 81" fill="none" xmlns="http://www.w3.org/2000/svg">
<path d="M22.8921 2.92123C22.8921 2.92123 37.63 -0.51953 41.8163 0.236394C45.9973 0.987105 35.9357 17.3933 32.3542 20.2189C28.7779 23.0392 22.8921 2.92123 22.8921 2.92123Z" fill="#7D2F65"/>
<path d="M21.7817 15.1309C21.7817 15.1309 36.5197 11.6901 40.7059 12.446C44.8869 13.1968 34.8253 29.6029 31.2438 32.4285C27.6623 35.2489 21.7817 15.1309 21.7817 15.1309Z" fill="#7D2F65"/>
<path d="M114.51 76.6264L36.7644 20.0729C36.3213 19.7549 35.8052 16.1056 35.2734 13.3634C35.2526 13.2383 35.2265 13.1132 35.2004 12.9933C34.8928 11.4658 34.2516 9.66201 33.9492 9.66722C32.5104 6.62789 30.227 4.90751 27.0156 3.79187C26.2909 3.46343 25.3734 3.24447 24.2265 3.16106C24.2004 3.15585 24.1744 3.15585 24.1483 3.15063C24.1327 3.15063 24.1222 3.14542 24.1066 3.14542C24.0492 3.14021 23.9971 3.14021 23.9398 3.14021C23.5957 3.11414 23.2516 3.08807 22.9023 3.08807C22.7146 3.08807 22.5322 3.10893 22.3445 3.11414C12.7104 3.33831 7.28857 10.3032 7.28857 10.3032C7.28857 10.3032 8.72744 12.4615 10.3488 14.8857C10.3331 15.1516 10.3071 15.4175 10.3071 15.6833C10.3071 18.462 11.2194 21.0217 12.7417 23.107C7.299 98.9601 81.2284 71.0743 82.2658 71.0743C82.8497 71.0743 98.2132 76.7307 111.783 81.7667C114.99 82.9606 117.294 78.6231 114.51 76.6264Z" fill="url(#paint0_linear_101_8139)"/>
<path d="M18.5858 13.2593C19.916 13.2593 20.9943 12.1809 20.9943 10.8507C20.9943 9.52054 19.916 8.4422 18.5858 8.4422C17.2556 8.4422 16.1772 9.52054 16.1772 10.8507C16.1772 12.1809 17.2556 13.2593 18.5858 13.2593Z" fill="white"/>
<path d="M12.6377 11.0489C12.6377 11.0489 0.652349 7.02426 0.475098 17.6958V22.1584C2.5969 22.1584 4.73955 20.9124 6.86135 20.9124C8.79548 20.9124 10.7035 22.1584 12.6377 22.1584V11.0489Z" fill="url(#paint1_linear_101_8139)"/>
<path d="M36.6292 20.0156C36.6292 20.0156 23.7628 34.0393 35.9671 54.9028C48.1714 75.7663 84.3045 54.6995 84.3045 54.6995L36.6292 20.0156Z" fill="url(#paint2_linear_101_8139)"/>
<defs>
<linearGradient id="paint0_linear_101_8139" x1="13.8424" y1="25.4467" x2="99.6523" y2="91.8092" gradientUnits="userSpaceOnUse">
<stop stop-color="#E9457E"/>
<stop offset="0.4218" stop-color="#E71D73"/>
<stop offset="0.8525" stop-color="#7D2F65"/>
</linearGradient>
<linearGradient id="paint1_linear_101_8139" x1="6.03792" y1="10.0509" x2="6.99622" y2="22.1742" gradientUnits="userSpaceOnUse">
<stop stop-color="#FDC800"/>
<stop offset="0.6685" stop-color="#F18F34"/>
</linearGradient>
<linearGradient id="paint2_linear_101_8139" x1="30.71" y1="42.0686" x2="84.3081" y2="42.0686" gradientUnits="userSpaceOnUse">
<stop stop-color="#EC608A"/>
<stop offset="0.4218" stop-color="#EC638B"/>
<stop offset="0.8525" stop-color="#E8407B"/>
</linearGradient>
</defs>
</svg>
