<svg width="23" height="31" viewBox="0 0 23 31" fill="none" xmlns="http://www.w3.org/2000/svg">
<g clip-path="url(#clip0_210_167497)">
<path d="M11.9043 1.44386C6.12892 1.44386 1.45117 6.1216 1.45117 11.897C1.45117 17.6723 11.9043 30.77 11.9043 30.77C11.9043 30.77 22.3574 17.6723 22.3574 11.897C22.3574 6.12897 17.6723 1.44386 11.9043 1.44386ZM11.9043 17.2156C9.30389 17.2156 7.19707 15.1088 7.19707 12.5084C7.19707 9.908 9.30389 7.80117 11.9043 7.80117C14.5047 7.80117 16.6115 9.908 16.6115 12.5084C16.6041 15.1088 14.4973 17.2156 11.9043 17.2156Z" fill="#F74783"/>
<path d="M10.8067 30.026C10.7036 30.026 10.6004 29.9744 10.5341 29.8934C10.0995 29.3556 0 16.6336 0 10.8067C0 4.84718 4.84718 0 10.8067 0C16.7662 0 21.6134 4.84718 21.6134 10.8067C21.6134 16.6336 11.5139 29.3556 11.0793 29.8934C11.013 29.9744 10.9098 30.026 10.8067 30.026ZM10.8067 0.69982C5.23024 0.69982 0.69982 5.23024 0.69982 10.8067C0.69982 15.8749 9.16396 27.0057 10.8067 29.1125C12.4494 27.0057 20.9136 15.8749 20.9136 10.8067C20.9062 5.23024 16.3758 0.69982 10.8067 0.69982ZM10.8067 16.4642C8.02215 16.4642 5.75326 14.1953 5.75326 11.4108C5.75326 8.62621 8.02215 6.35732 10.8067 6.35732C13.5912 6.35732 15.8601 8.62621 15.8601 11.4108C15.8601 14.2027 13.5912 16.4642 10.8067 16.4642ZM10.8067 7.05714C8.40521 7.05714 6.45308 9.00927 6.45308 11.4108C6.45308 13.8122 8.40521 15.7644 10.8067 15.7644C13.2082 15.7644 15.1603 13.8122 15.1603 11.4108C15.1603 9.00927 13.2082 7.05714 10.8067 7.05714Z" fill="#333333"/>
</g>
<defs>
<clipPath id="clip0_210_167497">
<rect width="22.3574" height="30.77" fill="white"/>
</clipPath>
</defs>
</svg>
