<svg width="86" height="23" viewBox="0 0 86 23" fill="none" xmlns="http://www.w3.org/2000/svg">
<path d="M42.9005 10.4596C42.7736 9.93999 42.5743 9.44154 42.2994 8.96122C41.7858 8.06703 41.0698 7.36014 40.1545 6.84054C39.2392 6.32094 38.2574 6.05812 37.2182 6.05812C35.7772 6.05812 34.5024 6.55959 33.3937 7.55951C32.4995 8.37214 31.9286 9.33279 31.6658 10.4324C31.5691 10.3236 31.4664 10.2119 31.3546 10.1001C31.125 9.86447 30.4665 9.29049 29.382 8.38422C28.2219 7.40243 27.5301 6.76502 27.2975 6.46595C27.1284 6.2424 27.0438 6.00677 27.0438 5.75603C27.0438 5.5053 27.1616 5.28175 27.4002 5.08237C27.6329 4.88601 27.938 4.78632 28.3095 4.78632C29.0738 4.78632 29.826 5.29988 30.5662 6.33001L32.6717 4.47215C31.8863 3.55983 31.1552 2.92846 30.4816 2.58408C29.8079 2.2397 29.098 2.0675 28.3518 2.0675C27.1948 2.0675 26.2191 2.43908 25.4306 3.1792C24.6422 3.91932 24.2494 4.80747 24.2494 5.84364C24.2494 6.55959 24.4851 7.27857 24.9593 8.00057C25.4336 8.71954 26.4849 9.74363 28.1102 11.0698C28.9651 11.7676 29.5149 12.2842 29.7656 12.6226C30.0163 12.9609 30.1402 13.2992 30.1402 13.6376C30.1402 14.0092 29.9741 14.3384 29.6418 14.6224C29.3095 14.9064 28.8986 15.0483 28.4122 15.0483C27.4758 15.0483 26.6511 14.3898 25.9321 13.0696L23.5486 14.5076C24.1105 15.6223 24.7872 16.441 25.5756 16.9636C26.3641 17.4832 27.2915 17.746 28.3548 17.746C29.7173 17.746 30.8199 17.3473 31.6658 16.5497C32.0645 16.1751 32.3666 15.7492 32.5751 15.281C32.7533 15.5226 32.9466 15.7583 33.1702 15.9818C34.2909 17.1086 35.6413 17.6705 37.2242 17.6705C38.2997 17.6705 39.2845 17.4137 40.1757 16.9032C41.0698 16.3926 41.7737 15.6827 42.2903 14.7765C42.5682 14.2901 42.7706 13.7826 42.8975 13.2569V17.6554H45.6677V2.35147H42.8975V10.4596H42.9005ZM39.4144 14.1874C38.8374 14.7885 38.1154 15.0906 37.2484 15.0906C36.3814 15.0906 35.6654 14.7946 35.0975 14.1964C34.5326 13.6013 34.2486 12.8219 34.2486 11.8613C34.2486 10.9278 34.5356 10.1605 35.1066 9.56238C35.6805 8.96424 36.3965 8.66517 37.2575 8.66517C38.1396 8.66517 38.8616 8.96122 39.4265 9.55331C39.9914 10.1454 40.2753 10.9157 40.2753 11.8613C40.2784 12.8129 39.9884 13.5862 39.4144 14.1874Z" fill="white"/>
<path d="M48.459 6.6593H48.4348H48.4107H48.3865H48.3623H48.3382H48.314H48.2898H48.2657H48.2415H48.2173H48.1901H48.166H48.1418H48.1176H48.0935H48.0693H48.0451H48.021H47.9968H47.9726H47.9485H47.9243H47.9001H47.876H47.8518H47.8246H47.8004H47.7763H47.7521H47.7279H47.7038H47.6796H47.6554H47.6313H47.6071H47.5829H47.5588H47.5346H47.5104H47.4863H47.4591H47.4349H47.4107H47.3866H47.3624H47.3382H47.3141H47.2899H47.2657H47.2416H47.2174H47.1932H47.1691H47.1449H47.1207H47.0935H47.0694H47.0452H47.021H46.9969H46.9727H46.9485H46.9244H46.9002H46.876H46.8519H46.8277H46.8035H46.7794H46.7552H46.728H46.7038H46.6797H46.6555H46.6313V17.6977H46.6555H46.6797H46.7038H46.728H46.7552H46.7794H46.8035H46.8277H46.8519H46.876H46.9002H46.9244H46.9485H46.9727H46.9969H47.021H47.0452H47.0694H47.0935H47.1207H47.1449H47.1691H47.1932H47.2174H47.2416H47.2657H47.2899H47.3141H47.3382H47.3624H47.3866H47.4107H47.4349H47.4591H47.4863H47.5104H47.5346H47.5588H47.5829H47.6071H47.6313H47.6554H47.6796H47.7038H47.7279H47.7521H47.7763H47.8004H47.8246H47.8518H47.876H47.9001H47.9243H47.9485H47.9726H47.9968H48.021H48.0451H48.0693H48.0935H48.1176H48.1418H48.166H48.1901H48.2173H48.2415H48.2657H48.2898H48.314H48.3382H48.3623H48.3865H48.4107H48.4348H48.459H48.4832H49.4015V6.6593H48.4832H48.459Z" fill="white"/>
<path d="M48.018 2.11279C47.5317 2.11279 47.1178 2.28498 46.7734 2.62937C46.429 2.97677 46.2568 3.39064 46.2568 3.88002C46.2568 4.38754 46.429 4.81953 46.7764 5.17297C47.1238 5.52944 47.5437 5.70465 48.0362 5.70465C48.5135 5.70465 48.9273 5.52944 49.2717 5.18204C49.6161 4.83463 49.7883 4.4117 49.7883 3.9193C49.7883 3.41783 49.6131 2.99188 49.2687 2.64145C48.9183 2.28801 48.5014 2.11279 48.018 2.11279Z" fill="white"/>
<path d="M81.2237 9.2784C80.7102 8.38421 79.9942 7.67732 79.0789 7.15772C78.1636 6.63812 77.1818 6.3753 76.1426 6.3753C74.7016 6.3753 73.4268 6.87678 72.3181 7.8767C71.8982 8.25733 71.5538 8.67422 71.2759 9.11829V6.94324H68.5148V8.16066C67.9468 7.62596 67.3789 7.24231 66.814 7.0097C66.2491 6.77709 65.6479 6.65927 65.0135 6.65927C63.6541 6.65927 62.482 7.13959 61.5032 8.10024C60.7178 8.87057 60.2194 9.8282 60.0049 10.9641V10.3992C60.0049 9.12735 59.6847 8.1667 59.0412 7.51721C58.2769 6.75292 57.3495 6.36926 56.2559 6.36926C55.7212 6.36926 55.2016 6.47197 54.6911 6.68042C54.1806 6.88886 53.6126 7.25439 52.9843 7.78607V6.65323H50.2141V17.6946H52.9843V13.266C52.9843 12.1181 53.0236 11.3719 53.1051 11.0275C53.2592 10.3659 53.5401 9.84633 53.9389 9.47174C54.3407 9.09714 54.821 8.90985 55.3829 8.90985C55.8149 8.90985 56.1774 9.02162 56.4704 9.24819C56.7634 9.47476 56.9689 9.80403 57.0867 10.236C57.2045 10.668 57.2649 11.5441 57.2649 12.8612V17.6946H60.0049V13.6315C60.2103 14.6949 60.6785 15.6132 61.4126 16.3806C62.4337 17.45 63.6843 17.9847 65.1676 17.9847C65.8443 17.9847 66.4485 17.8789 66.9832 17.6644C67.5179 17.45 68.0284 17.1025 68.5148 16.6132C68.5148 17.5073 68.4211 18.1357 68.2368 18.5012C68.0495 18.8668 67.7324 19.1628 67.2792 19.3954C66.8261 19.625 66.2279 19.7398 65.4818 19.7398C64.8987 19.7398 64.3973 19.6613 63.9713 19.5011C63.5454 19.341 63.198 19.1084 62.9261 18.7973H59.872C60.1166 19.5495 60.4912 20.1869 60.9988 20.7095C61.5063 21.2351 62.1286 21.6309 62.8657 21.9028C63.6028 22.1747 64.5121 22.3076 65.5966 22.3076C67.6266 22.3076 69.1431 21.7125 70.1521 20.5222C70.9043 19.6431 71.2789 18.2686 71.2789 16.4017V15.2538C71.5085 15.6193 71.7804 15.9697 72.1036 16.2929C73.2244 17.4197 74.5747 17.9816 76.1577 17.9816C77.2331 17.9816 78.2179 17.7249 79.1091 17.2143C80.0033 16.7038 80.7072 15.9939 81.2237 15.0876C81.7403 14.1813 82.0001 13.2086 82.0001 12.1664C81.9941 11.1332 81.7373 10.1696 81.2237 9.2784ZM67.8139 14.6133C67.2551 15.1873 66.5482 15.4773 65.6872 15.4773C64.8081 15.4773 64.0771 15.1843 63.494 14.5952C62.911 14.0061 62.621 13.2539 62.621 12.3325C62.621 11.4474 62.9049 10.7103 63.4729 10.1243C64.0408 9.53819 64.7628 9.24517 65.6328 9.24517C66.518 9.24517 67.243 9.53215 67.8049 10.1091C68.3667 10.6831 68.6477 11.4323 68.6477 12.3507C68.6537 13.2841 68.3728 14.0393 67.8139 14.6133ZM78.3388 14.5015C77.7618 15.1027 77.0398 15.4048 76.1728 15.4048C75.3058 15.4048 74.5898 15.1087 74.0219 14.5106C73.457 13.9155 73.173 13.1361 73.173 12.1754C73.173 11.242 73.46 10.4747 74.0309 9.87654C74.6049 9.2784 75.3209 8.97933 76.1818 8.97933C77.0639 8.97933 77.7859 9.27538 78.3508 9.86747C78.9158 10.4596 79.1997 11.2299 79.1997 12.1754C79.2027 13.127 78.9158 13.9004 78.3388 14.5015Z" fill="white"/>
<mask id="mask0_203_3742" style="mask-type:alpha" maskUnits="userSpaceOnUse" x="0" y="0" width="19" height="19">
<path d="M9.23367 18.4673C14.3333 18.4673 18.4673 14.3333 18.4673 9.23367C18.4673 4.13405 14.3333 0 9.23367 0C4.13405 0 0 4.13405 0 9.23367C0 14.3333 4.13405 18.4673 9.23367 18.4673Z" fill="white"/>
</mask>
<g mask="url(#mask0_203_3742)">
<path d="M9.23367 18.4673C14.3333 18.4673 18.4673 14.3333 18.4673 9.23367C18.4673 4.13405 14.3333 0 9.23367 0C4.13405 0 0 4.13405 0 9.23367C0 14.3333 4.13405 18.4673 9.23367 18.4673Z" fill="white"/>
<path d="M8.37158 3.34121C8.37158 3.34121 11.4644 2.61914 12.3429 2.77778C13.2204 2.93532 11.1089 6.37825 10.3573 6.97122C9.60675 7.5631 8.37158 3.34121 8.37158 3.34121Z" fill="#7D2F65"/>
<path d="M8.13843 5.90346C8.13843 5.90346 11.2313 5.1814 12.1098 5.34004C12.9872 5.49758 10.8757 8.94051 10.1241 9.53348C9.3725 10.1254 8.13843 5.90346 8.13843 5.90346Z" fill="#7D2F65"/>
<path d="M27.5982 18.8087L11.2829 6.94059C11.1899 6.87386 11.0815 6.10803 10.97 5.53257C10.9656 5.50631 10.9601 5.48005 10.9546 5.45489C10.8901 5.13434 10.7555 4.7558 10.6921 4.7569C10.3901 4.11907 9.91093 3.75804 9.237 3.52392C9.08493 3.45499 8.89238 3.40904 8.65169 3.39154C8.64622 3.39044 8.64075 3.39044 8.63528 3.38935C8.632 3.38935 8.62981 3.38826 8.62653 3.38826C8.6145 3.38716 8.60356 3.38716 8.59152 3.38716C8.51931 3.38169 8.44711 3.37622 8.37381 3.37622C8.33442 3.37622 8.29613 3.3806 8.25675 3.38169C6.23497 3.42873 5.09717 4.89037 5.09717 4.89037C5.09717 4.89037 5.39912 5.3433 5.73937 5.85203C5.73609 5.90782 5.73062 5.96362 5.73062 6.01941C5.73062 6.60253 5.92207 7.13971 6.24153 7.57732C5.09936 23.4956 20.6139 17.6436 20.8316 17.6436C20.9541 17.6436 24.1783 18.8306 27.026 19.8874C27.6989 20.138 28.1824 19.2277 27.5982 18.8087Z" fill="url(#paint0_linear_203_3742)"/>
<path d="M7.46785 5.51065C7.747 5.51065 7.97329 5.28435 7.97329 5.0052C7.97329 4.72605 7.747 4.49976 7.46785 4.49976C7.1887 4.49976 6.9624 4.72605 6.9624 5.0052C6.9624 5.28435 7.1887 5.51065 7.46785 5.51065Z" fill="white"/>
<path d="M6.21962 5.04689C6.21962 5.04689 3.70443 4.20229 3.66724 6.44178V7.37828C4.11251 7.37828 4.56216 7.1168 5.00743 7.1168C5.41332 7.1168 5.81374 7.37828 6.21962 7.37828V5.04689Z" fill="url(#paint1_linear_203_3742)"/>
<path d="M11.2545 6.92859C11.2545 6.92859 8.55441 9.87155 11.1156 14.2499C13.6767 18.6282 21.2595 14.2072 21.2595 14.2072L11.2545 6.92859Z" fill="url(#paint2_linear_203_3742)"/>
</g>
<defs>
<linearGradient id="paint0_linear_203_3742" x1="6.47252" y1="8.06831" x2="24.4803" y2="21.9949" gradientUnits="userSpaceOnUse">
<stop stop-color="#E9457E"/>
<stop offset="0.4218" stop-color="#E71D73"/>
<stop offset="0.8525" stop-color="#7D2F65"/>
</linearGradient>
<linearGradient id="paint1_linear_203_3742" x1="4.83463" y1="4.83746" x2="5.03573" y2="7.38159" gradientUnits="userSpaceOnUse">
<stop stop-color="#FDC800"/>
<stop offset="0.6685" stop-color="#F18F34"/>
</linearGradient>
<linearGradient id="paint2_linear_203_3742" x1="10.0123" y1="11.5565" x2="21.2602" y2="11.5565" gradientUnits="userSpaceOnUse">
<stop stop-color="#EC608A"/>
<stop offset="0.4218" stop-color="#EC638B"/>
<stop offset="0.8525" stop-color="#E8407B"/>
</linearGradient>
</defs>
</svg>
