<svg width="16" height="16" viewBox="0 0 16 16" fill="none" xmlns="http://www.w3.org/2000/svg">
<path d="M16 7.46207C16 7.81646 16 8.17085 16 8.52524C15.9757 8.72065 15.9546 8.91644 15.926 9.11106C15.7329 10.4315 15.2595 11.6419 14.4622 12.7133C13.1469 14.4817 11.3972 15.5496 9.2192 15.9059C8.98933 15.9435 8.75751 15.9686 8.52687 15.9995C8.17248 15.9995 7.81809 15.9995 7.4637 15.9995C7.26868 15.9753 7.07289 15.9541 6.87827 15.9255C5.43722 15.7133 4.12695 15.1807 3.00426 14.2491C0.692313 12.3303 -0.281181 9.85743 0.0696838 6.87978C0.224362 5.56521 0.709543 4.35715 1.51152 3.30181C3.42405 0.786627 5.97174 -0.291813 9.10603 0.0672756C10.4206 0.217646 11.6189 0.718491 12.6856 1.5052C14.4747 2.82525 15.5524 4.58584 15.908 6.78423C15.9444 7.009 15.9694 7.23613 16 7.46207ZM0.922176 7.51533C1.90781 7.51533 2.83784 7.51533 3.74006 7.51533C3.84423 6.52735 3.94682 5.55189 4.04824 4.58936C3.48866 4.36812 2.91067 4.13786 2.32994 3.91583C2.2947 3.90251 2.21482 3.94089 2.18858 3.97809C1.70692 4.66651 1.35332 5.4164 1.15791 6.23326C1.05806 6.6507 1.00128 7.07753 0.922176 7.51533ZM12.2493 7.51337C13.1625 7.51337 14.0961 7.51337 15.0394 7.51337C14.9415 6.17335 14.5131 4.96803 13.7468 3.89742C13.1245 4.13277 12.5191 4.36185 11.9411 4.58036C12.0437 5.55816 12.1463 6.53322 12.2493 7.51337ZM0.950371 8.46964C1.04944 9.81592 1.47745 11.0205 2.24379 12.0903C2.8676 11.8542 3.47261 11.6255 4.04942 11.407C3.94643 10.4276 3.84383 9.45253 3.74045 8.46964C2.82961 8.46964 1.89998 8.46964 0.950371 8.46964ZM15.039 8.47199C14.0828 8.47199 13.1531 8.47199 12.2501 8.47199C12.1459 9.45997 12.0433 10.4354 11.9411 11.4073C12.5246 11.6282 13.1296 11.8569 13.7476 12.0907C14.5143 11.0138 14.9439 9.80966 15.039 8.47199ZM7.51813 7.51964C7.51813 6.7157 7.51813 5.92665 7.51813 5.16187C6.67386 5.05653 5.84134 4.95315 4.99824 4.84781C4.84631 5.71519 4.74018 6.60919 4.73039 7.51964C5.66473 7.51964 6.58497 7.51964 7.51813 7.51964ZM8.47439 5.16148C8.47439 5.93056 8.47439 6.72353 8.47439 7.51455C9.40951 7.51455 10.3337 7.51455 11.3001 7.51455C11.2065 6.60723 11.1141 5.7148 11.0244 4.8439C10.1488 4.95315 9.31592 5.05692 8.47439 5.16148ZM4.96535 11.145C5.84525 11.0349 6.67817 10.9308 7.51382 10.8262C7.51382 10.0532 7.51382 9.26026 7.51382 8.47551C6.57714 8.47551 5.65377 8.47551 4.68967 8.47551C4.78326 9.38048 4.87489 10.2686 4.96535 11.145ZM11.2997 8.47355C10.3196 8.47355 9.39581 8.47355 8.47322 8.47355C8.47322 9.27396 8.47322 10.063 8.47322 10.8258C9.31827 10.9312 10.1508 11.0349 11.024 11.1438C11.1145 10.2706 11.2065 9.37813 11.2997 8.47355ZM5.19325 3.87941C5.97369 4.05602 6.74121 4.15117 7.51656 4.17741C7.51656 3.09036 7.51656 2.02523 7.51656 0.912328C7.04587 1.002 6.59319 1.08619 6.14208 1.17822C6.10488 1.18566 6.06611 1.24401 6.05006 1.28669C5.87384 1.75816 5.69136 2.22768 5.53237 2.70503C5.40471 3.0884 5.30721 3.48116 5.19325 3.87941ZM8.47126 0.911545C8.47126 2.03502 8.47126 3.10015 8.47126 4.17937C9.25287 4.14765 10.0177 4.05719 10.7722 3.8845C10.7742 3.86179 10.7801 3.84573 10.7766 3.83203C10.5608 2.9533 10.2796 2.09572 9.9315 1.26084C9.91623 1.22482 9.87315 1.18292 9.83634 1.17587C9.38954 1.08541 8.94156 1.00161 8.47126 0.911545ZM7.51656 15.0644C7.51656 13.9543 7.51656 12.8856 7.51656 11.8173C7.08346 11.7868 5.55939 11.9869 5.21127 12.1193C5.21479 12.1435 5.21597 12.1694 5.22223 12.1937C5.42625 12.9945 5.67804 13.7792 5.98153 14.5483C6.05397 14.7316 6.14286 14.8381 6.34179 14.8671C6.72986 14.9238 7.11596 14.9963 7.51656 15.0644ZM8.46852 15.0715C8.91767 14.9896 9.34529 14.9105 9.77291 14.8345C9.86924 14.8173 9.92328 14.7695 9.95695 14.6748C10.0968 14.284 10.2573 13.8998 10.3865 13.5055C10.5365 13.0481 10.6618 12.5825 10.8012 12.1091C10.0169 11.9309 9.24974 11.8369 8.46852 11.8091C8.46852 12.8919 8.46852 13.9531 8.46852 15.0715ZM4.8698 1.66183C4.11364 2.03502 3.46751 2.51863 2.87543 3.13461C3.35709 3.31239 3.81446 3.48155 4.2691 3.64955C4.47234 2.97719 4.66657 2.33419 4.8698 1.66183ZM11.1274 1.68494C11.3232 2.33341 11.5186 2.97954 11.7215 3.65033C12.1804 3.47999 12.637 3.31043 13.1038 3.13735C12.7087 2.64825 11.5527 1.80398 11.1274 1.68494ZM4.26871 12.337C3.80702 12.5081 3.35317 12.6765 2.89305 12.8472C3.20358 13.2858 4.50484 14.235 4.8604 14.2945C4.66657 13.6527 4.47194 13.0097 4.26871 12.337ZM11.7211 12.3374C11.5167 13.0148 11.3216 13.6602 11.1208 14.3259C11.8773 13.9511 12.5242 13.4687 13.1143 12.8531C12.6354 12.6757 12.1812 12.5077 11.7211 12.3374Z" fill="#2E3A59"/>
</svg>
