<svg width="305" height="279" viewBox="0 0 305 279" fill="none" xmlns="http://www.w3.org/2000/svg">
<rect x="44.332" y="252" width="12.9871" height="12.9871" rx="2" transform="rotate(24.2402 44.332 252)" fill="#EB5B87"/>
<rect x="265" y="5.81616" width="10.0986" height="10.0986" rx="2" transform="rotate(-35.1654 265 5.81616)" fill="#7A97FF"/>
<path d="M11.5557 62.5631C12.1562 60.2493 15.0895 59.5329 16.689 61.3094L25.914 71.5554C27.4324 73.242 26.6008 75.9387 24.3962 76.4771L11.7075 79.5759C9.50289 80.1143 7.52185 78.1045 8.09199 75.9079L11.5557 62.5631Z" fill="#607BFF"/>
<path d="M288.599 251.024C290.548 249.639 293.254 250.978 293.336 253.367L293.789 266.646C293.866 268.915 291.494 270.444 289.46 269.438L278.177 263.856C276.143 262.85 275.92 260.037 277.769 258.722L288.599 251.024Z" fill="#EB5B87"/>
<rect x="55.6553" y="99" width="6.46795" height="6.46795" rx="2" transform="rotate(24.2402 55.6553 99)" fill="#F6A71D"/>
<rect x="111.655" y="27" width="6.46795" height="6.46795" rx="2" transform="rotate(24.2402 111.655 27)" fill="#EB5B87"/>
<circle cx="277.5" cy="154.5" r="7" stroke="#F6A71D" stroke-width="3"/>
</svg>
