<svg width="21" height="16" viewBox="0 0 21 16" fill="none" xmlns="http://www.w3.org/2000/svg">
<g clip-path="url(#clip0_97_31723)">
<path fill-rule="evenodd" clip-rule="evenodd" d="M-1.25513 0H21.3386V15.0625H-1.25513V0Z" fill="#199D00"/>
<path fill-rule="evenodd" clip-rule="evenodd" d="M4.43728 4.26867C4.41374 4.62169 4.37844 5.23949 4.68145 5.30421C5.04331 5.33952 4.84326 4.6923 4.97564 4.57462C4.99918 4.51579 5.04331 4.51579 5.04625 4.58933V5.13947C5.04625 5.31598 5.16392 5.36894 5.25218 5.40424C5.34632 5.39835 5.41104 5.40424 5.44635 5.4925L5.49342 6.44273C5.49342 6.44273 5.71112 6.50745 5.72288 5.91024C5.73171 5.55722 5.65228 5.26597 5.69935 5.19831C5.69935 5.13064 5.78761 5.1277 5.84644 5.16006C5.94058 5.22478 5.98177 5.30716 6.12887 5.27774C6.35245 5.21302 6.48778 5.10417 6.49072 4.93354C6.4863 4.76585 6.45141 4.60037 6.38775 4.44518C6.39952 4.41576 6.34657 4.33633 6.35833 4.30691C6.39658 4.37163 6.45836 4.36575 6.47013 4.30691C6.43188 4.18335 6.37304 4.06273 6.2789 4.01272C6.19947 3.94212 6.0818 3.95388 6.04355 4.10098C6.02002 4.26867 6.10239 4.46577 6.22301 4.63052C6.24948 4.6923 6.28479 4.79821 6.27008 4.89235C6.20536 4.93059 6.14063 4.91294 6.08474 4.85705C6.08474 4.85705 5.90822 4.72466 5.90822 4.6923C5.95529 4.39223 5.91705 4.35692 5.89057 4.27161C5.87292 4.15688 5.81703 4.11863 5.7729 4.04214C5.72877 3.99507 5.66993 3.99507 5.64051 4.04214C5.56108 4.17747 5.59932 4.46872 5.65522 4.6011C5.69641 4.72172 5.75819 4.79821 5.72877 4.79821C5.70523 4.86587 5.65522 4.84822 5.61698 4.76879C5.57392 4.60163 5.55315 4.42951 5.5552 4.2569C5.54049 4.12157 5.52284 3.83327 5.43164 3.75678C5.37868 3.68617 5.29925 3.72147 5.26983 3.7862C5.26206 3.91762 5.26502 4.04946 5.27866 4.18041C5.3375 4.39811 5.35809 4.59228 5.38751 4.81292C5.39633 5.11005 5.21688 4.94236 5.2257 4.79232C5.2643 4.6037 5.26129 4.40893 5.21688 4.2216C5.18746 4.14511 5.1551 4.12746 5.08155 4.13922C5.02566 4.13922 4.8815 4.29514 4.84032 4.55991C4.84032 4.55991 4.80501 4.69524 4.7903 4.81586C4.76971 4.95119 4.68145 5.05121 4.61673 4.79821C4.56378 4.61287 4.52848 4.16276 4.44022 4.26867H4.43728Z" fill="white"/>
<path fill-rule="evenodd" clip-rule="evenodd" d="M5.42285 5.71315L4.48145 6.1662C4.49027 5.95144 4.92567 5.56605 5.22574 5.56311C5.41697 5.56605 5.3699 5.63666 5.41991 5.71315H5.42285Z" fill="white"/>
<path fill-rule="evenodd" clip-rule="evenodd" d="M5.25527 6.00733C4.76103 7.28705 6.41732 7.46651 6.60266 6.06028C6.62031 6.00144 6.69091 5.94555 6.70268 6.03969C6.66444 7.31353 5.42002 7.39884 5.2082 6.99875C5.15837 6.86108 5.13347 6.71563 5.13465 6.56923C5.10523 6.31917 4.97285 6.41625 4.95226 6.66337C4.93166 6.80164 4.93755 6.83988 4.93755 6.97227C5.00227 7.9784 6.6056 7.54594 6.86743 6.71633C7.0057 6.25739 6.84389 5.91907 6.91744 5.91907C7.0763 6.0897 7.29989 5.94261 7.3499 5.88377C7.37049 5.85435 7.42344 5.83376 7.45875 5.872C7.58231 5.96026 7.80001 5.91907 7.84708 5.76315C7.87355 5.60723 7.89415 5.44837 7.90003 5.28656C7.79707 5.31598 7.72352 5.33658 7.71469 5.3807L7.6941 5.51603C7.68527 5.56016 7.59996 5.56016 7.59407 5.50426C7.55583 5.32775 7.39697 5.30716 7.29989 5.57781C7.23811 5.63077 7.12043 5.64253 7.10866 5.5631C7.12337 5.3807 7.04982 5.35717 6.90273 5.44248L6.76152 4.37752C6.82036 4.37752 6.87919 4.42165 6.93509 4.35104C6.87625 4.15982 6.74387 3.77149 6.67032 3.74207C6.63796 3.70088 6.60854 3.72736 6.56147 3.73913C6.48498 3.76266 6.41438 3.82738 6.43791 3.95683C6.52617 4.5099 6.58501 4.93059 6.6762 5.48661C6.69091 5.54839 6.63796 5.63371 6.56735 5.62488C6.44968 5.54545 6.42026 5.38365 6.21433 5.38953C6.06723 5.38953 5.90249 5.55133 5.88189 5.70431C5.85542 5.82787 5.84659 5.96026 5.88189 6.06617C5.98486 6.18973 6.10842 6.17796 6.21727 6.15148C6.30553 6.11324 6.37907 6.02498 6.41143 6.04557C6.43203 6.07205 6.41438 6.36624 5.99074 6.58982C5.7348 6.7075 5.52887 6.73103 5.42002 6.52216C5.35235 6.38977 5.4259 5.89259 5.25527 6.00733Z" fill="white"/>
<path fill-rule="evenodd" clip-rule="evenodd" d="M7.3646 4.70703C7.46168 4.67173 7.93238 4.13042 7.93238 4.13042L7.86178 4.07158C7.8353 4.05099 7.83824 4.02745 7.86178 4.00686C7.97945 3.93625 7.94121 3.78916 7.88237 3.71855C7.84242 3.69908 7.79848 3.68921 7.75405 3.68972C7.70961 3.69023 7.66591 3.70111 7.62642 3.7215C7.54405 3.80093 7.5264 3.92743 7.59112 4.00392C7.6529 4.03334 7.71468 4.09806 7.6735 4.13336C7.47933 4.33929 6.95273 4.69526 7.01451 4.70703C7.02628 4.72468 7.35283 4.72468 7.36165 4.70703H7.3646ZM4.51096 6.61926C4.33444 6.90168 4.31973 7.32237 4.41682 7.44888C4.46977 7.50771 4.55509 7.53419 4.61687 7.5136C4.72866 7.46653 4.77867 7.24 4.75219 7.16057C4.71395 7.10173 4.68453 7.09291 4.64628 7.13998C4.5698 7.29884 4.53743 7.18999 4.52861 7.10173C4.52018 6.95226 4.52807 6.80232 4.55214 6.65456C4.57274 6.531 4.55214 6.56631 4.51096 6.61926ZM12.0746 6.16915C11.9039 5.79847 11.6656 5.43368 11.5921 5.29541C11.3628 4.93298 11.1195 4.57968 10.8625 4.23633C10.6801 4.01863 11.1626 4.32753 10.8037 3.89213L10.5418 3.67148C10.483 3.6303 10.3418 3.55381 10.3183 3.67737C10.3065 3.78916 10.3124 3.848 10.33 3.9392C10.3447 3.99803 10.433 4.101 10.4771 4.15984C11.0802 4.9587 11.61 5.8104 12.0599 6.70458C12.1364 6.66633 12.1187 6.23093 12.0746 6.16915Z" fill="white"/>
<path fill-rule="evenodd" clip-rule="evenodd" d="M11.3244 7.39883C11.2891 7.43708 11.4068 7.59888 11.5598 7.59888C11.8128 7.56946 12.0364 7.42825 12.2423 7.05169C12.326 6.92642 12.3794 6.7834 12.3982 6.63394C12.4231 5.91977 12.3659 5.2051 12.2276 4.50401C12.2188 4.44517 12.2276 4.37457 12.2335 4.35692C12.2511 4.33632 12.307 4.35691 12.3364 4.3069C12.3806 4.26277 12.2188 3.89504 12.1305 3.75677C12.1011 3.69205 12.0864 3.65086 12.0334 3.76265C11.9695 3.88601 11.9391 4.02396 11.9452 4.16275C12.0658 5.00119 12.104 5.73372 12.1805 6.57216C12.1893 6.65453 12.1776 6.77221 12.1217 6.81928C11.8997 7.06644 11.628 7.26393 11.3244 7.39883ZM14.7517 7.39589C14.5693 7.5018 14.5693 7.62242 14.7164 7.62536C14.9694 7.59594 15.2695 7.57535 15.4754 7.26351C15.5482 7.11663 15.5902 6.95647 15.599 6.7928C15.636 6.08963 15.5896 5.38454 15.4607 4.69229C15.4548 4.63345 15.4284 4.49518 15.4372 4.47753C15.4548 4.43635 15.5372 4.48047 15.5666 4.4334C15.6078 4.38928 15.3519 4.05978 15.2607 3.91857C15.2313 3.85385 15.2195 3.81266 15.1636 3.92446C15.1043 4.04894 15.0858 4.18894 15.1106 4.32455C15.246 5.23654 15.346 5.91906 15.3666 6.72514C15.3548 6.80163 15.3519 6.84282 15.3166 6.9399C15.2371 7.03992 15.1489 7.16937 15.0665 7.23115C14.9841 7.28998 14.8076 7.34882 14.7517 7.39589Z" fill="white"/>
<path fill-rule="evenodd" clip-rule="evenodd" d="M14.887 6.58102C14.887 6.36626 14.89 6.18386 14.8841 6.02206C14.8822 5.88503 14.8522 5.74985 14.7958 5.6249C14.7429 5.50429 14.7752 5.4072 14.7488 5.27776C14.7252 5.14832 14.7311 4.95415 14.6958 4.80412C14.684 4.74528 14.6546 4.55406 14.6635 4.53346C14.6782 4.49228 14.7341 4.53346 14.7635 4.48639C14.8047 4.44226 14.6164 3.95685 14.5222 3.81858C14.4899 3.7568 14.4252 3.7774 14.3516 3.87742C14.2781 3.94508 14.3045 4.09512 14.334 4.23927C14.5134 5.1895 14.6517 6.05148 14.6223 6.95464C14.6105 7.03113 14.887 6.72517 14.887 6.58102ZM13.5426 5.40426C13.4279 5.39838 13.1896 5.17774 13.119 5.05124C13.1074 5.02032 13.1025 4.98732 13.1045 4.95437C13.1065 4.92143 13.1155 4.88928 13.1307 4.86001C13.1749 4.83059 13.2396 4.80117 13.2896 4.83059C13.2896 4.83059 13.3396 4.9012 13.3308 4.91002C13.3896 4.93944 13.419 4.92473 13.4249 4.89826C13.4279 4.85413 13.4073 4.82765 13.4073 4.78058C13.4337 4.64525 13.5838 4.62466 13.6426 4.70998C13.6838 4.76293 13.7014 4.87178 13.7044 4.94533C13.7044 4.98357 13.6456 4.93944 13.6073 4.94533C13.5749 4.95709 13.5661 4.99828 13.5632 5.03358C13.5573 5.13067 13.5455 5.28659 13.5426 5.40132V5.40426ZM11.4303 6.81637C11.4597 6.52807 11.4185 6.01323 11.4156 5.8426C11.3999 5.40378 11.3635 4.96594 11.3067 4.53052C11.2714 4.2834 11.4068 4.557 11.3891 4.41284C11.345 4.16867 11.2097 4.00098 11.0479 3.78034C10.9978 3.70679 10.9978 3.69208 10.9184 3.79799C10.8302 3.9951 10.9066 4.13336 10.9302 4.28928C11.0449 4.79529 11.1126 5.26011 11.1449 5.72199C11.1788 6.20178 11.1827 6.68323 11.1567 7.16351C11.245 7.16646 11.3803 7.02525 11.4303 6.81637Z" fill="white"/>
<path fill-rule="evenodd" clip-rule="evenodd" d="M15.2783 6.35452C15.0753 6.01326 14.7723 5.64846 14.6899 5.5102C14.4171 5.12924 14.1306 4.75832 13.8309 4.39816C13.5808 4.13339 13.9486 4.35403 13.7838 4.1481C13.6455 3.99806 13.6073 3.94805 13.4867 3.85685C13.4278 3.81861 13.3925 3.74506 13.369 3.87156C13.3596 3.98113 13.3577 4.09121 13.3631 4.20105C13.3631 4.25106 13.4161 4.34815 13.4631 4.40699C14.0721 5.15717 14.7399 5.92206 15.2753 6.88406C15.3518 6.84581 15.3254 6.41336 15.2753 6.35452H15.2783Z" fill="white"/>
<path fill-rule="evenodd" clip-rule="evenodd" d="M6.11717 5.7279C6.10246 5.75438 6.0701 5.78674 6.08187 5.8191C6.10246 5.84852 6.12306 5.85735 6.15836 5.85735C6.19072 5.85735 6.23779 5.86617 6.24662 5.84852C6.26427 5.82793 6.27604 5.78968 6.26427 5.75144C6.22897 5.66318 6.13483 5.69848 6.11717 5.7279Z" fill="#1BA400"/>
<path fill-rule="evenodd" clip-rule="evenodd" d="M12.9305 10.6643C13.2012 10.6761 13.3777 10.679 13.616 10.7055L13.8984 10.6761C14.2102 10.6467 14.222 11.1203 14.222 11.1203C14.222 11.3998 14.1132 11.4145 13.9749 11.4439C13.8955 11.4557 13.8572 11.3969 13.8131 11.338C13.7466 11.3594 13.6757 11.3634 13.6072 11.3498C13.4924 11.3439 13.3806 11.3439 13.2688 11.3351C13.1512 11.3263 13.0864 11.3498 12.9658 11.338C12.9423 11.3763 12.907 11.4292 12.8364 11.4145C12.7775 11.4057 12.704 11.238 12.7246 11.1056C12.7687 11.0115 12.754 11.0438 12.754 11.0027C11.6479 10.9732 10.5329 10.9232 9.45026 10.9379C8.60299 10.9409 7.76749 10.9762 6.92905 11.0115C6.48188 11.0056 6.14062 10.935 5.90527 10.5908C5.92881 10.5908 7.04673 10.6526 7.37328 10.632C7.97637 10.6261 8.52944 10.5761 9.1443 10.5584C10.3564 10.579 11.5596 10.579 12.7717 10.6643C12.654 10.5849 12.654 10.3996 12.8305 10.3525C12.8452 10.3407 12.854 10.4437 12.8805 10.4408C13.0247 10.4319 12.9599 10.6261 12.9305 10.6643ZM8.05874 3.98035C7.87634 4.50401 8.16465 5.08062 8.3647 5.02473C8.51179 5.08356 8.60005 4.80703 8.65889 4.50695C8.70301 4.42164 8.73243 4.41281 8.75303 4.45694C8.74714 4.85704 8.78245 4.94824 8.88541 5.06885C9.11488 5.24537 9.3061 5.09239 9.32081 5.07768L9.49733 4.89822C9.53851 4.8541 9.59147 4.8541 9.64736 4.8894C9.70326 4.93941 9.69443 5.02473 9.81211 5.08356C9.91213 5.12475 10.121 5.09533 10.171 5.01002C10.2357 4.89528 10.2534 4.85704 10.2828 4.81585C10.3299 4.75407 10.4093 4.78055 10.4093 4.80114C10.4005 4.83645 10.3534 4.86881 10.3858 4.93353C10.4446 4.97471 10.4564 4.94824 10.4887 4.93941C10.6064 4.88057 10.6947 4.62757 10.6947 4.62757C10.6976 4.53343 10.6447 4.53931 10.6094 4.56285L10.5182 4.62463C10.4593 4.63345 10.3505 4.6717 10.2946 4.58638C10.2387 4.48636 10.2387 4.34221 10.1975 4.23924C10.1975 4.23336 10.121 4.07744 10.1916 4.06861C10.2269 4.07449 10.3005 4.09509 10.3122 4.03331C10.3475 3.97153 10.2357 3.79796 10.1563 3.7097C10.0886 3.63615 9.99451 3.62733 9.90331 3.70382C9.83859 3.76265 9.84741 3.82738 9.83564 3.88916C9.82448 3.93343 9.824 3.97972 9.83423 4.02422C9.84446 4.06871 9.86511 4.11014 9.89448 4.1451C9.9592 4.26866 10.0739 4.43046 10.0357 4.65993C10.0357 4.65993 9.96803 4.76584 9.85035 4.75113C9.80034 4.7423 9.72091 4.72171 9.67972 4.40399C9.64736 4.16864 9.68561 3.83326 9.58558 3.67734C9.54734 3.58026 9.52086 3.48906 9.4326 3.65086C9.40907 3.71558 9.3061 3.81267 9.37965 4.00977C9.44925 4.18739 9.46958 4.38051 9.43849 4.56873C9.39436 4.63345 9.38553 4.65405 9.32964 4.71583C9.25315 4.80408 9.16783 4.78055 9.10311 4.74819C9.04427 4.70994 8.9972 4.68935 8.96779 4.55697C8.97367 4.35103 8.98544 4.01271 8.94719 3.94211C8.8913 3.83032 8.8001 3.8715 8.76185 3.90681C8.58685 4.10122 8.46967 4.34068 8.42353 4.59815C8.37058 4.76878 8.31468 4.71877 8.27644 4.65111C8.1823 4.56285 8.17347 3.86562 8.05874 3.98035Z" fill="white"/>
<path fill-rule="evenodd" clip-rule="evenodd" d="M8.61193 5.12186C8.69725 5.06302 8.659 5.02183 8.78256 5.14539C8.94205 5.42758 9.03464 5.7426 9.05322 6.06621C9.04733 6.1427 9.10029 6.18977 9.12677 6.17211C9.13853 5.9956 9.57099 5.74848 9.96815 5.71318C10.027 5.69847 9.99757 5.58373 10.0064 5.5249C9.98286 5.30425 10.13 5.10421 10.3359 5.0895C10.6183 5.13068 10.7124 5.28072 10.7183 5.50725C10.686 5.94853 10.227 6.02208 9.97109 6.05738C9.93285 6.07209 9.91519 6.08974 9.97109 6.11033L11.0478 6.11622L11.1037 6.14564C11.1096 6.17506 11.0861 6.15152 11.0449 6.22213C10.9856 6.32618 10.9486 6.44137 10.936 6.56044C10.6154 6.66635 10.2829 6.70754 9.94755 6.75167C9.82988 6.81051 9.77104 6.88994 9.79458 6.97819C9.83576 7.07528 10.0946 7.1753 10.0946 7.17824C10.1447 7.20766 10.2006 7.28121 10.0799 7.43125C9.55628 7.40771 9.14736 7.18413 9.00615 6.86934C8.96496 6.83698 8.91789 6.86934 8.88847 6.91053C8.68254 7.1753 8.48249 7.41065 8.13241 7.5401C7.92647 7.59305 7.71171 7.50774 7.61169 7.37241C7.54403 7.29298 7.54697 7.20766 7.52343 7.19001C7.4087 7.24002 6.43787 7.65189 6.56143 7.45772C6.79679 7.20766 7.20865 7.01938 7.56756 6.77226C7.59404 6.68695 7.64111 6.40452 7.78232 6.31333C7.79115 6.31333 7.76173 6.47807 7.76467 6.54868C7.76467 6.60752 7.75878 6.62811 7.77055 6.6134C7.79703 6.59869 8.23243 6.25449 8.27067 6.14858C8.31186 6.08974 8.2795 5.93676 8.2795 5.93088C8.19713 5.71906 8.08239 5.70141 8.04121 5.5955C8.00296 5.45723 8.02061 5.29837 8.10004 5.2513C8.17065 5.18952 8.25302 5.1954 8.33245 5.26601C8.42071 5.34544 8.4972 5.50136 8.52074 5.6161C8.50603 5.66022 8.40306 5.58668 8.37364 5.60727C8.43026 5.67234 8.46792 5.75172 8.48249 5.83674C8.54133 6.07797 8.52368 6.17211 8.46484 6.32804C8.27067 6.73696 8.02356 6.85758 7.80586 7.01056C7.79997 7.01056 7.79703 7.11352 7.87646 7.16942C7.90588 7.19884 8.02061 7.21355 8.153 7.16942C8.43583 7.01235 8.66452 6.7734 8.80904 6.48396C8.83404 6.26371 8.80992 6.04067 8.73844 5.83085C8.65312 5.63375 8.5531 5.35427 8.5531 5.34838C8.55015 5.22482 8.55898 5.18364 8.61193 5.12186ZM5.7936 3.98628C5.91716 4.04512 6.15251 4.01865 6.14074 3.8186L6.13486 3.7274C6.11132 3.66856 6.04072 3.68327 6.02601 3.74211C6.02013 3.7627 6.03483 3.79506 6.01718 3.80389C6.00542 3.81565 5.96717 3.80977 5.96717 3.75387C5.96717 3.73622 5.9554 3.71857 5.94658 3.7068C5.94069 3.70092 5.93481 3.70092 5.9201 3.70092C5.90245 3.70092 5.90245 3.70386 5.89362 3.71857C5.89068 3.73328 5.8848 3.74799 5.8848 3.76564C5.8848 3.78624 5.87303 3.79212 5.86126 3.79506C5.84361 3.79506 5.84655 3.79506 5.83184 3.78918C5.82596 3.78035 5.81713 3.77741 5.81713 3.75976L5.80831 3.71269C5.80242 3.70386 5.79066 3.69798 5.77889 3.69504C5.71123 3.69504 5.70534 3.77447 5.71123 3.80389C5.70534 3.80977 5.7024 3.94804 5.7936 3.98628Z" fill="white"/>
<path fill-rule="evenodd" clip-rule="evenodd" d="M9.42667 5.52197C9.55023 5.58081 9.84736 5.54845 9.77381 5.35723L9.76793 5.26309C9.74145 5.20425 9.67379 5.21896 9.65908 5.28074C9.6532 5.29839 9.66791 5.33075 9.64731 5.33958C9.63849 5.35134 9.5973 5.34546 9.60024 5.2925C9.60024 5.27485 9.58848 5.25426 9.57965 5.24249C9.57082 5.23955 9.56788 5.23661 9.55023 5.23661C9.53552 5.23661 9.53552 5.24249 9.5267 5.2572C9.52081 5.27191 9.51787 5.28662 9.51787 5.30427C9.51493 5.32192 9.5061 5.32781 9.49139 5.33369C9.47668 5.33369 9.47963 5.33369 9.46786 5.32487C9.45903 5.31604 9.45021 5.3131 9.45021 5.29839L9.44138 5.25132C9.4355 5.24249 9.42373 5.23661 9.41196 5.23367C9.3443 5.23367 9.33841 5.31016 9.34136 5.33958C9.33841 5.34546 9.33547 5.48667 9.42961 5.52197H9.42667ZM11.5448 4.88652C11.6684 4.94536 11.9008 4.91888 11.892 4.72178L11.8861 4.62764C11.8596 4.5688 11.792 4.58351 11.7772 4.64235C11.7714 4.66294 11.7861 4.6953 11.7655 4.70707C11.7567 4.71589 11.7155 4.71001 11.7184 4.65411C11.7184 4.63646 11.7066 4.61881 11.6978 4.60704C11.689 4.60116 11.686 4.60116 11.6684 4.60116C11.6537 4.60116 11.6537 4.60704 11.6449 4.62175L11.636 4.66588C11.6331 4.68647 11.6243 4.6953 11.6096 4.6953C11.5948 4.6953 11.5978 4.6953 11.586 4.68942C11.5772 4.68059 11.5684 4.67765 11.5684 4.66294C11.5684 4.64823 11.5654 4.62469 11.5595 4.61293C11.5537 4.6041 11.5419 4.60116 11.5301 4.59822C11.4625 4.59822 11.4566 4.67471 11.4595 4.70413C11.4566 4.71001 11.4536 4.84828 11.5478 4.88652H11.5448ZM12.6422 6.48397C12.4274 6.72815 12.5215 7.13119 12.5716 7.21945C12.6422 7.36066 12.6981 7.45186 12.8363 7.52246C12.9628 7.61366 13.0629 7.55776 13.1158 7.49304C13.2423 7.36066 13.2452 7.02234 13.3041 6.95762C13.3453 6.83406 13.4512 6.85465 13.5012 6.91055C13.548 6.97697 13.6107 7.03058 13.6836 7.06647C13.8013 7.16943 13.9425 7.19003 14.0837 7.09589C14.1778 7.03999 14.2396 6.97233 14.2955 6.83406C14.3543 6.66931 14.3249 5.90442 14.3102 5.45137L14.1867 4.81886C14.1867 4.81298 14.1719 4.51879 14.1572 4.45112C14.1572 4.4217 14.1484 4.41288 14.1778 4.41582C14.2102 4.44524 14.2131 4.44524 14.2367 4.45406C14.2661 4.45995 14.2955 4.40405 14.2749 4.35698L13.9807 3.80979C13.9572 3.78625 13.9248 3.76272 13.8866 3.81567C13.864 3.8361 13.8461 3.86109 13.8339 3.88898C13.8217 3.91688 13.8156 3.94704 13.816 3.97748C13.8248 4.10692 13.8454 4.23931 13.8542 4.36875L13.9719 5.03362C14.0101 5.50432 14.019 5.89265 14.0572 6.3663C14.0513 6.56635 13.9895 6.73992 13.9307 6.76639C13.9307 6.76639 13.8425 6.81641 13.7836 6.76051C13.7395 6.74286 13.5659 6.46926 13.5659 6.46926C13.4777 6.38983 13.4188 6.41043 13.357 6.46926C13.1805 6.63989 13.104 6.95173 12.9834 7.16943C12.954 7.21945 12.8657 7.25769 12.7716 7.16649C12.5304 6.83406 12.6716 6.36335 12.6422 6.48397ZM11.6007 3.72742C11.7125 3.77154 11.789 3.99807 11.7655 4.10986C11.7419 4.24225 11.6831 4.38934 11.6419 4.37169C11.5948 4.35404 11.6713 4.23636 11.6272 4.1128C11.6037 4.03043 11.4507 3.88334 11.4683 3.84215C11.4389 3.75095 11.5331 3.70976 11.6007 3.72447V3.72742Z" fill="white"/>
<path fill-rule="evenodd" clip-rule="evenodd" d="M13.0013 6.61926C13.0219 6.34861 12.9837 6.18386 12.9778 6.025C12.9719 5.86614 12.7983 4.65408 12.763 4.5364C12.7189 4.30694 12.9307 4.50698 12.9072 4.37166C12.8336 4.20691 12.6542 3.96273 12.5983 3.81858C12.563 3.75974 12.5777 3.70091 12.5012 3.80387C12.4354 3.9844 12.4122 4.17773 12.4336 4.36871C12.6159 5.31895 12.8013 6.10737 12.7719 7.01054C12.8601 7.01054 12.9572 6.81343 13.0013 6.61926ZM14.8959 4.10983C14.9989 4.15984 15.0577 4.44226 15.046 4.52169C15.0254 4.66879 14.9724 4.82765 14.9342 4.80706C14.89 4.78941 14.943 4.58936 14.9224 4.52758C14.8989 4.43932 14.7606 4.28046 14.7753 4.23339C14.7459 4.13336 14.8341 4.09218 14.8959 4.10983ZM7.37349 6.10737C7.47058 6.14562 7.52941 6.35155 7.52059 6.41039C7.49705 6.51924 7.44704 6.63692 7.4088 6.61926C7.37055 6.6075 7.41762 6.4604 7.39997 6.41333C7.39115 6.30448 7.25582 6.24564 7.25876 6.19857C7.23522 6.11032 7.3176 6.09561 7.37644 6.10737H7.37349Z" fill="white"/>
<path fill-rule="evenodd" clip-rule="evenodd" d="M9.71516 6.41923C9.83872 6.42511 9.9005 6.52513 9.78577 6.56632C9.66809 6.60457 9.55924 6.63693 9.5563 6.80167C9.60043 7.03702 9.49746 6.95465 9.43862 6.92523C9.36802 6.87228 9.16797 6.74872 9.13855 6.48395C9.13561 6.42217 9.18562 6.36627 9.26505 6.36627C9.38273 6.39863 9.55924 6.40157 9.71516 6.41923Z" fill="#1B9D00"/>
<path fill-rule="evenodd" clip-rule="evenodd" d="M4.78743 3.65974C4.92864 3.70093 4.93746 3.91275 4.92864 3.97453C4.90804 4.08632 4.85803 4.20694 4.82273 4.19223C4.78154 4.17752 4.82273 4.02454 4.80214 3.97747C4.78154 3.91275 4.66093 3.78919 4.67269 3.75389C4.64622 3.68034 4.73153 3.64503 4.78743 3.65974ZM7.6087 4.64822C7.49691 4.70706 7.45572 4.88357 7.52339 4.98948C7.58811 5.07774 7.68813 5.04538 7.6999 5.04538C7.80875 5.05714 7.87347 4.84239 7.87347 4.84239C7.87347 4.84239 7.87642 4.78355 7.74991 4.89828C7.69402 4.90711 7.69108 4.88652 7.67637 4.8571C7.6629 4.80109 7.66806 4.74222 7.69108 4.68941C7.71167 4.63645 7.67048 4.61292 7.6087 4.64822ZM8.43243 3.57737C8.3736 3.61562 8.26474 3.73035 8.2618 3.85979C8.25886 3.93334 8.24415 3.93334 8.29122 3.97747C8.32947 4.03042 8.36183 4.02748 8.43243 3.98924C8.45003 3.97816 8.46512 3.96355 8.47677 3.94633C8.48842 3.92911 8.49636 3.90966 8.5001 3.88921C8.51775 3.80684 8.41184 3.9304 8.40007 3.83626C8.37654 3.748 8.4442 3.7127 8.50892 3.63033C8.50892 3.57149 8.50892 3.53324 8.42949 3.57737H8.43243ZM9.09142 3.69505C9.06548 3.80217 9.04972 3.91151 9.04435 4.0216C9.0267 4.10397 9.1326 4.13927 9.17673 4.03337C9.24734 3.84214 9.24734 3.75977 9.25322 3.68034C9.23263 3.55384 9.14731 3.55678 9.09142 3.69505ZM13.2689 5.82204C13.2807 5.80733 13.8573 5.3984 13.8573 5.3984C13.9161 5.37781 13.9014 5.61022 13.8749 5.60728C13.6961 5.77962 13.4904 5.92171 13.266 6.02797C13.2365 6.04856 13.2101 5.87205 13.266 5.82204H13.2689ZM13.7896 5.81615C13.8926 5.86617 13.9338 6.1633 13.922 6.24273C13.922 6.40159 13.8249 6.52515 13.7837 6.5075C13.7425 6.48691 13.7896 6.31039 13.769 6.24861C13.7455 6.16036 13.6602 5.99855 13.6749 5.95148C13.6455 5.85146 13.7278 5.7985 13.7926 5.81615H13.7896ZM10.377 7.09294C10.4247 7.03724 10.4802 6.98869 10.5418 6.94878C10.6006 6.91936 10.6536 6.97232 10.6506 6.96938C10.6594 7.02821 10.6153 7.07823 10.63 7.15472C10.6418 7.18414 10.6506 7.21944 10.7065 7.20767C10.7977 7.13412 10.883 7.12824 10.9713 7.1253C11.0448 7.12824 11.0478 7.24886 11.0007 7.24886C10.833 7.28416 10.7595 7.33123 10.6389 7.37536C10.58 7.41066 10.5329 7.36653 10.5329 7.36359C10.5329 7.36065 10.5006 7.33123 10.5212 7.25474C10.5271 7.1959 10.5035 7.1606 10.4506 7.16648C10.4153 7.19002 10.38 7.20179 10.3623 7.15766C10.3535 7.12824 10.3505 7.11059 10.377 7.09294ZM14.3956 7.2518C14.4192 7.28122 14.4368 7.31064 14.3927 7.36359L14.2839 7.45773C14.2662 7.48715 14.2544 7.5401 14.3133 7.55481C14.4192 7.58423 14.6663 7.42243 14.6663 7.41949C14.7075 7.39007 14.6957 7.33123 14.6898 7.33123C14.6663 7.30475 14.6134 7.3224 14.578 7.31652C14.5604 7.31652 14.5045 7.31064 14.531 7.25768C14.5507 7.23169 14.5666 7.20295 14.578 7.17237C14.5928 7.13707 14.578 7.11353 14.5192 7.09294C14.4574 7.08117 14.431 7.08705 14.3633 7.09294C14.328 7.09882 14.3162 7.11647 14.3074 7.1606C14.3103 7.22826 14.3515 7.22532 14.3956 7.24886V7.2518Z" fill="white"/>
<path fill-rule="evenodd" clip-rule="evenodd" d="M10.3977 5.5808C10.383 5.61022 10.3301 5.61022 10.2801 5.5808C10.23 5.55138 10.2006 5.50431 10.2183 5.47783C10.2359 5.45136 10.2859 5.45136 10.3359 5.47783C10.386 5.50431 10.4124 5.55432 10.3977 5.5808ZM7.77944 4.00394C7.75002 4.01277 7.70884 3.98629 7.69119 3.94511C7.67353 3.90392 7.68236 3.86862 7.71178 3.85979C7.7412 3.85097 7.77944 3.88038 7.80004 3.91863C7.82063 3.95687 7.80886 3.99806 7.7765 4.00689L7.77944 4.00394Z" fill="#259F00"/>
<path fill-rule="evenodd" clip-rule="evenodd" d="M12.96 11.0321C13.2365 11.0439 13.4954 11.0321 13.769 11.0468C13.819 11.0909 13.7837 11.1939 13.7514 11.188L13.5219 11.1792C13.519 11.0909 13.2954 11.1056 13.3013 11.1821C13.1806 11.1968 13.0718 11.1792 12.9482 11.1733C12.9129 11.1292 12.9188 11.0498 12.96 11.0321Z" fill="#209000"/>
</g>
<defs>
<clipPath id="clip0_97_31723">
<rect width="20.0833" height="15.0625" fill="white"/>
</clipPath>
</defs>
</svg>
