<svg width="73" height="73" viewBox="0 0 73 73" fill="none" xmlns="http://www.w3.org/2000/svg">
<g clip-path="url(#clip0_210_158912)">
<path d="M27.2557 39.9571C26.1595 38.6416 24.2049 38.4639 22.8895 39.5601C21.5741 40.6562 21.3964 42.6108 22.4925 43.9263L29.1079 51.8649C34.588 58.4412 44.3625 59.3299 50.9388 53.8497C57.5151 48.3696 58.4038 38.5951 52.9236 32.0188L48.2929 26.4618C47.1967 25.1464 45.2421 24.9686 43.9267 26.0648C42.6113 27.161 42.4336 29.1156 43.5297 30.431L42.2067 28.8433C41.1105 27.5278 39.1559 27.3501 37.8405 28.4463C36.5251 29.5425 36.3473 31.4971 37.4435 32.8125L36.1204 31.2248C35.0243 29.9093 33.0697 29.7316 31.7543 30.8278C30.4388 31.924 30.2611 33.8786 31.3573 35.194L21.4343 23.2861C20.3381 21.9707 18.3835 21.793 17.0681 22.8891C15.7526 23.9853 15.5749 25.9399 16.6711 27.2553L33.2095 47.1018L27.2557 39.9571V39.9571Z" stroke="white" stroke-width="2.4864" stroke-miterlimit="10" stroke-linecap="round" stroke-linejoin="round"/>
</g>
<defs>
<clipPath id="clip0_210_158912">
<rect width="51.6682" height="51.6682" fill="white" transform="translate(0 33.0768) rotate(-39.805)"/>
</clipPath>
</defs>
</svg>
