<svg width="19" height="15" viewBox="0 0 19 15" fill="none" xmlns="http://www.w3.org/2000/svg">
<g clip-path="url(#clip0_97_31576)">
<path d="M0 0.238037H19V14.7142H0V0.238037Z" fill="#012169"/>
<path d="M2.22656 0.238037L9.47031 5.69677L16.6844 0.238037H19V2.10788L11.875 7.50629L19 12.8745V14.7142H16.625L9.5 9.31581L2.40469 14.7142H0V12.9047L7.09531 7.53645L0 2.1682V0.238037H2.22656Z" fill="white"/>
<path d="M12.5875 8.71264L19 13.5079V14.7142L10.9547 8.71264H12.5875ZM7.125 9.31581L7.30312 10.3714L1.60312 14.7142H0L7.125 9.31581ZM19 0.238037V0.328513L11.6078 5.99835L11.6672 4.67137L17.5156 0.238037H19ZM0 0.238037L7.09531 5.54597H5.31406L0 1.5047V0.238037Z" fill="#C8102E"/>
<path d="M7.15469 0.238037V14.7142H11.9047V0.238037H7.15469ZM0 5.06343V9.88883H19V5.06343H0Z" fill="white"/>
<path d="M0 6.05867V8.95391H19V6.05867H0ZM8.10469 0.238037V14.7142H10.9547V0.238037H8.10469Z" fill="#C8102E"/>
</g>
<defs>
<clipPath id="clip0_97_31576">
<rect width="19" height="14.4762" fill="white" transform="translate(0 0.238037)"/>
</clipPath>
</defs>
</svg>
