<svg width="38" height="38" viewBox="0 0 38 38" fill="none" xmlns="http://www.w3.org/2000/svg">
<path d="M18.4995 37.0012C13.5918 37.0056 8.8838 35.058 5.41351 31.5877C1.94322 28.1174 -0.00440792 23.4094 7.49117e-06 18.5017V18.1317C0.151311 10.7175 4.71331 4.10933 11.5925 1.33978C18.4716 -1.42977 26.3397 0.174006 31.5861 5.41511C36.8815 10.7061 38.4663 18.6669 35.6011 25.5826C32.7358 32.4982 25.9852 37.0055 18.4995 37.0012ZM18.4995 21.1101L23.2909 25.9015L25.8993 23.293L21.1079 18.5017L25.8993 13.7103L23.2909 11.1019L18.4995 15.8932L13.7081 11.1019L11.0997 13.7103L15.8911 18.5017L11.0997 23.293L13.7081 25.9015L18.4995 21.1119V21.1101Z" fill="#FF0000"/>
</svg>
